<?xml version="1.0" encoding="UTF-8"?>
<!DOCTYPE svg PUBLIC "-//W3C//DTD SVG 1.1//EN" "http://www.w3.org/Graphics/SVG/1.1/DTD/svg11.dtd">
<!-- Creator: CorelDRAW 2017 -->
<svg xmlns="http://www.w3.org/2000/svg" xml:space="preserve" width="297mm" height="210mm" version="1.1" style="shape-rendering:geometricPrecision; text-rendering:geometricPrecision; image-rendering:optimizeQuality; fill-rule:evenodd; clip-rule:evenodd"
viewBox="0 0 29700 21000"
 xmlns:xlink="http://www.w3.org/1999/xlink">
 <defs>
  <style type="text/css">
   <![CDATA[
    .fil7 {fill:#016E8A}
    .fil9 {fill:#017793}
    .fil10 {fill:#04819B}
    .fil12 {fill:#067793}
    .fil5 {fill:#1F809A}
    .fil2 {fill:#2390A7}
    .fil4 {fill:#2391A7}
    .fil0 {fill:#2391A8}
    .fil13 {fill:#2492A8}
    .fil8 {fill:#2493A9}
    .fil14 {fill:#2697AC}
    .fil3 {fill:#6EB8C6}
    .fil15 {fill:#8DC7D2}
    .fil11 {fill:#92C8D3}
    .fil6 {fill:#FDFEFE}
    .fil1 {fill:#FEFEFE}
   ]]>
  </style>
 </defs>
 <g id="Layer_x0020_1">
  <metadata id="CorelCorpID_0Corel-Layer"/>
  <g id="_1574867604448">
   <path class="fil0" d="M23027.74 6332.71c-16.56,2.94 -31.5,-0.8 -44.81,-11.2 56.73,-13.87 109,-36.27 156.83,-67.21 -26.39,-21.67 -56.25,-32.87 -89.62,-33.61 -7.97,-83.08 6.97,-165.23 44.81,-246.45 -4.68,-13.13 -12.16,-24.34 -22.4,-33.61 28.37,-6.92 54.51,-18.12 78.41,-33.61 32.81,65.87 81.35,106.96 145.63,123.23 -29.86,-22.4 -29.86,-44.81 0,-67.21 -14.94,-14.95 -29.86,-29.87 -44.8,-44.81 10.8,-22.59 14.51,-48.74 11.2,-78.42 14.65,26.8 25.85,26.8 33.6,0 -28.22,-19.76 -54.35,-42.17 -78.41,-67.22 -7.46,14.95 -14.95,29.87 -22.41,44.82 -9.47,-32.62 -28.14,-43.82 -56.01,-33.61 21.31,16.09 25.03,34.75 11.2,56.01 -35.49,-30.49 -76.57,-45.44 -123.22,-44.81 3.33,23.58 -0.39,45.97 -11.21,67.22 -11.2,-41.07 -37.34,-67.22 -78.41,-78.42 27.49,-35.56 20.03,-65.44 -22.41,-89.62 35.74,13.82 65.6,6.36 89.62,-22.41 -32.46,-25.02 -69.81,-39.96 -112.02,-44.81 14.94,-29.86 37.35,-52.26 67.22,-67.21 -6.7,-29.58 -10.45,-63.18 -11.21,-100.82 -7.46,14.94 -14.94,29.86 -22.4,44.81 -31.35,-16.29 -64.95,-27.49 -100.82,-33.6 25.18,-5.58 47.59,-16.79 67.21,-33.61 -7.75,-26.8 -18.95,-26.8 -33.6,0 -39.64,-40.69 -65.79,-78.02 -78.43,-112.03 -89.61,22.4 -89.61,44.81 0,67.21 13,47.88 35.41,88.95 67.22,123.23 -26.15,11.2 -44.81,29.87 -56.01,56.02 -4.17,-53.78 -15.37,-106.07 -33.61,-156.84 -14.27,16.09 -14.27,38.49 0,67.21 -25.02,65.81 -54.92,73.27 -89.62,22.41 14.95,-14.95 29.87,-29.87 44.81,-44.81 -22.89,-19.13 -41.56,-41.54 -56.01,-67.22 -2.46,70.49 -32.33,92.9 -89.62,67.22 -7.46,14.94 -14.94,29.86 -22.4,44.81 -20.84,-64.05 -58.17,-116.35 -112.03,-156.84 -21.66,26.4 -32.87,56.26 -33.6,89.63 39.69,10.62 77.05,36.74 112.02,78.41 -49.31,18.49 -90.38,7.28 -123.23,-33.61 -7.46,7.46 -14.94,14.95 -22.4,22.41 -24.18,-42.44 -54.06,-49.9 -89.62,-22.41 -29.24,-62.86 -77.79,-81.55 -145.63,-56.01 22.4,7.46 44.81,14.95 67.21,22.41 -4.32,36.85 -8.06,77.95 -11.2,123.23 -37.84,-62.05 -93.85,-99.39 -168.03,-112.03 -25.57,-20.73 -25.57,-39.41 0,-56.01 -28.37,-6.93 -54.52,-18.12 -78.43,-33.61 -7.46,7.46 -14.93,14.94 -22.39,22.4 12,-43.61 4.52,-88.43 -22.41,-134.42 -3.73,89.87 -22.41,101.06 -56.01,33.61 19.98,-49.65 19.98,-105.67 0,-168.04 -29.94,34.55 -59.82,79.36 -89.62,134.43 -23.58,-3.34 -45.97,0.38 -67.22,11.2 51.24,50.26 54.96,106.26 11.2,168.04 -40.73,-16.65 -81.81,-50.26 -123.22,-100.82 7.46,-7.47 14.94,-14.95 22.4,-22.41 -40.75,-46.06 -55.67,-94.62 -44.81,-145.63 -44.54,17.67 -52,43.8 -22.4,78.41 -87.31,63.75 -79.85,93.61 22.4,89.63 -94.32,102.21 -131.65,83.54 -112.02,-56.02 -38.45,-11.13 -75.8,-18.62 -112.02,-22.4 12.1,-27.96 27.04,-54.11 44.81,-78.42 -65.47,25.05 -132.68,51.19 -201.65,78.42 -2.61,44.44 12.32,81.77 44.81,112.02 -24.24,5.58 -54.11,9.3 -89.62,11.2 24.85,40.62 9.91,59.29 -44.8,56.02 4.9,-26.33 -2.56,-48.74 -22.41,-67.22 -9.21,17.07 -12.93,39.48 -11.2,67.22 -44.34,-46.27 -85.41,-94.82 -123.23,-145.63 59.75,-14.95 59.75,-29.87 0,-44.82 14.95,-7.46 29.87,-14.94 44.81,-22.4 -54.22,-15.39 -102.77,-4.19 -145.63,33.61 -7.46,-29.87 -14.94,-59.75 -22.4,-89.62 -21.96,39.41 -36.91,76.75 -44.82,112.02 -21.66,-26.39 -32.86,-56.26 -33.61,-89.61 -54.15,-10.83 -91.49,15.3 -112.02,78.41 9.08,21.17 24.03,36.12 44.81,44.81 -20.52,8.38 -39.2,19.58 -56.01,33.6 -27.24,-55.16 -42.16,-114.91 -44.81,-179.23 -7.24,59.17 -29.64,111.46 -67.21,156.83 -7.46,-7.46 -14.95,-14.94 -22.41,-22.4 -48.5,24.26 -93.32,54.13 -134.43,89.61 -12.23,-17.67 -27.17,-40.07 -44.8,-67.21 -15.33,44.34 -4.13,81.69 33.6,112.03 -7.46,29.86 -14.94,59.75 -22.4,89.61 -22.41,-11.2 -44.81,-22.4 -67.22,-33.61 1.73,-47.29 9.22,-92.1 22.41,-134.42 -27.83,-6.97 -50.23,4.23 -67.22,33.6 -56.63,-22.35 -56.63,-41.01 0,-56 -55.94,-44.43 -82.09,-25.77 -78.41,56 -24.45,-80.52 -61.78,-155.21 -112.03,-224.04 -6.92,28.36 -18.13,54.51 -33.6,78.41 7.46,7.46 14.94,14.95 22.4,22.41 -22.4,14.95 -44.81,14.95 -67.22,0 61.33,-103 46.41,-117.94 -44.8,-44.81 9.14,64.1 -9.53,67.84 -56.02,11.2 -11.2,11.2 -22.4,22.41 -33.61,33.61 46.38,21.24 79.99,54.85 100.83,100.82 18.17,-32.71 36.85,-40.17 56.01,-22.41 -13.4,29.02 -24.6,58.89 -33.6,89.63 -10.11,-54.43 -28.79,-58.17 -56.02,-11.21 25.86,20.48 22.11,39.14 -11.2,56.01 -41.22,-29.86 -52.43,-26.12 -33.61,11.2 -33.38,36.62 -63.27,29.16 -89.62,-22.39 14.03,-16.81 25.23,-35.49 33.61,-56.02 23.5,22.79 49.65,26.53 78.42,11.2 -29.87,-14.94 -59.75,-29.86 -89.62,-44.81 49.49,-21.44 45.77,-47.59 -11.2,-78.41 -17.1,57.42 -28.3,57.42 -33.61,0 31.25,-11.52 53.66,-45.13 67.22,-100.82 28.76,-15.33 54.91,-11.58 78.41,11.19 3.74,-7.46 7.46,-14.93 11.2,-22.39 -19.63,-16.83 -42.03,-28.03 -67.22,-33.61 7.46,-7.46 14.95,-14.95 22.41,-22.41 147.94,-26.06 297.31,-41 448.1,-44.81 -3640.8,-3.74 -7277.83,-14.94 -10911.12,-33.6 3689.35,7.46 7378.67,0 11067.95,-22.41 -2.77,-13.6 -10.23,-21.06 -22.4,-22.4 -1843.76,-1058.34 -3684.69,-2126.3 -5522.78,-3203.88 -1761.96,1039.62 -3528.21,2070.24 -5298.73,3091.85 121.78,-100 263.67,-193.33 425.7,-280.06 -21.27,-13.83 -39.93,-10.1 -56.01,11.21 -25.48,-19.36 -55.35,-41.77 -89.63,-67.22 20.04,128.49 5.09,135.95 -44.8,22.4 -14.95,14.95 -29.87,29.87 -44.81,44.82 -2.96,-60.28 11.99,-112.54 44.81,-156.84 -29.87,0 -59.76,0 -89.62,0 -9.39,-26.26 -24.31,-48.66 -44.81,-67.22 -7.46,37.35 -14.94,74.68 -22.4,112.03 -6.5,-54.94 -21.43,-107.21 -44.82,-156.83 -14.94,29.87 -29.86,59.75 -44.8,89.61 -7.47,-22.4 -14.95,-44.81 -22.41,-67.21 -29.58,6.7 -63.18,10.45 -100.82,11.21 30.54,47.69 23.05,58.89 -22.4,33.6 -24.29,26.11 -42.95,55.97 -56.02,89.62 -14.43,-68.27 -48.04,-124.28 -100.82,-168.03 29.87,-29.87 59.75,-59.76 89.62,-89.62 -54.18,9.63 -106.44,13.37 -156.84,11.19 -27.13,-17.33 -27.13,-35.99 0,-56 -28.76,-15.33 -54.91,-11.59 -78.41,11.2 -41.29,-72.53 -97.3,-83.73 -168.04,-33.61 21.49,60.27 6.55,67.75 -44.81,22.41 11.7,-12.57 19.16,-27.52 22.41,-44.82 -20.34,-98.8 -80.1,-139.87 -179.24,-123.22 3.34,23.57 -0.38,45.97 -11.2,67.22 -14.94,-29.87 -29.86,-59.76 -44.81,-89.63 -7.46,22.41 -14.95,44.82 -22.41,67.22 -7.5,-44.88 -26.16,-82.22 -56,-112.02 1966.66,-1133.82 3930.81,-2272.72 5892.45,-3416.73 238.99,-104.55 477.95,-104.55 716.94,0 2690.01,1561.48 5378.59,3122.35 8065.72,4682.59 235.39,228.73 283.91,493.87 145.63,795.37 -89.91,153.57 -220.6,250.64 -392.08,291.26z"/>
  </g>
  <g id="_1574867604192">
   <path class="fil1" d="M20383.98 5010.84c-3670.62,22.4 -7345,29.86 -11023.14,22.4 71.07,-39.26 138.28,-84.06 201.63,-134.43 1770.52,-1021.61 3536.77,-2052.23 5298.73,-3091.85 1838.09,1077.58 3679.02,2145.54 5522.78,3203.88z"/>
  </g>
  <g id="_1574867604576">
   <path class="fil2" d="M8599.08 3980.22c29.84,29.8 48.5,67.14 56,112.02 7.46,-22.4 14.95,-44.81 22.41,-67.22 14.95,29.87 29.87,59.76 44.81,89.63 10.82,-21.25 14.54,-43.65 11.2,-67.22 99.14,-16.65 158.9,24.42 179.24,123.22 -3.25,17.3 -10.71,32.25 -22.41,44.82 51.36,45.34 66.3,37.86 44.81,-22.41 70.74,-50.12 126.75,-38.92 168.04,33.61 23.5,-22.79 49.65,-26.53 78.41,-11.2 -27.13,20.01 -27.13,38.67 0,56 50.4,2.18 102.66,-1.56 156.84,-11.19 -29.87,29.86 -59.75,59.75 -89.62,89.62 52.78,43.75 86.39,99.76 100.82,168.03 13.07,-33.65 31.73,-63.51 56.02,-89.62 45.45,25.29 52.94,14.09 22.4,-33.6 37.64,-0.76 71.24,-4.51 100.82,-11.21 7.46,22.4 14.94,44.81 22.41,67.21 14.94,-29.86 29.86,-59.74 44.8,-89.61 23.39,49.62 38.32,101.89 44.82,156.83 7.46,-37.35 14.94,-74.68 22.4,-112.03 20.5,18.56 35.42,40.96 44.81,67.22 29.86,0 59.75,0 89.62,0 -32.82,44.3 -47.77,96.56 -44.81,156.84 14.94,-14.95 29.86,-29.87 44.81,-44.82 49.89,113.55 64.84,106.09 44.8,-22.4 34.28,25.45 64.15,47.86 89.63,67.22 16.08,-21.31 34.74,-25.04 56.01,-11.21 -162.03,86.73 -303.92,180.06 -425.7,280.06 -63.35,50.37 -130.56,95.17 -201.63,134.43 -14.95,0 -22.41,7.46 -22.41,22.41 3633.29,18.66 7270.32,29.86 10911.12,33.6 -150.79,3.81 -300.16,18.75 -448.1,44.81 -7.46,7.46 -14.95,14.95 -22.41,22.41 25.19,5.58 47.59,16.78 67.22,33.61 -3.74,7.46 -7.46,14.93 -11.2,22.39 -23.5,-22.77 -49.65,-26.52 -78.41,-11.19 -13.56,55.69 -35.97,89.3 -67.22,100.82 5.31,57.42 16.51,57.42 33.61,0 56.97,30.82 60.69,56.97 11.2,78.41 29.87,14.95 59.75,29.87 89.62,44.81 -28.77,15.33 -54.92,11.59 -78.42,-11.2 -8.38,20.53 -19.58,39.21 -33.61,56.02 26.35,51.55 56.24,59.01 89.62,22.39 -18.82,-37.32 -7.61,-41.06 33.61,-11.2 33.31,-16.87 37.06,-35.53 11.2,-56.01 27.23,-46.96 45.91,-43.22 56.02,11.21 9,-30.74 20.2,-60.61 33.6,-89.63 -19.16,-17.76 -37.84,-10.3 -56.01,22.41 -20.84,-45.97 -54.45,-79.58 -100.83,-100.82 11.21,-11.2 22.41,-22.41 33.61,-33.61 46.49,56.64 65.16,52.9 56.02,-11.2 91.21,-73.13 106.13,-58.19 44.8,44.81 22.41,14.95 44.82,14.95 67.22,0 -7.46,-7.46 -14.94,-14.95 -22.4,-22.41 15.47,-23.9 26.68,-50.05 33.6,-78.41 50.25,68.83 87.58,143.52 112.03,224.04 -3.68,-81.77 22.47,-100.43 78.41,-56 -56.63,14.99 -56.63,33.65 0,56 16.99,-29.37 39.39,-40.57 67.22,-33.6 -13.19,42.32 -20.68,87.13 -22.41,134.42 22.41,11.21 44.81,22.41 67.22,33.61 7.46,-29.86 14.94,-59.75 22.4,-89.61 -37.73,-30.34 -48.93,-67.69 -33.6,-112.03 17.63,27.14 32.57,49.54 44.8,67.21 41.11,-35.48 85.93,-65.35 134.43,-89.61 7.46,7.46 14.95,14.94 22.41,22.4 37.57,-45.37 59.97,-97.66 67.21,-156.83 2.65,64.32 17.57,124.07 44.81,179.23 16.81,-14.02 35.49,-25.22 56.01,-33.6 -20.78,-8.69 -35.73,-23.64 -44.81,-44.81 20.53,-63.11 57.87,-89.24 112.02,-78.41 0.75,33.35 11.95,63.22 33.61,89.61 7.91,-35.27 22.86,-72.61 44.82,-112.02 7.46,29.87 14.94,59.75 22.4,89.62 42.86,-37.8 91.41,-49 145.63,-33.61 -14.94,7.46 -29.86,14.94 -44.81,22.4 59.75,14.95 59.75,29.87 0,44.82 37.82,50.81 78.89,99.36 123.23,145.63 -1.73,-27.74 1.99,-50.15 11.2,-67.22 19.85,18.48 27.31,40.89 22.41,67.22 54.71,3.27 69.65,-15.4 44.8,-56.02 35.51,-1.9 65.38,-5.62 89.62,-11.2 -32.49,-30.25 -47.42,-67.58 -44.81,-112.02 68.97,-27.23 136.18,-53.37 201.65,-78.42 -17.77,24.31 -32.71,50.46 -44.81,78.42 36.22,3.78 73.57,11.27 112.02,22.4 -19.63,139.56 17.7,158.23 112.02,56.02 -102.25,3.98 -109.71,-25.88 -22.4,-89.63 -29.6,-34.61 -22.14,-60.74 22.4,-78.41 -10.86,51.01 4.06,99.57 44.81,145.63 -7.46,7.46 -14.94,14.94 -22.4,22.41 41.41,50.56 82.49,84.17 123.22,100.82 43.76,-61.78 40.04,-117.78 -11.2,-168.04 21.25,-10.82 43.64,-14.54 67.22,-11.2 29.8,-55.07 59.68,-99.88 89.62,-134.43 19.98,62.37 19.98,118.39 0,168.04 33.6,67.45 52.28,56.26 56.01,-33.61 26.93,45.99 34.41,90.81 22.41,134.42 7.46,-7.46 14.93,-14.94 22.39,-22.4 23.91,15.49 50.06,26.68 78.43,33.61 -25.57,16.6 -25.57,35.28 0,56.01 74.18,12.64 130.19,49.98 168.03,112.03 3.14,-45.28 6.88,-86.38 11.2,-123.23 -22.4,-7.46 -44.81,-14.95 -67.21,-22.41 67.84,-25.54 116.39,-6.85 145.63,56.01 35.56,-27.49 65.44,-20.03 89.62,22.41 7.46,-7.46 14.94,-14.95 22.4,-22.41 32.85,40.89 73.92,52.1 123.23,33.61 -34.97,-41.67 -72.33,-67.79 -112.02,-78.41 0.73,-33.37 11.94,-63.23 33.6,-89.63 53.86,40.49 91.19,92.79 112.03,156.84 7.46,-14.95 14.94,-29.87 22.4,-44.81 57.29,25.68 87.16,3.27 89.62,-67.22 14.45,25.68 33.12,48.09 56.01,67.22 -14.94,14.94 -29.86,29.86 -44.81,44.81 34.7,50.86 64.6,43.4 89.62,-22.41 -14.27,-28.72 -14.27,-51.12 0,-67.21 18.24,50.77 29.44,103.06 33.61,156.84 11.2,-26.15 29.86,-44.82 56.01,-56.02 -31.81,-34.28 -54.22,-75.35 -67.22,-123.23 -89.61,-22.4 -89.61,-44.81 0,-67.21 12.64,34.01 38.79,71.34 78.43,112.03 14.65,-26.8 25.85,-26.8 33.6,0 -19.62,16.82 -42.03,28.03 -67.21,33.61 35.87,6.11 69.47,17.31 100.82,33.6 7.46,-14.95 14.94,-29.87 22.4,-44.81 0.76,37.64 4.51,71.24 11.21,100.82 -29.87,14.95 -52.28,37.35 -67.22,67.21 42.21,4.85 79.56,19.79 112.02,44.81 -24.02,28.77 -53.88,36.23 -89.62,22.41 42.44,24.18 49.9,54.06 22.41,89.62 41.07,11.2 67.21,37.35 78.41,78.42 10.82,-21.25 14.54,-43.64 11.21,-67.22 46.65,-0.63 87.73,14.32 123.22,44.81 13.83,-21.26 10.11,-39.92 -11.2,-56.01 27.87,-10.21 46.54,0.99 56.01,33.61 7.46,-14.95 14.95,-29.87 22.41,-44.82 24.06,25.05 50.19,47.46 78.41,67.22 -7.75,26.8 -18.95,26.8 -33.6,0 3.31,29.68 -0.4,55.83 -11.2,78.42 14.94,14.94 29.86,29.86 44.8,44.81 -29.86,22.4 -29.86,44.81 0,67.21 -64.28,-16.27 -112.82,-57.36 -145.63,-123.23 -23.9,15.49 -50.04,26.69 -78.41,33.61 10.24,9.27 17.72,20.48 22.4,33.61 -37.84,81.22 -52.78,163.37 -44.81,246.45 33.37,0.74 63.23,11.94 89.62,33.61 -47.83,30.94 -100.1,53.34 -156.83,67.21 13.31,10.4 28.25,14.14 44.81,11.2 -5455.56,26.13 -10914.84,29.87 -16377.88,11.21 -331.41,-128.51 -477.04,-371.23 -436.9,-728.16 35.48,-156.85 113.89,-287.54 235.26,-392.08 721.94,-409.4 1438.9,-823.89 2150.86,-1243.46z"/>
  </g>
  <g id="_1574867605600">
   <path class="fil3" d="M20383.98 5010.84c12.17,1.34 19.63,8.8 22.4,22.4 -3689.28,22.41 -7378.6,29.87 -11067.95,22.41 0,-14.95 7.46,-22.41 22.41,-22.41 3678.14,7.46 7352.52,0 11023.14,-22.4z"/>
  </g>
  <g id="_1574867604096">
   <path class="fil4" d="M22153.95 7049.67c-294.84,18.61 -593.59,29.82 -896.19,33.61 -59.46,26.3 -96.79,59.9 -112.02,100.82 -18.11,-6.9 -33.05,-18.11 -44.81,-33.61 27.13,-20.01 27.13,-38.67 0,-56.02 -16.82,19.63 -28.03,42.04 -33.61,67.22 -7.46,-14.94 -14.94,-29.86 -22.4,-44.81 -73,50.12 -84.2,106.14 -33.61,168.04 31.35,13.33 61.21,9.58 89.62,-11.21 21.91,10.69 40.57,25.61 56.01,44.82 28.7,-25.7 36.17,-18.22 22.41,22.4 -98.99,24.62 -102.73,58.23 -11.21,100.82 -15.48,23.91 -26.68,50.06 -33.61,78.42 -7.46,-22.41 -14.93,-44.81 -22.39,-67.21 -27.86,18.73 -54,11.27 -78.43,-22.41 18.51,-21.31 22.23,-43.71 11.21,-67.22 -72.78,81.2 -162.39,133.47 -268.86,156.84 -28.25,-5.8 -50.66,-20.75 -67.21,-44.81 -18.28,71.92 -55.61,131.67 -112.03,179.23 -29.87,-29.86 -59.75,-59.75 -89.62,-89.61 -11.2,11.2 -22.4,22.4 -33.61,33.61 18.76,22.65 26.22,48.79 22.41,78.41 -22.41,0 -44.81,0 -67.21,0 3.34,-23.57 -0.38,-45.97 -11.2,-67.21 -7.46,29.86 -14.95,59.75 -22.41,89.62 -19.32,-35.56 -34.26,-72.91 -44.81,-112.03 -31.34,16.29 -64.95,27.49 -100.82,33.61 92.93,10.26 111.6,51.33 56.01,123.23 -52.16,-48.18 -82.03,-107.93 -89.62,-179.24 -14.95,29.86 -29.87,29.86 -44.8,0 -7.11,40.35 -22.06,47.81 -44.82,22.4 -0.76,-37.64 -4.5,-71.25 -11.2,-100.82 -43.49,-6.81 -80.82,-25.48 -112.02,-56.01 -46.49,83.95 -98.76,87.67 -156.84,11.2 31.34,-13.33 61.21,-9.59 89.62,11.21 19.85,-18.49 27.32,-40.9 22.41,-67.22 -54.38,0.51 -106.65,11.72 -156.84,33.61 12.35,31.32 19.81,61.2 22.41,89.61 -11.21,3.75 -22.41,7.46 -33.61,11.21 -41.16,-39.05 -78.51,-83.86 -112.02,-134.43 -23.39,25.16 -38.31,55.02 -44.81,89.62 -26.98,-21.76 -38.18,-44.16 -33.61,-67.22 -27.58,25.79 -27.58,51.91 0,78.42 -24.49,30.58 -54.35,38.07 -89.62,22.4 7.46,-22.4 14.94,-44.8 22.4,-67.21 -14.94,-14.94 -29.86,-14.94 -44.8,0 -14.95,29.87 -37.35,52.28 -67.22,67.21 46.35,7.27 53.81,25.95 22.41,56.02 25.78,27.58 51.91,27.58 78.41,0 51.02,38.89 62.22,83.7 33.61,134.43 -27.33,-27.13 -53.48,-27.13 -78.41,0 -20.5,-18.56 -35.42,-40.96 -44.82,-67.22 -45.38,11.63 -90.2,19.11 -134.42,22.4 -14.95,-14.94 -29.87,-29.86 -44.82,-44.8 -32.45,24.96 -62.35,47.36 -89.61,67.21 -26.62,-23.81 -37.82,-53.7 -33.61,-89.62 -42.34,4.55 -75.95,-10.37 -100.82,-44.81 -7.46,7.46 -14.95,14.95 -22.41,22.41 -7.46,-29.87 -14.94,-59.76 -22.4,-89.62 -14.94,-29.86 -29.87,-29.86 -44.81,0 -20.5,-18.55 -35.42,-40.96 -44.81,-67.22 -15.44,19.21 -34.1,34.13 -56.02,44.82 -44.35,4.41 -89.16,-10.54 -134.42,-44.82 -29.11,13.22 -47.76,35.63 -56.01,67.22 -28.89,-118.39 -58.75,-118.39 -89.62,0 -23.75,5.51 -49.9,5.51 -78.42,0 -27.58,25.79 -27.58,51.91 0,78.41 -20.52,8.39 -39.21,19.58 -56.01,33.61 -16.4,-54.28 -50.01,-80.43 -100.82,-78.42 9.97,59.87 -8.72,115.89 -56.01,168.04 -23.51,-36.01 -57.12,-50.93 -100.83,-44.81 -11.02,-84.91 7.65,-99.83 56.02,-44.81 21.41,-24.17 40.08,-50.3 56.01,-78.42 -23.68,-73.37 -23.68,-148.04 0,-224.04 -11.2,-11.21 -22.4,-22.41 -33.61,-33.61 -24.98,76.65 -39.9,151.35 -44.81,224.05 -37.34,-22.4 -74.67,-44.81 -112.02,-67.22 -79.72,23.87 -90.92,61.19 -33.61,112.03 -27.13,27.33 -27.13,53.48 0,78.42 -29.87,14.93 -59.75,29.86 -89.62,44.8 25.14,36.14 13.94,62.29 -33.61,78.42 -44.51,-58.1 -70.66,-117.85 -78.41,-179.24 -27.4,-24.95 -57.27,-28.7 -89.62,-11.2 39.95,23.9 51.15,57.51 33.61,100.82 -8.24,-31.59 -26.91,-53.99 -56.01,-67.21 -16.32,37.93 -38.72,71.54 -67.22,100.82 16.99,30.56 5.78,56.71 -33.61,78.42 -30.06,-31.42 -48.75,-23.96 -56.01,22.4 2.43,21.11 9.89,39.77 22.41,56.01 -59.6,37.13 -59.6,74.48 0,112.02 18.6,32.83 22.31,66.44 11.2,100.82 -29.86,14.95 -52.27,37.36 -67.22,67.22 -7.46,-29.86 -14.94,-59.76 -22.4,-89.61 -8.06,43.03 -26.75,80.38 -56.01,112.02 -2621.33,18.66 -5242.7,29.86 -7864.07,33.61 3491.42,3.73 6979.1,14.93 10463.02,33.6 -3480.2,0 -6960.42,0 -10440.62,0 0,2471.98 0,4943.99 0,7415.98 406.92,18.63 817.67,29.84 1232.27,33.6 -1642.81,11.21 -1642.81,29.89 0,56.01 -75.01,-9.65 -149.69,1.55 -224.06,33.61 47.03,37.68 76.9,75.01 89.63,112.02 -37.15,16.25 -48.35,42.39 -33.61,78.42 62.19,-36.74 107.01,-21.8 134.43,44.81 13.55,-44.38 35.96,-51.87 67.21,-22.4 8.49,-46.38 -10.19,-79.99 -56.01,-100.83 73.26,-22.94 110.61,-4.27 112.02,56.02 15.51,-11.76 26.71,-26.71 33.61,-44.81 50.07,38.13 106.09,60.53 168.04,67.21 0,22.41 0,44.81 0,67.21 -85.75,16.03 -85.75,38.43 0,67.22 14.94,-3.74 29.86,-7.46 44.8,-11.2 -26.79,-14.66 -26.79,-25.85 0,-33.61 16.83,19.63 28.03,42.04 33.61,67.22 0.34,-46.02 19,-90.84 56.02,-134.43 5.28,16.73 12.77,35.4 22.4,56.01 37.64,0.76 71.24,4.5 100.82,11.2 14.94,-14.95 14.94,-29.87 0,-44.81 -29.86,-14.94 -52.27,-37.35 -67.22,-67.21 -22.65,18.75 -48.79,26.22 -78.41,22.4 -3.52,-30.76 0.22,-60.65 11.2,-89.62 18.8,25.18 44.94,40.13 78.42,44.81 76.4,-34.23 147.36,-26.75 212.85,22.41 26.23,-18.83 52.37,-37.49 78.41,-56.02 -27.13,-20 -27.13,-38.66 0,-56 29.87,29.86 59.75,29.86 89.62,0 24.27,19.37 27.98,41.78 11.2,67.21 -9.27,-10.24 -20.48,-17.73 -33.61,-22.41 8.77,27.29 -6.18,45.98 -44.8,56.02 27.98,40.86 54.1,37.12 78.41,-11.21 13.83,21.27 10.1,39.93 -11.2,56.02 20.52,8.37 39.2,19.58 56.01,33.6 6.23,-73.44 -4.98,-144.4 -33.61,-212.84 100.85,20.9 108.31,5.96 22.41,-44.82 28.37,-6.91 54.51,-18.12 78.41,-33.6 7.27,46.36 25.95,53.82 56.02,22.4 14.94,-1743.8 29.86,-3483.91 44.81,-5220.31 0,1710.23 0,3420.48 0,5130.7 765.43,18.63 1534.68,29.84 2307.68,33.6 -769.22,7.46 -1538.46,14.95 -2307.68,22.41 533.35,18.46 1063.57,22.2 1590.74,11.2 3.62,45.42 -0.11,90.22 -11.21,134.43 -44.32,-29.48 -77.92,-18.28 -100.82,33.6 3.74,97.1 37.35,115.77 100.82,56.02 96.88,-201.08 134.23,-193.62 112.03,22.4 7.46,-14.94 14.94,-29.86 22.4,-44.81 58.59,53.75 122.08,83.64 190.44,89.62 29.8,41.38 22.34,74.99 -22.4,100.83 27.27,36.92 45.93,77.99 56.01,123.22 30.56,-16.98 56.71,-5.78 78.42,33.61 -46.94,12.46 -50.68,23.66 -11.2,33.6 51.48,-12.66 70.14,-38.8 56,-78.41 72.53,-41.29 83.73,-97.31 33.61,-168.04 -14.65,26.8 -25.85,26.8 -33.61,0 28.59,-25.65 58.46,-25.65 89.63,0 27.13,-17.34 27.13,-36 0,-56.01 18.64,-15.42 33.56,-11.67 44.8,11.2 27.13,27.33 27.13,53.48 0,78.42 29.87,14.95 59.76,14.95 89.63,0 -14.95,-7.46 -29.87,-14.95 -44.82,-22.41 22.25,-86.37 63.34,-90.11 123.23,-11.2 0,-29.87 0,-59.75 0,-89.62 9.27,10.24 20.47,17.73 33.61,22.41 16.65,-31.55 35.33,-61.42 56.01,-89.62 7.46,14.94 14.94,29.86 22.4,44.81 84.96,-24.56 170.84,-46.96 257.66,-67.22 -8.05,50.77 6.9,91.84 44.81,123.23 -49.4,31.97 -97.96,43.17 -145.63,33.6 -12.62,27.45 -5.16,49.86 22.4,67.22 26.75,-20.84 56.62,-35.78 89.62,-44.81 37.01,8.07 74.34,15.53 112.02,22.41 35.13,-38.92 79.95,-61.33 134.43,-67.22 30.48,-159.03 105.17,-173.97 224.05,-44.81 23.39,-25.16 38.31,-55.02 44.81,-89.62 21.78,40.44 47.92,77.79 78.42,112.03 29.19,-27.29 51.59,-19.83 67.21,22.4 27.32,-25.68 57.17,-48.08 89.62,-67.21 -11.76,-15.51 -26.71,-26.71 -44.81,-33.61 37.35,-18.66 74.67,-37.34 112.02,-56.01 55.41,39.03 55.41,80.09 0,123.23 46.6,17.67 87.7,43.82 123.23,78.41 26.04,-15.39 52.16,-19.11 78.42,-11.2 -12.58,37.55 -34.98,67.41 -67.22,89.62 34.97,7.12 61.12,25.79 78.42,56.01 32.66,-27.94 66.27,-27.94 100.82,0 0.74,33.36 11.94,63.23 33.61,89.62 5.57,-25.18 16.78,-47.59 33.6,-67.21 37.35,22.4 67.22,52.27 89.63,89.61 13.12,-4.68 24.33,-12.16 33.6,-22.4 5.58,25.18 16.78,47.59 33.61,67.21 26.88,-23.1 56.77,-41.79 89.61,-56.01 -56.25,-41.7 -71.2,-93.99 -44.8,-156.83 -7.46,-11.2 -14.95,-22.4 -22.41,-33.61 -30.67,36.39 -68.02,47.59 -112.02,33.61 48.33,-57.09 96.87,-98.16 145.63,-123.23 24.36,54.49 35.56,47 33.6,-22.4 -58.45,-7.4 -95.79,-41 -112.02,-100.83 22.41,-14.93 44.81,-14.93 67.22,0 -25.57,16.61 -25.57,35.3 0,56.02 29.87,14.94 59.75,29.86 89.62,44.81 -24.07,58.65 -9.12,107.2 44.81,145.63 -21.76,26.97 -44.16,38.18 -67.22,33.6 41.45,16.63 56.37,39.03 44.81,67.22 86.31,-51.98 138.6,-119.19 156.84,-201.65 47.71,0.56 92.53,11.77 134.43,33.61 8.29,36.08 -6.66,69.69 -44.82,100.82 7.46,22.41 22.41,37.36 44.82,44.82 17.94,-59.74 62.75,-108.28 134.42,-145.64 -7.46,-7.46 -14.94,-14.94 -22.4,-22.4 34.59,-26.59 71.94,-34.05 112.02,-22.41 21.82,51.24 51.69,96.05 89.62,134.43 -59.75,22.41 -59.75,44.81 0,67.22 -18.82,37.33 -7.62,41.07 33.61,11.2 18.26,47.57 40.66,92.38 67.21,134.43 55.11,-58.41 114.85,-110.68 179.24,-156.83 13.82,21.26 10.11,39.92 -11.21,56.01 32.16,-6.97 62.02,-3.25 89.63,11.2 22.4,-29.86 44.8,-59.75 67.21,-89.62 34.93,12.86 68.54,27.78 100.83,44.81 14.98,-56.64 33.65,-56.64 56,0 -18.5,21.31 -22.23,43.71 -11.2,67.21 37.35,-14.94 74.68,-29.86 112.02,-44.8 22.77,25.4 37.71,17.94 44.81,-22.41 47.12,82.18 99.39,82.18 156.84,0 37.77,115.59 67.64,108.1 89.62,-22.4 25.03,3.69 51.17,11.16 78.42,22.4 49.31,-34.86 49.31,-61.01 0,-78.42 21.23,-10.82 43.64,-14.54 67.21,-11.2 14.45,68.27 -7.95,116.8 -67.21,145.63 23.56,38.45 8.64,60.85 -44.82,67.22 19.32,61.25 37.98,64.99 56.02,11.2 20.48,25.85 39.14,22.11 56.01,-11.2 -17.48,-24.04 -13.74,-50.19 11.2,-78.42 14.95,14.94 29.87,29.86 44.81,44.81 28.16,-50.32 69.23,-80.18 123.23,-89.62 11.02,52.45 37.16,97.26 78.41,134.43 19.45,-79.43 53.06,-94.35 100.82,-44.81 22.84,-26.6 48.98,-49 78.42,-67.21 24.04,17.47 50.19,13.72 78.41,-11.21 -18.81,-37.32 -7.61,-41.06 33.61,-11.2 17.41,-49.32 43.56,-49.32 78.42,0 -14.65,36.19 -25.86,73.53 -33.6,112.02 -75.22,27.83 -71.48,46.52 11.2,56.02 -21.31,16.08 -25.03,34.74 -11.2,56.01 16.59,-25.57 35.28,-25.57 56,0 45.02,-22.18 89.82,-59.51 134.43,-112.03 24.83,67.28 62.17,78.49 112.02,33.61 -49.73,-65.96 -57.21,-136.91 -22.39,-212.85 -9.39,-26.26 -24.31,-48.65 -44.82,-67.21 16.74,-5.29 35.4,-12.77 56.02,-22.4 5.28,50.72 16.49,99.28 33.6,145.63 -18.1,6.9 -33.04,18.1 -44.8,33.61 7.74,26.79 18.95,26.79 33.6,0 23.44,35.61 49.59,69.22 78.42,100.82 -49.05,15.16 -56.51,41.31 -22.41,78.41 90.72,68.16 105.64,56.96 44.82,-33.6 21.99,-45.02 51.86,-56.22 89.61,-33.61 20.82,-26.64 28.28,-56.51 22.41,-89.62 48.5,8.6 85.85,-6.34 112.02,-44.81 -25.56,-20.73 -25.56,-39.41 0,-56.01 -51.26,-18.42 -103.55,-33.36 -156.83,-44.81 14.11,-42.39 36.52,-79.74 67.21,-112.03 -23.19,-33.76 -19.45,-67.37 11.21,-100.82 16.8,14.03 35.49,25.23 56,33.61 -7.46,7.46 -14.94,14.95 -22.4,22.41 50.79,6.18 103.06,21.13 156.83,44.8 -7.46,7.46 -14.94,14.95 -22.4,22.41 34.59,26.6 71.94,34.06 112.02,22.4 -40.73,-75.88 -18.33,-120.69 67.22,-134.42 -36.21,-13.78 -66.08,-36.19 -89.62,-67.21 59.75,-29.87 104.56,-74.68 134.43,-134.43 141.7,-11.21 283.6,-14.93 425.68,-11.21 1.87,62.33 -16.8,114.6 -56,156.83 -29.34,-53.57 -51.73,-53.57 -67.22,0 -60.27,-21.48 -67.75,-6.54 -22.4,44.81 16.08,-21.3 34.74,-25.02 56.01,-11.2 -25.84,42.19 -63.17,60.85 -112.03,56.01 -3.33,23.57 0.39,45.98 11.21,67.21 7.46,-7.46 14.94,-14.94 22.4,-22.4 15.91,33.01 42.03,47.95 78.42,44.81 -3.34,23.58 0.38,45.97 11.2,67.22 7.46,-7.46 14.95,-14.95 22.41,-22.41 2.53,55.43 24.93,100.24 67.21,134.43 13.82,-21.26 10.11,-39.92 -11.21,-56.01 34.85,9.52 68.45,28.19 100.83,56.01 33.09,-21.15 55.49,-51.02 67.21,-89.62 -1.03,40.62 2.69,77.94 11.2,112.03 74.61,-29.58 119.42,-74.39 134.43,-134.43 34.01,45.12 48.96,89.93 44.81,134.43 41.51,28.22 82.58,28.22 123.23,0 22.04,51.42 40.71,43.93 56.01,-22.41 -31.41,-30.07 -23.95,-48.76 22.4,-56.01 -21.23,-10.83 -43.64,-14.54 -67.21,-11.21 -43.26,-73.13 -20.86,-114.2 67.21,-123.22 -14.94,-7.46 -29.86,-14.95 -44.8,-22.41 53.27,-42.9 86.88,-98.91 100.82,-168.03 18.66,18.67 37.34,37.35 56.01,56.01 -28.35,29.96 -39.54,63.56 -33.61,100.82 55.99,-11.26 119.46,-22.47 190.44,-33.6 -56.63,-14.99 -56.63,-33.65 0,-56.02 33.65,13.07 63.52,31.73 89.63,56.02 -14.95,7.46 -29.87,14.94 -44.82,22.4 25.19,5.58 47.59,16.78 67.21,33.6 -3.73,7.46 -7.46,14.95 -11.19,22.41 -52.27,-14.95 -104.57,-29.87 -156.84,-44.81 -3.74,11.2 -7.46,22.4 -11.2,33.61 26.64,35.47 45.3,76.53 56.01,123.22 9.48,-32.62 28.14,-43.82 56.01,-33.6 -15.99,30.09 -8.51,59.96 22.41,89.62 -22.79,23.5 -26.53,49.65 -11.2,78.41 35.71,-24.04 69.31,-46.44 100.82,-67.21 32.95,19.74 51.62,49.61 56.01,89.62 24.15,-63.7 54.02,-108.51 89.62,-134.43 43.84,30.34 88.66,22.87 134.43,-22.41 26.23,31.22 59.84,49.9 100.81,56.02 -25.15,23.39 -55.02,38.31 -89.61,44.81 18.66,18.66 37.35,37.34 56.01,56.01 35.89,-49.47 65.78,-101.74 89.62,-156.84 0,29.87 0,59.76 0,89.63 25.7,-21.47 48.1,-14.01 67.21,22.4 8.38,-20.52 19.59,-39.21 33.61,-56.01 43.3,-5.62 84.37,-16.83 123.22,-33.61 7.47,7.46 14.95,14.95 22.41,22.41 7.46,-29.87 14.95,-59.76 22.41,-89.62 39.61,14.13 65.75,-4.53 78.41,-56.02 -9.94,-39.47 -21.14,-35.73 -33.6,11.21 -79.01,-76.83 -71.52,-106.72 22.4,-89.62 10.82,-21.25 14.54,-43.64 11.2,-67.22 23.58,3.34 45.98,-0.38 67.22,-11.2 -7.46,-7.46 -14.95,-14.95 -22.41,-22.41 45.04,-45.74 82.36,-38.28 112.03,22.41 -53.57,29.33 -53.57,51.73 0,67.22 -7.47,7.46 -14.95,14.94 -22.41,22.4 67.06,11.65 134.28,26.57 201.65,44.81 -21.27,13.83 -39.93,10.1 -56.02,-11.21 -20.95,100.87 -50.83,108.34 -89.62,22.41 -30.58,24.49 -38.06,54.36 -22.4,89.62 28.12,15.93 54.24,34.6 78.41,56.01 112.16,17.73 224.19,32.67 336.08,44.81 26.15,26.15 52.27,52.27 78.41,78.42 10.09,-58.39 43.69,-88.25 100.83,-89.62 -7.4,459.46 0.07,915.01 22.4,1366.69 294.85,18.62 593.59,29.82 896.19,33.6 174.51,32.72 305.22,126.06 392.08,280.06 32.87,648.62 44.07,1298.36 33.61,1949.22 -11.65,-683.64 -26.59,-1191.49 -44.81,-1523.52 -52.04,-48.98 -93.14,-108.73 -123.22,-179.24 -9.29,10.24 -20.48,17.72 -33.61,22.4 -15.24,-85.9 -60.05,-149.39 -134.43,-190.43 14.94,-7.46 29.86,-14.95 44.81,-22.41 -35.94,-27.72 -73.29,-53.84 -112.02,-78.42 -27.99,-62.01 -65.34,-129.23 -112.03,-201.64 -268.55,-26.12 -537.4,-29.87 -806.57,-11.2 208.97,11.2 418.09,14.92 627.33,11.2 0,29.87 0,59.75 0,89.62 -63.78,-6.32 -123.52,-6.32 -179.24,0 18.01,49.94 47.88,57.4 89.62,22.4 38.02,8.94 75.35,20.15 112.03,33.61 -51.31,17.7 -58.77,47.59 -22.41,89.62 -5.8,28.26 -20.74,50.65 -44.81,67.22 52.61,2.46 86.21,28.6 100.82,78.41 18.66,-22.41 37.35,-44.81 56.02,-67.21 79.02,83.72 164.92,98.64 257.65,44.8 11.2,11.21 22.41,22.41 33.61,33.61 -26.91,20.23 -45.6,46.36 -56.02,78.42 -8.68,-20.79 -23.63,-35.74 -44.8,-44.81 -25.77,20.71 -48.17,20.71 -67.22,0 -19.11,36.41 -41.52,43.87 -67.21,22.41 -31.89,41.33 -58.03,86.14 -78.42,134.43 -30.7,-36.46 -64.3,-73.81 -100.82,-112.03 -16.6,25.56 -35.28,25.56 -56.01,0 -46.49,35.04 -98.77,57.44 -156.84,67.21 -16.82,19.63 -28.03,42.04 -33.6,67.21 -7.27,-46.35 -25.95,-53.81 -56.02,-22.39 -26.79,-7.76 -26.79,-18.96 0,-33.61 -29.86,-14.95 -59.74,-29.87 -89.61,-44.82 44.38,-13.55 51.86,-35.95 22.4,-67.21 -60.87,-23.14 -101.97,-4.47 -123.22,56.01 -42.69,-143.17 -65.09,-143.17 -67.22,0 -7.46,-14.94 -14.94,-29.86 -22.41,-44.8 -11.2,41.06 -37.34,67.21 -78.41,78.41 17.48,24.04 13.74,50.19 -11.2,78.41 -24.94,-27.13 -51.09,-27.13 -78.42,0 -18.1,-6.89 -33.04,-18.09 -44.81,-33.6 30.05,-29.02 59.91,-40.22 89.62,-33.61 -27.54,-17.49 -57.4,-28.69 -89.62,-33.61 37.35,-7.46 74.67,-14.94 112.03,-22.4 -85.93,-38.78 -78.47,-68.67 22.4,-89.62 -68.13,-53.1 -135.35,-56.82 -201.65,-11.2 -13.12,-4.68 -24.32,-12.17 -33.6,-22.41 -25.07,23.58 -36.27,49.72 -33.61,78.42 21.24,10.83 43.65,14.54 67.21,11.21 -3.81,29.61 3.66,55.76 22.41,78.41 -89.23,5.16 -104.15,35.02 -44.81,89.62 -11.2,11.2 -22.4,22.4 -33.6,33.61 -24.07,-25.05 -50.19,-47.46 -78.42,-67.21 57.76,-3.98 57.76,-30.1 0,-78.43 24.15,-15.09 39.09,-37.5 44.81,-67.21 -19.78,-62.35 -19.78,-125.82 0,-190.44 56.55,29.39 116.3,40.6 179.24,33.61 -34.6,-6.49 -64.46,-21.42 -89.63,-44.81 44.82,-22.41 89.63,-44.81 134.43,-67.21 -20.51,-8.39 -39.2,-19.59 -56,-33.61 -25.04,3.69 -51.18,11.16 -78.43,22.4 -7.46,-14.94 -14.94,-29.86 -22.4,-44.81 -77.69,44.14 -152.37,92.67 -224.05,145.63 29.87,14.95 29.87,29.87 0,44.82 -21.26,13.82 -39.92,10.1 -56,-11.21 -22.05,51.42 -40.72,43.93 -56.02,-22.4 27.49,-24.42 46.15,-54.32 56.02,-89.62 27.84,18.73 53.99,11.26 78.41,-22.41 -46.65,-5.1 -91.45,-31.25 -134.43,-78.42 13.37,-23.79 20.84,-49.92 22.41,-78.41 -16.27,-53.24 -46.14,-98.04 -89.63,-134.43 -22.4,11.2 -44.8,22.41 -67.21,33.61 38.56,34.21 83.37,56.62 134.43,67.21 -77.97,6.75 -152.64,25.43 -224.04,56.02 11.76,15.5 26.7,26.7 44.8,33.61 -18.1,6.89 -33.04,18.09 -44.8,33.6 26.09,24.28 55.96,42.95 89.61,56.01 -30.91,29.66 -38.4,59.53 -22.4,89.62 -28.77,15.32 -54.92,11.58 -78.42,-11.21 -14.94,22.41 -14.94,44.82 0,67.22 47.7,-30.54 58.91,-23.06 33.6,22.41 -25.78,27.58 -51.9,27.58 -78.41,0 -26.98,21.75 -38.17,44.16 -33.61,67.21 -26.99,-36.7 -56.86,-44.16 -89.61,-22.41 -26.89,-23.1 -56.78,-41.78 -89.62,-56 0,-22.41 0,-44.82 0,-67.22 -36.21,-13.78 -66.08,-36.19 -89.63,-67.21 38.88,-44.48 68.75,-37 89.63,22.4 84.46,-10.06 84.46,-25 0,-44.81 14.61,-46.83 18.35,-95.37 11.2,-145.63 22.4,22.41 44.81,44.81 67.21,67.21 38.38,-37.93 83.19,-67.79 134.43,-89.62 -1.24,-36.02 -19.89,-65.91 -56.01,-89.61 -27.69,16.71 -57.58,24.17 -89.62,22.4 3.72,-224.19 0,-448.23 -11.2,-672.14 -3.81,235.43 -15.02,466.93 -33.61,694.54 0,-238.99 0,-477.95 0,-716.95 -4357.75,-7.46 -8711.74,0 -13061.97,22.41 0,231.51 0,463.04 0,694.54 -18.6,-242.55 -29.8,-489.01 -33.61,-739.35 -11.2,11.2 -22.41,22.4 -33.61,33.61 13.15,165.07 16.87,333.11 11.2,504.1 -14.65,-26.79 -25.85,-26.79 -33.61,0 43.22,61.06 54.43,128.27 33.61,201.64 -5.58,-25.17 -16.78,-47.58 -33.61,-67.21 -16.14,48.98 -31.07,97.53 -44.8,145.63 25.13,36.14 13.93,62.28 -33.61,78.42 -26.15,-33.6 -52.27,-67.21 -78.42,-100.82 14.95,-7.46 29.87,-14.95 44.81,-22.41 -43.06,-16.35 -84.13,-35.01 -123.22,-56.01 -7.46,22.4 -14.95,44.81 -22.41,67.21 -20.48,-25.85 -39.14,-22.11 -56.01,11.21 12.57,37.54 34.98,67.41 67.21,89.61 -14.94,14.95 -29.86,29.87 -44.81,44.82 28.23,40.64 28.23,81.7 0,123.22 -19.13,-22.9 -41.53,-41.56 -67.21,-56.01 22.41,-7.46 44.81,-14.94 67.21,-22.4 -45.36,-26.75 -52.85,-60.36 -22.4,-100.83 -27.96,-43.89 -65.31,-77.5 -112.03,-100.82 14.95,-7.46 29.87,-14.95 44.81,-22.41 -29.86,-29.86 -29.86,-59.75 0,-89.61 -25.42,-16.79 -47.83,-13.07 -67.21,11.2 -9.17,55.81 -35.31,100.62 -78.42,134.43 -14.94,-22.41 -14.94,-44.81 0,-67.22 14.66,26.8 25.86,26.8 33.61,0 -31.35,-37.1 -72.41,-66.96 -123.22,-89.61 -7.46,14.94 -14.95,29.86 -22.41,44.81 -8.06,-47.24 -23.01,-92.04 -44.81,-134.43 -52.45,38.66 -108.46,72.27 -168.03,100.82 -15.49,23.9 -26.69,50.05 -33.61,78.41 -8.25,-31.58 -26.91,-53.99 -56.02,-67.21 -32.28,30.58 -62.14,64.19 -89.61,100.82 -291.26,7.46 -582.53,14.95 -873.79,22.41 -67.06,9.57 -78.25,35.71 -33.6,78.41 7.46,-7.46 14.94,-14.94 22.4,-22.4 12.48,46.74 -6.19,76.6 -56.01,89.62 -23.55,-31.04 -53.42,-53.43 -89.62,-67.22 -25.14,25.32 -55.03,40.26 -89.62,44.81 80.88,-96.5 185.42,-152.51 313.67,-168.04 268.74,-11.2 537.6,-14.93 806.57,-11.2 -3.74,-492.97 0,-985.87 11.2,-1478.71 70.95,-250.2 231.51,-410.75 481.7,-481.7 208.97,-11.2 418.1,-14.92 627.34,-11.2 0,-2471.99 0,-4944 0,-7415.98 -190.22,-18.6 -384.4,-29.8 -582.53,-33.6 -150.65,-23.78 -273.88,-94.73 -369.67,-212.85 -8.95,5.1 -12.66,12.59 -11.21,22.4 -201.97,-265.25 -205.7,-534.1 -11.2,-806.57 46.6,-36.36 95.13,-69.97 145.63,-100.82 4884.23,-11.2 9768.47,-14.94 14652.71,-11.2z"/>
  </g>
  <g id="_1574867603328">
   <path class="fil5" d="M8330.22 8192.31c-216.7,3.72 -433.29,0 -649.75,-11.2 -126.46,-40.94 -231.03,-111.87 -313.66,-212.85 -1.45,-9.81 2.26,-17.3 11.21,-22.4 95.79,118.12 219.02,189.07 369.67,212.85 198.13,3.8 392.31,15 582.53,33.6z"/>
  </g>
  <g id="_1574867602880">
   <path class="fil6" d="M20070.31 8192.31c0,2471.98 0,4943.99 0,7415.98 -418.23,0 -836.44,0 -1254.66,0 3.73,-1956.7 0,-3913.38 -11.21,-5870.05 -66.29,-181.8 -196.98,-286.33 -392.08,-313.67 -2420.34,-7.32 -4840.05,0.14 -7259.14,22.41 -94.64,34.88 -169.32,94.64 -224.05,179.24 -18.37,36.74 -37.03,74.08 -56.01,112.02 -11.2,1956.67 -14.95,3913.35 -11.2,5870.05 -410.75,0 -821.52,0 -1232.27,0 0,-2471.99 0,-4944 0,-7415.98 3480.2,0 6960.42,0 10440.62,0z"/>
  </g>
  <g id="_1574867603648">
   <path class="fil7" d="M18412.36 9424.57c-2401.5,15.03 -4806.28,29.96 -7214.34,44.81 -20.52,-0.96 -35.46,-8.42 -44.8,-22.4 2419.09,-22.27 4838.8,-29.73 7259.14,-22.41z"/>
  </g>
  <g id="_1574867602848">
   <path class="fil8" d="M22153.95 7049.67c209.87,109.15 321.89,284.65 336.07,526.51 -33.07,335.4 -212.31,540.78 -537.71,616.13 -197.57,-22.25 -399.21,-29.73 -604.93,-22.41 -7.46,2475.76 0.02,4947.76 22.41,7415.98 197.69,18.59 399.34,29.8 604.92,33.61 130.69,24.11 235.23,87.58 313.67,190.44 82.54,113.03 134.83,240 156.84,380.88 -57.14,1.37 -90.74,31.23 -100.83,89.62 -26.14,-26.15 -52.26,-52.27 -78.41,-78.42 -111.89,-12.14 -223.92,-27.08 -336.08,-44.81 -24.17,-21.41 -50.29,-40.08 -78.41,-56.01 -15.66,-35.26 -8.18,-65.13 22.4,-89.62 38.79,85.93 68.67,78.46 89.62,-22.41 16.09,21.31 34.75,25.04 56.02,11.21 -67.37,-18.24 -134.59,-33.16 -201.65,-44.81 7.46,-7.46 14.94,-14.94 22.41,-22.4 -53.57,-15.49 -53.57,-37.89 0,-67.22 -29.67,-60.69 -66.99,-68.15 -112.03,-22.41 7.46,7.46 14.95,14.95 22.41,22.41 -21.24,10.82 -43.64,14.54 -67.22,11.2 3.34,23.58 -0.38,45.97 -11.2,67.22 -93.92,-17.1 -101.41,12.79 -22.4,89.62 12.46,-46.94 23.66,-50.68 33.6,-11.21 -12.66,51.49 -38.8,70.15 -78.41,56.02 -7.46,29.86 -14.95,59.75 -22.41,89.62 -7.46,-7.46 -14.94,-14.95 -22.41,-22.41 -38.85,16.78 -79.92,27.99 -123.22,33.61 -14.02,16.8 -25.23,35.49 -33.61,56.01 -19.11,-36.41 -41.51,-43.87 -67.21,-22.4 0,-29.87 0,-59.76 0,-89.63 -23.84,55.1 -53.73,107.37 -89.62,156.84 -18.66,-18.67 -37.35,-37.35 -56.01,-56.01 34.59,-6.5 64.46,-21.42 89.61,-44.81 -40.97,-6.12 -74.58,-24.8 -100.81,-56.02 -45.77,45.28 -90.59,52.75 -134.43,22.41 -35.6,25.92 -65.47,70.73 -89.62,134.43 -4.39,-40.01 -23.06,-69.88 -56.01,-89.62 -31.51,20.77 -65.11,43.17 -100.82,67.21 -15.33,-28.76 -11.59,-54.91 11.2,-78.41 -30.92,-29.66 -38.4,-59.53 -22.41,-89.62 -27.87,-10.22 -46.53,0.98 -56.01,33.6 -10.71,-46.69 -29.37,-87.75 -56.01,-123.22 3.74,-11.21 7.46,-22.41 11.2,-33.61 52.27,14.94 104.57,29.86 156.84,44.81 3.73,-7.46 7.46,-14.95 11.19,-22.41 -19.62,-16.82 -42.02,-28.02 -67.21,-33.6 14.95,-7.46 29.87,-14.94 44.82,-22.4 -26.11,-24.29 -55.98,-42.95 -89.63,-56.02 -56.63,22.37 -56.63,41.03 0,56.02 -70.98,11.13 -134.45,22.34 -190.44,33.6 -5.93,-37.26 5.26,-70.86 33.61,-100.82 -18.67,-18.66 -37.35,-37.34 -56.01,-56.01 -13.94,69.12 -47.55,125.13 -100.82,168.03 14.94,7.46 29.86,14.95 44.8,22.41 -88.07,9.02 -110.47,50.09 -67.21,123.22 23.57,-3.33 45.98,0.38 67.21,11.21 -46.35,7.25 -53.81,25.94 -22.4,56.01 -15.3,66.34 -33.97,73.83 -56.01,22.41 -40.65,28.22 -81.72,28.22 -123.23,0 4.15,-44.5 -10.8,-89.31 -44.81,-134.43 -15.01,60.04 -59.82,104.85 -134.43,134.43 -8.51,-34.09 -12.23,-71.41 -11.2,-112.03 -11.72,38.6 -34.12,68.47 -67.21,89.62 -32.38,-27.82 -65.98,-46.49 -100.83,-56.01 21.32,16.09 25.03,34.75 11.21,56.01 -42.28,-34.19 -64.68,-79 -67.21,-134.43 -7.46,7.46 -14.95,14.95 -22.41,22.41 -10.82,-21.25 -14.54,-43.64 -11.2,-67.22 -36.39,3.14 -62.51,-11.8 -78.42,-44.81 -7.46,7.46 -14.94,14.94 -22.4,22.4 -10.82,-21.23 -14.54,-43.64 -11.21,-67.21 48.86,4.84 86.19,-13.82 112.03,-56.01 -21.27,-13.82 -39.93,-10.1 -56.01,11.2 -45.35,-51.35 -37.87,-66.29 22.4,-44.81 15.49,-53.57 37.88,-53.57 67.22,0 39.2,-42.23 57.87,-94.5 56,-156.83 -142.08,-3.72 -283.98,0 -425.68,11.21 -29.87,59.75 -74.68,104.56 -134.43,134.43 23.54,31.02 53.41,53.43 89.62,67.21 -85.55,13.73 -107.95,58.54 -67.22,134.42 -40.08,11.66 -77.43,4.2 -112.02,-22.4 7.46,-7.46 14.94,-14.95 22.4,-22.41 -53.77,-23.67 -106.04,-38.62 -156.83,-44.8 7.46,-7.46 14.94,-14.95 22.4,-22.41 -20.51,-8.38 -39.2,-19.58 -56,-33.61 -30.66,33.45 -34.4,67.06 -11.21,100.82 -30.69,32.29 -53.1,69.64 -67.21,112.03 53.28,11.45 105.57,26.39 156.83,44.81 -25.56,16.6 -25.56,35.28 0,56.01 -26.17,38.47 -63.52,53.41 -112.02,44.81 5.87,33.11 -1.59,62.98 -22.41,89.62 -37.75,-22.61 -67.62,-11.41 -89.61,33.61 60.82,90.56 45.9,101.76 -44.82,33.6 -34.1,-37.1 -26.64,-63.25 22.41,-78.41 -28.83,-31.6 -54.98,-65.21 -78.42,-100.82 -14.65,26.79 -25.86,26.79 -33.6,0 11.76,-15.51 26.7,-26.71 44.8,-33.61 -17.11,-46.35 -28.32,-94.91 -33.6,-145.63 -20.62,9.63 -39.28,17.11 -56.02,22.4 20.51,18.56 35.43,40.95 44.82,67.21 -34.82,75.94 -27.34,146.89 22.39,212.85 -49.85,44.88 -87.19,33.67 -112.02,-33.61 -44.61,52.52 -89.41,89.85 -134.43,112.03 -20.72,-25.57 -39.41,-25.57 -56,0 -13.83,-21.27 -10.11,-39.93 11.2,-56.01 -82.68,-9.5 -86.42,-28.19 -11.2,-56.02 7.74,-38.49 18.95,-75.83 33.6,-112.02 -34.86,-49.32 -61.01,-49.32 -78.42,0 -41.22,-29.86 -52.42,-26.12 -33.61,11.2 -28.22,24.93 -54.37,28.68 -78.41,11.21 -29.44,18.21 -55.58,40.61 -78.42,67.21 -47.76,-49.54 -81.37,-34.62 -100.82,44.81 -41.25,-37.17 -67.39,-81.98 -78.41,-134.43 -54,9.44 -95.07,39.3 -123.23,89.62 -14.94,-14.95 -29.86,-29.87 -44.81,-44.81 -24.94,28.23 -28.68,54.38 -11.2,78.42 -16.87,33.31 -35.53,37.05 -56.01,11.2 -18.04,53.79 -36.7,50.05 -56.02,-11.2 53.46,-6.37 68.38,-28.77 44.82,-67.22 59.26,-28.83 81.66,-77.36 67.21,-145.63 -23.57,-3.34 -45.98,0.38 -67.21,11.2 49.31,17.41 49.31,43.56 0,78.42 -27.25,-11.24 -53.39,-18.71 -78.42,-22.4 -21.98,130.5 -51.85,137.99 -89.62,22.4 -57.45,82.18 -109.72,82.18 -156.84,0 -7.1,40.35 -22.04,47.81 -44.81,22.41 -37.34,14.94 -74.67,29.86 -112.02,44.8 -11.03,-23.5 -7.3,-45.9 11.2,-67.21 -22.35,-56.64 -41.02,-56.64 -56,0 -32.29,-17.03 -65.9,-31.95 -100.83,-44.81 -22.41,29.87 -44.81,59.76 -67.21,89.62 -27.61,-14.45 -57.47,-18.17 -89.63,-11.2 21.32,-16.09 25.03,-34.75 11.21,-56.01 -64.39,46.15 -124.13,98.42 -179.24,156.83 -26.55,-42.05 -48.95,-86.86 -67.21,-134.43 -41.23,29.87 -52.43,26.13 -33.61,-11.2 -59.75,-22.41 -59.75,-44.81 0,-67.22 -37.93,-38.38 -67.8,-83.19 -89.62,-134.43 -40.08,-11.64 -77.43,-4.18 -112.02,22.41 7.46,7.46 14.94,14.94 22.4,22.4 -71.67,37.36 -116.48,85.9 -134.42,145.64 -22.41,-7.46 -37.36,-22.41 -44.82,-44.82 38.16,-31.13 53.11,-64.74 44.82,-100.82 -41.9,-21.84 -86.72,-33.05 -134.43,-33.61 -18.24,82.46 -70.53,149.67 -156.84,201.65 11.56,-28.19 -3.36,-50.59 -44.81,-67.22 23.06,4.58 45.46,-6.63 67.22,-33.6 -53.93,-38.43 -68.88,-86.98 -44.81,-145.63 -29.87,-14.95 -59.75,-29.87 -89.62,-44.81 -25.57,-20.72 -25.57,-39.41 0,-56.02 -22.41,-14.93 -44.81,-14.93 -67.22,0 16.23,59.83 53.57,93.43 112.02,100.83 1.96,69.4 -9.24,76.89 -33.6,22.4 -48.76,25.07 -97.3,66.14 -145.63,123.23 44,13.98 81.35,2.78 112.02,-33.61 7.46,11.21 14.95,22.41 22.41,33.61 -26.4,62.84 -11.45,115.13 44.8,156.83 -32.84,14.22 -62.73,32.91 -89.61,56.01 -16.83,-19.62 -28.03,-42.03 -33.61,-67.21 -9.27,10.24 -20.48,17.72 -33.6,22.4 -22.41,-37.34 -52.28,-67.21 -89.63,-89.61 -16.82,19.62 -28.03,42.03 -33.6,67.21 -21.67,-26.39 -32.87,-56.26 -33.61,-89.62 -34.55,-27.94 -68.16,-27.94 -100.82,0 -17.3,-30.22 -43.45,-48.89 -78.42,-56.01 32.24,-22.21 54.64,-52.07 67.22,-89.62 -26.26,-7.91 -52.38,-4.19 -78.42,11.2 -35.53,-34.59 -76.63,-60.74 -123.23,-78.41 55.41,-43.14 55.41,-84.2 0,-123.23 -37.35,18.67 -74.67,37.35 -112.02,56.01 18.1,6.9 33.05,18.1 44.81,33.61 -32.45,19.13 -62.3,41.53 -89.62,67.21 -15.62,-42.23 -38.02,-49.69 -67.21,-22.4 -30.5,-34.24 -56.64,-71.59 -78.42,-112.03 -6.5,34.6 -21.42,64.46 -44.81,89.62 -118.88,-129.16 -193.57,-114.22 -224.05,44.81 -54.48,5.89 -99.3,28.3 -134.43,67.22 -37.68,-6.88 -75.01,-14.34 -112.02,-22.41 -33,9.03 -62.87,23.97 -89.62,44.81 -27.56,-17.36 -35.02,-39.77 -22.4,-67.22 47.67,9.57 96.23,-1.63 145.63,-33.6 -37.91,-31.39 -52.86,-72.46 -44.81,-123.23 -86.82,20.26 -172.7,42.66 -257.66,67.22 -7.46,-14.95 -14.94,-29.87 -22.4,-44.81 -20.68,28.2 -39.36,58.07 -56.01,89.62 -13.14,-4.68 -24.34,-12.17 -33.61,-22.41 0,29.87 0,59.75 0,89.62 -59.89,-78.91 -100.98,-75.17 -123.23,11.2 14.95,7.46 29.87,14.95 44.82,22.41 -29.87,14.95 -59.76,14.95 -89.63,0 27.13,-24.94 27.13,-51.09 0,-78.42 -11.24,-22.87 -26.16,-26.62 -44.8,-11.2 27.13,20.01 27.13,38.67 0,56.01 -31.17,-25.65 -61.04,-25.65 -89.63,0 7.76,26.8 18.96,26.8 33.61,0 50.12,70.73 38.92,126.75 -33.61,168.04 14.14,39.61 -4.52,65.75 -56,78.41 -39.48,-9.94 -35.74,-21.14 11.2,-33.6 -21.71,-39.39 -47.86,-50.59 -78.42,-33.61 -10.08,-45.23 -28.74,-86.3 -56.01,-123.22 44.74,-25.84 52.2,-59.45 22.4,-100.83 -68.36,-5.98 -131.85,-35.87 -190.44,-89.62 -7.46,14.95 -14.94,29.87 -22.4,44.81 22.2,-216.02 -15.15,-223.48 -112.03,-22.4 -63.47,59.75 -97.08,41.08 -100.82,-56.02 22.9,-51.88 56.5,-63.08 100.82,-33.6 11.1,-44.21 14.83,-89.01 11.21,-134.43 -527.17,11 -1057.39,7.26 -1590.74,-11.2 769.22,-7.46 1538.46,-14.95 2307.68,-22.41 -773,-3.76 -1542.25,-14.97 -2307.68,-33.6 769.22,0 1538.46,0 2307.68,0 0,-1710.22 0,-3420.47 0,-5130.7 -769.22,0 -1538.46,0 -2307.68,0 -14.95,1736.4 -29.87,3476.51 -44.81,5220.31 -30.07,31.42 -48.75,23.96 -56.02,-22.4 -23.9,15.48 -50.04,26.69 -78.41,33.6 85.9,50.78 78.44,65.72 -22.41,44.82 28.63,68.44 39.84,139.4 33.61,212.84 -16.81,-14.02 -35.49,-25.23 -56.01,-33.6 21.3,-16.09 25.03,-34.75 11.2,-56.02 -24.31,48.33 -50.43,52.07 -78.41,11.21 38.62,-10.04 53.57,-28.73 44.8,-56.02 13.13,4.68 24.34,12.17 33.61,22.41 16.78,-25.43 13.07,-47.84 -11.2,-67.21 -29.87,29.86 -59.75,29.86 -89.62,0 -27.13,17.34 -27.13,36 0,56 -26.04,18.53 -52.18,37.19 -78.41,56.02 -65.49,-49.16 -136.45,-56.64 -212.85,-22.41 -33.48,-4.68 -59.62,-19.63 -78.42,-44.81 -10.98,28.97 -14.72,58.86 -11.2,89.62 29.62,3.82 55.76,-3.65 78.41,-22.4 14.95,29.86 37.36,52.27 67.22,67.21 14.94,14.94 14.94,29.86 0,44.81 -29.58,-6.7 -63.18,-10.44 -100.82,-11.2 -9.63,-20.61 -17.12,-39.28 -22.4,-56.01 -37.02,43.59 -55.68,88.41 -56.02,134.43 -5.58,-25.18 -16.78,-47.59 -33.61,-67.22 -26.79,7.76 -26.79,18.95 0,33.61 -14.94,3.74 -29.86,7.46 -44.8,11.2 -85.75,-28.79 -85.75,-51.19 0,-67.22 0,-22.4 0,-44.8 0,-67.21 -61.95,-6.68 -117.97,-29.08 -168.04,-67.21 -6.9,18.1 -18.1,33.05 -33.61,44.81 -1.41,-60.29 -38.76,-78.96 -112.02,-56.02 45.82,20.84 64.5,54.45 56.01,100.83 -31.25,-29.47 -53.66,-21.98 -67.21,22.4 -27.42,-66.61 -72.24,-81.55 -134.43,-44.81 -14.74,-36.03 -3.54,-62.17 33.61,-78.42 -12.73,-37.01 -42.6,-74.34 -89.63,-112.02 74.37,-32.06 149.05,-43.26 224.06,-33.61 -1642.81,-26.12 -1642.81,-44.8 0,-56.01 -414.6,-3.76 -825.35,-14.97 -1232.27,-33.6 410.75,0 821.52,0 1232.27,0 18.66,-1937.99 29.86,-3879.74 33.6,-5825.25 12.48,-47.38 31.17,-92.19 56.01,-134.42 -2.78,-13.6 -10.24,-21.06 -22.4,-22.4 54.73,-84.6 129.41,-144.36 224.05,-179.24 9.34,13.98 24.28,21.44 44.8,22.4 2408.06,-14.85 4812.84,-29.78 7214.34,-44.81 195.1,27.34 325.79,131.87 392.08,313.67 11.21,1956.67 14.94,3913.35 11.21,5870.05 418.22,0 836.43,0 1254.66,0 0,-2471.99 0,-4944 0,-7415.98 -3483.92,-18.67 -6971.6,-29.87 -10463.02,-33.6 2621.37,-3.75 5242.74,-14.95 7864.07,-33.61 29.26,-31.64 47.95,-68.99 56.01,-112.02 7.46,29.85 14.94,59.75 22.4,89.61 14.95,-29.86 37.36,-52.27 67.22,-67.22 11.11,-34.38 7.4,-67.99 -11.2,-100.82 -59.6,-37.54 -59.6,-74.89 0,-112.02 -12.52,-16.24 -19.98,-34.9 -22.41,-56.01 7.26,-46.36 25.95,-53.82 56.01,-22.4 39.39,-21.71 50.6,-47.86 33.61,-78.42 28.5,-29.28 50.9,-62.89 67.22,-100.82 29.1,13.22 47.77,35.62 56.01,67.21 17.54,-43.31 6.34,-76.92 -33.61,-100.82 32.35,-17.5 62.22,-13.75 89.62,11.2 7.75,61.39 33.9,121.14 78.41,179.24 47.55,-16.13 58.75,-42.28 33.61,-78.42 29.87,-14.94 59.75,-29.87 89.62,-44.8 -27.13,-24.94 -27.13,-51.09 0,-78.42 -57.31,-50.84 -46.11,-88.16 33.61,-112.03 37.35,22.41 74.68,44.82 112.02,67.22 4.91,-72.7 19.83,-147.4 44.81,-224.05 11.21,11.2 22.41,22.4 33.61,33.61 -23.68,76 -23.68,150.67 0,224.04 -15.93,28.12 -34.6,54.25 -56.01,78.42 -48.37,-55.02 -67.04,-40.1 -56.02,44.81 43.71,-6.12 77.32,8.8 100.83,44.81 47.29,-52.15 65.98,-108.17 56.01,-168.04 50.81,-2.01 84.42,24.14 100.82,78.42 16.8,-14.03 35.49,-25.22 56.01,-33.61 -27.58,-26.5 -27.58,-52.62 0,-78.41 28.52,5.51 54.67,5.51 78.42,0 30.87,-118.39 60.73,-118.39 89.62,0 8.25,-31.59 26.9,-54 56.01,-67.22 45.26,34.28 90.07,49.23 134.42,44.82 21.92,-10.69 40.58,-25.61 56.02,-44.82 9.39,26.26 24.31,48.67 44.81,67.22 14.94,-29.86 29.87,-29.86 44.81,0 7.46,29.86 14.94,59.75 22.4,89.62 7.46,-7.46 14.95,-14.95 22.41,-22.41 24.87,34.44 58.48,49.36 100.82,44.81 -4.21,35.92 6.99,65.81 33.61,89.62 27.26,-19.85 57.16,-42.25 89.61,-67.21 14.95,14.94 29.87,29.86 44.82,44.8 44.22,-3.29 89.04,-10.77 134.42,-22.4 9.4,26.26 24.32,48.66 44.82,67.22 24.93,-27.13 51.08,-27.13 78.41,0 28.61,-50.73 17.41,-95.54 -33.61,-134.43 -26.5,27.58 -52.63,27.58 -78.41,0 31.4,-30.07 23.94,-48.75 -22.41,-56.02 29.87,-14.93 52.27,-37.34 67.22,-67.21 14.94,-14.94 29.86,-14.94 44.8,0 -7.46,22.41 -14.94,44.81 -22.4,67.21 35.27,15.67 65.13,8.18 89.62,-22.4 -27.58,-26.51 -27.58,-52.63 0,-78.42 -4.57,23.06 6.63,45.46 33.61,67.22 6.5,-34.6 21.42,-64.46 44.81,-89.62 33.51,50.57 70.86,95.38 112.02,134.43 11.2,-3.75 22.4,-7.46 33.61,-11.21 -2.6,-28.41 -10.06,-58.29 -22.41,-89.61 50.19,-21.89 102.46,-33.1 156.84,-33.61 4.91,26.32 -2.56,48.73 -22.41,67.22 -28.41,-20.8 -58.28,-24.54 -89.62,-11.21 58.08,76.47 110.35,72.75 156.84,-11.2 31.2,30.53 68.53,49.2 112.02,56.01 6.7,29.57 10.44,63.18 11.2,100.82 22.76,25.41 37.71,17.95 44.82,-22.4 14.93,29.86 29.85,29.86 44.8,0 7.59,71.31 37.46,131.06 89.62,179.24 55.59,-71.9 36.92,-112.97 -56.01,-123.23 35.87,-6.12 69.48,-17.32 100.82,-33.61 10.55,39.12 25.49,76.47 44.81,112.03 7.46,-29.87 14.95,-59.76 22.41,-89.62 10.82,21.24 14.54,43.64 11.2,67.21 22.4,0 44.8,0 67.21,0 3.81,-29.62 -3.65,-55.76 -22.41,-78.41 11.21,-11.21 22.41,-22.41 33.61,-33.61 29.87,29.86 59.75,59.75 89.62,89.61 56.42,-47.56 93.75,-107.31 112.03,-179.23 16.55,24.06 38.96,39.01 67.21,44.81 106.47,-23.37 196.08,-75.64 268.86,-156.84 11.02,23.51 7.3,45.91 -11.21,67.22 24.43,33.68 50.57,41.14 78.43,22.41 7.46,22.4 14.93,44.8 22.39,67.21 6.93,-28.36 18.13,-54.51 33.61,-78.42 -91.52,-42.59 -87.78,-76.2 11.21,-100.82 13.76,-40.62 6.29,-48.1 -22.41,-22.4 -15.44,-19.21 -34.1,-34.13 -56.01,-44.82 -28.41,20.79 -58.27,24.54 -89.62,11.21 -50.59,-61.9 -39.39,-117.92 33.61,-168.04 7.46,14.95 14.94,29.87 22.4,44.81 5.58,-25.18 16.79,-47.59 33.61,-67.22 27.13,17.35 27.13,36.01 0,56.02 11.76,15.5 26.7,26.71 44.81,33.61 15.23,-40.92 52.56,-74.52 112.02,-100.82 302.6,-3.79 601.35,-15 896.19,-33.61z"/>
  </g>
  <g id="_1574867603264">
   <path class="fil1" d="M11959.79 10477.59c769.22,0 1538.46,0 2307.68,0 0,1710.23 0,3420.48 0,5130.7 -769.22,0 -1538.46,0 -2307.68,0 0,-1710.22 0,-3420.47 0,-5130.7z"/>
  </g>
  <g id="_1574867601536">
   <path class="fil1" d="M15432.53 10477.59c776.7,0 1553.38,0 2330.09,0 0,1710.23 0,3420.48 0,5130.7 -776.71,0 -1553.39,0 -2330.09,0 0,-1710.22 0,-3420.47 0,-5130.7z"/>
  </g>
  <g id="_1574867600160">
   <path class="fil9" d="M10929.17 9626.22c12.16,1.34 19.62,8.8 22.4,22.4 -24.84,42.23 -43.53,87.04 -56.01,134.42 -3.74,1945.51 -14.94,3887.26 -33.6,5825.25 -3.75,-1956.7 0,-3913.38 11.2,-5870.05 18.98,-37.94 37.64,-75.28 56.01,-112.02z"/>
  </g>
  <g id="_1574867600896">
   <path class="fil10" d="M21952.31 8192.31c-194.18,0 -388.34,0 -582.52,0 0,2464.52 0,4929.05 0,7393.57 -22.39,-2468.22 -29.87,-4940.22 -22.41,-7415.98 205.72,-7.32 407.36,0.16 604.93,22.41z"/>
  </g>
  <g id="_1574867600704">
   <path class="fil11" d="M8330.22 16885.36c4350.23,-22.41 8704.22,-29.87 13061.97,-22.41 0,239 0,477.96 0,716.95 -7.46,0 -14.94,0 -22.4,0 0,-231.5 0,-463.03 0,-694.54 -4346.53,0 -8693.05,0 -13039.57,0z"/>
  </g>
  <g id="_1574867601376">
   <path class="fil12" d="M22288.38 15809.93c90.07,75.35 146.08,172.43 168.04,291.26 11.2,485.38 14.94,970.82 11.2,1456.31 -22.33,-451.68 -29.8,-907.23 -22.4,-1366.69 -22.01,-140.88 -74.3,-267.85 -156.84,-380.88z"/>
  </g>
  <g id="_1574867600032">
   <path class="fil13" d="M8330.22 17579.9c4346.52,0 8693.04,0 13039.57,0 7.46,0 14.94,0 22.4,0 18.59,-227.61 29.8,-459.11 33.61,-694.54 11.2,223.91 14.92,447.95 11.2,672.14 32.04,1.77 61.93,-5.69 89.62,-22.4 36.12,23.7 54.77,53.59 56.01,89.61 -51.24,21.83 -96.05,51.69 -134.43,89.62 -22.4,-22.4 -44.81,-44.8 -67.21,-67.21 7.15,50.26 3.41,98.8 -11.2,145.63 84.46,19.81 84.46,34.75 0,44.81 -20.88,-59.4 -50.75,-66.88 -89.63,-22.4 23.55,31.02 53.42,53.43 89.63,67.21 0,22.4 0,44.81 0,67.22 32.84,14.22 62.73,32.9 89.62,56 32.75,-21.75 62.62,-14.29 89.61,22.41 -4.56,-23.05 6.63,-45.46 33.61,-67.21 26.51,27.58 52.63,27.58 78.41,0 25.31,-45.47 14.1,-52.95 -33.6,-22.41 -14.94,-22.4 -14.94,-44.81 0,-67.22 23.5,22.79 49.65,26.53 78.42,11.21 -16,-30.09 -8.51,-59.96 22.4,-89.62 -33.65,-13.06 -63.52,-31.73 -89.61,-56.01 11.76,-15.51 26.7,-26.71 44.8,-33.6 -18.1,-6.91 -33.04,-18.11 -44.8,-33.61 71.4,-30.59 146.07,-49.27 224.04,-56.02 -51.06,-10.59 -95.87,-33 -134.43,-67.21 22.41,-11.2 44.81,-22.41 67.21,-33.61 43.49,36.39 73.36,81.19 89.63,134.43 -1.57,28.49 -9.04,54.62 -22.41,78.41 42.98,47.17 87.78,73.32 134.43,78.42 -24.42,33.67 -50.57,41.14 -78.41,22.41 -9.87,35.3 -28.53,65.2 -56.02,89.62 15.3,66.33 33.97,73.82 56.02,22.4 16.08,21.31 34.74,25.03 56,11.21 29.87,-14.95 29.87,-29.87 0,-44.82 71.68,-52.96 146.36,-101.49 224.05,-145.63 7.46,14.95 14.94,29.87 22.4,44.81 27.25,-11.24 53.39,-18.71 78.43,-22.4 16.8,14.02 35.49,25.22 56,33.61 -44.8,22.4 -89.61,44.8 -134.43,67.21 25.17,23.39 55.03,38.32 89.63,44.81 -62.94,6.99 -122.69,-4.22 -179.24,-33.61 -19.78,64.62 -19.78,128.09 0,190.44 -5.72,29.71 -20.66,52.12 -44.81,67.21 57.76,48.33 57.76,74.45 0,78.43 28.23,19.75 54.35,42.16 78.42,67.21 11.2,-11.21 22.4,-22.41 33.6,-33.61 -59.34,-54.6 -44.42,-84.46 44.81,-89.62 -18.75,-22.65 -26.22,-48.8 -22.41,-78.41 -23.56,3.33 -45.97,-0.38 -67.21,-11.21 -2.66,-28.7 8.54,-54.84 33.61,-78.42 9.28,10.24 20.48,17.73 33.6,22.41 66.3,-45.62 133.52,-41.9 201.65,11.2 -100.87,20.95 -108.33,50.84 -22.4,89.62 -37.36,7.46 -74.68,14.94 -112.03,22.4 32.22,4.92 62.08,16.12 89.62,33.61 -29.71,-6.61 -59.57,4.59 -89.62,33.61 11.77,15.51 26.71,26.71 44.81,33.6 27.33,-27.13 53.48,-27.13 78.42,0 24.94,-28.22 28.68,-54.37 11.2,-78.41 41.07,-11.2 67.21,-37.35 78.41,-78.41 7.47,14.94 14.95,29.86 22.41,44.8 2.13,-143.17 24.53,-143.17 67.22,0 21.25,-60.48 62.35,-79.15 123.22,-56.01 29.46,31.26 21.98,53.66 -22.4,67.21 29.87,14.95 59.75,29.87 89.61,44.82 -26.79,14.65 -26.79,25.85 0,33.61 30.07,-31.42 48.75,-23.96 56.02,22.39 5.57,-25.17 16.78,-47.58 33.6,-67.21 58.07,-9.77 110.35,-32.17 156.84,-67.21 20.73,25.56 39.41,25.56 56.01,0 36.52,38.22 70.12,75.57 100.82,112.03 20.39,-48.29 46.53,-93.1 78.42,-134.43 25.69,21.46 48.1,14 67.21,-22.41 19.05,20.71 41.45,20.71 67.22,0 21.17,9.07 36.12,24.02 44.8,44.81 10.42,-32.06 29.11,-58.19 56.02,-78.42 -11.2,-11.2 -22.41,-22.4 -33.61,-33.61 -92.73,53.84 -178.63,38.92 -257.65,-44.8 -18.67,22.4 -37.36,44.8 -56.02,67.21 -14.61,-49.81 -48.21,-75.95 -100.82,-78.41 24.07,-16.57 39.01,-38.96 44.81,-67.22 -36.36,-42.03 -28.9,-71.92 22.41,-89.62 -36.68,-13.46 -74.01,-24.67 -112.03,-33.61 -41.74,35 -71.61,27.54 -89.62,-22.4 55.72,-6.32 115.46,-6.32 179.24,0 0,-29.87 0,-59.75 0,-89.62 -209.24,3.72 -418.36,0 -627.33,-11.2 269.17,-18.67 538.02,-14.92 806.57,11.2 46.69,72.41 84.04,139.63 112.03,201.64 38.73,24.58 76.08,50.7 112.02,78.42 -14.95,7.46 -29.87,14.95 -44.81,22.41 74.38,41.04 119.19,104.53 134.43,190.43 13.13,-4.68 24.32,-12.16 33.61,-22.4 30.08,70.51 71.18,130.26 123.22,179.24 0,358.47 0,716.95 0,1075.42 -22.41,0 -44.81,0 -67.22,0 3.35,-23.56 -0.38,-45.97 -11.19,-67.21 -25.7,21.46 -48.11,14 -67.22,-22.4 -40.91,35.26 -89.46,53.92 -145.63,56.01 48.98,13.53 52.69,39.65 11.2,78.42 -42.86,-55.03 -80.18,-47.55 -112.02,22.4 -10.06,-68.94 -21.26,-128.69 -33.61,-179.24 -22.41,11.21 -44.81,22.41 -67.21,33.61 38.33,25.38 49.54,58.99 33.6,100.82 -47.5,-93.7 -77.36,-86.21 -89.62,22.41 -31.25,-36.75 -64.86,-70.35 -100.82,-100.82 4.35,-32.04 4.35,-65.65 0,-100.83 -45.12,52.54 -97.39,97.35 -156.83,134.43 -7.46,-11.2 -14.95,-22.41 -22.41,-33.6 19.81,-24.61 42.22,-35.81 67.22,-33.61 -48.71,-31.21 -89.78,-23.75 -123.22,22.4 -41.23,-29.86 -52.44,-26.12 -33.61,11.21 -33.64,56.7 -59.76,105.25 -78.42,145.62 -21.17,-9.07 -36.12,-24.01 -44.81,-44.8 -7.46,14.94 -14.94,29.86 -22.4,44.8 -7.46,-216.58 -14.95,-433.14 -22.41,-649.74 -3.81,227.98 -15.01,452.02 -33.61,672.15 0,-231.51 0,-463.04 0,-694.55 -5186.72,-7.46 -10369.68,0 -15548.9,22.4 0,216.6 0,433.16 0,649.74 -37.42,-5.62 -71.02,-20.56 -100.82,-44.8 -7.46,7.46 -14.95,14.94 -22.41,22.4 -11.36,-33.52 -0.16,-59.66 33.61,-78.42 -43.31,-5.62 -84.38,-16.82 -123.22,-33.61 -49.07,24.3 -86.4,9.35 -112.03,-44.8 -23.91,15.48 -50.05,26.68 -78.42,33.61 14.03,16.8 25.23,35.49 33.61,56 50.17,-30.67 91.25,-19.46 123.23,33.61 -23.37,44.27 -53.26,55.48 -89.63,33.61 -50.49,55.41 -99.02,55.41 -145.62,0 -40.13,45.1 -70.02,45.1 -89.62,0 -7.46,7.46 -14.95,14.94 -22.41,22.4 -23.9,-15.48 -50.05,-26.68 -78.41,-33.6 22.78,-23.51 26.53,-49.65 11.2,-78.42 -59.06,1.01 -122.56,4.75 -190.44,11.2 -29.87,22.41 -29.87,44.81 0,67.22 -32.06,10.42 -58.19,29.1 -78.42,56.01 -67.84,-25.03 -127.59,-62.38 -179.24,-112.03 -7.46,-410.74 -14.94,-821.51 -22.4,-1232.26 -3.76,631.14 -14.97,1258.48 -33.6,1882 -3.75,-664.72 0,-1329.38 11.2,-1994.02 28.27,-109.2 84.28,-198.82 168.03,-268.86 34.59,-4.55 64.48,-19.49 89.62,-44.81 36.2,13.79 66.07,36.18 89.62,67.22 49.82,-13.02 68.49,-42.88 56.01,-89.62 -7.46,7.46 -14.94,14.94 -22.4,22.4 -44.65,-42.7 -33.46,-68.84 33.6,-78.41 291.26,-7.46 582.53,-14.95 873.79,-22.41 27.47,-36.63 57.33,-70.24 89.61,-100.82 29.11,13.22 47.77,35.63 56.02,67.21 6.92,-28.36 18.12,-54.51 33.61,-78.41 59.57,-28.55 115.58,-62.16 168.03,-100.82 21.8,42.39 36.75,87.19 44.81,134.43 7.46,-14.95 14.95,-29.87 22.41,-44.81 50.81,22.65 91.87,52.51 123.22,89.61 -7.75,26.8 -18.95,26.8 -33.61,0 -14.94,22.41 -14.94,44.81 0,67.22 43.11,-33.81 69.25,-78.62 78.42,-134.43 19.38,-24.27 41.79,-27.99 67.21,-11.2 -29.86,29.86 -29.86,59.75 0,89.61 -14.94,7.46 -29.86,14.95 -44.81,22.41 46.72,23.32 84.07,56.93 112.03,100.82 -30.45,40.47 -22.96,74.08 22.4,100.83 -22.4,7.46 -44.8,14.94 -67.21,22.4 25.68,14.45 48.08,33.11 67.21,56.01 28.23,-41.52 28.23,-82.58 0,-123.22 14.95,-14.95 29.87,-29.87 44.81,-44.82 -32.23,-22.2 -54.64,-52.07 -67.21,-89.61 16.87,-33.32 35.53,-37.06 56.01,-11.21 7.46,-22.4 14.95,-44.81 22.41,-67.21 39.09,21 80.16,39.66 123.22,56.01 -14.94,7.46 -29.86,14.95 -44.81,22.41 26.15,33.61 52.27,67.22 78.42,100.82 47.54,-16.14 58.74,-42.28 33.61,-78.42 13.73,-48.1 28.66,-96.65 44.8,-145.63 16.83,19.63 28.03,42.04 33.61,67.21 20.82,-73.37 9.61,-140.58 -33.61,-201.64 7.76,-26.79 18.96,-26.79 33.61,0 5.67,-170.99 1.95,-339.03 -11.2,-504.1 11.2,-11.21 22.41,-22.41 33.61,-33.61 3.81,250.34 15.01,496.8 33.61,739.35z"/>
  </g>
  <g id="_1574867597696">
   <path class="fil1" d="M8330.22 16885.36c4346.52,0 8693.04,0 13039.57,0 0,231.51 0,463.04 0,694.54 -4346.53,0 -8693.05,0 -13039.57,0 0,-231.5 0,-463.03 0,-694.54z"/>
  </g>
  <g id="_1574867599264">
   <path class="fil14" d="M23789.5 19820.38c63.36,359.37 -78.53,602.08 -425.69,728.15 -5593.91,3.84 -11187.64,15.04 -16781.16,33.61 -375.13,-9.41 -599.18,-196.11 -672.14,-560.12 18.63,-623.52 29.84,-1250.86 33.6,-1882 7.46,410.75 14.94,821.52 22.4,1232.26 51.65,49.65 111.4,87 179.24,112.03 20.23,-26.91 46.36,-45.59 78.42,-56.01 -29.87,-22.41 -29.87,-44.81 0,-67.22 67.88,-6.45 131.38,-10.19 190.44,-11.2 15.33,28.77 11.58,54.91 -11.2,78.42 28.36,6.92 54.51,18.12 78.41,33.6 7.46,-7.46 14.95,-14.94 22.41,-22.4 19.6,45.1 49.49,45.1 89.62,0 46.6,55.41 95.13,55.41 145.62,0 36.37,21.87 66.26,10.66 89.63,-33.61 -31.98,-53.07 -73.06,-64.28 -123.23,-33.61 -8.38,-20.51 -19.58,-39.2 -33.61,-56 28.37,-6.93 54.51,-18.13 78.42,-33.61 25.63,54.15 62.96,69.1 112.03,44.8 38.84,16.79 79.91,27.99 123.22,33.61 -33.77,18.76 -44.97,44.9 -33.61,78.42 7.46,-7.46 14.95,-14.94 22.41,-22.4 29.8,24.24 63.4,39.18 100.82,44.8 5179.22,22.41 10362.18,29.87 15548.9,22.41 18.6,-220.13 29.8,-444.17 33.61,-672.15 7.46,216.6 14.95,433.16 22.41,649.74 7.46,-14.94 14.94,-29.86 22.4,-44.8 8.69,20.79 23.64,35.73 44.81,44.8 18.66,-40.37 44.78,-88.92 78.42,-145.62 -18.83,-37.33 -7.62,-41.07 33.61,-11.21 33.44,-46.15 74.51,-53.61 123.22,-22.4 -25,-2.2 -47.41,9 -67.22,33.61 7.46,11.19 14.95,22.4 22.41,33.6 59.44,-37.08 111.71,-81.89 156.83,-134.43 4.35,35.18 4.35,68.79 0,100.83 35.96,30.47 69.57,64.07 100.82,100.82 12.26,-108.62 42.12,-116.11 89.62,-22.41 15.94,-41.83 4.73,-75.44 -33.6,-100.82 22.4,-11.2 44.8,-22.4 67.21,-33.61 12.35,50.55 23.55,110.3 33.61,179.24 31.84,-69.95 69.16,-77.43 112.02,-22.4 41.49,-38.77 37.78,-64.89 -11.2,-78.42 56.17,-2.09 104.72,-20.75 145.63,-56.01 19.11,36.4 41.52,43.86 67.22,22.4 10.81,21.24 14.54,43.65 11.19,67.21 22.41,0 44.81,0 67.22,0 0,-358.47 0,-716.95 0,-1075.42 18.22,332.03 33.16,839.88 44.81,1523.52z"/>
  </g>
  <g id="_1574867598048">
   <path class="fil1" d="M7075.55 18812.16c5175.5,0 10351,0 15526.49,0 0,216.6 0,433.16 0,649.74 -5175.49,0 -10350.99,0 -15526.49,0 0,-216.58 0,-433.14 0,-649.74z"/>
  </g>
  <g id="_1574867598368">
   <path class="fil15" d="M7075.55 18812.16c5179.22,-22.4 10362.18,-29.86 15548.9,-22.4 0,231.51 0,463.04 0,694.55 -5186.72,7.46 -10369.68,0 -15548.9,-22.41 5175.5,0 10351,0 15526.49,0 0,-216.58 0,-433.14 0,-649.74 -5175.49,0 -10350.99,0 -15526.49,0z"/>
  </g>
 </g>
</svg>
