<?xml version="1.0" encoding="UTF-8"?>
<!DOCTYPE svg PUBLIC "-//W3C//DTD SVG 1.1//EN" "http://www.w3.org/Graphics/SVG/1.1/DTD/svg11.dtd">
<!-- Creator: CorelDRAW 2017 -->
<svg xmlns="http://www.w3.org/2000/svg" xml:space="preserve" width="210mm" height="297mm" version="1.1" style="shape-rendering:geometricPrecision; text-rendering:geometricPrecision; image-rendering:optimizeQuality; fill-rule:evenodd; clip-rule:evenodd"
viewBox="0 0 21000 29700"
 xmlns:xlink="http://www.w3.org/1999/xlink">
 <defs>
  <style type="text/css">
   <![CDATA[
    .fil0 {fill:#EB44EB}
   ]]>
  </style>
 </defs>
 <g id="Layer_x0020_1">
  <metadata id="CorelCorpID_0Corel-Layer"/>
  <g id="_1574702569776">
   <path class="fil0" d="M283.99 3934.9c1082.43,-11.74 2164.63,0.02 3246.52,35.29 800.57,-76.16 1494.59,147.32 2082.02,670.49 709.44,838.39 1403.49,1685.31 2082.01,2540.77 -1578.58,-117.08 -2684.27,541.65 -3317.1,1976.14 -1385.78,-1641.67 -2738.51,-3311.99 -4058.16,-5010.95 -34.06,-66.9 -45.85,-137.48 -35.29,-211.74z"/>
  </g>
  <g id="_1574702570448">
   <path class="fil0" d="M6635.9 20802.77c262.75,105.63 545.07,152.63 846.92,141.14 201.5,-0.22 389.72,-23.72 564.63,-70.59 113.55,-28.64 207.69,-28.64 282.29,0 -162.47,291.72 -338.9,574.02 -529.33,846.93 -891.87,1080.45 -1785.84,2162.62 -2681.9,3246.55 -174.88,163.72 -374.86,281.31 -599.91,352.87 -762.28,-28.22 -1538.62,-28.22 -2329.05,0 -698.34,-1.84 -1380.57,-48.84 -2046.72,-141.16 1563.64,-1956.37 3139.85,-3909.04 4728.65,-5857.87 352.88,776.08 941,1270.09 1764.42,1482.13z"/>
  </g>
  <g id="_1574702571056">
   <path class="fil0" d="M142.83 25178.51c666.15,92.32 1348.38,139.32 2046.72,141.16 790.43,-28.22 1566.77,-28.22 2329.05,0 -185.39,42.71 -373.58,77.97 -564.62,105.88 -1293.91,47.05 -2587.82,47.05 -3881.73,0 -23.5,-23.5 -47.03,-47.08 -70.56,-70.58 62.13,-49.99 109.18,-108.84 141.14,-176.46z"/>
  </g>
  <polygon class="fil0" points="20079.89,4216.76 15810.88,4111.35 8377.99,14067.22 16368.67,25560.26 21104.15,25460.84 12652.43,13897.21 "/>
 </g>
</svg>
