<?xml version="1.0" encoding="UTF-8"?>
<!DOCTYPE svg PUBLIC "-//W3C//DTD SVG 1.1//EN" "http://www.w3.org/Graphics/SVG/1.1/DTD/svg11.dtd">
<!-- Creator: CorelDRAW 2017 -->
<svg xmlns="http://www.w3.org/2000/svg" xml:space="preserve" width="297mm" height="210mm" version="1.1" style="shape-rendering:geometricPrecision; text-rendering:geometricPrecision; image-rendering:optimizeQuality; fill-rule:evenodd; clip-rule:evenodd"
viewBox="0 0 29700 21000"
 xmlns:xlink="http://www.w3.org/1999/xlink">
 <defs>
  <style type="text/css">
   <![CDATA[
    .str0 {stroke:#EB44EB;stroke-width:141.11;stroke-miterlimit:2.61313}
    .str1 {stroke:#EB44EB;stroke-width:70.55;stroke-miterlimit:2.61313}
    .str2 {stroke:#EB44EB;stroke-width:52.91;stroke-miterlimit:2.61313}
    .fil1 {fill:#020407}
    .fil5 {fill:#03080D}
    .fil10 {fill:#0C1113}
    .fil14 {fill:#171D20}
    .fil8 {fill:#181E1F}
    .fil7 {fill:#181F23}
    .fil11 {fill:#1A2024}
    .fil4 {fill:#1D2324}
    .fil9 {fill:#22282B}
    .fil13 {fill:#232A2C}
    .fil15 {fill:#252A2C}
    .fil6 {fill:#2C3133}
    .fil12 {fill:#3B4345}
    .fil0 {fill:#3C4445}
    .fil2 {fill:#F2F0EC}
    .fil3 {fill:white}
   ]]>
  </style>
 </defs>
 <g id="Layer_x0020_1">
  <metadata id="CorelCorpID_0Corel-Layer"/>
  <g id="_1574919017120">
   <path class="fil0" d="M13394.79 5975.63c158.73,-114.07 308.64,-255.19 449.79,-423.34 435.61,-360.07 929.51,-461.48 1481.67,-304.27 223.47,80.81 426.3,195.45 608.54,343.96 153.17,166.13 311.92,324.88 476.25,476.25 61.73,17.65 123.48,17.65 185.21,0 83.74,-61.78 163.12,-127.93 238.13,-198.44 149.94,-132.29 291.04,-273.39 423.33,-423.33 153.85,-145.6 325.83,-269.08 515.94,-370.42 8.81,-414.52 17.64,-829.02 26.46,-1243.54 122.95,-530.96 453.68,-835.24 992.18,-912.81 308.69,-17.65 617.35,-17.65 926.04,0 302.74,47.33 545.28,192.85 727.61,436.56 112.66,172.4 196.45,357.61 251.35,555.63 -30.69,348.19 -35.11,700.98 -13.23,1058.33 12.31,37.86 34.37,68.71 66.15,92.6 197.67,76.84 391.71,160.61 582.08,251.36 206.11,107.6 400.16,235.48 582.09,383.64 258.02,256.52 500.53,525.49 727.6,806.98 369.31,509.11 713.26,1029.47 1031.88,1561.04 -131.79,-76.72 -259.69,-156.1 -383.65,-238.12 -350.84,-221.67 -725.67,-398.04 -1124.48,-529.17 -20.24,1.85 -33.47,10.67 -39.69,26.46 -2122.35,-610.45 -3943.56,-116.57 -5463.64,1481.67 -393.65,487.39 -719.96,1016.55 -978.96,1587.5 -560.05,-211.03 -1120.09,-211.03 -1680.11,0 -24.92,-2.86 -46.96,-11.67 -66.14,-26.46 -526.42,-1337.81 -1448.07,-2294.73 -2764.9,-2870.73 -463.89,-186.48 -940.14,-314.35 -1428.75,-383.65 19.56,3.47 37.2,-0.95 52.92,-13.22 -211.67,-17.65 -211.67,-35.27 0,-52.92 -19.92,-39.35 -41.96,-43.76 -66.15,-13.23 -41.8,-101.26 -81.49,-96.86 -119.06,13.23 -275.48,4.1 -531.26,17.33 -767.29,39.69 -694.85,57.94 -1365.12,225.5 -2010.83,502.7 -197.49,83.37 -395.93,162.75 -595.32,238.13 -22.04,-8.81 -44.1,-17.65 -66.14,-26.46 40.69,-46.12 67.15,-99.03 79.37,-158.75 380.08,-684.13 847.52,-1305.9 1402.29,-1865.31 241.97,-195.98 497.71,-372.38 767.3,-529.17 168.51,-88.74 344.91,-154.89 529.16,-198.44 26.36,2.28 48.39,-6.56 66.15,-26.45 21.88,-330.92 17.46,-657.23 -13.23,-978.96 149.99,-798.2 630.63,-1177.45 1441.98,-1137.71 662.09,-88.05 1129.53,167.69 1402.29,767.29 24.34,68.82 41.99,139.38 52.92,211.67 8.81,396.87 17.64,793.75 26.46,1190.62 439.31,236.33 805.31,558.25 1098.02,965.73 140.15,65.06 263.63,43 370.41,-66.14z"/>
  </g>
  <g id="_1574919015936">
   <path class="fil1" d="M9002.71 4044.17c30.69,321.73 35.11,648.04 13.23,978.96 -17.76,19.89 -39.79,28.73 -66.15,26.45 7.49,-20.87 20.72,-38.52 39.69,-52.91 13.23,-317.37 17.65,-634.87 13.23,-952.5z"/>
  </g>
  <g id="_1574919013536">
   <path class="fil2" d="M19136.25 4017.71c116.34,-1.99 230.98,11.24 343.96,39.69 47.25,20.77 86.94,51.62 119.06,92.6 38.18,235.27 51.41,473.39 39.69,714.38 -238.13,0 -476.25,0 -714.38,0 -4.39,-229.48 0,-458.79 13.23,-687.92 30.67,-79.19 87.98,-123.3 171.98,-132.29 17.65,0 26.46,-8.81 26.46,-26.46z"/>
  </g>
  <g id="_1574919013632">
   <path class="fil3" d="M10113.96 4864.38c-6.48,-230.4 2.35,-459.69 26.46,-687.92 30.32,-52.26 74.42,-91.94 132.29,-119.06 174.2,-30.19 341.76,-12.54 502.71,52.91 16.56,19.85 29.79,41.91 39.69,66.15 13.22,229.13 17.62,458.44 13.22,687.92 -238.12,0 -476.25,0 -714.37,0z"/>
  </g>
  <g id="_1574919014080">
   <path class="fil4" d="M19109.79 4044.17c-84,8.99 -141.31,53.1 -171.98,132.29 -13.23,229.13 -17.62,458.44 -13.23,687.92 238.13,0 476.25,0 714.38,0 -248.76,35.13 -500.12,35.13 -754.06,0 -17.65,-211.67 -17.65,-423.34 0,-635 22.49,-142.77 97.47,-204.5 224.89,-185.21z"/>
  </g>
  <g id="_1574919013824">
   <path class="fil5" d="M10140.42 4176.46c-24.11,228.23 -32.94,457.52 -26.46,687.92 -30.59,-206.99 -35.01,-418.65 -13.23,-635 4.21,-48.77 17.44,-66.39 39.69,-52.92z"/>
  </g>
  <g id="_1574919013792">
   <path class="fil3" d="M19136.25 4017.71c413.02,-89.8 589.41,77.76 529.17,502.71 -0.03,119.4 -8.84,234.07 -26.46,343.96 11.72,-240.99 -1.51,-479.11 -39.69,-714.38 -32.12,-40.98 -71.81,-71.83 -119.06,-92.6 -112.98,-28.45 -227.62,-41.68 -343.96,-39.69z"/>
  </g>
  <g id="_1574919012320">
   <path class="fil6" d="M20697.29 3911.88c21.12,360.41 34.35,722.02 39.69,1084.79 208.89,88.98 407.33,194.81 595.31,317.5 -190.37,-90.75 -384.41,-174.52 -582.08,-251.36 -31.78,-23.89 -53.84,-54.74 -66.15,-92.6 -21.88,-357.35 -17.46,-710.14 13.23,-1058.33z"/>
  </g>
  <g id="_1574919012224">
   <path class="fil7" d="M17257.71 5446.46c-132.29,149.94 -273.39,291.04 -423.33,423.33 114.64,-167.56 255.77,-308.69 423.33,-423.33z"/>
  </g>
  <g id="_1574919012192">
   <path class="fil8" d="M13844.58 5552.29c-141.15,168.15 -291.06,309.27 -449.79,423.34 133.8,-160.32 283.74,-301.44 449.79,-423.34z"/>
  </g>
  <g id="_1574919013120">
   <path class="fil9" d="M9743.54 7113.33c-299.53,-18.01 -599.38,-26.82 -899.58,-26.45 236.03,-22.36 491.81,-35.59 767.29,-39.69 37.57,-110.09 77.26,-114.49 119.06,-13.23 24.19,-30.53 46.23,-26.12 66.15,13.23 -211.67,17.65 -211.67,35.27 0,52.92 -15.72,12.27 -33.36,16.69 -52.92,13.22z"/>
  </g>
  <g id="_1574919011904">
   <path class="fil10" d="M15220.42 7033.96c-255.67,-34.32 -511.44,-34.32 -767.29,0 129.99,-39.87 266.67,-57.52 410.1,-52.92 92.6,4.42 185.21,8.81 277.81,13.23 53.08,2.2 79.54,15.43 79.38,39.69z"/>
  </g>
  <g id="_1574919011104">
   <path class="fil3" d="M15220.42 7033.96c336.84,64.85 623.46,223.6 859.89,476.25 155.23,178.91 221.38,381.77 198.44,608.54 -946.2,-519.35 -1898.7,-528.16 -2857.5,-26.46 -30.35,-59.93 -34.77,-121.65 -13.23,-185.21 93.43,-261.11 256.59,-468.39 489.48,-621.77 180.76,-99.29 365.97,-183.09 555.63,-251.35 255.85,-34.32 511.62,-34.32 767.29,0z"/>
  </g>
  <g id="_1574919010400">
   <path class="fil11" d="M22126.04 7325c6.22,-15.79 19.45,-24.61 39.69,-26.46 398.81,131.13 773.64,307.5 1124.48,529.17 -375.74,-196.69 -763.8,-364.28 -1164.17,-502.71z"/>
  </g>
  <g id="_1574919010496">
   <path class="fil12 str0" d="M4478.33 11214.38c94.01,-218.52 182.2,-456.65 264.59,-714.38 395.31,-893.79 1012.66,-1594.93 1852.08,-2103.44 1182.4,-674.13 2434.78,-841.69 3757.08,-502.7 1645.98,512.68 2721.96,1593.05 3227.92,3241.14 41.65,29.93 85.75,34.34 132.29,13.23 621.38,-258.15 1256.38,-293.42 1905,-105.83 153.8,48.23 299.33,114.38 436.57,198.43 611.45,-1890.36 1885.87,-3050.11 3823.22,-3479.27 2100.03,-215.37 3718.38,556.34 4855.11,2315.11 901.86,1679.39 893.05,3355.1 -26.46,5027.08 -783.11,1205.87 -1889.97,1924.66 -3320.52,2156.36 -1482.3,187.77 -2796.41,-191.48 -3942.29,-1137.71 -1033.25,-977.77 -1558.03,-2181.63 -1574.27,-3611.57 -200.98,-172.95 -434.71,-274.4 -701.15,-304.27 -383.22,-50.51 -753.64,-6.4 -1111.25,132.3 -91.04,46.99 -174.84,104.32 -251.35,171.97 -59.27,2055.79 -1007.35,3533.04 -2844.27,4431.78 -1821.13,710 -3496.82,463.04 -5027.09,-740.84 -1184.3,-1112.62 -1726.69,-2484.04 -1627.18,-4114.27 25.74,-300.67 83.07,-591.71 171.97,-873.12z"/>
  </g>
  <g id="_1574919010368">
   <path class="fil13" d="M6833.13 7589.58c-268.82,138.35 -537.8,279.46 -806.98,423.34 -17.65,-17.65 -17.65,-35.27 0,-52.92 69.05,-112.24 144.01,-218.07 224.89,-317.5 -12.22,59.72 -38.68,112.63 -79.37,158.75 22.04,8.81 44.1,17.65 66.14,26.46 199.39,-75.38 397.83,-154.76 595.32,-238.13z"/>
  </g>
  <g id="_1574919010560">
   <path class="fil3 str0" d="M20247.5 8938.96c1553.71,-97.63 2722.3,519.72 3505.73,1852.08 541.5,1086.25 576.77,2188.66 105.83,3307.29 -679.95,1315.01 -1764.74,1985.28 -3254.37,2010.84 -1297.97,-53.55 -2294.57,-626.83 -2989.79,-1719.79 -503.77,-890.94 -627.22,-1834.62 -370.42,-2831.05 358.33,-1134.45 1085.93,-1932.62 2182.81,-2394.47 271.49,-95.12 544.91,-170.08 820.21,-224.9z"/>
  </g>
  <g id="_1574854573680">
   <path class="fil3 str0" d="M8685.21 8965.42c1799.27,-104.22 3038.42,671.91 3717.4,2328.33 439.68,1499.98 117.79,2809.66 -965.73,3929.06 -1113.32,932.95 -2356.86,1153.43 -3730.63,661.46 -1652.67,-840.08 -2371.46,-2185.03 -2156.35,-4034.89 307.15,-1268.34 1061.21,-2154.69 2262.18,-2659.07 289.17,-96.52 580.21,-171.47 873.13,-224.89z"/>
  </g>
  <g id="_1574854572816">
   <path class="fil12 str1" d="M19665.42 12537.29c-450.4,107.98 -838.44,2.15 -1164.17,-317.5 -81.07,-87.94 -129.57,-193.78 -145.52,-317.5 -50.14,-742.07 262.97,-1266.82 939.27,-1574.27 925.54,-194.44 1379.72,180.37 1362.61,1124.48 -124.44,552.11 -455.17,913.69 -992.19,1084.79z"/>
  </g>
  <g id="_1574854573776">
   <path class="fil12 str2" d="M7838.54 10288.33c532.29,-88.87 915.94,105.18 1150.94,582.09 153.59,834.92 -168.3,1403.77 -965.73,1706.56 -455.29,126.15 -838.94,15.9 -1150.94,-330.73 -198.78,-409.04 -189.94,-814.73 26.46,-1217.08 224.13,-360.95 537.21,-607.88 939.27,-740.84z"/>
  </g>
  <g id="_1574854572560">
   <path class="fil14" d="M4742.92 10500c-82.39,257.73 -170.58,495.86 -264.59,714.38 57.47,-252.05 145.68,-490.17 264.59,-714.38z"/>
  </g>
  <g id="_1574854571152">
   <path class="fil15" d="M18501.25 12219.79c325.73,319.65 713.77,425.48 1164.17,317.5 -366.13,136 -710.09,87.47 -1031.88,-145.52 -60.59,-47.01 -104.69,-104.35 -132.29,-171.98z"/>
  </g>
 </g>
</svg>
