<?xml version="1.0" encoding="UTF-8"?>
<!DOCTYPE svg PUBLIC "-//W3C//DTD SVG 1.1//EN" "http://www.w3.org/Graphics/SVG/1.1/DTD/svg11.dtd">
<svg xmlns="http://www.w3.org/2000/svg" version="1.1" width="1024px" height="1024px" style="shape-rendering:geometricPrecision; text-rendering:geometricPrecision; image-rendering:optimizeQuality; fill-rule:evenodd; clip-rule:evenodd" xmlns:xlink="http://www.w3.org/1999/xlink">
<g><path style="opacity:0.016" fill="#3c8996" d="M 267.5,112.5 C 266.448,112.649 265.448,112.483 264.5,112C 265.749,111.26 266.749,111.427 267.5,112.5 Z"/></g>
<g><path style="opacity:0.969" fill="#1e535f" d="M 785.5,111.5 C 616.167,112.833 446.833,112.833 277.5,111.5C 446.586,110.171 615.92,110.171 785.5,111.5 Z"/></g>
<g><path style="opacity:0.006" fill="#3e8a98" d="M 798.5,113.5 C 798.082,112.778 797.416,112.278 796.5,112C 797.635,111.251 798.635,111.417 799.5,112.5C 799.376,113.107 799.043,113.44 798.5,113.5 Z"/></g>
<g><path style="opacity:0.996" fill="#27717f" d="M 272.5,112.5 C 273.919,111.549 275.585,111.216 277.5,111.5C 446.833,112.833 616.167,112.833 785.5,111.5C 787.415,111.216 789.081,111.549 790.5,112.5C 789.209,112.263 788.209,112.596 787.5,113.5C 616.833,113.5 446.167,113.5 275.5,113.5C 274.791,112.596 273.791,112.263 272.5,112.5 Z"/></g>
<g><path style="opacity:0.008" fill="#3f8995" d="M 801.5,113.5 C 802.833,114.167 802.833,114.167 801.5,113.5 Z"/></g>
<g><path style="opacity:0.004" fill="#408792" d="M 804.5,114.5 C 803.833,113.167 803.833,113.167 804.5,114.5 Z"/></g>
<g><path style="opacity:0.004" fill="#3f8690" d="M 255.5,114.5 C 256.833,115.167 256.833,115.167 255.5,114.5 Z"/></g>
<g><path style="opacity:0.998" fill="#378e9d" d="M 275.5,113.5 C 446.167,113.5 616.833,113.5 787.5,113.5C 818.596,118.927 835.929,137.26 839.5,168.5C 839.667,397.5 839.5,626.5 839,855.5C 834.277,882.891 818.443,900.057 791.5,907C 792.094,907.464 792.761,907.631 793.5,907.5C 793.631,908.239 793.464,908.906 793,909.5C 792.329,908.748 791.496,908.414 790.5,908.5C 618,907.667 445.334,907.167 272.5,907C 244.74,901.386 228.24,884.553 223,856.5C 222.536,857.094 222.369,857.761 222.5,858.5C 221.566,857.432 221.232,856.099 221.5,854.5C 222.833,788.833 222.833,723.167 221.5,657.5C 206.339,656.669 191.005,656.169 175.5,656C 165.707,653.868 158.54,648.368 154,639.5C 152.223,632.122 151.056,624.789 150.5,617.5C 150.328,616.508 150.662,615.842 151.5,615.5C 155.625,604.735 163.625,597.402 175.5,593.5C 191.167,593.5 206.833,593.5 222.5,593.5C 222.5,557.5 222.5,521.5 222.5,485.5C 206.658,485.17 190.991,485.504 175.5,486.5C 174.504,486.414 173.671,486.748 173,487.5C 172.536,486.906 172.369,486.239 172.5,485.5C 153.748,476.47 147.581,460.804 154,438.5C 159.54,427.139 168.706,421.472 181.5,421.5C 195.167,421.5 208.833,421.5 222.5,421.5C 222.5,385.5 222.5,349.5 222.5,313.5C 209.5,313.5 196.5,313.5 183.5,313.5C 168.548,313.372 158.381,306.372 153,292.5C 152.162,286.353 151.329,280.353 150.5,274.5C 150.263,273.209 150.596,272.209 151.5,271.5C 151.369,272.239 151.536,272.906 152,273.5C 155.625,261.541 163.458,254.041 175.5,251C 174.906,250.536 174.239,250.369 173.5,250.5C 174.568,249.566 175.901,249.232 177.5,249.5C 192.324,250.496 207.324,250.829 222.5,250.5C 222.5,222.5 222.5,194.5 222.5,166.5C 227.798,136.535 245.465,118.868 275.5,113.5 Z M 343.5,161.5 C 488.602,161.969 632.602,162.302 775.5,162.5C 780.496,163.17 784.496,165.503 787.5,169.5C 789.796,171.401 791.629,173.734 793,176.5C 793.191,178.708 793.691,180.708 794.5,182.5C 793.695,185.3 793.695,188.3 794.5,191.5C 794.164,285.044 793.164,378.544 791.5,472C 792.428,472.388 793.095,473.055 793.5,474C 792.749,476.247 792.749,478.581 793.5,481C 793.325,482.658 792.658,483.991 791.5,485C 792.806,490.086 793.473,495.42 793.5,501C 793.379,524.902 793.046,548.735 792.5,572.5C 793.119,661.526 793.453,750.86 793.5,840.5C 793.5,841.5 793.5,842.5 793.5,843.5C 791.902,847.007 789.569,850.007 786.5,852.5C 785.106,854.708 783.106,856.208 780.5,857C 777.372,857.841 774.372,858.675 771.5,859.5C 630.55,859.106 490.217,859.106 350.5,859.5C 346.764,859.472 343.097,858.972 339.5,858C 342.167,857.333 342.167,856.667 339.5,856C 339.659,621.413 339.659,390.08 339.5,162C 340.793,161.51 342.127,161.343 343.5,161.5 Z"/></g>
<g><path style="opacity:0.008" fill="#3e8792" d="M 804.5,115.5 C 804.5,115.167 804.5,114.833 804.5,114.5C 807.167,114.833 807.167,115.167 804.5,115.5 Z"/></g>
<g><path style="opacity:0.004" fill="#3d8591" d="M 248.5,120.5 C 247.833,119.167 247.833,119.167 248.5,120.5 Z"/></g>
<g><path style="opacity:0.004" fill="#3d8391" d="M 245.5,120.5 C 246.833,121.167 246.833,121.167 245.5,120.5 Z"/></g>
<g><path style="opacity:0.004" fill="#3e8590" d="M 815.5,120.5 C 816.833,121.167 816.833,121.167 815.5,120.5 Z"/></g>
<g><path style="opacity:0.671" fill="#1f555f" d="M 798.5,113.5 C 799.209,114.404 800.209,114.737 801.5,114.5C 802.209,115.404 803.209,115.737 804.5,115.5C 808.811,118.132 813.144,120.799 817.5,123.5C 817.973,124.906 818.973,125.573 820.5,125.5C 821.5,127.167 822.833,128.5 824.5,129.5C 825.701,131.909 827.367,133.909 829.5,135.5C 835.73,144.852 839.396,155.185 840.5,166.5C 839.662,166.842 839.328,167.508 839.5,168.5C 835.929,137.26 818.596,118.927 787.5,113.5C 788.209,112.596 789.209,112.263 790.5,112.5C 792.144,112.714 793.644,112.38 795,111.5C 795.71,112.973 796.876,113.64 798.5,113.5 Z"/></g>
<g><path style="opacity:0.008" fill="#3e8691" d="M 817.5,122.5 C 818.833,123.167 818.833,123.167 817.5,122.5 Z"/></g>
<g><path style="opacity:0.996" fill="#1d5059" d="M 267.5,112.5 C 269.167,112.5 270.833,112.5 272.5,112.5C 273.791,112.263 274.791,112.596 275.5,113.5C 245.465,118.868 227.798,136.535 222.5,166.5C 222.167,166.5 221.833,166.5 221.5,166.5C 222.183,161.769 223.183,157.102 224.5,152.5C 226.734,147.012 229.401,141.346 232.5,135.5C 235.243,133.761 237.243,131.427 238.5,128.5C 241.845,126.559 245.178,123.893 248.5,120.5C 254.796,117.512 261.129,114.845 267.5,112.5 Z"/></g>
<g><path style="opacity:0.004" fill="#3e8790" d="M 820.5,124.5 C 821.833,125.167 821.833,125.167 820.5,124.5 Z"/></g>
<g><path style="opacity:0.004" fill="#3c858f" d="M 238.5,128.5 C 237.833,127.167 237.833,127.167 238.5,128.5 Z"/></g>
<g><path style="opacity:0.008" fill="#3d8490" d="M 237.5,128.5 C 236.833,129.167 236.833,129.167 237.5,128.5 Z"/></g>
<g><path style="opacity:0.004" fill="#3c828d" d="M 824.5,129.5 C 824.369,128.761 824.536,128.094 825,127.5C 825.692,128.437 825.525,129.103 824.5,129.5 Z"/></g>
<g><path style="opacity:0.008" fill="#3d838e" d="M 232.5,135.5 C 231.833,134.167 231.833,134.167 232.5,135.5 Z"/></g>
<g><path style="opacity:0.012" fill="#3d8992" d="M 829.5,134.5 C 830.833,135.167 830.833,135.167 829.5,134.5 Z"/></g>
<g><path style="opacity:0.004" fill="#3e8894" d="M 223.5,148.5 C 224.833,149.167 224.833,149.167 223.5,148.5 Z"/></g>
<g><path style="opacity:0.976" fill="#24545a" d="M 343.5,160.5 C 487.668,160.167 631.668,160.5 775.5,161.5C 775.5,161.833 775.5,162.167 775.5,162.5C 632.602,162.302 488.602,161.969 343.5,161.5C 343.5,161.167 343.5,160.833 343.5,160.5 Z"/></g>
<g><path style="opacity:1" fill="#1f525a" d="M 775.5,162.5 C 775.5,162.167 775.5,161.833 775.5,161.5C 786.34,163.338 793.007,169.672 795.5,180.5C 794.662,180.842 794.328,181.508 794.5,182.5C 793.691,180.708 793.191,178.708 793,176.5C 791.629,173.734 789.796,171.401 787.5,169.5C 784.496,165.503 780.496,163.17 775.5,162.5 Z"/></g>
<g><path style="opacity:0.008" fill="#408a97" d="M 219.5,166.5 C 220.833,167.167 220.833,167.167 219.5,166.5 Z"/></g>
<g><path style="opacity:0.941" fill="#112f35" d="M 221.5,166.5 C 221.833,166.5 222.167,166.5 222.5,166.5C 222.5,194.5 222.5,222.5 222.5,250.5C 207.324,250.829 192.324,250.496 177.5,249.5C 191.849,249.833 206.182,249.499 220.5,248.5C 220.793,221.187 221.127,193.853 221.5,166.5 Z"/></g>
<g><path style="opacity:0.004" fill="#43939f" d="M 219.5,219.5 C 220.833,220.167 220.833,220.167 219.5,219.5 Z"/></g>
<g><path style="opacity:0.004" fill="#43939f" d="M 219.5,221.5 C 220.833,222.167 220.833,222.167 219.5,221.5 Z"/></g>
<g><path style="opacity:0.004" fill="#3e8792" d="M 168.5,247.5 C 169.833,248.167 169.833,248.167 168.5,247.5 Z"/></g>
<g><path style="opacity:0.016" fill="#3f8b97" d="M 173.5,248.5 C 174.251,247.427 175.251,247.26 176.5,248C 175.552,248.483 174.552,248.649 173.5,248.5 Z"/></g>
<g><path style="opacity:0.012" fill="#42919d" d="M 177.5,248.5 C 177.897,247.475 178.563,247.308 179.5,248C 178.906,248.464 178.239,248.631 177.5,248.5 Z"/></g>
<g><path style="opacity:0.018" fill="#4394a2" d="M 180.5,248.5 C 188.323,247.344 196.323,247.177 204.5,248C 196.507,248.5 188.507,248.666 180.5,248.5 Z"/></g>
<g><path style="opacity:0.02" fill="#4295a3" d="M 205.5,248.5 C 207.288,247.378 209.288,247.211 211.5,248C 209.527,248.495 207.527,248.662 205.5,248.5 Z"/></g>
<g><path style="opacity:0.014" fill="#4193a1" d="M 212.5,248.5 C 214.628,247.371 216.961,247.204 219.5,248C 217.19,248.497 214.857,248.663 212.5,248.5 Z"/></g>
<g><path style="opacity:0.008" fill="#408894" d="M 167.5,250.5 C 167.897,249.475 168.563,249.308 169.5,250C 168.906,250.464 168.239,250.631 167.5,250.5 Z"/></g>
<g><path style="opacity:0.016" fill="#388892" d="M 160.5,256.5 C 159.833,255.167 159.833,255.167 160.5,256.5 Z"/></g>
<g><path style="opacity:0.851" fill="#1d4f57" d="M 173.5,250.5 C 174.239,250.369 174.906,250.536 175.5,251C 163.458,254.041 155.625,261.541 152,273.5C 151.536,272.906 151.369,272.239 151.5,271.5C 153.243,265.671 156.243,260.671 160.5,256.5C 164.179,253.162 168.512,251.162 173.5,250.5 Z"/></g>
<g><path style="opacity:0.008" fill="#3f8692" d="M 151.5,264.5 C 152.833,265.167 152.833,265.167 151.5,264.5 Z"/></g>
<g><path style="opacity:0.004" fill="#40828d" d="M 148.5,272.5 C 149.833,273.167 149.833,273.167 148.5,272.5 Z"/></g>
<g><path style="opacity:0.004" fill="#3f838e" d="M 147.5,281.5 C 148.833,282.167 148.833,282.167 147.5,281.5 Z"/></g>
<g><path style="opacity:0.004" fill="#4294a0" d="M 673.5,295.5 C 676.001,295.511 676.168,296.178 674,297.5C 673.536,296.906 673.369,296.239 673.5,295.5 Z"/></g>
<g><path style="opacity:0.004" fill="#4494a1" d="M 581.5,295.5 C 582.289,295.783 582.956,296.283 583.5,297C 582.184,297.528 581.517,297.028 581.5,295.5 Z"/></g>
<g><path style="opacity:0.006" fill="#4498a4" d="M 645.5,295.5 C 648.137,297.154 647.803,297.654 644.5,297C 645.056,296.617 645.389,296.117 645.5,295.5 Z"/></g>
<g><path style="opacity:0.005" fill="#4498a5" d="M 661.5,295.5 C 662.289,295.783 662.956,296.283 663.5,297C 662.167,297.667 660.833,297.667 659.5,297C 660.416,296.722 661.082,296.222 661.5,295.5 Z"/></g>
<g><path style="opacity:0.953" fill="#0b262c" d="M 695.5,297.5 C 698.096,298.265 700.763,298.599 703.5,298.5C 703.5,298.833 703.5,299.167 703.5,299.5C 612.998,299.833 522.665,299.499 432.5,298.5C 520.335,298.833 608.002,298.499 695.5,297.5 Z"/></g>
<g><path style="opacity:0.004" fill="#3f8b97" d="M 841.5,298.5 C 842.833,299.167 842.833,299.167 841.5,298.5 Z"/></g>
<g><path style="opacity:0.012" fill="#3c8390" d="M 154.5,300.5 C 153.833,301.167 153.833,301.167 154.5,300.5 Z"/></g>
<g><path style="opacity:0.996" fill="#1e515a" d="M 703.5,298.5 C 707.431,299.132 710.765,300.799 713.5,303.5C 710.011,302.342 706.678,301.009 703.5,299.5C 703.5,299.167 703.5,298.833 703.5,298.5 Z"/></g>
<g><path style="opacity:0.998" fill="#378e9d" d="M 430.5,299.5 C 430.842,298.662 431.508,298.328 432.5,298.5C 522.665,299.499 612.998,299.833 703.5,299.5C 706.678,301.009 710.011,302.342 713.5,303.5C 722.223,312.695 723.723,323.028 718,334.5C 714.324,339.419 709.49,342.419 703.5,343.5C 613.001,342.667 522.334,342.167 431.5,342C 430.128,341.598 428.795,341.098 427.5,340.5C 426.893,340.624 426.56,340.957 426.5,341.5C 418.727,337.245 415.06,330.578 415.5,321.5C 416.085,311.417 421.085,304.584 430.5,301C 431.738,300.31 431.738,299.81 430.5,299.5 Z"/></g>
<g><path style="opacity:1" fill="#20535b" d="M 150.5,274.5 C 151.329,280.353 152.162,286.353 153,292.5C 158.381,306.372 168.548,313.372 183.5,313.5C 183.5,313.833 183.5,314.167 183.5,314.5C 177.253,315.274 170.919,313.941 164.5,310.5C 160.498,307.167 157.165,303.833 154.5,300.5C 150.349,292.259 149.015,283.592 150.5,274.5 Z"/></g>
<g><path style="opacity:0.004" fill="#3c8896" d="M 164.5,310.5 C 163.833,311.167 163.833,311.167 164.5,310.5 Z"/></g>
<g><path style="opacity:0.012" fill="#408993" d="M 169.5,314.5 C 170.833,315.167 170.833,315.167 169.5,314.5 Z"/></g>
<g><path style="opacity:0.004" fill="#41939e" d="M 184.5,316.5 C 185.833,317.167 185.833,317.167 184.5,316.5 Z"/></g>
<g><path style="opacity:0.004" fill="#42929f" d="M 192.5,316.5 C 193.833,317.167 193.833,317.167 192.5,316.5 Z"/></g>
<g><path style="opacity:0.012" fill="#4295a0" d="M 216.5,316.5 C 217.833,317.167 217.833,317.167 216.5,316.5 Z"/></g>
<g><path style="opacity:0.016" fill="#459aa7" d="M 219.5,316.5 C 220.833,317.167 220.833,317.167 219.5,316.5 Z"/></g>
<g><path style="opacity:0.004" fill="#4394a1" d="M 219.5,317.5 C 220.463,318.363 220.463,319.03 219.5,319.5C 218.227,318.743 218.227,318.077 219.5,317.5 Z"/></g>
<g><path style="opacity:0.004" fill="#43959e" d="M 215.5,318.5 C 216.833,319.167 216.833,319.167 215.5,318.5 Z"/></g>
<g><path style="opacity:0.918" fill="#163d44" d="M 183.5,314.5 C 183.5,314.167 183.5,313.833 183.5,313.5C 196.5,313.5 209.5,313.5 222.5,313.5C 222.5,349.5 222.5,385.5 222.5,421.5C 208.833,421.5 195.167,421.5 181.5,421.5C 181.5,421.167 181.5,420.833 181.5,420.5C 192.71,419.438 204.377,419.438 216.5,420.5C 217.5,420.5 218.5,420.5 219.5,420.5C 220.239,420.631 220.906,420.464 221.5,420C 220.638,385.363 220.472,350.529 221,315.5C 209.037,314.852 196.537,314.519 183.5,314.5 Z"/></g>
<g><path style="opacity:1" fill="#27646e" d="M 430.5,299.5 C 431.738,299.81 431.738,300.31 430.5,301C 421.085,304.584 416.085,311.417 415.5,321.5C 415.06,330.578 418.727,337.245 426.5,341.5C 427.473,341.987 428.473,342.487 429.5,343C 520.166,343.5 610.833,343.667 701.5,343.5C 612.5,344.167 523.5,344.833 434.5,345.5C 427.675,344.673 422.009,341.673 417.5,336.5C 411.91,325.727 412.576,315.394 419.5,305.5C 420.167,305.5 420.5,305.167 420.5,304.5C 422.23,303.974 423.564,302.974 424.5,301.5C 426.5,300.833 428.5,300.167 430.5,299.5 Z"/></g>
<g><path style="opacity:0.986" fill="#3c9baa" d="M 426.5,341.5 C 426.56,340.957 426.893,340.624 427.5,340.5C 428.795,341.098 430.128,341.598 431.5,342C 522.334,342.167 613.001,342.667 703.5,343.5C 702.833,343.5 702.167,343.5 701.5,343.5C 610.833,343.667 520.166,343.5 429.5,343C 428.473,342.487 427.473,341.987 426.5,341.5 Z"/></g>
<g><path style="opacity:0.76" fill="#174146" d="M 713.5,303.5 C 720.778,308.451 723.944,315.451 723,324.5C 720.645,335.494 714.478,342.327 704.5,345C 693.257,345.178 682.09,345.678 671,346.5C 592.504,346.016 513.67,345.683 434.5,345.5C 523.5,344.833 612.5,344.167 701.5,343.5C 702.167,343.5 702.833,343.5 703.5,343.5C 709.49,342.419 714.324,339.419 718,334.5C 723.723,323.028 722.223,312.695 713.5,303.5 Z"/></g>
<g><path style="opacity:0.004" fill="#4293a0" d="M 219.5,349.5 C 220.833,350.167 220.833,350.167 219.5,349.5 Z"/></g>
<g><path style="opacity:0.937" fill="#0b2228" d="M 795.5,180.5 C 795.83,401.861 795.497,623.194 794.5,844.5C 793.833,844.5 793.5,844.167 793.5,843.5C 793.5,842.5 793.5,841.5 793.5,840.5C 794.5,624.334 794.833,408.001 794.5,191.5C 793.695,188.3 793.695,185.3 794.5,182.5C 794.328,181.508 794.662,180.842 795.5,180.5 Z"/></g>
<g><path style="opacity:0.004" fill="#4596a2" d="M 219.5,411.5 C 220.833,412.167 220.833,412.167 219.5,411.5 Z"/></g>
<g><path style="opacity:0.004" fill="#40959f" d="M 215.5,415.5 C 216.833,416.167 216.833,416.167 215.5,415.5 Z"/></g>
<g><path style="opacity:0.004" fill="#4395a2" d="M 218.5,417.5 C 217.833,416.167 217.833,416.167 218.5,417.5 Z"/></g>
<g><path style="opacity:0.008" fill="#4395a4" d="M 218.5,417.5 C 219.833,418.167 219.833,418.167 218.5,417.5 Z"/></g>
<g><path style="opacity:0.008" fill="#4397a2" d="M 216.5,419.5 C 215.833,418.167 215.833,418.167 216.5,419.5 Z"/></g>
<g><path style="opacity:0.004" fill="#408b97" d="M 169.5,419.5 C 170.833,420.167 170.833,420.167 169.5,419.5 Z"/></g>
<g><path style="opacity:0.02" fill="#459daa" d="M 218.5,418.5 C 218.833,419.167 219.167,419.833 219.5,420.5C 218.5,420.5 217.5,420.5 216.5,420.5C 216.5,420.167 216.5,419.833 216.5,419.5C 217.167,419.167 217.833,418.833 218.5,418.5 Z"/></g>
<g><path style="opacity:0.008" fill="#3f8c97" d="M 163.5,424.5 C 162.833,423.167 162.833,423.167 163.5,424.5 Z"/></g>
<g><path style="opacity:0.004" fill="#3e8692" d="M 151.5,432.5 C 152.833,433.167 152.833,433.167 151.5,432.5 Z"/></g>
<g><path style="opacity:0.004" fill="#40858e" d="M 149.5,439.5 C 150.833,440.167 150.833,440.167 149.5,439.5 Z"/></g>
<g><path style="opacity:0.004" fill="#428791" d="M 148.5,446.5 C 149.833,447.167 149.833,447.167 148.5,446.5 Z"/></g>
<g><path style="opacity:0.012" fill="#3f8893" d="M 153.5,471.5 C 152.833,472.167 152.833,472.167 153.5,471.5 Z"/></g>
<g><path style="opacity:0.939" fill="#1f5159" d="M 181.5,420.5 C 181.5,420.833 181.5,421.167 181.5,421.5C 168.706,421.472 159.54,427.139 154,438.5C 147.581,460.804 153.748,476.47 172.5,485.5C 169.309,484.908 166.309,483.741 163.5,482C 159.963,478.631 156.629,475.131 153.5,471.5C 147.864,458.589 148.364,445.922 155,433.5C 157.362,429.973 160.196,426.973 163.5,424.5C 168.857,421.826 174.524,420.159 180.5,419.5C 181.107,419.624 181.44,419.957 181.5,420.5 Z"/></g>
<g><path style="opacity:0.004" fill="#3f8792" d="M 152.5,472.5 C 151.833,473.167 151.833,473.167 152.5,472.5 Z"/></g>
<g><path style="opacity:0.004" fill="#4297a2" d="M 219.5,499.5 C 220.833,500.167 220.833,500.167 219.5,499.5 Z"/></g>
<g><path style="opacity:0.929" fill="#1b474f" d="M 175.5,486.5 C 190.991,485.504 206.658,485.17 222.5,485.5C 222.5,521.5 222.5,557.5 222.5,593.5C 206.833,593.5 191.167,593.5 175.5,593.5C 175.5,593.167 175.5,592.833 175.5,592.5C 190.858,591.614 206.025,591.281 221,591.5C 221.721,567.296 221.554,543.296 220.5,519.5C 221.494,509.013 221.828,498.346 221.5,487.5C 206.138,487.769 190.805,487.436 175.5,486.5 Z"/></g>
<g><path style="opacity:0.004" fill="#4397a3" d="M 220.5,519.5 C 219.833,518.167 219.833,518.167 220.5,519.5 Z"/></g>
<g><path style="opacity:0.004" fill="#408c96" d="M 167.5,592.5 C 168.833,593.167 168.833,593.167 167.5,592.5 Z"/></g>
<g><path style="opacity:0.008" fill="#3d8996" d="M 162.5,597.5 C 161.761,597.631 161.094,597.464 160.5,597C 161.437,596.308 162.103,596.475 162.5,597.5 Z"/></g>
<g><path style="opacity:0.004" fill="#408691" d="M 156.5,600.5 C 157.833,601.167 157.833,601.167 156.5,600.5 Z"/></g>
<g><path style="opacity:1" fill="#1c4f56" d="M 175.5,592.5 C 175.5,592.833 175.5,593.167 175.5,593.5C 163.625,597.402 155.625,604.735 151.5,615.5C 151.826,612.689 152.659,610.022 154,607.5C 156.669,604 159.502,600.667 162.5,597.5C 166.593,595.246 170.927,593.579 175.5,592.5 Z"/></g>
<g><path style="opacity:0.004" fill="#3f858d" d="M 148.5,616.5 C 149.833,617.167 149.833,617.167 148.5,616.5 Z"/></g>
<g><path style="opacity:0.004" fill="#3d838d" d="M 147.5,624.5 C 148.525,624.897 148.692,625.563 148,626.5C 147.536,625.906 147.369,625.239 147.5,624.5 Z"/></g>
<g><path style="opacity:0.008" fill="#3e838d" d="M 147.5,627.5 C 148.833,628.167 148.833,628.167 147.5,627.5 Z"/></g>
<g><path style="opacity:0.004" fill="#3e818c" d="M 151.5,641.5 C 152.833,642.167 152.833,642.167 151.5,641.5 Z"/></g>
<g><path style="opacity:0.004" fill="#3e858f" d="M 154.5,644.5 C 153.923,645.773 153.257,645.773 152.5,644.5C 152.97,643.537 153.637,643.537 154.5,644.5 Z"/></g>
<g><path style="opacity:0.835" fill="#22565e" d="M 150.5,617.5 C 151.056,624.789 152.223,632.122 154,639.5C 158.54,648.368 165.707,653.868 175.5,656C 191.005,656.169 206.339,656.669 221.5,657.5C 221.5,657.833 221.5,658.167 221.5,658.5C 204.798,658.872 188.132,658.372 171.5,657C 166.339,654.922 161.672,652.089 157.5,648.5C 157.672,647.508 157.338,646.842 156.5,646.5C 156.167,645.5 155.5,644.833 154.5,644.5C 150.313,635.905 148.98,626.905 150.5,617.5 Z"/></g>
<g><path style="opacity:0.008" fill="#3b8590" d="M 156.5,646.5 C 155.833,647.167 155.833,647.167 156.5,646.5 Z"/></g>
<g><path style="opacity:0.004" fill="#3e848f" d="M 157.5,648.5 C 156.833,649.167 156.833,649.167 157.5,648.5 Z"/></g>
<g><path style="opacity:0.95" fill="#1f5660" d="M 343.5,160.5 C 343.5,160.833 343.5,161.167 343.5,161.5C 342.127,161.343 340.793,161.51 339.5,162C 339.659,390.08 339.659,621.413 339.5,856C 342.167,856.667 342.167,857.333 339.5,858C 343.097,858.972 346.764,859.472 350.5,859.5C 490.217,859.106 630.55,859.106 771.5,859.5C 773.099,859.232 774.432,859.566 775.5,860.5C 773.5,860.5 771.5,860.5 769.5,860.5C 625.833,860.5 482.167,860.5 338.5,860.5C 338.5,627.167 338.5,393.833 338.5,160.5C 340.167,160.5 341.833,160.5 343.5,160.5 Z"/></g>
<g><path style="opacity:0.008" fill="#43929e" d="M 217.5,659.5 C 218.833,660.167 218.833,660.167 217.5,659.5 Z"/></g>
<g><path style="opacity:0.008" fill="#4291a0" d="M 219.5,662.5 C 218.833,661.167 218.833,661.167 219.5,662.5 Z"/></g>
<g><path style="opacity:0.004" fill="#4296a3" d="M 219.5,662.5 C 220.833,663.167 220.833,663.167 219.5,662.5 Z"/></g>
<g><path style="opacity:0.008" fill="#44939f" d="M 219.5,667.5 C 220.833,668.167 220.833,668.167 219.5,667.5 Z"/></g>
<g><path style="opacity:0.004" fill="#42929f" d="M 219.5,699.5 C 220.833,700.167 220.833,700.167 219.5,699.5 Z"/></g>
<g><path style="opacity:0.004" fill="#4292a0" d="M 219.5,702.5 C 220.833,703.167 220.833,703.167 219.5,702.5 Z"/></g>
<g><path style="opacity:0.056" fill="#439aa5" d="M 794.5,191.5 C 794.833,408.001 794.5,624.334 793.5,840.5C 793.453,750.86 793.119,661.526 792.5,572.5C 793.046,548.735 793.379,524.902 793.5,501C 793.473,495.42 792.806,490.086 791.5,485C 792.658,483.991 793.325,482.658 793.5,481C 792.749,478.581 792.749,476.247 793.5,474C 793.095,473.055 792.428,472.388 791.5,472C 793.164,378.544 794.164,285.044 794.5,191.5 Z"/></g>
<g><path style="opacity:0.004" fill="#44929e" d="M 219.5,725.5 C 220.833,726.167 220.833,726.167 219.5,725.5 Z"/></g>
<g><path style="opacity:0.004" fill="#42929e" d="M 219.5,733.5 C 220.833,734.167 220.833,734.167 219.5,733.5 Z"/></g>
<g><path style="opacity:0.004" fill="#42929c" d="M 219.5,739.5 C 220.833,740.167 220.833,740.167 219.5,739.5 Z"/></g>
<g><path style="opacity:0.004" fill="#42909c" d="M 219.5,749.5 C 220.833,750.167 220.833,750.167 219.5,749.5 Z"/></g>
<g><path style="opacity:0.004" fill="#42929d" d="M 219.5,757.5 C 220.833,758.167 220.833,758.167 219.5,757.5 Z"/></g>
<g><path style="opacity:0.004" fill="#42929f" d="M 219.5,766.5 C 220.833,767.167 220.833,767.167 219.5,766.5 Z"/></g>
<g><path style="opacity:0.004" fill="#42919d" d="M 219.5,773.5 C 220.833,774.167 220.833,774.167 219.5,773.5 Z"/></g>
<g><path style="opacity:0.937" fill="#0f2b30" d="M 221.5,657.5 C 222.833,723.167 222.833,788.833 221.5,854.5C 221.35,789.165 221.35,723.832 221.5,658.5C 221.5,658.167 221.5,657.833 221.5,657.5 Z"/></g>
<g><path style="opacity:1" fill="#215760" d="M 793.5,843.5 C 793.5,844.167 793.833,844.5 794.5,844.5C 790.659,852.345 784.659,857.678 776.5,860.5C 776.167,860.5 775.833,860.5 775.5,860.5C 774.432,859.566 773.099,859.232 771.5,859.5C 774.372,858.675 777.372,857.841 780.5,857C 783.106,856.208 785.106,854.708 786.5,852.5C 789.569,850.007 791.902,847.007 793.5,843.5 Z"/></g>
<g><path style="opacity:0.004" fill="#3d848f" d="M 220.5,861.5 C 221.833,862.167 221.833,862.167 220.5,861.5 Z"/></g>
<g><path style="opacity:0.972" fill="#3e9baa" d="M 769.5,860.5 C 771.5,860.5 773.5,860.5 775.5,860.5C 775.833,860.5 776.167,860.5 776.5,860.5C 775.737,861.268 774.737,861.768 773.5,862C 629.167,862.667 484.833,862.667 340.5,862C 483.667,861.833 626.667,861.333 769.5,860.5 Z"/></g>
<g><path style="opacity:0.004" fill="#3c8491" d="M 224.5,873.5 C 225.833,874.167 225.833,874.167 224.5,873.5 Z"/></g>
<g><path style="opacity:0.004" fill="#3e8794" d="M 835.5,874.5 C 836.833,875.167 836.833,875.167 835.5,874.5 Z"/></g>
<g><path style="opacity:0.004" fill="#3e8793" d="M 225.5,876.5 C 226.833,877.167 226.833,877.167 225.5,876.5 Z"/></g>
<g><path style="opacity:0.012" fill="#3f8a97" d="M 228.5,878.5 C 227.833,879.167 227.833,879.167 228.5,878.5 Z"/></g>
<g><path style="opacity:0.004" fill="#3f848e" d="M 230.5,882.5 C 229.833,883.167 229.833,883.167 230.5,882.5 Z"/></g>
<g><path style="opacity:0.004" fill="#3e8693" d="M 830.5,883.5 C 831.833,884.167 831.833,884.167 830.5,883.5 Z"/></g>
<g><path style="opacity:0.004" fill="#408895" d="M 828.5,886.5 C 829.833,887.167 829.833,887.167 828.5,886.5 Z"/></g>
<g><path style="opacity:0.004" fill="#3e808f" d="M 235.5,890.5 C 236.833,891.167 236.833,891.167 235.5,890.5 Z"/></g>
<g><path style="opacity:0.004" fill="#3a8695" d="M 241.5,894.5 C 241.103,895.525 240.437,895.692 239.5,895C 240.094,894.536 240.761,894.369 241.5,894.5 Z"/></g>
<g><path style="opacity:0.004" fill="#3e838e" d="M 816.5,898.5 C 817.833,899.167 817.833,899.167 816.5,898.5 Z"/></g>
<g><path style="opacity:0.004" fill="#3e8592" d="M 814.5,899.5 C 815.833,900.167 815.833,900.167 814.5,899.5 Z"/></g>
<g><path style="opacity:0.008" fill="#3e8991" d="M 248.5,900.5 C 247.833,901.167 247.833,901.167 248.5,900.5 Z"/></g>
<g><path style="opacity:0.576" fill="#1a4d53" d="M 840.5,166.5 C 840.667,397.5 840.5,628.5 840,859.5C 838.595,864.548 837.095,869.548 835.5,874.5C 833.583,877.331 831.917,880.331 830.5,883.5C 829.094,883.973 828.427,884.973 828.5,886.5C 820.682,895.147 811.349,901.647 800.5,906C 798.26,906.977 795.927,907.477 793.5,907.5C 792.761,907.631 792.094,907.464 791.5,907C 818.443,900.057 834.277,882.891 839,855.5C 839.5,626.5 839.667,397.5 839.5,168.5C 839.328,167.508 839.662,166.842 840.5,166.5 Z"/></g>
<g><path style="opacity:0.012" fill="#3b808c" d="M 256.5,905.5 C 257.833,906.167 257.833,906.167 256.5,905.5 Z"/></g>
<g><path style="opacity:0.012" fill="#3c818d" d="M 258.5,906.5 C 259.833,907.167 259.833,907.167 258.5,906.5 Z"/></g>
<g><path style="opacity:0.004" fill="#3e848e" d="M 260.5,907.5 C 261.833,908.167 261.833,908.167 260.5,907.5 Z"/></g>
<g><path style="opacity:0.988" fill="#21555f" d="M 790.5,908.5 C 617.861,909.663 445.194,909.829 272.5,909C 263.948,907.549 255.948,904.716 248.5,900.5C 246.192,898.529 243.858,896.529 241.5,894.5C 237.862,890.526 234.195,886.526 230.5,882.5C 230.34,880.847 229.674,879.514 228.5,878.5C 225.092,872.274 223.092,865.607 222.5,858.5C 222.369,857.761 222.536,857.094 223,856.5C 228.24,884.553 244.74,901.386 272.5,907C 445.334,907.167 618,907.667 790.5,908.5 Z"/></g>
<g><path style="opacity:0.004" fill="#3f848e" d="M 798.5,907.5 C 799.833,908.167 799.833,908.167 798.5,907.5 Z"/></g>
<g><path style="opacity:0.006" fill="#3c8593" d="M 266.5,909.5 C 265.761,909.631 265.094,909.464 264.5,909C 265.437,908.308 266.103,908.475 266.5,909.5 Z"/></g>
<g><path style="opacity:0.004" fill="#3d8491" d="M 266.5,909.5 C 267.239,909.369 267.906,909.536 268.5,910C 267.563,910.692 266.897,910.525 266.5,909.5 Z"/></g>
<g><path style="opacity:0.008" fill="#3c8490" d="M 269.5,909.5 C 270.833,910.167 270.833,910.167 269.5,909.5 Z"/></g>
<g><path style="opacity:0.004" fill="#3f8994" d="M 788.5,909.5 C 789.833,910.167 789.833,910.167 788.5,909.5 Z"/></g>
<g><path style="opacity:0.004" fill="#3d8796" d="M 272.5,910.5 C 273.833,911.167 273.833,911.167 272.5,910.5 Z"/></g>
<g><path style="opacity:0.004" fill="#3e8795" d="M 276.5,911.5 C 277.946,910.387 279.613,910.22 281.5,911C 279.866,911.494 278.199,911.66 276.5,911.5 Z"/></g>
<g><path style="opacity:0.004" fill="#418796" d="M 282.5,911.5 C 283.946,910.387 285.613,910.22 287.5,911C 285.866,911.494 284.199,911.66 282.5,911.5 Z"/></g>
<g><path style="opacity:0.004" fill="#408893" d="M 288.5,910.5 C 289.833,911.167 289.833,911.167 288.5,910.5 Z"/></g>
<g><path style="opacity:0.008" fill="#408390" d="M 292.5,910.5 C 293.833,911.167 293.833,911.167 292.5,910.5 Z"/></g>
<g><path style="opacity:0.004" fill="#3e8793" d="M 295.5,911.5 C 295.897,910.475 296.563,910.308 297.5,911C 296.906,911.464 296.239,911.631 295.5,911.5 Z"/></g>
<g><path style="opacity:0.012" fill="#3f8895" d="M 299.5,911.5 C 299.897,910.475 300.563,910.308 301.5,911C 300.906,911.464 300.239,911.631 299.5,911.5 Z"/></g>
<g><path style="opacity:0.008" fill="#3f8793" d="M 302.5,911.5 C 303.601,910.402 304.934,910.235 306.5,911C 305.207,911.49 303.873,911.657 302.5,911.5 Z"/></g>
<g><path style="opacity:0.004" fill="#3f8695" d="M 307.5,911.5 C 308.946,910.387 310.613,910.22 312.5,911C 310.866,911.494 309.199,911.66 307.5,911.5 Z"/></g>
<g><path style="opacity:0.004" fill="#408895" d="M 313.5,910.5 C 314.833,911.167 314.833,911.167 313.5,910.5 Z"/></g>
<g><path style="opacity:0.005" fill="#3f8795" d="M 315.5,911.5 C 317.288,910.378 319.288,910.211 321.5,911C 319.527,911.495 317.527,911.662 315.5,911.5 Z"/></g>
<g><path style="opacity:0.008" fill="#418996" d="M 323.5,911.5 C 324.251,910.427 325.251,910.26 326.5,911C 325.552,911.483 324.552,911.649 323.5,911.5 Z"/></g>
<g><path style="opacity:0.008" fill="#3f8895" d="M 327.5,911.5 C 327.897,910.475 328.563,910.308 329.5,911C 328.906,911.464 328.239,911.631 327.5,911.5 Z"/></g>
<g><path style="opacity:0.004" fill="#408a94" d="M 330.5,910.5 C 331.833,911.167 331.833,911.167 330.5,910.5 Z"/></g>
<g><path style="opacity:0.008" fill="#408994" d="M 332.5,910.5 C 333.833,911.167 333.833,911.167 332.5,910.5 Z"/></g>
<g><path style="opacity:0.008" fill="#3e8893" d="M 335.5,910.5 C 336.833,911.167 336.833,911.167 335.5,910.5 Z"/></g>
<g><path style="opacity:0.01" fill="#408895" d="M 338.5,911.5 C 340.288,910.378 342.288,910.211 344.5,911C 342.527,911.495 340.527,911.662 338.5,911.5 Z"/></g>
<g><path style="opacity:0.004" fill="#428a96" d="M 345.5,910.5 C 346.833,911.167 346.833,911.167 345.5,910.5 Z"/></g>
<g><path style="opacity:0.016" fill="#418995" d="M 347.5,911.5 C 348.251,910.427 349.251,910.26 350.5,911C 349.552,911.483 348.552,911.649 347.5,911.5 Z"/></g>
<g><path style="opacity:0.004" fill="#3f8894" d="M 351.5,911.5 C 353.628,910.371 355.961,910.204 358.5,911C 356.19,911.497 353.857,911.663 351.5,911.5 Z"/></g>
<g><path style="opacity:0.012" fill="#3f8895" d="M 359.5,911.5 C 361.288,910.378 363.288,910.211 365.5,911C 363.527,911.495 361.527,911.662 359.5,911.5 Z"/></g>
<g><path style="opacity:0.008" fill="#428896" d="M 371.5,911.5 C 372.251,910.427 373.251,910.26 374.5,911C 373.552,911.483 372.552,911.649 371.5,911.5 Z"/></g>
<g><path style="opacity:0.004" fill="#408a96" d="M 375.5,911.5 C 375.897,910.475 376.563,910.308 377.5,911C 376.906,911.464 376.239,911.631 375.5,911.5 Z"/></g>
<g><path style="opacity:0.004" fill="#3f8894" d="M 380.5,911.5 C 380.897,910.475 381.563,910.308 382.5,911C 381.906,911.464 381.239,911.631 380.5,911.5 Z"/></g>
<g><path style="opacity:0.004" fill="#408895" d="M 383.5,911.5 C 384.251,910.427 385.251,910.26 386.5,911C 385.552,911.483 384.552,911.649 383.5,911.5 Z"/></g>
<g><path style="opacity:0.012" fill="#418796" d="M 387.5,911.5 C 388.946,910.387 390.613,910.22 392.5,911C 390.866,911.494 389.199,911.66 387.5,911.5 Z"/></g>
<g><path style="opacity:0.01" fill="#3f8895" d="M 393.5,911.5 C 394.946,910.387 396.613,910.22 398.5,911C 396.866,911.494 395.199,911.66 393.5,911.5 Z"/></g>
<g><path style="opacity:0.004" fill="#418a94" d="M 399.5,910.5 C 400.833,911.167 400.833,911.167 399.5,910.5 Z"/></g>
<g><path style="opacity:0.004" fill="#418a95" d="M 401.5,910.5 C 402.833,911.167 402.833,911.167 401.5,910.5 Z"/></g>
<g><path style="opacity:0.004" fill="#3f8694" d="M 404.5,911.5 C 407.64,910.359 410.973,910.192 414.5,911C 411.183,911.498 407.85,911.665 404.5,911.5 Z"/></g>
<g><path style="opacity:0.008" fill="#408893" d="M 415.5,910.5 C 416.833,911.167 416.833,911.167 415.5,910.5 Z"/></g>
<g><path style="opacity:0.004" fill="#408a95" d="M 419.5,911.5 C 420.601,910.402 421.934,910.235 423.5,911C 422.207,911.49 420.873,911.657 419.5,911.5 Z"/></g>
<g><path style="opacity:0.01" fill="#3f8796" d="M 426.5,911.5 C 427.601,910.402 428.934,910.235 430.5,911C 429.207,911.49 427.873,911.657 426.5,911.5 Z"/></g>
<g><path style="opacity:0.012" fill="#408791" d="M 431.5,910.5 C 432.833,911.167 432.833,911.167 431.5,910.5 Z"/></g>
<g><path style="opacity:0.012" fill="#418a96" d="M 433.5,911.5 C 435.628,910.371 437.961,910.204 440.5,911C 438.19,911.497 435.857,911.663 433.5,911.5 Z"/></g>
<g><path style="opacity:0.012" fill="#408996" d="M 443.5,911.5 C 444.251,910.427 445.251,910.26 446.5,911C 445.552,911.483 444.552,911.649 443.5,911.5 Z"/></g>
<g><path style="opacity:0.004" fill="#418a93" d="M 447.5,910.5 C 448.833,911.167 448.833,911.167 447.5,910.5 Z"/></g>
<g><path style="opacity:0.008" fill="#408894" d="M 450.5,911.5 C 451.601,910.402 452.934,910.235 454.5,911C 453.207,911.49 451.873,911.657 450.5,911.5 Z"/></g>
<g><path style="opacity:0.009" fill="#408b98" d="M 455.5,911.5 C 456.946,910.387 458.613,910.22 460.5,911C 458.866,911.494 457.199,911.66 455.5,911.5 Z"/></g>
<g><path style="opacity:0.004" fill="#3f8c96" d="M 461.5,910.5 C 462.833,911.167 462.833,911.167 461.5,910.5 Z"/></g>
<g><path style="opacity:0.006" fill="#408995" d="M 463.5,911.5 C 464.601,910.402 465.934,910.235 467.5,911C 466.207,911.49 464.873,911.657 463.5,911.5 Z"/></g>
<g><path style="opacity:0.008" fill="#428a96" d="M 468.5,911.5 C 468.897,910.475 469.563,910.308 470.5,911C 469.906,911.464 469.239,911.631 468.5,911.5 Z"/></g>
<g><path style="opacity:0.012" fill="#408894" d="M 476.5,911.5 C 479.64,910.359 482.973,910.192 486.5,911C 483.183,911.498 479.85,911.665 476.5,911.5 Z"/></g>
<g><path style="opacity:0.008" fill="#3f8996" d="M 487.5,910.5 C 488.833,911.167 488.833,911.167 487.5,910.5 Z"/></g>
<g><path style="opacity:0.005" fill="#408b97" d="M 492.5,911.5 C 493.946,910.387 495.613,910.22 497.5,911C 495.866,911.494 494.199,911.66 492.5,911.5 Z"/></g>
<g><path style="opacity:0.004" fill="#3f8896" d="M 498.5,911.5 C 500.288,910.378 502.288,910.211 504.5,911C 502.527,911.495 500.527,911.662 498.5,911.5 Z"/></g>
<g><path style="opacity:0.004" fill="#418895" d="M 507.5,911.5 C 507.897,910.475 508.563,910.308 509.5,911C 508.906,911.464 508.239,911.631 507.5,911.5 Z"/></g>
<g><path style="opacity:0.004" fill="#438c98" d="M 512.5,910.5 C 513.833,911.167 513.833,911.167 512.5,910.5 Z"/></g>
<g><path style="opacity:0.004" fill="#428995" d="M 516.5,911.5 C 516.897,910.475 517.563,910.308 518.5,911C 517.906,911.464 517.239,911.631 516.5,911.5 Z"/></g>
<g><path style="opacity:0.004" fill="#3f8896" d="M 523.5,911.5 C 524.251,910.427 525.251,910.26 526.5,911C 525.552,911.483 524.552,911.649 523.5,911.5 Z"/></g>
<g><path style="opacity:0.004" fill="#408894" d="M 527.5,910.5 C 528.833,911.167 528.833,911.167 527.5,910.5 Z"/></g>
<g><path style="opacity:0.004" fill="#408995" d="M 529.5,910.5 C 530.833,911.167 530.833,911.167 529.5,910.5 Z"/></g>
<g><path style="opacity:0.008" fill="#3f8795" d="M 531.5,911.5 C 532.251,910.427 533.251,910.26 534.5,911C 533.552,911.483 532.552,911.649 531.5,911.5 Z"/></g>
<g><path style="opacity:0.008" fill="#408794" d="M 535.5,910.5 C 536.833,911.167 536.833,911.167 535.5,910.5 Z"/></g>
<g><path style="opacity:0.008" fill="#418894" d="M 539.5,911.5 C 540.251,910.427 541.251,910.26 542.5,911C 541.552,911.483 540.552,911.649 539.5,911.5 Z"/></g>
<g><path style="opacity:0.008" fill="#418893" d="M 543.5,910.5 C 544.833,911.167 544.833,911.167 543.5,910.5 Z"/></g>
<g><path style="opacity:0.008" fill="#418a96" d="M 547.5,911.5 C 548.251,910.427 549.251,910.26 550.5,911C 549.552,911.483 548.552,911.649 547.5,911.5 Z"/></g>
<g><path style="opacity:0.004" fill="#408996" d="M 551.5,911.5 C 551.897,910.475 552.563,910.308 553.5,911C 552.906,911.464 552.239,911.631 551.5,911.5 Z"/></g>
<g><path style="opacity:0.004" fill="#428996" d="M 556.5,911.5 C 556.897,910.475 557.563,910.308 558.5,911C 557.906,911.464 557.239,911.631 556.5,911.5 Z"/></g>
<g><path style="opacity:0.01" fill="#408895" d="M 559.5,911.5 C 562.304,910.362 565.304,910.195 568.5,911C 565.518,911.498 562.518,911.665 559.5,911.5 Z"/></g>
<g><path style="opacity:0.008" fill="#428996" d="M 571.5,911.5 C 572.251,910.427 573.251,910.26 574.5,911C 573.552,911.483 572.552,911.649 571.5,911.5 Z"/></g>
<g><path style="opacity:0.006" fill="#408996" d="M 576.5,911.5 C 577.946,910.387 579.613,910.22 581.5,911C 579.866,911.494 578.199,911.66 576.5,911.5 Z"/></g>
<g><path style="opacity:0.008" fill="#3f8895" d="M 588.5,910.5 C 589.833,911.167 589.833,911.167 588.5,910.5 Z"/></g>
<g><path style="opacity:0.012" fill="#3f8894" d="M 591.5,911.5 C 593.628,910.371 595.961,910.204 598.5,911C 596.19,911.497 593.857,911.663 591.5,911.5 Z"/></g>
<g><path style="opacity:0.008" fill="#408895" d="M 599.5,911.5 C 602.64,910.359 605.973,910.192 609.5,911C 606.183,911.498 602.85,911.665 599.5,911.5 Z"/></g>
<g><path style="opacity:0.012" fill="#408895" d="M 610.5,911.5 C 611.251,910.427 612.251,910.26 613.5,911C 612.552,911.483 611.552,911.649 610.5,911.5 Z"/></g>
<g><path style="opacity:0.004" fill="#428a95" d="M 616.5,910.5 C 617.833,911.167 617.833,911.167 616.5,910.5 Z"/></g>
<g><path style="opacity:0.008" fill="#428895" d="M 619.5,911.5 C 620.251,910.427 621.251,910.26 622.5,911C 621.552,911.483 620.552,911.649 619.5,911.5 Z"/></g>
<g><path style="opacity:0.008" fill="#3e8592" d="M 623.5,910.5 C 624.833,911.167 624.833,911.167 623.5,910.5 Z"/></g>
<g><path style="opacity:0.007" fill="#418894" d="M 627.5,911.5 C 628.251,910.427 629.251,910.26 630.5,911C 629.552,911.483 628.552,911.649 627.5,911.5 Z"/></g>
<g><path style="opacity:0.004" fill="#428893" d="M 631.5,910.5 C 632.833,911.167 632.833,911.167 631.5,910.5 Z"/></g>
<g><path style="opacity:0.004" fill="#438996" d="M 635.5,911.5 C 635.897,910.475 636.563,910.308 637.5,911C 636.906,911.464 636.239,911.631 635.5,911.5 Z"/></g>
<g><path style="opacity:0.004" fill="#418895" d="M 638.5,911.5 C 638.897,910.475 639.563,910.308 640.5,911C 639.906,911.464 639.239,911.631 638.5,911.5 Z"/></g>
<g><path style="opacity:0.008" fill="#418895" d="M 642.5,911.5 C 643.601,910.402 644.934,910.235 646.5,911C 645.207,911.49 643.873,911.657 642.5,911.5 Z"/></g>
<g><path style="opacity:0.005" fill="#428b97" d="M 651.5,911.5 C 652.251,910.427 653.251,910.26 654.5,911C 653.552,911.483 652.552,911.649 651.5,911.5 Z"/></g>
<g><path style="opacity:0.004" fill="#3f8994" d="M 655.5,910.5 C 656.833,911.167 656.833,911.167 655.5,910.5 Z"/></g>
<g><path style="opacity:0.01" fill="#408897" d="M 659.5,911.5 C 659.897,910.475 660.563,910.308 661.5,911C 660.906,911.464 660.239,911.631 659.5,911.5 Z"/></g>
<g><path style="opacity:0.01" fill="#408998" d="M 663.5,911.5 C 665.628,910.371 667.961,910.204 670.5,911C 668.19,911.497 665.857,911.663 663.5,911.5 Z"/></g>
<g><path style="opacity:0.006" fill="#408b96" d="M 671.5,911.5 C 673.628,910.371 675.961,910.204 678.5,911C 676.19,911.497 673.857,911.663 671.5,911.5 Z"/></g>
<g><path style="opacity:0.016" fill="#428a96" d="M 679.5,911.5 C 679.897,910.475 680.563,910.308 681.5,911C 680.906,911.464 680.239,911.631 679.5,911.5 Z"/></g>
<g><path style="opacity:0.01" fill="#418997" d="M 682.5,911.5 C 684.628,910.371 686.961,910.204 689.5,911C 687.19,911.497 684.857,911.663 682.5,911.5 Z"/></g>
<g><path style="opacity:0.008" fill="#3f8996" d="M 690.5,911.5 C 692.628,910.371 694.961,910.204 697.5,911C 695.19,911.497 692.857,911.663 690.5,911.5 Z"/></g>
<g><path style="opacity:0.012" fill="#3f8996" d="M 698.5,911.5 C 700.628,910.371 702.961,910.204 705.5,911C 703.19,911.497 700.857,911.663 698.5,911.5 Z"/></g>
<g><path style="opacity:0.008" fill="#408995" d="M 706.5,911.5 C 707.601,910.402 708.934,910.235 710.5,911C 709.207,911.49 707.873,911.657 706.5,911.5 Z"/></g>
<g><path style="opacity:0.006" fill="#3e8794" d="M 711.5,911.5 C 711.897,910.475 712.563,910.308 713.5,911C 712.906,911.464 712.239,911.631 711.5,911.5 Z"/></g>
<g><path style="opacity:0.004" fill="#3e8894" d="M 714.5,910.5 C 715.833,911.167 715.833,911.167 714.5,910.5 Z"/></g>
<g><path style="opacity:0.012" fill="#3f8794" d="M 716.5,910.5 C 717.833,911.167 717.833,911.167 716.5,910.5 Z"/></g>
<g><path style="opacity:0.008" fill="#3f8795" d="M 718.5,911.5 C 718.897,910.475 719.563,910.308 720.5,911C 719.906,911.464 719.239,911.631 718.5,911.5 Z"/></g>
<g><path style="opacity:0.012" fill="#408996" d="M 723.5,911.5 C 724.251,910.427 725.251,910.26 726.5,911C 725.552,911.483 724.552,911.649 723.5,911.5 Z"/></g>
<g><path style="opacity:0.004" fill="#408995" d="M 727.5,911.5 C 727.897,910.475 728.563,910.308 729.5,911C 728.906,911.464 728.239,911.631 727.5,911.5 Z"/></g>
<g><path style="opacity:0.008" fill="#408896" d="M 731.5,911.5 C 732.251,910.427 733.251,910.26 734.5,911C 733.552,911.483 732.552,911.649 731.5,911.5 Z"/></g>
<g><path style="opacity:0.008" fill="#418a96" d="M 735.5,911.5 C 737.628,910.371 739.961,910.204 742.5,911C 740.19,911.497 737.857,911.663 735.5,911.5 Z"/></g>
<g><path style="opacity:0.004" fill="#3e8a96" d="M 743.5,910.5 C 744.833,911.167 744.833,911.167 743.5,910.5 Z"/></g>
<g><path style="opacity:0.004" fill="#3f8894" d="M 746.5,911.5 C 748.288,910.378 750.288,910.211 752.5,911C 750.527,911.495 748.527,911.662 746.5,911.5 Z"/></g>
<g><path style="opacity:0.006" fill="#408996" d="M 754.5,911.5 C 755.601,910.402 756.934,910.235 758.5,911C 757.207,911.49 755.873,911.657 754.5,911.5 Z"/></g>
<g><path style="opacity:0.004" fill="#3f8995" d="M 759.5,910.5 C 760.833,911.167 760.833,911.167 759.5,910.5 Z"/></g>
<g><path style="opacity:0.006" fill="#428a97" d="M 764.5,911.5 C 764.897,910.475 765.563,910.308 766.5,911C 765.906,911.464 765.239,911.631 764.5,911.5 Z"/></g>
<g><path style="opacity:0.004" fill="#408893" d="M 767.5,910.5 C 768.833,911.167 768.833,911.167 767.5,910.5 Z"/></g>
<g><path style="opacity:0.008" fill="#418a97" d="M 771.5,911.5 C 772.251,910.427 773.251,910.26 774.5,911C 773.552,911.483 772.552,911.649 771.5,911.5 Z"/></g>
<g><path style="opacity:0.004" fill="#3e8894" d="M 775.5,911.5 C 775.897,910.475 776.563,910.308 777.5,911C 776.906,911.464 776.239,911.631 775.5,911.5 Z"/></g>
<g><path style="opacity:0.006" fill="#3f8894" d="M 779.5,911.5 C 779.897,910.475 780.563,910.308 781.5,911C 780.906,911.464 780.239,911.631 779.5,911.5 Z"/></g>
</svg>
