<?xml version="1.0" encoding="UTF-8"?>
<!DOCTYPE svg PUBLIC "-//W3C//DTD SVG 1.1//EN" "http://www.w3.org/Graphics/SVG/1.1/DTD/svg11.dtd">
<!-- Creator: CorelDRAW 2017 -->
<svg xmlns="http://www.w3.org/2000/svg" xml:space="preserve" width="297mm" height="210mm" version="1.1" style="shape-rendering:geometricPrecision; text-rendering:geometricPrecision; image-rendering:optimizeQuality; fill-rule:evenodd; clip-rule:evenodd"
viewBox="0 0 29700 21000"
 xmlns:xlink="http://www.w3.org/1999/xlink">
 <defs>
  <style type="text/css">
   <![CDATA[
    .fil0 {fill:#089AF5}
    .fil2 {fill:#70C2F5}
    .fil3 {fill:#EFEFEF}
    .fil1 {fill:white}
   ]]>
  </style>
 </defs>
 <g id="Layer_x0020_1">
  <metadata id="CorelCorpID_0Corel-Layer"/>
  <path class="fil0" d="M20326.88 7695.42c499.79,20.64 931.94,201.42 1296.45,542.39 371.61,345.5 622.97,764.44 754.07,1256.77 17.64,2875.15 17.64,5750.27 0,8625.42 -260.01,1380.07 -1084.64,2178.24 -2473.86,2394.48 -3386.66,17.65 -6773.33,17.65 -10160,0 -1252.35,-229.29 -2050.52,-956.89 -2394.48,-2182.81 -24.6,-140.21 -42.25,-281.33 -52.91,-423.34 -17.65,-2751.66 -17.65,-5503.33 0,-8255 169.07,-989.35 737.92,-1619.93 1706.56,-1891.77 114.33,-13.2 228.97,-17.62 343.96,-13.23 0,-35.26 0,-70.56 0,-105.83 20.9,29.34 34.13,64.61 39.69,105.83 -3.31,-735.64 -16.54,-1467.67 -39.69,-2196.04 223.76,-2172.91 1317.36,-3729.54 3280.83,-4669.89 1888.6,-743.11 3678.95,-557.9 5371.04,555.62 1399.01,1002.72 2179.53,2365.32 2341.57,4087.81 19.03,645.45 17.6,1290.31 -4.32,1934.49 -2.66,78.38 -5.64,156.74 -8.91,235.1z"/>
  <g id="_1574914372592">
   <path class="fil1" d="M14558.96 9230c1909.36,-26.43 3823.18,-35.27 5741.46,-26.46 311.17,73.16 522.84,258.37 635,555.63 8.6,2787.52 -0.24,5574.45 -26.46,8360.83 -203.25,550.97 -600.13,864.05 -1190.63,939.27 -3245.56,17.65 -6491.1,17.65 -9736.66,0 -579.33,-68.26 -971.79,-372.53 -1177.4,-912.81 -8.81,-52.92 -17.65,-105.83 -26.46,-158.75 -17.64,-2760.48 -17.64,-5520.98 0,-8281.46 77.55,-161.18 187.8,-293.47 330.73,-396.87 17.65,0 35.27,0 52.92,0 1.59,14.36 10.4,23.17 26.46,26.45 34.26,-15.82 69.53,-29.05 105.83,-39.68 3448.39,-20.98 6896.79,-38.63 10345.21,-52.92 -1693.31,-13.23 -3386.64,-17.65 -5080,-13.23z"/>
  </g>
  <g id="_1574914368912">
   <path class="fil2" d="M15881.88 17220.42c-656.36,16.9 -1308.98,34.53 -1957.92,52.91 -146.84,-18.97 -226.22,-102.76 -238.13,-251.35 138.8,-892.28 279.91,-1783.05 423.34,-2672.29 -938.45,-532.18 -1269.18,-1321.52 -992.19,-2368.02 391.58,-837.36 1048.62,-1238.62 1971.15,-1203.86 846.37,193.76 1379.93,709.7 1600.73,1547.82 82.44,906.91 -274.75,1572.79 -1071.57,1997.6 -14.79,19.18 -23.6,41.22 -26.46,66.15 136.48,827.59 264.35,1656.61 383.65,2487.08 17.65,88.18 17.65,176.4 0,264.58 -11.17,50.96 -42.04,77.42 -92.6,79.38z"/>
  </g>
  <g id="_1574914369360">
   <path class="fil3" d="M14691.25 12061.04c559.2,-18.62 792.93,245.96 701.15,793.75 -202.73,351.66 -489.35,444.26 -859.9,277.82 -217.72,-185.82 -292.71,-419.53 -224.89,-701.15 75.96,-180.58 203.83,-304.06 383.64,-370.42z"/>
  </g>
  <path class="fil1" d="M10801.88 5658.13c0,-105.84 0,-211.67 0,-317.5 28.7,-153.04 60.3,-302.14 103.09,-444.88 399.22,-1331.79 1262.67,-2285.92 2648.57,-2796.27 1704.03,-463.55 3163.65,-62.28 4378.86,1203.85 491.12,572.56 799.78,1234.02 926.04,1984.38 37.49,801.9 50.72,1604.49 39.69,2407.71 -2698.73,12.35 -5397.48,21.16 -8096.25,26.46 0,-687.92 0,-1375.84 0,-2063.75z"/>
  <path class="fil1" d="M9492.83 4565.24c190.26,7.24 1351.2,-9.34 1554.63,-1.92 -19.56,54.09 -20.03,91.89 -33.52,127.25 -24.32,63.73 -47.22,109.43 -61.89,158.33 -4.64,15.51 -12.26,38.5 -17.31,54.68 -0.16,0.51 -0.46,1.03 -0.46,1.54 5.38,991.99 5.45,1756.21 3.5,2804.84 -531.9,17.92 -1063.8,30.69 -1595.71,38.38 0,-848.66 -21.52,-1313.72 -27.63,-2203.85 -0.08,-12.85 46.53,-379.69 82.76,-556.79 33.85,-165.48 55.53,-261.3 95.63,-422.46z"/>
 </g>
</svg>
