<?xml version="1.0" encoding="UTF-8"?>
<!DOCTYPE svg PUBLIC "-//W3C//DTD SVG 1.1//EN" "http://www.w3.org/Graphics/SVG/1.1/DTD/svg11.dtd">
<!-- Creator: CorelDRAW 2017 -->
<svg xmlns="http://www.w3.org/2000/svg" xml:space="preserve" width="3508px" height="2480px" version="1.1" style="shape-rendering:geometricPrecision; text-rendering:geometricPrecision; image-rendering:optimizeQuality; fill-rule:evenodd; clip-rule:evenodd"
viewBox="0 0 3508 2480.4"
 xmlns:xlink="http://www.w3.org/1999/xlink">
 <defs>
  <style type="text/css">
   <![CDATA[
    .fil1 {fill:black}
    .fil0 {fill:#A1A1A1}
   ]]>
  </style>
 </defs>
 <g id="Layer_x0020_1">
  <metadata id="CorelCorpID_0Corel-Layer"/>
  <g id="_2852203251664">
   <g id="_1574860188384">
    <path class="fil0" d="M2719.13 744.02c-1.96,0.34 -3.73,-0.1 -5.3,-1.33 6.7,-1.64 12.88,-4.28 18.53,-7.94 -3.12,-2.55 -6.65,-3.88 -10.59,-3.97 -0.94,-9.81 0.82,-19.51 5.29,-29.1 -0.55,-1.56 -1.43,-2.88 -2.64,-3.97 3.35,-0.82 6.44,-2.14 9.26,-3.97 3.87,7.78 9.61,12.63 17.2,14.55 -3.53,-2.64 -3.53,-5.29 0,-7.94 -1.76,-1.76 -3.53,-3.53 -5.29,-5.29 1.27,-2.67 1.71,-5.76 1.32,-9.26 1.73,3.16 3.05,3.16 3.97,0 -3.33,-2.34 -6.42,-4.98 -9.26,-7.94 -0.88,1.76 -1.77,3.53 -2.65,5.29 -1.12,-3.85 -3.32,-5.17 -6.61,-3.97 2.51,1.9 2.95,4.11 1.32,6.62 -4.19,-3.6 -9.04,-5.37 -14.55,-5.3 0.39,2.79 -0.05,5.43 -1.33,7.94 -1.32,-4.85 -4.41,-7.94 -9.26,-9.26 3.25,-4.2 2.37,-7.73 -2.65,-10.58 4.22,1.63 7.75,0.75 10.59,-2.65 -3.84,-2.96 -8.25,-4.72 -13.23,-5.29 1.76,-3.53 4.41,-6.18 7.94,-7.94 -0.79,-3.5 -1.24,-7.46 -1.33,-11.91 -0.88,1.76 -1.76,3.53 -2.64,5.29 -3.71,-1.92 -7.67,-3.24 -11.91,-3.97 2.97,-0.65 5.62,-1.98 7.94,-3.97 -0.92,-3.16 -2.24,-3.16 -3.97,0 -4.68,-4.8 -7.77,-9.21 -9.27,-13.23 -10.58,2.65 -10.58,5.29 0,7.94 1.54,5.66 4.19,10.51 7.94,14.56 -3.08,1.32 -5.29,3.52 -6.61,6.61 -0.49,-6.35 -1.82,-12.53 -3.97,-18.52 -1.69,1.9 -1.69,4.54 0,7.94 -2.96,7.77 -6.49,8.65 -10.59,2.64 1.77,-1.76 3.53,-3.53 5.3,-5.29 -2.71,-2.26 -4.91,-4.91 -6.62,-7.94 -0.29,8.33 -3.82,10.97 -10.58,7.94 -0.89,1.76 -1.77,3.53 -2.65,5.29 -2.46,-7.56 -6.87,-13.74 -13.23,-18.52 -2.56,3.12 -3.89,6.64 -3.97,10.58 4.69,1.26 9.1,4.34 13.23,9.27 -5.82,2.18 -10.68,0.86 -14.56,-3.97 -0.88,0.88 -1.76,1.76 -2.64,2.64 -2.86,-5.01 -6.39,-5.89 -10.59,-2.64 -3.45,-7.43 -9.18,-9.64 -17.2,-6.62 2.65,0.88 5.29,1.77 7.94,2.65 -0.51,4.35 -0.95,9.2 -1.32,14.55 -4.47,-7.33 -11.09,-11.74 -19.85,-13.23 -3.02,-2.45 -3.02,-4.65 0,-6.62 -3.35,-0.81 -6.44,-2.14 -9.26,-3.97 -0.88,0.89 -1.77,1.77 -2.65,2.65 1.42,-5.15 0.54,-10.44 -2.64,-15.88 -0.44,10.62 -2.65,11.94 -6.62,3.97 2.36,-5.86 2.36,-12.48 0,-19.84 -3.54,4.08 -7.07,9.37 -10.59,15.87 -2.78,-0.39 -5.42,0.05 -7.93,1.33 6.05,5.93 6.49,12.55 1.32,19.84 -4.81,-1.96 -9.66,-5.93 -14.56,-11.9 0.89,-0.89 1.77,-1.77 2.65,-2.65 -4.81,-5.44 -6.58,-11.18 -5.29,-17.2 -5.26,2.09 -6.14,5.17 -2.65,9.26 -10.31,7.53 -9.43,11.06 2.65,10.59 -11.14,12.07 -15.55,9.86 -13.23,-6.62 -4.55,-1.32 -8.96,-2.2 -13.24,-2.65 1.43,-3.3 3.2,-6.39 5.3,-9.26 -7.74,2.96 -15.67,6.05 -23.82,9.26 -0.31,5.25 1.45,9.66 5.29,13.23 -2.86,0.66 -6.39,1.1 -10.58,1.33 2.93,4.8 1.17,7 -5.29,6.61 0.57,-3.11 -0.31,-5.75 -2.65,-7.94 -1.09,2.02 -1.53,4.67 -1.32,7.94 -5.24,-5.46 -10.09,-11.2 -14.56,-17.2 7.06,-1.76 7.06,-3.52 0,-5.29 1.77,-0.88 3.53,-1.77 5.29,-2.65 -6.4,-1.81 -12.14,-0.49 -17.2,3.97 -0.88,-3.52 -1.76,-7.05 -2.64,-10.58 -2.6,4.65 -4.36,9.06 -5.3,13.23 -2.56,-3.12 -3.88,-6.65 -3.97,-10.59 -6.39,-1.27 -10.8,1.81 -13.23,9.27 1.07,2.5 2.84,4.26 5.29,5.29 -2.42,0.99 -4.63,2.31 -6.61,3.97 -3.22,-6.52 -4.98,-13.57 -5.29,-21.17 -0.86,6.99 -3.51,13.16 -7.94,18.52 -0.88,-0.88 -1.77,-1.76 -2.65,-2.64 -5.73,2.86 -11.02,6.39 -15.88,10.58 -1.44,-2.09 -3.21,-4.73 -5.29,-7.94 -1.81,5.24 -0.49,9.65 3.97,13.23 -0.88,3.53 -1.77,7.06 -2.65,10.59 -2.64,-1.32 -5.29,-2.65 -7.94,-3.97 0.21,-5.59 1.09,-10.88 2.65,-15.88 -3.29,-0.82 -5.93,0.5 -7.94,3.97 -6.69,-2.64 -6.69,-4.84 0,-6.61 -6.61,-5.25 -9.69,-3.05 -9.26,6.61 -2.89,-9.51 -7.3,-18.33 -13.23,-26.46 -0.82,3.35 -2.14,6.44 -3.97,9.26 0.88,0.88 1.76,1.77 2.64,2.65 -2.64,1.76 -5.29,1.76 -7.94,0 7.25,-12.17 5.49,-13.93 -5.29,-5.3 1.08,7.57 -1.12,8.02 -6.61,1.33 -1.33,1.32 -2.65,2.64 -3.97,3.97 5.47,2.51 9.44,6.47 11.91,11.9 2.14,-3.86 4.35,-4.74 6.61,-2.64 -1.58,3.43 -2.9,6.95 -3.97,10.58 -1.19,-6.42 -3.4,-6.87 -6.61,-1.32 3.05,2.42 2.61,4.62 -1.33,6.62 -4.87,-3.53 -6.19,-3.09 -3.97,1.32 -3.94,4.32 -7.47,3.44 -10.58,-2.65 1.66,-1.98 2.98,-4.19 3.97,-6.61 2.77,2.69 5.86,3.13 9.26,1.32 -3.53,-1.76 -7.06,-3.53 -10.58,-5.29 5.84,-2.53 5.4,-5.62 -1.33,-9.26 -2.02,6.78 -3.34,6.78 -3.97,0 3.69,-1.36 6.34,-5.33 7.94,-11.91 3.4,-1.81 6.49,-1.37 9.26,1.32 0.45,-0.88 0.88,-1.76 1.33,-2.65 -2.32,-1.98 -4.97,-3.31 -7.94,-3.96 0.88,-0.89 1.76,-1.77 2.64,-2.65 17.48,-3.08 35.12,-4.84 52.93,-5.29 -430.03,-0.45 -859.62,-1.77 -1288.76,-3.97 435.77,0.88 871.53,0 1307.28,-2.65 -0.32,-1.61 -1.2,-2.49 -2.64,-2.65 -217.78,-125 -435.22,-251.14 -652.32,-378.42 -208.11,122.79 -416.73,244.52 -625.86,365.19 14.39,-11.81 31.15,-22.83 50.28,-33.08 -2.51,-1.63 -4.71,-1.19 -6.61,1.33 -3.01,-2.29 -6.54,-4.94 -10.59,-7.94 2.37,15.17 0.6,16.05 -5.29,2.64 -1.77,1.77 -3.53,3.53 -5.29,5.3 -0.35,-7.12 1.41,-13.3 5.29,-18.53 -3.53,0 -7.06,0 -10.58,0 -1.11,-3.1 -2.88,-5.75 -5.3,-7.94 -0.88,4.41 -1.76,8.82 -2.64,13.23 -0.77,-6.48 -2.53,-12.66 -5.3,-18.52 -1.76,3.53 -3.52,7.06 -5.29,10.58 -0.88,-2.64 -1.76,-5.29 -2.65,-7.93 -3.49,0.79 -7.46,1.23 -11.9,1.32 3.6,5.63 2.72,6.96 -2.65,3.97 -2.87,3.08 -5.07,6.61 -6.62,10.58 -1.7,-8.06 -5.67,-14.67 -11.9,-19.84 3.52,-3.53 7.05,-7.06 10.58,-10.59 -6.4,1.14 -12.57,1.58 -18.52,1.32 -3.21,-2.04 -3.21,-4.25 0,-6.61 -3.4,-1.81 -6.49,-1.37 -9.27,1.32 -4.87,-8.56 -11.49,-9.89 -19.84,-3.97 2.53,7.12 0.77,8 -5.3,2.65 1.39,-1.49 2.27,-3.25 2.65,-5.29 -2.4,-11.67 -9.46,-16.53 -21.17,-14.56 0.39,2.79 -0.05,5.43 -1.32,7.94 -1.77,-3.53 -3.53,-7.06 -5.3,-10.59 -0.88,2.65 -1.76,5.3 -2.64,7.94 -0.89,-5.3 -3.09,-9.71 -6.62,-13.23 232.29,-133.92 464.29,-268.44 695.99,-403.56 28.22,-12.35 56.45,-12.35 84.68,0 317.73,184.43 635.29,368.79 952.67,553.08 27.81,27.02 33.54,58.33 17.21,93.94 -10.62,18.14 -26.06,29.61 -46.31,34.41z"/>
   </g>
   <g id="_1574860186080">
    <path class="fil0" d="M1014.89 466.15c3.53,3.52 5.73,7.93 6.62,13.23 0.88,-2.64 1.76,-5.29 2.64,-7.94 1.77,3.53 3.53,7.06 5.3,10.59 1.27,-2.51 1.71,-5.15 1.32,-7.94 11.71,-1.97 18.77,2.89 21.17,14.56 -0.38,2.04 -1.26,3.8 -2.65,5.29 6.07,5.35 7.83,4.47 5.3,-2.65 8.35,-5.92 14.97,-4.59 19.84,3.97 2.78,-2.69 5.87,-3.13 9.27,-1.32 -3.21,2.36 -3.21,4.57 0,6.61 5.95,0.26 12.12,-0.18 18.52,-1.32 -3.53,3.53 -7.06,7.06 -10.58,10.59 6.23,5.17 10.2,11.78 11.9,19.84 1.55,-3.97 3.75,-7.5 6.62,-10.58 5.37,2.99 6.25,1.66 2.65,-3.97 4.44,-0.09 8.41,-0.53 11.9,-1.32 0.89,2.64 1.77,5.29 2.65,7.93 1.77,-3.52 3.53,-7.05 5.29,-10.58 2.77,5.86 4.53,12.04 5.3,18.52 0.88,-4.41 1.76,-8.82 2.64,-13.23 2.42,2.19 4.19,4.84 5.3,7.94 3.52,0 7.05,0 10.58,0 -3.88,5.23 -5.64,11.41 -5.29,18.53 1.76,-1.77 3.52,-3.53 5.29,-5.3 5.89,13.41 7.66,12.53 5.29,-2.64 4.05,3 7.58,5.65 10.59,7.94 1.9,-2.52 4.1,-2.96 6.61,-1.33 -19.13,10.25 -35.89,21.27 -50.28,33.08 -7.48,5.95 -15.42,11.24 -23.81,15.88 -1.77,0 -2.65,0.88 -2.65,2.65 429.14,2.2 858.73,3.52 1288.76,3.97 -17.81,0.45 -35.45,2.21 -52.93,5.29 -0.88,0.88 -1.76,1.76 -2.64,2.65 2.97,0.65 5.62,1.98 7.94,3.96 -0.45,0.89 -0.88,1.77 -1.33,2.65 -2.77,-2.69 -5.86,-3.13 -9.26,-1.32 -1.6,6.58 -4.25,10.55 -7.94,11.91 0.63,6.78 1.95,6.78 3.97,0 6.73,3.64 7.17,6.73 1.33,9.26 3.52,1.76 7.05,3.53 10.58,5.29 -3.4,1.81 -6.49,1.37 -9.26,-1.32 -0.99,2.42 -2.31,4.63 -3.97,6.61 3.11,6.09 6.64,6.97 10.58,2.65 -2.22,-4.41 -0.9,-4.85 3.97,-1.32 3.94,-2 4.38,-4.2 1.33,-6.62 3.21,-5.55 5.42,-5.1 6.61,1.32 1.07,-3.63 2.39,-7.15 3.97,-10.58 -2.26,-2.1 -4.47,-1.22 -6.61,2.64 -2.47,-5.43 -6.44,-9.39 -11.91,-11.9 1.32,-1.33 2.64,-2.65 3.97,-3.97 5.49,6.69 7.69,6.24 6.61,-1.33 10.78,-8.63 12.54,-6.87 5.29,5.3 2.65,1.76 5.3,1.76 7.94,0 -0.88,-0.88 -1.76,-1.77 -2.64,-2.65 1.83,-2.82 3.15,-5.91 3.97,-9.26 5.93,8.13 10.34,16.95 13.23,26.46 -0.43,-9.66 2.65,-11.86 9.26,-6.61 -6.69,1.77 -6.69,3.97 0,6.61 2.01,-3.47 4.65,-4.79 7.94,-3.97 -1.56,5 -2.44,10.29 -2.65,15.88 2.65,1.32 5.3,2.65 7.94,3.97 0.88,-3.53 1.77,-7.06 2.65,-10.59 -4.46,-3.58 -5.78,-7.99 -3.97,-13.23 2.08,3.21 3.85,5.85 5.29,7.94 4.86,-4.19 10.15,-7.72 15.88,-10.58 0.88,0.88 1.77,1.76 2.65,2.64 4.43,-5.36 7.08,-11.53 7.94,-18.52 0.31,7.6 2.07,14.65 5.29,21.17 1.98,-1.66 4.19,-2.98 6.61,-3.97 -2.45,-1.03 -4.22,-2.79 -5.29,-5.29 2.43,-7.46 6.84,-10.54 13.23,-9.27 0.09,3.94 1.41,7.47 3.97,10.59 0.94,-4.17 2.7,-8.58 5.3,-13.23 0.88,3.53 1.76,7.06 2.64,10.58 5.06,-4.46 10.8,-5.78 17.2,-3.97 -1.76,0.88 -3.52,1.77 -5.29,2.65 7.06,1.77 7.06,3.53 0,5.29 4.47,6 9.32,11.74 14.56,17.2 -0.21,-3.27 0.23,-5.92 1.32,-7.94 2.34,2.19 3.22,4.83 2.65,7.94 6.46,0.39 8.22,-1.81 5.29,-6.61 4.19,-0.23 7.72,-0.67 10.58,-1.33 -3.84,-3.57 -5.6,-7.98 -5.29,-13.23 8.15,-3.21 16.08,-6.3 23.82,-9.26 -2.1,2.87 -3.87,5.96 -5.3,9.26 4.28,0.45 8.69,1.33 13.24,2.65 -2.32,16.48 2.09,18.69 13.23,6.62 -12.08,0.47 -12.96,-3.06 -2.65,-10.59 -3.49,-4.09 -2.61,-7.17 2.65,-9.26 -1.29,6.02 0.48,11.76 5.29,17.2 -0.88,0.88 -1.76,1.76 -2.65,2.65 4.9,5.97 9.75,9.94 14.56,11.9 5.17,-7.29 4.73,-13.91 -1.32,-19.84 2.51,-1.28 5.15,-1.72 7.93,-1.33 3.52,-6.5 7.05,-11.79 10.59,-15.87 2.36,7.36 2.36,13.98 0,19.84 3.97,7.97 6.18,6.65 6.62,-3.97 3.18,5.44 4.06,10.73 2.64,15.88 0.88,-0.88 1.77,-1.76 2.65,-2.65 2.82,1.83 5.91,3.16 9.26,3.97 -3.02,1.97 -3.02,4.17 0,6.62 8.76,1.49 15.38,5.9 19.85,13.23 0.37,-5.35 0.81,-10.2 1.32,-14.55 -2.65,-0.88 -5.29,-1.77 -7.94,-2.65 8.02,-3.02 13.75,-0.81 17.2,6.62 4.2,-3.25 7.73,-2.37 10.59,2.64 0.88,-0.88 1.76,-1.76 2.64,-2.64 3.88,4.83 8.74,6.15 14.56,3.97 -4.13,-4.93 -8.54,-8.01 -13.23,-9.27 0.08,-3.94 1.41,-7.46 3.97,-10.58 6.36,4.78 10.77,10.96 13.23,18.52 0.88,-1.76 1.76,-3.53 2.65,-5.29 6.76,3.03 10.29,0.39 10.58,-7.94 1.71,3.03 3.91,5.68 6.62,7.94 -1.77,1.76 -3.53,3.53 -5.3,5.29 4.1,6.01 7.63,5.13 10.59,-2.64 -1.69,-3.4 -1.69,-6.04 0,-7.94 2.15,5.99 3.48,12.17 3.97,18.52 1.32,-3.09 3.53,-5.29 6.61,-6.61 -3.75,-4.05 -6.4,-8.9 -7.94,-14.56 -10.58,-2.65 -10.58,-5.29 0,-7.94 1.5,4.02 4.59,8.43 9.27,13.23 1.73,-3.16 3.05,-3.16 3.97,0 -2.32,1.99 -4.97,3.32 -7.94,3.97 4.24,0.73 8.2,2.05 11.91,3.97 0.88,-1.76 1.76,-3.53 2.64,-5.29 0.09,4.45 0.54,8.41 1.33,11.91 -3.53,1.76 -6.18,4.41 -7.94,7.94 4.98,0.57 9.39,2.33 13.23,5.29 -2.84,3.4 -6.37,4.28 -10.59,2.65 5.02,2.85 5.9,6.38 2.65,10.58 4.85,1.32 7.94,4.41 9.26,9.26 1.28,-2.51 1.72,-5.15 1.33,-7.94 5.51,-0.07 10.36,1.7 14.55,5.3 1.63,-2.51 1.19,-4.72 -1.32,-6.62 3.29,-1.2 5.49,0.12 6.61,3.97 0.88,-1.76 1.77,-3.53 2.65,-5.29 2.84,2.96 5.93,5.6 9.26,7.94 -0.92,3.16 -2.24,3.16 -3.97,0 0.39,3.5 -0.05,6.59 -1.32,9.26 1.76,1.76 3.53,3.53 5.29,5.29 -3.53,2.65 -3.53,5.3 0,7.94 -7.59,-1.92 -13.33,-6.77 -17.2,-14.55 -2.82,1.83 -5.91,3.15 -9.26,3.97 1.21,1.09 2.09,2.41 2.64,3.97 -4.47,9.59 -6.23,19.29 -5.29,29.1 3.94,0.09 7.47,1.42 10.59,3.97 -5.65,3.66 -11.83,6.3 -18.53,7.94 1.57,1.23 3.34,1.67 5.3,1.33 -644.39,3.08 -1289.2,3.52 -1934.47,1.32 -39.14,-15.18 -56.34,-43.85 -51.6,-86.01 4.19,-18.52 13.45,-33.96 27.79,-46.31 85.27,-48.35 169.95,-97.31 254.04,-146.87z"/>
   </g>
   <g id="_1574860185600">
    <path class="fil0" d="M2406.86 587.88c1.44,0.16 2.32,1.04 2.64,2.65 -435.75,2.65 -871.51,3.53 -1307.28,2.65 0,-1.77 0.88,-2.65 2.65,-2.65 434.44,0.88 868.44,0 1301.99,-2.65z"/>
   </g>
   <g id="_1574860186304">
    <path class="fil0" d="M2615.92 828.7c-34.83,2.2 -70.11,3.52 -105.86,3.97 -7.02,3.11 -11.43,7.07 -13.23,11.91 -2.14,-0.82 -3.9,-2.14 -5.29,-3.97 3.21,-2.37 3.21,-4.57 0,-6.62 -1.99,2.32 -3.31,4.97 -3.97,7.94 -0.88,-1.76 -1.76,-3.53 -2.64,-5.29 -8.63,5.92 -9.95,12.53 -3.97,19.85 3.7,1.57 7.23,1.13 10.58,-1.33 2.59,1.26 4.79,3.03 6.62,5.3 3.39,-3.04 4.27,-2.16 2.64,2.64 -11.69,2.91 -12.13,6.88 -1.32,11.91 -1.83,2.82 -3.15,5.91 -3.97,9.26 -0.88,-2.64 -1.76,-5.29 -2.64,-7.94 -3.3,2.22 -6.38,1.33 -9.27,-2.64 2.19,-2.52 2.63,-5.17 1.33,-7.94 -8.6,9.59 -19.19,15.76 -31.76,18.52 -3.34,-0.68 -5.98,-2.45 -7.94,-5.29 -2.16,8.49 -6.57,15.55 -13.23,21.17 -3.53,-3.53 -7.06,-7.06 -10.59,-10.58 -1.32,1.32 -2.64,2.64 -3.97,3.96 2.22,2.68 3.1,5.77 2.65,9.27 -2.65,0 -5.29,0 -7.94,0 0.4,-2.79 -0.04,-5.43 -1.32,-7.94 -0.88,3.52 -1.77,7.06 -2.65,10.58 -2.28,-4.2 -4.04,-8.61 -5.29,-13.23 -3.7,1.92 -7.67,3.25 -11.91,3.97 10.98,1.21 13.18,6.06 6.62,14.56 -6.16,-5.69 -9.69,-12.75 -10.59,-21.17 -1.76,3.52 -3.53,3.52 -5.29,0 -0.84,4.76 -2.61,5.64 -5.29,2.64 -0.09,-4.45 -0.54,-8.41 -1.33,-11.91 -5.13,-0.8 -9.54,-3.01 -13.23,-6.61 -5.49,9.91 -11.66,10.35 -18.52,1.32 3.7,-1.57 7.23,-1.13 10.58,1.32 2.35,-2.18 3.23,-4.83 2.65,-7.94 -6.42,0.06 -12.6,1.39 -18.53,3.97 1.46,3.7 2.34,7.23 2.65,10.59 -1.32,0.44 -2.65,0.88 -3.97,1.32 -4.86,-4.61 -9.27,-9.9 -13.23,-15.88 -2.76,2.98 -4.53,6.5 -5.29,10.59 -3.19,-2.57 -4.51,-5.22 -3.97,-7.94 -3.26,3.05 -3.26,6.13 0,9.26 -2.9,3.61 -6.42,4.5 -10.59,2.65 0.88,-2.65 1.77,-5.29 2.65,-7.94 -1.77,-1.76 -3.53,-1.76 -5.29,0 -1.77,3.53 -4.42,6.17 -7.94,7.94 5.47,0.86 6.35,3.06 2.64,6.62 3.05,3.25 6.13,3.25 9.26,0 6.03,4.59 7.35,9.88 3.97,15.87 -3.22,-3.2 -6.31,-3.2 -9.26,0 -2.42,-2.19 -4.18,-4.83 -5.29,-7.94 -5.36,1.38 -10.65,2.26 -15.88,2.65 -1.76,-1.77 -3.53,-3.53 -5.29,-5.29 -3.83,2.95 -7.37,5.59 -10.59,7.94 -3.14,-2.82 -4.46,-6.35 -3.97,-10.59 -5,0.54 -8.97,-1.22 -11.9,-5.29 -0.89,0.88 -1.77,1.76 -2.65,2.65 -0.88,-3.53 -1.77,-7.06 -2.65,-10.59 -1.76,-3.53 -3.52,-3.53 -5.29,0 -2.42,-2.19 -4.18,-4.84 -5.29,-7.94 -1.83,2.27 -4.03,4.03 -6.62,5.29 -5.24,0.52 -10.53,-1.24 -15.88,-5.29 -3.43,1.56 -5.64,4.21 -6.61,7.94 -3.41,-13.98 -6.94,-13.98 -10.59,0 -2.8,0.65 -5.89,0.65 -9.26,0 -3.26,3.05 -3.26,6.13 0,9.26 -2.42,0.99 -4.63,2.31 -6.62,3.97 -1.93,-6.41 -5.9,-9.5 -11.9,-9.26 1.17,7.07 -1.03,13.69 -6.62,19.85 -2.78,-4.26 -6.75,-6.02 -11.91,-5.3 -1.3,-10.03 0.91,-11.79 6.62,-5.29 2.53,-2.85 4.73,-5.94 6.61,-9.26 -2.79,-8.67 -2.79,-17.49 0,-26.46 -1.32,-1.33 -2.64,-2.65 -3.97,-3.97 -2.95,9.05 -4.71,17.87 -5.29,26.46 -4.41,-2.65 -8.82,-5.29 -13.23,-7.94 -9.42,2.82 -10.74,7.23 -3.97,13.23 -3.2,3.23 -3.2,6.32 0,9.26 -3.53,1.77 -7.06,3.53 -10.59,5.3 2.97,4.27 1.65,7.35 -3.96,9.26 -5.26,-6.86 -8.35,-13.92 -9.27,-21.17 -3.23,-2.95 -6.76,-3.39 -10.58,-1.32 4.72,2.82 6.04,6.79 3.97,11.9 -0.98,-3.73 -3.18,-6.37 -6.62,-7.93 -1.93,4.48 -4.57,8.44 -7.94,11.9 2.01,3.61 0.69,6.7 -3.97,9.27 -3.55,-3.72 -5.76,-2.83 -6.61,2.64 0.28,2.5 1.17,4.7 2.64,6.62 -7.04,4.38 -7.04,8.79 0,13.23 2.2,3.88 2.64,7.85 1.33,11.91 -3.53,1.76 -6.18,4.41 -7.94,7.94 -0.88,-3.53 -1.77,-7.06 -2.65,-10.59 -0.95,5.08 -3.16,9.5 -6.61,13.23 -309.62,2.21 -619.24,3.53 -928.86,3.97 412.38,0.44 824.33,1.77 1235.83,3.97 -411.06,0 -822.13,0 -1233.19,0 0,291.98 0,583.96 0,875.94 48.07,2.2 96.58,3.52 145.55,3.96 -194.04,1.33 -194.04,3.53 0,6.62 -8.86,-1.14 -17.68,0.18 -26.46,3.97 5.55,4.45 9.08,8.86 10.58,13.23 -4.38,1.92 -5.71,5.01 -3.97,9.26 7.35,-4.34 12.64,-2.57 15.88,5.3 1.6,-5.25 4.25,-6.13 7.94,-2.65 1,-5.48 -1.2,-9.45 -6.62,-11.91 8.66,-2.71 13.07,-0.5 13.24,6.62 1.83,-1.39 3.15,-3.16 3.97,-5.3 5.91,4.51 12.53,7.15 19.84,7.94 0,2.65 0,5.3 0,7.94 -10.12,1.89 -10.12,4.54 0,7.94 1.77,-0.44 3.53,-0.88 5.3,-1.32 -3.17,-1.73 -3.17,-3.06 0,-3.97 1.98,2.32 3.31,4.96 3.97,7.94 0.04,-5.44 2.24,-10.73 6.61,-15.88 0.63,1.98 1.51,4.18 2.65,6.62 4.44,0.09 8.41,0.53 11.91,1.32 1.76,-1.77 1.76,-3.53 0,-5.29 -3.53,-1.77 -6.18,-4.42 -7.94,-7.94 -2.68,2.21 -5.77,3.09 -9.27,2.64 -0.41,-3.63 0.03,-7.16 1.33,-10.58 2.22,2.97 5.31,4.74 9.26,5.29 9.02,-4.04 17.41,-3.16 25.14,2.65 3.1,-2.23 6.19,-4.43 9.26,-6.62 -3.2,-2.36 -3.2,-4.57 0,-6.61 3.53,3.52 7.06,3.52 10.59,0 2.86,2.28 3.3,4.93 1.32,7.93 -1.09,-1.2 -2.42,-2.09 -3.97,-2.64 1.04,3.22 -0.73,5.43 -5.29,6.61 3.3,4.83 6.39,4.39 9.26,-1.32 1.63,2.51 1.19,4.72 -1.32,6.62 2.42,0.99 4.63,2.31 6.61,3.97 0.74,-8.68 -0.58,-17.06 -3.97,-25.14 11.92,2.46 12.8,0.7 2.65,-5.3 3.35,-0.81 6.44,-2.14 9.26,-3.97 0.86,5.48 3.07,6.36 6.62,2.65 1.76,-205.97 3.53,-411.5 5.29,-616.59 0,202 0,404 0,606.01 90.41,2.2 181.27,3.52 272.57,3.96 -90.85,0.88 -181.71,1.77 -272.57,2.65 63,2.18 125.62,2.62 187.89,1.32 0.43,5.37 -0.01,10.66 -1.32,15.88 -5.24,-3.48 -9.21,-2.16 -11.91,3.97 0.44,11.47 4.41,13.67 11.91,6.62 11.44,-23.75 15.85,-22.87 13.23,2.64 0.88,-1.76 1.76,-3.52 2.64,-5.29 6.93,6.35 14.42,9.88 22.5,10.59 3.52,4.88 2.64,8.85 -2.65,11.91 3.22,4.36 5.43,9.21 6.62,14.55 3.61,-2.01 6.7,-0.68 9.26,3.97 -5.54,1.47 -5.99,2.79 -1.32,3.97 6.08,-1.5 8.28,-4.59 6.61,-9.26 8.57,-4.88 9.89,-11.5 3.97,-19.85 -1.73,3.16 -3.05,3.16 -3.97,0 3.38,-3.03 6.91,-3.03 10.59,0 3.2,-2.05 3.2,-4.25 0,-6.62 2.2,-1.82 3.96,-1.38 5.29,1.33 3.2,3.22 3.2,6.31 0,9.26 3.53,1.76 7.06,1.76 10.59,0 -1.77,-0.88 -3.53,-1.77 -5.3,-2.65 2.63,-10.2 7.48,-10.64 14.56,-1.32 0,-3.53 0,-7.06 0,-10.59 1.09,1.21 2.42,2.1 3.97,2.65 1.96,-3.73 4.17,-7.25 6.61,-10.59 0.89,1.77 1.77,3.53 2.65,5.3 10.03,-2.9 20.18,-5.55 30.43,-7.94 -0.95,5.99 0.82,10.85 5.3,14.55 -5.84,3.78 -11.57,5.1 -17.21,3.97 -1.49,3.24 -0.6,5.89 2.65,7.94 3.16,-2.46 6.69,-4.23 10.59,-5.29 4.37,0.95 8.78,1.83 13.23,2.65 4.15,-4.6 9.44,-7.25 15.88,-7.94 3.6,-18.79 12.42,-20.55 26.46,-5.3 2.76,-2.97 4.52,-6.5 5.29,-10.58 2.57,4.77 5.66,9.19 9.26,13.23 3.45,-3.22 6.1,-2.34 7.94,2.65 3.23,-3.04 6.75,-5.68 10.59,-7.94 -1.39,-1.83 -3.16,-3.16 -5.3,-3.97 4.42,-2.21 8.82,-4.41 13.24,-6.62 6.54,4.61 6.54,9.46 0,14.56 5.5,2.08 10.35,5.17 14.55,9.26 3.08,-1.82 6.16,-2.26 9.26,-1.32 -1.48,4.43 -4.13,7.96 -7.94,10.58 4.13,0.84 7.22,3.05 9.27,6.62 3.85,-3.3 7.82,-3.3 11.9,0 0.09,3.94 1.41,7.46 3.97,10.58 0.66,-2.97 1.99,-5.62 3.97,-7.94 4.41,2.65 7.94,6.18 10.59,10.59 1.55,-0.56 2.87,-1.44 3.97,-2.65 0.66,2.98 1.98,5.62 3.97,7.94 3.17,-2.73 6.7,-4.94 10.58,-6.62 -6.64,-4.92 -8.41,-11.1 -5.29,-18.52 -0.88,-1.32 -1.77,-2.64 -2.65,-3.97 -3.62,4.3 -8.03,5.62 -13.23,3.97 5.71,-6.74 11.44,-11.59 17.2,-14.55 2.88,6.43 4.2,5.55 3.97,-2.65 -6.9,-0.87 -11.31,-4.84 -13.23,-11.91 2.65,-1.76 5.29,-1.76 7.94,0 -3.02,1.96 -3.02,4.17 0,6.62 3.53,1.76 7.06,3.52 10.59,5.29 -2.85,6.93 -1.08,12.66 5.29,17.2 -2.57,3.19 -5.22,4.51 -7.94,3.97 4.89,1.96 6.66,4.61 5.29,7.94 10.2,-6.14 16.37,-14.08 18.53,-23.82 5.63,0.07 10.93,1.39 15.87,3.97 0.98,4.26 -0.78,8.23 -5.29,11.91 0.88,2.65 2.65,4.41 5.29,5.29 2.12,-7.05 7.42,-12.79 15.88,-17.2 -0.88,-0.88 -1.76,-1.76 -2.64,-2.64 4.08,-3.15 8.49,-4.03 13.23,-2.65 2.57,6.05 6.1,11.34 10.58,15.88 -7.05,2.64 -7.05,5.29 0,7.94 -2.22,4.41 -0.9,4.85 3.97,1.32 2.16,5.62 4.8,10.91 7.94,15.88 6.51,-6.9 13.57,-13.08 21.17,-18.53 1.63,2.51 1.2,4.72 -1.32,6.62 3.8,-0.82 7.32,-0.38 10.58,1.32 2.65,-3.52 5.3,-7.06 7.94,-10.58 4.13,1.52 8.1,3.28 11.91,5.29 1.77,-6.69 3.98,-6.69 6.62,0 -2.19,2.52 -2.63,5.16 -1.33,7.94 4.42,-1.77 8.82,-3.53 13.23,-5.29 2.69,3 4.46,2.12 5.3,-2.65 5.56,9.71 11.74,9.71 18.52,0 4.46,13.65 7.99,12.77 10.59,-2.65 2.95,0.44 6.04,1.32 9.26,2.65 5.82,-4.12 5.82,-7.21 0,-9.26 2.51,-1.28 5.16,-1.72 7.94,-1.33 1.71,8.07 -0.94,13.8 -7.94,17.2 2.78,4.55 1.02,7.19 -5.29,7.94 2.28,7.24 4.48,7.68 6.61,1.33 2.42,3.05 4.63,2.61 6.62,-1.33 -2.07,-2.83 -1.62,-5.92 1.32,-9.26 1.77,1.77 3.53,3.53 5.29,5.29 3.33,-5.94 8.18,-9.47 14.56,-10.58 1.3,6.19 4.39,11.49 9.26,15.88 2.3,-9.38 6.27,-11.15 11.91,-5.3 2.7,-3.14 5.78,-5.78 9.26,-7.93 2.84,2.06 5.93,1.62 9.26,-1.33 -2.22,-4.41 -0.9,-4.85 3.97,-1.32 2.06,-5.83 5.15,-5.83 9.27,0 -1.73,4.27 -3.06,8.68 -3.97,13.23 -8.89,3.29 -8.45,5.5 1.32,6.62 -2.52,1.9 -2.96,4.1 -1.32,6.61 1.96,-3.02 4.16,-3.02 6.61,0 5.32,-2.62 10.61,-7.03 15.88,-13.23 2.93,7.95 7.34,9.27 13.23,3.97 -5.87,-7.79 -6.76,-16.17 -2.64,-25.14 -1.11,-3.1 -2.87,-5.75 -5.3,-7.94 1.98,-0.62 4.18,-1.51 6.62,-2.64 0.62,5.99 1.95,11.72 3.97,17.2 -2.14,0.81 -3.9,2.13 -5.29,3.97 0.91,3.16 2.23,3.16 3.97,0 2.76,4.2 5.85,8.17 9.26,11.9 -5.8,1.8 -6.68,4.88 -2.65,9.27 10.72,8.05 12.48,6.72 5.29,-3.97 2.6,-5.32 6.13,-6.64 10.59,-3.97 2.46,-3.15 3.34,-6.68 2.65,-10.59 5.72,1.02 10.14,-0.75 13.23,-5.29 -3.02,-2.45 -3.02,-4.66 0,-6.62 -6.06,-2.17 -12.23,-3.94 -18.53,-5.29 1.67,-5.01 4.32,-9.42 7.94,-13.23 -2.74,-3.99 -2.3,-7.96 1.33,-11.91 1.98,1.66 4.19,2.98 6.61,3.97 -0.88,0.88 -1.76,1.77 -2.65,2.65 6,0.73 12.18,2.49 18.53,5.29 -0.88,0.88 -1.77,1.76 -2.65,2.65 4.09,3.14 8.5,4.02 13.23,2.64 -4.81,-8.96 -2.16,-14.25 7.94,-15.88 -4.27,-1.62 -7.8,-4.27 -10.58,-7.93 7.06,-3.53 12.35,-8.82 15.88,-15.88 16.73,-1.33 33.49,-1.77 50.27,-1.33 0.23,7.37 -1.98,13.54 -6.61,18.53 -3.47,-6.33 -6.11,-6.33 -7.94,0 -7.12,-2.54 -8,-0.77 -2.64,5.29 1.89,-2.52 4.1,-2.95 6.61,-1.32 -3.05,4.98 -7.46,7.18 -13.23,6.61 -0.4,2.79 0.04,5.43 1.32,7.94 0.88,-0.88 1.77,-1.76 2.65,-2.64 1.88,3.89 4.96,5.66 9.26,5.29 -0.39,2.78 0.05,5.43 1.32,7.94 0.88,-0.88 1.77,-1.77 2.65,-2.65 0.3,6.55 2.95,11.84 7.94,15.88 1.63,-2.51 1.19,-4.72 -1.33,-6.62 4.12,1.13 8.09,3.33 11.91,6.62 3.91,-2.5 6.56,-6.03 7.94,-10.59 -0.12,4.8 0.32,9.21 1.33,13.24 8.81,-3.5 14.1,-8.79 15.87,-15.88 4.02,5.33 5.79,10.62 5.3,15.88 4.9,3.33 9.75,3.33 14.55,0 2.61,6.07 4.81,5.18 6.62,-2.65 -3.71,-3.55 -2.83,-5.76 2.64,-6.62 -2.5,-1.28 -5.15,-1.71 -7.94,-1.32 -5.1,-8.64 -2.46,-13.49 7.94,-14.55 -1.76,-0.89 -3.52,-1.77 -5.29,-2.65 6.29,-5.07 10.26,-11.68 11.91,-19.85 2.2,2.21 4.41,4.41 6.62,6.62 -3.35,3.54 -4.67,7.5 -3.97,11.91 6.61,-1.33 14.11,-2.66 22.49,-3.97 -6.69,-1.77 -6.69,-3.98 0,-6.62 3.97,1.54 7.5,3.75 10.59,6.62 -1.77,0.88 -3.53,1.76 -5.3,2.64 2.98,0.66 5.62,1.98 7.94,3.97 -0.44,0.88 -0.88,1.77 -1.32,2.65 -6.17,-1.77 -12.35,-3.53 -18.53,-5.29 -0.44,1.32 -0.88,2.64 -1.32,3.97 3.15,4.19 5.35,9.03 6.62,14.55 1.12,-3.85 3.32,-5.18 6.61,-3.97 -1.89,3.56 -1,7.08 2.65,10.59 -2.69,2.77 -3.13,5.86 -1.32,9.26 4.21,-2.84 8.18,-5.49 11.9,-7.94 3.9,2.33 6.1,5.86 6.62,10.58 2.85,-7.52 6.38,-12.81 10.59,-15.87 5.17,3.58 10.47,2.7 15.87,-2.65 3.1,3.69 7.07,5.89 11.91,6.62 -2.97,2.76 -6.5,4.52 -10.58,5.29 2.2,2.2 4.41,4.41 6.61,6.61 4.24,-5.84 7.77,-12.01 10.59,-18.52 0,3.53 0,7.06 0,10.59 3.03,-2.54 5.68,-1.66 7.94,2.64 0.99,-2.42 2.31,-4.63 3.97,-6.61 5.11,-0.67 9.96,-1.99 14.55,-3.97 0.88,0.88 1.77,1.76 2.65,2.64 0.88,-3.52 1.76,-7.06 2.64,-10.58 4.68,1.67 7.77,-0.54 9.27,-6.62 -1.18,-4.66 -2.5,-4.22 -3.97,1.33 -9.34,-9.08 -8.45,-12.61 2.64,-10.59 1.28,-2.51 1.72,-5.15 1.33,-7.94 2.78,0.39 5.43,-0.04 7.93,-1.32 -0.88,-0.88 -1.76,-1.77 -2.64,-2.65 5.32,-5.4 9.73,-4.52 13.23,2.65 -6.33,3.46 -6.33,6.11 0,7.94 -0.88,0.88 -1.77,1.76 -2.65,2.64 7.92,1.38 15.86,3.14 23.82,5.3 -2.51,1.63 -4.72,1.19 -6.62,-1.33 -2.47,11.92 -6,12.8 -10.58,2.65 -3.61,2.89 -4.5,6.42 -2.65,10.58 3.32,1.89 6.41,4.09 9.26,6.62 13.25,2.09 26.48,3.86 39.7,5.29 3.09,3.09 6.17,6.18 9.26,9.26 1.19,-6.89 5.16,-10.42 11.91,-10.58 -0.87,54.27 0.01,108.08 2.65,161.43 34.82,2.19 70.11,3.52 105.85,3.96 20.61,3.87 36.05,14.89 46.31,33.08 3.88,76.61 5.21,153.36 3.97,230.23 -1.38,-80.74 -3.14,-140.73 -5.29,-179.95 -6.15,-5.78 -11,-12.84 -14.56,-21.17 -1.09,1.21 -2.42,2.1 -3.97,2.65 -1.8,-10.15 -7.09,-17.65 -15.87,-22.49 1.76,-0.88 3.52,-1.77 5.29,-2.65 -4.25,-3.27 -8.66,-6.36 -13.23,-9.26 -3.31,-7.33 -7.72,-15.27 -13.24,-23.82 -31.72,-3.08 -63.47,-3.53 -95.26,-1.32 24.68,1.32 49.38,1.76 74.09,1.32 0,3.53 0,7.06 0,10.59 -7.53,-0.75 -14.59,-0.75 -21.17,0 2.13,5.89 5.66,6.78 10.59,2.64 4.49,1.06 8.9,2.38 13.23,3.97 -6.06,2.09 -6.94,5.62 -2.65,10.59 -0.68,3.33 -2.45,5.98 -5.29,7.94 6.21,0.29 10.18,3.37 11.91,9.26 2.2,-2.65 4.41,-5.29 6.62,-7.94 9.33,9.89 19.48,11.65 30.43,5.29 1.32,1.33 2.65,2.65 3.97,3.97 -3.18,2.39 -5.39,5.48 -6.62,9.26 -1.02,-2.45 -2.79,-4.22 -5.29,-5.29 -3.04,2.45 -5.69,2.45 -7.94,0 -2.26,4.3 -4.9,5.18 -7.94,2.65 -3.77,4.88 -6.85,10.17 -9.26,15.88 -3.63,-4.31 -7.6,-8.72 -11.91,-13.24 -1.96,3.02 -4.17,3.02 -6.61,0 -5.5,4.14 -11.67,6.79 -18.53,7.94 -1.99,2.32 -3.31,4.97 -3.97,7.94 -0.86,-5.47 -3.06,-6.36 -6.62,-2.64 -3.16,-0.92 -3.16,-2.24 0,-3.97 -3.52,-1.77 -7.05,-3.53 -10.58,-5.3 5.24,-1.6 6.13,-4.24 2.65,-7.94 -7.19,-2.73 -12.05,-0.52 -14.56,6.62 -5.04,-16.91 -7.69,-16.91 -7.94,0 -0.88,-1.77 -1.76,-3.53 -2.64,-5.29 -1.33,4.85 -4.41,7.94 -9.27,9.26 2.07,2.84 1.63,5.93 -1.32,9.26 -2.94,-3.2 -6.03,-3.2 -9.26,0 -2.14,-0.81 -3.9,-2.14 -5.29,-3.97 3.55,-3.43 7.07,-4.75 10.58,-3.97 -3.25,-2.06 -6.78,-3.39 -10.58,-3.97 4.41,-0.88 8.82,-1.76 13.23,-2.64 -10.15,-4.58 -9.27,-8.11 2.64,-10.59 -8.04,-6.27 -15.98,-6.71 -23.81,-1.32 -1.55,-0.55 -2.88,-1.44 -3.97,-2.65 -2.96,2.79 -4.29,5.87 -3.97,9.26 2.51,1.28 5.15,1.72 7.94,1.33 -0.45,3.5 0.43,6.58 2.64,9.26 -10.54,0.61 -12.3,4.14 -5.29,10.58 -1.32,1.33 -2.65,2.65 -3.97,3.97 -2.84,-2.95 -5.93,-5.6 -9.26,-7.93 6.82,-0.47 6.82,-3.56 0,-9.27 2.85,-1.78 4.62,-4.43 5.29,-7.94 -2.33,-7.36 -2.33,-14.86 0,-22.49 6.68,3.47 13.74,4.8 21.17,3.97 -4.08,-0.77 -7.61,-2.53 -10.58,-5.29 5.29,-2.65 10.58,-5.3 15.87,-7.94 -2.42,-0.99 -4.63,-2.32 -6.61,-3.97 -2.96,0.43 -6.04,1.32 -9.26,2.64 -0.88,-1.76 -1.77,-3.52 -2.65,-5.29 -9.18,5.22 -18,10.95 -26.46,17.2 3.53,1.77 3.53,3.53 0,5.3 -2.51,1.63 -4.72,1.19 -6.62,-1.33 -2.6,6.08 -4.81,5.19 -6.61,-2.64 3.24,-2.89 5.45,-6.42 6.61,-10.59 3.29,2.21 6.38,1.33 9.26,-2.65 -5.51,-0.6 -10.8,-3.69 -15.87,-9.26 1.58,-2.81 2.46,-5.89 2.64,-9.26 -1.92,-6.29 -5.45,-11.58 -10.58,-15.88 -2.65,1.33 -5.3,2.65 -7.94,3.97 4.55,4.04 9.85,6.69 15.88,7.94 -9.21,0.8 -18.03,3 -26.47,6.62 1.39,1.83 3.16,3.15 5.3,3.97 -2.14,0.81 -3.91,2.13 -5.3,3.97 3.09,2.86 6.61,5.07 10.59,6.61 -3.65,3.5 -4.54,7.03 -2.65,10.59 -3.4,1.81 -6.48,1.36 -9.26,-1.33 -1.77,2.65 -1.77,5.3 0,7.94 5.63,-3.6 6.96,-2.72 3.97,2.65 -3.05,3.26 -6.13,3.26 -9.26,0 -3.19,2.57 -4.51,5.22 -3.97,7.94 -3.19,-4.34 -6.72,-5.22 -10.59,-2.65 -3.17,-2.73 -6.7,-4.93 -10.58,-6.61 0,-2.65 0,-5.3 0,-7.94 -4.28,-1.63 -7.81,-4.28 -10.59,-7.94 4.59,-5.26 8.12,-4.37 10.59,2.64 9.97,-1.18 9.97,-2.95 0,-5.29 1.72,-5.53 2.16,-11.26 1.32,-17.2 2.65,2.65 5.29,5.29 7.94,7.94 4.53,-4.48 9.82,-8.01 15.88,-10.59 -0.15,-4.25 -2.35,-7.78 -6.62,-10.58 -3.27,1.97 -6.8,2.85 -10.58,2.65 0.44,-26.48 0,-52.95 -1.33,-79.39 -0.45,27.8 -1.77,55.15 -3.97,82.03 0,-28.23 0,-56.45 0,-84.68 -514.71,-0.88 -1028.98,0 -1542.8,2.65 0,27.34 0,54.69 0,82.03 -2.2,-28.65 -3.52,-57.76 -3.97,-87.33 -1.33,1.33 -2.65,2.65 -3.97,3.97 1.55,19.5 1.99,39.35 1.32,59.54 -1.73,-3.16 -3.05,-3.16 -3.97,0 5.1,7.22 6.43,15.15 3.97,23.82 -0.66,-2.97 -1.98,-5.62 -3.97,-7.94 -1.91,5.79 -3.67,11.52 -5.29,17.2 2.97,4.27 1.64,7.36 -3.97,9.27 -3.09,-3.97 -6.18,-7.94 -9.26,-11.91 1.76,-0.88 3.52,-1.77 5.29,-2.65 -5.09,-1.93 -9.94,-4.13 -14.56,-6.61 -0.88,2.64 -1.76,5.29 -2.64,7.93 -2.42,-3.05 -4.63,-2.61 -6.62,1.33 1.49,4.43 4.13,7.96 7.94,10.58 -1.76,1.77 -3.53,3.53 -5.29,5.3 3.33,4.8 3.33,9.65 0,14.55 -2.26,-2.7 -4.91,-4.91 -7.94,-6.62 2.65,-0.88 5.29,-1.76 7.94,-2.64 -5.36,-3.16 -6.24,-7.13 -2.65,-11.91 -3.3,-5.19 -7.71,-9.15 -13.23,-11.91 1.77,-0.88 3.53,-1.77 5.29,-2.65 -3.52,-3.52 -3.52,-7.05 0,-10.58 -3,-1.98 -5.65,-1.54 -7.94,1.32 -1.08,6.59 -4.17,11.89 -9.26,15.88 -1.76,-2.65 -1.76,-5.29 0,-7.94 1.73,3.17 3.06,3.17 3.97,0 -3.7,-4.38 -8.55,-7.91 -14.55,-10.58 -0.88,1.76 -1.77,3.52 -2.65,5.29 -0.95,-5.58 -2.72,-10.87 -5.29,-15.88 -6.2,4.57 -12.81,8.54 -19.85,11.91 -1.83,2.82 -3.15,5.91 -3.97,9.26 -0.97,-3.73 -3.18,-6.38 -6.62,-7.94 -3.81,3.61 -7.34,7.58 -10.58,11.91 -34.4,0.88 -68.81,1.77 -103.21,2.65 -7.92,1.13 -9.24,4.22 -3.97,9.26 0.89,-0.88 1.77,-1.77 2.65,-2.65 1.47,5.52 -0.73,9.05 -6.62,10.59 -2.78,-3.67 -6.31,-6.31 -10.58,-7.94 -2.97,2.99 -6.5,4.75 -10.59,5.29 9.56,-11.4 21.9,-18.01 37.05,-19.85 31.74,-1.32 63.5,-1.76 95.27,-1.32 -0.44,-58.23 0,-116.44 1.32,-174.66 8.38,-29.55 27.35,-48.51 56.9,-56.89 24.68,-1.32 49.38,-1.76 74.1,-1.32 0,-291.98 0,-583.96 0,-875.94 -22.47,-2.2 -45.41,-3.52 -68.81,-3.97 -17.79,-2.81 -32.35,-11.19 -43.66,-25.14 -1.06,0.6 -1.5,1.49 -1.33,2.65 -23.85,-31.33 -24.29,-63.09 -1.32,-95.27 5.51,-4.29 11.24,-8.26 17.2,-11.91 576.9,-1.32 1153.8,-1.76 1730.7,-1.32z"/>
   </g>
   <g id="_1574698872800">
    <path class="fil0" d="M983.14 963.66c-25.6,0.44 -51.18,0 -76.75,-1.32 -14.94,-4.84 -27.29,-13.21 -37.05,-25.14 -0.17,-1.16 0.27,-2.05 1.33,-2.65 11.31,13.95 25.87,22.33 43.66,25.14 23.4,0.45 46.34,1.77 68.81,3.97z"/>
   </g>
   <g id="_1574698873536">
    <path class="fil0" d="M2173.98 1109.21c-283.65,1.77 -567.69,3.54 -852.11,5.29 -2.43,-0.11 -4.19,-0.99 -5.3,-2.64 285.73,-2.63 571.53,-3.52 857.41,-2.65z"/>
   </g>
   <g id="_1574698873344">
    <path class="fil0" d="M2615.92 828.7c24.79,12.89 38.02,33.62 39.69,62.19 -3.9,39.61 -25.07,63.87 -63.51,72.77 -23.33,-2.63 -47.15,-3.51 -71.45,-2.65 -0.88,292.43 0,584.41 2.65,875.94 23.35,2.19 47.17,3.52 71.45,3.97 15.43,2.85 27.78,10.34 37.05,22.49 9.75,13.35 15.92,28.35 18.52,44.99 -6.75,0.16 -10.72,3.69 -11.91,10.58 -3.09,-3.08 -6.17,-6.17 -9.26,-9.26 -13.22,-1.43 -26.45,-3.2 -39.7,-5.29 -2.85,-2.53 -5.94,-4.73 -9.26,-6.62 -1.85,-4.16 -0.96,-7.69 2.65,-10.58 4.58,10.15 8.11,9.27 10.58,-2.65 1.9,2.52 4.11,2.96 6.62,1.33 -7.96,-2.16 -15.9,-3.92 -23.82,-5.3 0.88,-0.88 1.77,-1.76 2.65,-2.64 -6.33,-1.83 -6.33,-4.48 0,-7.94 -3.5,-7.17 -7.91,-8.05 -13.23,-2.65 0.88,0.88 1.76,1.77 2.64,2.65 -2.5,1.28 -5.15,1.71 -7.93,1.32 0.39,2.79 -0.05,5.43 -1.33,7.94 -11.09,-2.02 -11.98,1.51 -2.64,10.59 1.47,-5.55 2.79,-5.99 3.97,-1.33 -1.5,6.08 -4.59,8.29 -9.27,6.62 -0.88,3.52 -1.76,7.06 -2.64,10.58 -0.88,-0.88 -1.77,-1.76 -2.65,-2.64 -4.59,1.98 -9.44,3.3 -14.55,3.97 -1.66,1.98 -2.98,4.19 -3.97,6.61 -2.26,-4.3 -4.91,-5.18 -7.94,-2.64 0,-3.53 0,-7.06 0,-10.59 -2.82,6.51 -6.35,12.68 -10.59,18.52 -2.2,-2.2 -4.41,-4.41 -6.61,-6.61 4.08,-0.77 7.61,-2.53 10.58,-5.29 -4.84,-0.73 -8.81,-2.93 -11.91,-6.62 -5.4,5.35 -10.7,6.23 -15.87,2.65 -4.21,3.06 -7.74,8.35 -10.59,15.87 -0.52,-4.72 -2.72,-8.25 -6.62,-10.58 -3.72,2.45 -7.69,5.1 -11.9,7.94 -1.81,-3.4 -1.37,-6.49 1.32,-9.26 -3.65,-3.51 -4.54,-7.03 -2.65,-10.59 -3.29,-1.21 -5.49,0.12 -6.61,3.97 -1.27,-5.52 -3.47,-10.36 -6.62,-14.55 0.44,-1.33 0.88,-2.65 1.32,-3.97 6.18,1.76 12.36,3.52 18.53,5.29 0.44,-0.88 0.88,-1.77 1.32,-2.65 -2.32,-1.99 -4.96,-3.31 -7.94,-3.97 1.77,-0.88 3.53,-1.76 5.3,-2.64 -3.09,-2.87 -6.62,-5.08 -10.59,-6.62 -6.69,2.64 -6.69,4.85 0,6.62 -8.38,1.31 -15.88,2.64 -22.49,3.97 -0.7,-4.41 0.62,-8.37 3.97,-11.91 -2.21,-2.21 -4.42,-4.41 -6.62,-6.62 -1.65,8.17 -5.62,14.78 -11.91,19.85 1.77,0.88 3.53,1.76 5.29,2.65 -10.4,1.06 -13.04,5.91 -7.94,14.55 2.79,-0.39 5.44,0.04 7.94,1.32 -5.47,0.86 -6.35,3.07 -2.64,6.62 -1.81,7.83 -4.01,8.72 -6.62,2.65 -4.8,3.33 -9.65,3.33 -14.55,0 0.49,-5.26 -1.28,-10.55 -5.3,-15.88 -1.77,7.09 -7.06,12.38 -15.87,15.88 -1.01,-4.03 -1.45,-8.44 -1.33,-13.24 -1.38,4.56 -4.03,8.09 -7.94,10.59 -3.82,-3.29 -7.79,-5.49 -11.91,-6.62 2.52,1.9 2.96,4.11 1.33,6.62 -4.99,-4.04 -7.64,-9.33 -7.94,-15.88 -0.88,0.88 -1.77,1.77 -2.65,2.65 -1.27,-2.51 -1.71,-5.16 -1.32,-7.94 -4.3,0.37 -7.38,-1.4 -9.26,-5.29 -0.88,0.88 -1.77,1.76 -2.65,2.64 -1.28,-2.51 -1.72,-5.15 -1.32,-7.94 5.77,0.57 10.18,-1.63 13.23,-6.61 -2.51,-1.63 -4.72,-1.2 -6.61,1.32 -5.36,-6.06 -4.48,-7.83 2.64,-5.29 1.83,-6.33 4.47,-6.33 7.94,0 4.63,-4.99 6.84,-11.16 6.61,-18.53 -16.78,-0.44 -33.54,0 -50.27,1.33 -3.53,7.06 -8.82,12.35 -15.88,15.88 2.78,3.66 6.31,6.31 10.58,7.93 -10.1,1.63 -12.75,6.92 -7.94,15.88 -4.73,1.38 -9.14,0.5 -13.23,-2.64 0.88,-0.89 1.77,-1.77 2.65,-2.65 -6.35,-2.8 -12.53,-4.56 -18.53,-5.29 0.89,-0.88 1.77,-1.77 2.65,-2.65 -2.42,-0.99 -4.63,-2.31 -6.61,-3.97 -3.63,3.95 -4.07,7.92 -1.33,11.91 -3.62,3.81 -6.27,8.22 -7.94,13.23 6.3,1.35 12.47,3.12 18.53,5.29 -3.02,1.96 -3.02,4.17 0,6.62 -3.09,4.54 -7.51,6.31 -13.23,5.29 0.69,3.91 -0.19,7.44 -2.65,10.59 -4.46,-2.67 -7.99,-1.35 -10.59,3.97 7.19,10.69 5.43,12.02 -5.29,3.97 -4.03,-4.39 -3.15,-7.47 2.65,-9.27 -3.41,-3.73 -6.5,-7.7 -9.26,-11.9 -1.74,3.16 -3.06,3.16 -3.97,0 1.39,-1.84 3.15,-3.16 5.29,-3.97 -2.02,-5.48 -3.35,-11.21 -3.97,-17.2 -2.44,1.13 -4.64,2.02 -6.62,2.64 2.43,2.19 4.19,4.84 5.3,7.94 -4.12,8.97 -3.23,17.35 2.64,25.14 -5.89,5.3 -10.3,3.98 -13.23,-3.97 -5.27,6.2 -10.56,10.61 -15.88,13.23 -2.45,-3.02 -4.65,-3.02 -6.61,0 -1.64,-2.51 -1.2,-4.71 1.32,-6.61 -9.77,-1.12 -10.21,-3.33 -1.32,-6.62 0.91,-4.55 2.24,-8.96 3.97,-13.23 -4.12,-5.83 -7.21,-5.83 -9.27,0 -4.87,-3.53 -6.19,-3.09 -3.97,1.32 -3.33,2.95 -6.42,3.39 -9.26,1.33 -3.48,2.15 -6.56,4.79 -9.26,7.93 -5.64,-5.85 -9.61,-4.08 -11.91,5.3 -4.87,-4.39 -7.96,-9.69 -9.26,-15.88 -6.38,1.11 -11.23,4.64 -14.56,10.58 -1.76,-1.76 -3.52,-3.52 -5.29,-5.29 -2.94,3.34 -3.39,6.43 -1.32,9.26 -1.99,3.94 -4.2,4.38 -6.62,1.33 -2.13,6.35 -4.33,5.91 -6.61,-1.33 6.31,-0.75 8.07,-3.39 5.29,-7.94 7,-3.4 9.65,-9.13 7.94,-17.2 -2.78,-0.39 -5.43,0.05 -7.94,1.33 5.82,2.05 5.82,5.14 0,9.26 -3.22,-1.33 -6.31,-2.21 -9.26,-2.65 -2.6,15.42 -6.13,16.3 -10.59,2.65 -6.78,9.71 -12.96,9.71 -18.52,0 -0.84,4.77 -2.61,5.65 -5.3,2.65 -4.41,1.76 -8.81,3.52 -13.23,5.29 -1.3,-2.78 -0.86,-5.42 1.33,-7.94 -2.64,-6.69 -4.85,-6.69 -6.62,0 -3.81,-2.01 -7.78,-3.77 -11.91,-5.29 -2.64,3.52 -5.29,7.06 -7.94,10.58 -3.26,-1.7 -6.78,-2.14 -10.58,-1.32 2.52,-1.9 2.95,-4.11 1.32,-6.62 -7.6,5.45 -14.66,11.63 -21.17,18.53 -3.14,-4.97 -5.78,-10.26 -7.94,-15.88 -4.87,3.53 -6.19,3.09 -3.97,-1.32 -7.05,-2.65 -7.05,-5.3 0,-7.94 -4.48,-4.54 -8.01,-9.83 -10.58,-15.88 -4.74,-1.38 -9.15,-0.5 -13.23,2.65 0.88,0.88 1.76,1.76 2.64,2.64 -8.46,4.41 -13.76,10.15 -15.88,17.2 -2.64,-0.88 -4.41,-2.64 -5.29,-5.29 4.51,-3.68 6.27,-7.65 5.29,-11.91 -4.94,-2.58 -10.24,-3.9 -15.87,-3.97 -2.16,9.74 -8.33,17.68 -18.53,23.82 1.37,-3.33 -0.4,-5.98 -5.29,-7.94 2.72,0.54 5.37,-0.78 7.94,-3.97 -6.37,-4.54 -8.14,-10.27 -5.29,-17.2 -3.53,-1.77 -7.06,-3.53 -10.59,-5.29 -3.02,-2.45 -3.02,-4.66 0,-6.62 -2.65,-1.76 -5.29,-1.76 -7.94,0 1.92,7.07 6.33,11.04 13.23,11.91 0.23,8.2 -1.09,9.08 -3.97,2.65 -5.76,2.96 -11.49,7.81 -17.2,14.55 5.2,1.65 9.61,0.33 13.23,-3.97 0.88,1.33 1.77,2.65 2.65,3.97 -3.12,7.42 -1.35,13.6 5.29,18.52 -3.88,1.68 -7.41,3.89 -10.58,6.62 -1.99,-2.32 -3.31,-4.96 -3.97,-7.94 -1.1,1.21 -2.42,2.09 -3.97,2.65 -2.65,-4.41 -6.18,-7.94 -10.59,-10.59 -1.98,2.32 -3.31,4.97 -3.97,7.94 -2.56,-3.12 -3.88,-6.64 -3.97,-10.58 -4.08,-3.3 -8.05,-3.3 -11.9,0 -2.05,-3.57 -5.14,-5.78 -9.27,-6.62 3.81,-2.62 6.46,-6.15 7.94,-10.58 -3.1,-0.94 -6.18,-0.5 -9.26,1.32 -4.2,-4.09 -9.05,-7.18 -14.55,-9.26 6.54,-5.1 6.54,-9.95 0,-14.56 -4.42,2.21 -8.82,4.41 -13.24,6.62 2.14,0.81 3.91,2.14 5.3,3.97 -3.84,2.26 -7.36,4.9 -10.59,7.94 -1.84,-4.99 -4.49,-5.87 -7.94,-2.65 -3.6,-4.04 -6.69,-8.46 -9.26,-13.23 -0.77,4.08 -2.53,7.61 -5.29,10.58 -14.04,-15.25 -22.86,-13.49 -26.46,5.3 -6.44,0.69 -11.73,3.34 -15.88,7.94 -4.45,-0.82 -8.86,-1.7 -13.23,-2.65 -3.9,1.06 -7.43,2.83 -10.59,5.29 -3.25,-2.05 -4.14,-4.7 -2.65,-7.94 5.64,1.13 11.37,-0.19 17.21,-3.97 -4.48,-3.7 -6.25,-8.56 -5.3,-14.55 -10.25,2.39 -20.4,5.04 -30.43,7.94 -0.88,-1.77 -1.76,-3.53 -2.65,-5.3 -2.44,3.34 -4.65,6.86 -6.61,10.59 -1.55,-0.55 -2.88,-1.44 -3.97,-2.65 0,3.53 0,7.06 0,10.59 -7.08,-9.32 -11.93,-8.88 -14.56,1.32 1.77,0.88 3.53,1.77 5.3,2.65 -3.53,1.76 -7.06,1.76 -10.59,0 3.2,-2.95 3.2,-6.04 0,-9.26 -1.33,-2.71 -3.09,-3.15 -5.29,-1.33 3.2,2.37 3.2,4.57 0,6.62 -3.68,-3.03 -7.21,-3.03 -10.59,0 0.92,3.16 2.24,3.16 3.97,0 5.92,8.35 4.6,14.97 -3.97,19.85 1.67,4.67 -0.53,7.76 -6.61,9.26 -4.67,-1.18 -4.22,-2.5 1.32,-3.97 -2.56,-4.65 -5.65,-5.98 -9.26,-3.97 -1.19,-5.34 -3.4,-10.19 -6.62,-14.55 5.29,-3.06 6.17,-7.03 2.65,-11.91 -8.08,-0.71 -15.57,-4.24 -22.5,-10.59 -0.88,1.77 -1.76,3.53 -2.64,5.29 2.62,-25.51 -1.79,-26.39 -13.23,-2.64 -7.5,7.05 -11.47,4.85 -11.91,-6.62 2.7,-6.13 6.67,-7.45 11.91,-3.97 1.31,-5.22 1.75,-10.51 1.32,-15.88 -62.27,1.3 -124.89,0.86 -187.89,-1.32 90.86,-0.88 181.72,-1.77 272.57,-2.65 -91.3,-0.44 -182.16,-1.76 -272.57,-3.96 90.86,0 181.72,0 272.57,0 0,-202.01 0,-404.01 0,-606.01 -90.85,0 -181.71,0 -272.57,0 -1.76,205.09 -3.53,410.62 -5.29,616.59 -3.55,3.71 -5.76,2.83 -6.62,-2.65 -2.82,1.83 -5.91,3.16 -9.26,3.97 10.15,6 9.27,7.76 -2.65,5.3 3.39,8.08 4.71,16.46 3.97,25.14 -1.98,-1.66 -4.19,-2.98 -6.61,-3.97 2.51,-1.9 2.95,-4.11 1.32,-6.62 -2.87,5.71 -5.96,6.15 -9.26,1.32 4.56,-1.18 6.33,-3.39 5.29,-6.61 1.55,0.55 2.88,1.44 3.97,2.64 1.98,-3 1.54,-5.65 -1.32,-7.93 -3.53,3.52 -7.06,3.52 -10.59,0 -3.2,2.04 -3.2,4.25 0,6.61 -3.07,2.19 -6.16,4.39 -9.26,6.62 -7.73,-5.81 -16.12,-6.69 -25.14,-2.65 -3.95,-0.55 -7.04,-2.32 -9.26,-5.29 -1.3,3.42 -1.74,6.95 -1.33,10.58 3.5,0.45 6.59,-0.43 9.27,-2.64 1.76,3.52 4.41,6.17 7.94,7.94 1.76,1.76 1.76,3.52 0,5.29 -3.5,-0.79 -7.47,-1.23 -11.91,-1.32 -1.14,-2.44 -2.02,-4.64 -2.65,-6.62 -4.37,5.15 -6.57,10.44 -6.61,15.88 -0.66,-2.98 -1.99,-5.62 -3.97,-7.94 -3.17,0.91 -3.17,2.24 0,3.97 -1.77,0.44 -3.53,0.88 -5.3,1.32 -10.12,-3.4 -10.12,-6.05 0,-7.94 0,-2.64 0,-5.29 0,-7.94 -7.31,-0.79 -13.93,-3.43 -19.84,-7.94 -0.82,2.14 -2.14,3.91 -3.97,5.3 -0.17,-7.12 -4.58,-9.33 -13.24,-6.62 5.42,2.46 7.62,6.43 6.62,11.91 -3.69,-3.48 -6.34,-2.6 -7.94,2.65 -3.24,-7.87 -8.53,-9.64 -15.88,-5.3 -1.74,-4.25 -0.41,-7.34 3.97,-9.26 -1.5,-4.37 -5.03,-8.78 -10.58,-13.23 8.78,-3.79 17.6,-5.11 26.46,-3.97 -194.04,-3.09 -194.04,-5.29 0,-6.62 -48.97,-0.44 -97.48,-1.76 -145.55,-3.96 48.52,0 97.04,0 145.55,0 2.21,-228.91 3.53,-458.26 3.97,-688.05 1.47,-5.6 3.68,-10.89 6.62,-15.88 -0.33,-1.6 -1.21,-2.48 -2.65,-2.64 6.46,-10 15.29,-17.05 26.46,-21.17 1.11,1.65 2.87,2.53 5.3,2.64 284.42,-1.75 568.46,-3.52 852.11,-5.29 23.05,3.23 38.48,15.58 46.31,37.05 1.33,231.11 1.77,462.22 1.33,693.34 49.39,0 98.79,0 148.19,0 0,-291.98 0,-583.96 0,-875.94 -411.5,-2.2 -823.45,-3.53 -1235.83,-3.97 309.62,-0.44 619.24,-1.76 928.86,-3.97 3.45,-3.73 5.66,-8.15 6.61,-13.23 0.88,3.53 1.77,7.06 2.65,10.59 1.76,-3.53 4.41,-6.18 7.94,-7.94 1.31,-4.06 0.87,-8.03 -1.33,-11.91 -7.04,-4.44 -7.04,-8.85 0,-13.23 -1.47,-1.92 -2.36,-4.12 -2.64,-6.62 0.85,-5.47 3.06,-6.36 6.61,-2.64 4.66,-2.57 5.98,-5.66 3.97,-9.27 3.37,-3.46 6.01,-7.42 7.94,-11.9 3.44,1.56 5.64,4.2 6.62,7.93 2.07,-5.11 0.75,-9.08 -3.97,-11.9 3.82,-2.07 7.35,-1.63 10.58,1.32 0.92,7.25 4.01,14.31 9.27,21.17 5.61,-1.91 6.93,-4.99 3.96,-9.26 3.53,-1.77 7.06,-3.53 10.59,-5.3 -3.2,-2.94 -3.2,-6.03 0,-9.26 -6.77,-6 -5.45,-10.41 3.97,-13.23 4.41,2.65 8.82,5.29 13.23,7.94 0.58,-8.59 2.34,-17.41 5.29,-26.46 1.33,1.32 2.65,2.64 3.97,3.97 -2.79,8.97 -2.79,17.79 0,26.46 -1.88,3.32 -4.08,6.41 -6.61,9.26 -5.71,-6.5 -7.92,-4.74 -6.62,5.29 5.16,-0.72 9.13,1.04 11.91,5.3 5.59,-6.16 7.79,-12.78 6.62,-19.85 6,-0.24 9.97,2.85 11.9,9.26 1.99,-1.66 4.2,-2.98 6.62,-3.97 -3.26,-3.13 -3.26,-6.21 0,-9.26 3.37,0.65 6.46,0.65 9.26,0 3.65,-13.98 7.18,-13.98 10.59,0 0.97,-3.73 3.18,-6.38 6.61,-7.94 5.35,4.05 10.64,5.81 15.88,5.29 2.59,-1.26 4.79,-3.02 6.62,-5.29 1.11,3.1 2.87,5.75 5.29,7.94 1.77,-3.53 3.53,-3.53 5.29,0 0.88,3.53 1.77,7.06 2.65,10.59 0.88,-0.89 1.76,-1.77 2.65,-2.65 2.93,4.07 6.9,5.83 11.9,5.29 -0.49,4.24 0.83,7.77 3.97,10.59 3.22,-2.35 6.76,-4.99 10.59,-7.94 1.76,1.76 3.53,3.52 5.29,5.29 5.23,-0.39 10.52,-1.27 15.88,-2.65 1.11,3.11 2.87,5.75 5.29,7.94 2.95,-3.2 6.04,-3.2 9.26,0 3.38,-5.99 2.06,-11.28 -3.97,-15.87 -3.13,3.25 -6.21,3.25 -9.26,0 3.71,-3.56 2.83,-5.76 -2.64,-6.62 3.52,-1.77 6.17,-4.41 7.94,-7.94 1.76,-1.76 3.52,-1.76 5.29,0 -0.88,2.65 -1.77,5.29 -2.65,7.94 4.17,1.85 7.69,0.96 10.59,-2.65 -3.26,-3.13 -3.26,-6.21 0,-9.26 -0.54,2.72 0.78,5.37 3.97,7.94 0.76,-4.09 2.53,-7.61 5.29,-10.59 3.96,5.98 8.37,11.27 13.23,15.88 1.32,-0.44 2.65,-0.88 3.97,-1.32 -0.31,-3.36 -1.19,-6.89 -2.65,-10.59 5.93,-2.58 12.11,-3.91 18.53,-3.97 0.58,3.11 -0.3,5.76 -2.65,7.94 -3.35,-2.45 -6.88,-2.89 -10.58,-1.32 6.86,9.03 13.03,8.59 18.52,-1.32 3.69,3.6 8.1,5.81 13.23,6.61 0.79,3.5 1.24,7.46 1.33,11.91 2.68,3 4.45,2.12 5.29,-2.64 1.76,3.52 3.53,3.52 5.29,0 0.9,8.42 4.43,15.48 10.59,21.17 6.56,-8.5 4.36,-13.35 -6.62,-14.56 4.24,-0.72 8.21,-2.05 11.91,-3.97 1.25,4.62 3.01,9.03 5.29,13.23 0.88,-3.52 1.77,-7.06 2.65,-10.58 1.28,2.51 1.72,5.15 1.32,7.94 2.65,0 5.29,0 7.94,0 0.45,-3.5 -0.43,-6.59 -2.65,-9.27 1.33,-1.32 2.65,-2.64 3.97,-3.96 3.53,3.52 7.06,7.05 10.59,10.58 6.66,-5.62 11.07,-12.68 13.23,-21.17 1.96,2.84 4.6,4.61 7.94,5.29 12.57,-2.76 23.16,-8.93 31.76,-18.52 1.3,2.77 0.86,5.42 -1.33,7.94 2.89,3.97 5.97,4.86 9.27,2.64 0.88,2.65 1.76,5.3 2.64,7.94 0.82,-3.35 2.14,-6.44 3.97,-9.26 -10.81,-5.03 -10.37,-9 1.32,-11.91 1.63,-4.8 0.75,-5.68 -2.64,-2.64 -1.83,-2.27 -4.03,-4.04 -6.62,-5.3 -3.35,2.46 -6.88,2.9 -10.58,1.33 -5.98,-7.32 -4.66,-13.93 3.97,-19.85 0.88,1.76 1.76,3.53 2.64,5.29 0.66,-2.97 1.98,-5.62 3.97,-7.94 3.21,2.05 3.21,4.25 0,6.62 1.39,1.83 3.15,3.15 5.29,3.97 1.8,-4.84 6.21,-8.8 13.23,-11.91 35.75,-0.45 71.03,-1.77 105.86,-3.97z"/>
   </g>
   <g id="_1574698935328">
    <path class="fil0" d="M1290.11 1133.03c1.44,0.16 2.32,1.04 2.65,2.64 -2.94,4.99 -5.15,10.28 -6.62,15.88 -0.44,229.79 -1.76,459.14 -3.97,688.05 -0.44,-231.12 0,-462.23 1.32,-693.34 2.25,-4.48 4.45,-8.89 6.62,-13.23z"/>
   </g>
   <g id="_1574698934624">
    <path class="fil0" d="M2592.1 963.66c-22.93,0 -45.87,0 -68.8,0 0,291.1 0,582.19 0,873.29 -2.65,-291.53 -3.53,-583.51 -2.65,-875.94 24.3,-0.86 48.12,0.02 71.45,2.65z"/>
   </g>
   <g id="_1574698934080">
    <path class="fil0" d="M983.14 1990.44c513.82,-2.65 1028.09,-3.53 1542.8,-2.65 0,28.23 0,56.45 0,84.68 -0.88,0 -1.76,0 -2.64,0 0,-27.34 0,-54.69 0,-82.03 -513.39,0 -1026.78,0 -1540.16,0z"/>
   </g>
   <g id="_1574698935648">
    <path class="fil0" d="M2631.8 1863.41c10.63,8.9 17.25,20.37 19.84,34.4 1.33,57.33 1.77,114.67 1.33,172.02 -2.64,-53.35 -3.52,-107.16 -2.65,-161.43 -2.6,-16.64 -8.77,-31.64 -18.52,-44.99z"/>
   </g>
   <g id="_1574698933440">
    <path class="fil0" d="M983.14 2072.47c513.38,0 1026.77,0 1540.16,0 0.88,0 1.76,0 2.64,0 2.2,-26.88 3.52,-54.23 3.97,-82.03 1.33,26.44 1.77,52.91 1.33,79.39 3.78,0.2 7.31,-0.68 10.58,-2.65 4.27,2.8 6.47,6.33 6.62,10.58 -6.06,2.58 -11.35,6.11 -15.88,10.59 -2.65,-2.65 -5.29,-5.29 -7.94,-7.94 0.84,5.94 0.4,11.67 -1.32,17.2 9.97,2.34 9.97,4.11 0,5.29 -2.47,-7.01 -6,-7.9 -10.59,-2.64 2.78,3.66 6.31,6.31 10.59,7.94 0,2.64 0,5.29 0,7.94 3.88,1.68 7.41,3.88 10.58,6.61 3.87,-2.57 7.4,-1.69 10.59,2.65 -0.54,-2.72 0.78,-5.37 3.97,-7.94 3.13,3.26 6.21,3.26 9.26,0 2.99,-5.37 1.66,-6.25 -3.97,-2.65 -1.77,-2.64 -1.77,-5.29 0,-7.94 2.78,2.69 5.86,3.14 9.26,1.33 -1.89,-3.56 -1,-7.09 2.65,-10.59 -3.98,-1.54 -7.5,-3.75 -10.59,-6.61 1.39,-1.84 3.16,-3.16 5.3,-3.97 -2.14,-0.82 -3.91,-2.14 -5.3,-3.97 8.44,-3.62 17.26,-5.82 26.47,-6.62 -6.03,-1.25 -11.33,-3.9 -15.88,-7.94 2.64,-1.32 5.29,-2.64 7.94,-3.97 5.13,4.3 8.66,9.59 10.58,15.88 -0.18,3.37 -1.06,6.45 -2.64,9.26 5.07,5.57 10.36,8.66 15.87,9.26 -2.88,3.98 -5.97,4.86 -9.26,2.65 -1.16,4.17 -3.37,7.7 -6.61,10.59 1.8,7.83 4.01,8.72 6.61,2.64 1.9,2.52 4.11,2.96 6.62,1.33 3.53,-1.77 3.53,-3.53 0,-5.3 8.46,-6.25 17.28,-11.98 26.46,-17.2 0.88,1.77 1.77,3.53 2.65,5.29 3.22,-1.32 6.3,-2.21 9.26,-2.64 1.98,1.65 4.19,2.98 6.61,3.97 -5.29,2.64 -10.58,5.29 -15.87,7.94 2.97,2.76 6.5,4.52 10.58,5.29 -7.43,0.83 -14.49,-0.5 -21.17,-3.97 -2.33,7.63 -2.33,15.13 0,22.49 -0.67,3.51 -2.44,6.16 -5.29,7.94 6.82,5.71 6.82,8.8 0,9.27 3.33,2.33 6.42,4.98 9.26,7.93 1.32,-1.32 2.65,-2.64 3.97,-3.97 -7.01,-6.44 -5.25,-9.97 5.29,-10.58 -2.21,-2.68 -3.09,-5.76 -2.64,-9.26 -2.79,0.39 -5.43,-0.05 -7.94,-1.33 -0.32,-3.39 1.01,-6.47 3.97,-9.26 1.09,1.21 2.42,2.1 3.97,2.65 7.83,-5.39 15.77,-4.95 23.81,1.32 -11.91,2.48 -12.79,6.01 -2.64,10.59 -4.41,0.88 -8.82,1.76 -13.23,2.64 3.8,0.58 7.33,1.91 10.58,3.97 -3.51,-0.78 -7.03,0.54 -10.58,3.97 1.39,1.83 3.15,3.16 5.29,3.97 3.23,-3.2 6.32,-3.2 9.26,0 2.95,-3.33 3.39,-6.42 1.32,-9.26 4.86,-1.32 7.94,-4.41 9.27,-9.26 0.88,1.76 1.76,3.52 2.64,5.29 0.25,-16.91 2.9,-16.91 7.94,0 2.51,-7.14 7.37,-9.35 14.56,-6.62 3.48,3.7 2.59,6.34 -2.65,7.94 3.53,1.77 7.06,3.53 10.58,5.3 -3.16,1.73 -3.16,3.05 0,3.97 3.56,-3.72 5.76,-2.83 6.62,2.64 0.66,-2.97 1.98,-5.62 3.97,-7.94 6.86,-1.15 13.03,-3.8 18.53,-7.94 2.44,3.02 4.65,3.02 6.61,0 4.31,4.52 8.28,8.93 11.91,13.24 2.41,-5.71 5.49,-11 9.26,-15.88 3.04,2.53 5.68,1.65 7.94,-2.65 2.25,2.45 4.9,2.45 7.94,0 2.5,1.07 4.27,2.84 5.29,5.29 1.23,-3.78 3.44,-6.87 6.62,-9.26 -1.32,-1.32 -2.65,-2.64 -3.97,-3.97 -10.95,6.36 -21.1,4.6 -30.43,-5.29 -2.21,2.65 -4.42,5.29 -6.62,7.94 -1.73,-5.89 -5.7,-8.97 -11.91,-9.26 2.84,-1.96 4.61,-4.61 5.29,-7.94 -4.29,-4.97 -3.41,-8.5 2.65,-10.59 -4.33,-1.59 -8.74,-2.91 -13.23,-3.97 -4.93,4.14 -8.46,3.25 -10.59,-2.64 6.58,-0.75 13.64,-0.75 21.17,0 0,-3.53 0,-7.06 0,-10.59 -24.71,0.44 -49.41,0 -74.09,-1.32 31.79,-2.21 63.54,-1.76 95.26,1.32 5.52,8.55 9.93,16.49 13.24,23.82 4.57,2.9 8.98,5.99 13.23,9.26 -1.77,0.88 -3.53,1.77 -5.29,2.65 8.78,4.84 14.07,12.34 15.87,22.49 1.55,-0.55 2.88,-1.44 3.97,-2.65 3.56,8.33 8.41,15.39 14.56,21.17 0,42.34 0,84.69 0,127.03 -2.65,0 -5.3,0 -7.94,0 0.39,-2.79 -0.05,-5.43 -1.32,-7.94 -3.04,2.53 -5.69,1.65 -7.94,-2.65 -4.84,4.17 -10.57,6.37 -17.2,6.62 5.78,1.6 6.22,4.68 1.32,9.26 -5.06,-6.5 -9.47,-5.62 -13.23,2.65 -1.19,-8.15 -2.51,-15.2 -3.97,-21.17 -2.65,1.32 -5.3,2.64 -7.94,3.97 4.53,2.99 5.85,6.96 3.97,11.9 -5.61,-11.06 -9.14,-10.18 -10.59,2.65 -3.69,-4.34 -7.66,-8.31 -11.91,-11.91 0.52,-3.78 0.52,-7.75 0,-11.91 -5.33,6.21 -11.5,11.5 -18.52,15.88 -0.88,-1.32 -1.77,-2.65 -2.65,-3.97 2.34,-2.9 4.99,-4.23 7.94,-3.97 -5.75,-3.68 -10.6,-2.8 -14.55,2.65 -4.87,-3.53 -6.2,-3.09 -3.97,1.32 -3.97,6.7 -7.06,12.43 -9.26,17.2 -2.5,-1.07 -4.27,-2.83 -5.3,-5.29 -0.88,1.77 -1.76,3.53 -2.64,5.29 -0.88,-25.58 -1.77,-51.16 -2.65,-76.74 -0.45,26.93 -1.77,53.39 -3.97,79.39 0,-27.35 0,-54.69 0,-82.04 -612.63,-0.88 -1224.81,0 -1836.55,2.65 0,25.58 0,51.16 0,76.74 -4.42,-0.66 -8.39,-2.43 -11.91,-5.29 -0.88,0.88 -1.76,1.77 -2.64,2.65 -1.35,-3.96 -0.02,-7.05 3.97,-9.27 -5.12,-0.66 -9.97,-1.98 -14.56,-3.97 -5.79,2.87 -10.2,1.11 -13.23,-5.29 -2.82,1.83 -5.91,3.15 -9.26,3.97 1.65,1.99 2.98,4.19 3.97,6.62 5.92,-3.63 10.78,-2.3 14.55,3.97 -2.76,5.23 -6.29,6.55 -10.58,3.97 -5.97,6.54 -11.7,6.54 -17.2,0 -4.74,5.32 -8.27,5.32 -10.59,0 -0.88,0.88 -1.77,1.76 -2.65,2.64 -2.82,-1.83 -5.91,-3.15 -9.26,-3.97 2.69,-2.77 3.14,-5.86 1.33,-9.26 -6.98,0.12 -14.48,0.56 -22.5,1.32 -3.53,2.65 -3.53,5.3 0,7.94 -3.79,1.23 -6.87,3.44 -9.26,6.62 -8.01,-2.96 -15.07,-7.37 -21.17,-13.23 -0.88,-48.52 -1.77,-97.04 -2.65,-145.55 -0.44,74.55 -1.77,148.64 -3.97,222.29 -0.44,-78.51 0,-157.02 1.33,-235.52 3.34,-12.9 9.95,-23.49 19.84,-31.76 4.09,-0.54 7.62,-2.3 10.59,-5.29 4.27,1.63 7.8,4.27 10.58,7.94 5.89,-1.54 8.09,-5.07 6.62,-10.59 -0.88,0.88 -1.76,1.77 -2.65,2.65 -5.27,-5.04 -3.95,-8.13 3.97,-9.26 34.4,-0.88 68.81,-1.77 103.21,-2.65 3.24,-4.33 6.77,-8.3 10.58,-11.91 3.44,1.56 5.65,4.21 6.62,7.94 0.82,-3.35 2.14,-6.44 3.97,-9.26 7.04,-3.37 13.65,-7.34 19.85,-11.91 2.57,5.01 4.34,10.3 5.29,15.88 0.88,-1.77 1.77,-3.53 2.65,-5.29 6,2.67 10.85,6.2 14.55,10.58 -0.91,3.17 -2.24,3.17 -3.97,0 -1.76,2.65 -1.76,5.29 0,7.94 5.09,-3.99 8.18,-9.29 9.26,-15.88 2.29,-2.86 4.94,-3.3 7.94,-1.32 -3.52,3.53 -3.52,7.06 0,10.58 -1.76,0.88 -3.52,1.77 -5.29,2.65 5.52,2.76 9.93,6.72 13.23,11.91 -3.59,4.78 -2.71,8.75 2.65,11.91 -2.65,0.88 -5.29,1.76 -7.94,2.64 3.03,1.71 5.68,3.92 7.94,6.62 3.33,-4.9 3.33,-9.75 0,-14.55 1.76,-1.77 3.53,-3.53 5.29,-5.3 -3.81,-2.62 -6.45,-6.15 -7.94,-10.58 1.99,-3.94 4.2,-4.38 6.62,-1.33 0.88,-2.64 1.76,-5.29 2.64,-7.93 4.62,2.48 9.47,4.68 14.56,6.61 -1.77,0.88 -3.53,1.77 -5.29,2.65 3.08,3.97 6.17,7.94 9.26,11.91 5.61,-1.91 6.94,-5 3.97,-9.27 1.62,-5.68 3.38,-11.41 5.29,-17.2 1.99,2.32 3.31,4.97 3.97,7.94 2.46,-8.67 1.13,-16.6 -3.97,-23.82 0.92,-3.16 2.24,-3.16 3.97,0 0.67,-20.19 0.23,-40.04 -1.32,-59.54 1.32,-1.32 2.64,-2.64 3.97,-3.97 0.45,29.57 1.77,58.68 3.97,87.33z"/>
   </g>
   <g id="_1574698932736">
    <path class="fil0" d="M2809.1 2337.1c7.48,42.45 -9.28,71.12 -50.28,86.01 -660.72,0.45 -1321.42,1.78 -1982.1,3.97 -44.31,-1.11 -70.77,-23.16 -79.39,-66.16 2.2,-73.65 3.53,-147.74 3.97,-222.29 0.88,48.51 1.77,97.03 2.65,145.55 6.1,5.86 13.16,10.27 21.17,13.23 2.39,-3.18 5.47,-5.39 9.26,-6.62 -3.53,-2.64 -3.53,-5.29 0,-7.94 8.02,-0.76 15.52,-1.2 22.5,-1.32 1.81,3.4 1.36,6.49 -1.33,9.26 3.35,0.82 6.44,2.14 9.26,3.97 0.88,-0.88 1.77,-1.76 2.65,-2.64 2.32,5.32 5.85,5.32 10.59,0 5.5,6.54 11.23,6.54 17.2,0 4.29,2.58 7.82,1.26 10.58,-3.97 -3.77,-6.27 -8.63,-7.6 -14.55,-3.97 -0.99,-2.43 -2.32,-4.63 -3.97,-6.62 3.35,-0.82 6.44,-2.14 9.26,-3.97 3.03,6.4 7.44,8.16 13.23,5.29 4.59,1.99 9.44,3.31 14.56,3.97 -3.99,2.22 -5.32,5.31 -3.97,9.27 0.88,-0.88 1.76,-1.77 2.64,-2.65 3.52,2.86 7.49,4.63 11.91,5.29 611.74,2.65 1223.92,3.53 1836.55,2.65 2.2,-26 3.52,-52.46 3.97,-79.39 0.88,25.58 1.77,51.16 2.65,76.74 0.88,-1.76 1.76,-3.52 2.64,-5.29 1.03,2.46 2.8,4.22 5.3,5.29 2.2,-4.77 5.29,-10.5 9.26,-17.2 -2.23,-4.41 -0.9,-4.85 3.97,-1.32 3.95,-5.45 8.8,-6.33 14.55,-2.65 -2.95,-0.26 -5.6,1.07 -7.94,3.97 0.88,1.32 1.77,2.65 2.65,3.97 7.02,-4.38 13.19,-9.67 18.52,-15.88 0.52,4.16 0.52,8.13 0,11.91 4.25,3.6 8.22,7.57 11.91,11.91 1.45,-12.83 4.98,-13.71 10.59,-2.65 1.88,-4.94 0.56,-8.91 -3.97,-11.9 2.64,-1.33 5.29,-2.65 7.94,-3.97 1.46,5.97 2.78,13.02 3.97,21.17 3.76,-8.27 8.17,-9.15 13.23,-2.65 4.9,-4.58 4.46,-7.66 -1.32,-9.26 6.63,-0.25 12.36,-2.45 17.2,-6.62 2.25,4.3 4.9,5.18 7.94,2.65 1.27,2.51 1.71,5.15 1.32,7.94 2.64,0 5.29,0 7.94,0 0,-42.34 0,-84.69 0,-127.03 2.15,39.22 3.91,99.21 5.29,179.95z"/>
   </g>
   <g id="_1574698925472">
    <path class="fil0" d="M834.94 2218.02c611.74,-2.65 1223.92,-3.53 1836.55,-2.65 0,27.35 0,54.69 0,82.04 -612.63,0.88 -1224.81,0 -1836.55,-2.65 611.3,0 1222.6,0 1833.9,0 0,-25.58 0,-51.16 0,-76.74 -611.3,0 -1222.6,0 -1833.9,0z"/>
   </g>
  </g>
  <g id="_1574860188448">
   <path class="fil1" d="M2406.86 587.88c-433.55,2.65 -867.55,3.53 -1301.99,2.65 8.39,-4.64 16.33,-9.93 23.81,-15.88 209.13,-120.67 417.75,-242.4 625.86,-365.19 217.1,127.28 434.54,253.42 652.32,378.42z"/>
  </g>
  <g id="_1574698874112">
   <path class="fil1" d="M2369.81 963.66c0,291.98 0,583.96 0,875.94 -49.4,0 -98.8,0 -148.19,0 0.44,-231.12 0,-462.23 -1.33,-693.34 -7.83,-21.47 -23.26,-33.82 -46.31,-37.05 -285.88,-0.87 -571.68,0.02 -857.41,2.65 -11.17,4.12 -20,11.17 -26.46,21.17 -2.17,4.34 -4.37,8.75 -6.62,13.23 -1.32,231.11 -1.76,462.22 -1.32,693.34 -48.51,0 -97.03,0 -145.55,0 0,-291.98 0,-583.96 0,-875.94 411.06,0 822.13,0 1233.19,0z"/>
  </g>
  <g id="_1574698937760">
   <path class="fil1" d="M1411.84 1233.59c90.86,0 181.72,0 272.57,0 0,202 0,404 0,606.01 -90.85,0 -181.71,0 -272.57,0 0,-202.01 0,-404.01 0,-606.01z"/>
  </g>
  <g id="_1574698936448">
   <path class="fil1" d="M1822.02 1233.59c91.74,0 183.48,0 275.22,0 0,202 0,404 0,606.01 -91.74,0 -183.48,0 -275.22,0 0,-202.01 0,-404.01 0,-606.01z"/>
  </g>
  <g id="_1574698932896">
   <path class="fil1" d="M983.14 1990.44c513.38,0 1026.77,0 1540.16,0 0,27.34 0,54.69 0,82.03 -513.39,0 -1026.78,0 -1540.16,0 0,-27.34 0,-54.69 0,-82.03z"/>
  </g>
  <g id="_1574698930816">
   <path class="fil1" d="M834.94 2218.02c611.3,0 1222.6,0 1833.9,0 0,25.58 0,51.16 0,76.74 -611.3,0 -1222.6,0 -1833.9,0 0,-25.58 0,-51.16 0,-76.74z"/>
  </g>
 </g>
</svg>
