<?xml version="1.0" encoding="UTF-8"?>
<!DOCTYPE svg PUBLIC "-//W3C//DTD SVG 1.1//EN" "http://www.w3.org/Graphics/SVG/1.1/DTD/svg11.dtd">
<!-- Creator: CorelDRAW 2017 -->
<svg xmlns="http://www.w3.org/2000/svg" xml:space="preserve" width="297mm" height="210mm" version="1.1" style="shape-rendering:geometricPrecision; text-rendering:geometricPrecision; image-rendering:optimizeQuality; fill-rule:evenodd; clip-rule:evenodd"
viewBox="0 0 29700 21000"
 xmlns:xlink="http://www.w3.org/1999/xlink">
 <defs>
  <style type="text/css">
   <![CDATA[
    .fil0 {fill:#EB0201}
    .fil1 {fill:#EC2625}
   ]]>
  </style>
 </defs>
 <g id="Layer_x0020_1">
  <metadata id="CorelCorpID_0Corel-Layer"/>
  <g id="_1574698916864">
   <g>
    <path class="fil0" d="M13653.23 1737.12c20.4,13.64 31.28,35.43 32.69,65.37 -21.57,2314.4 -43.37,4624.03 -65.37,6928.86 -10.69,-2332.77 0.2,-4664.17 32.68,-6994.23z"/>
   </g>
   <g>
    <path class="fil1" d="M13620.55 8731.35c22,-2304.83 43.8,-4614.46 65.37,-6928.86 -1.41,-29.94 -12.29,-51.73 -32.69,-65.37 259.37,-560.06 695.18,-783.38 1307.33,-670 357.13,128.35 591.38,373.48 702.7,735.37 21.8,2342.32 21.8,4684.59 0,7026.91 -248.62,655.43 -711.65,889.64 -1389.04,702.7 -369.19,-145.64 -587.09,-412.57 -653.67,-800.75z"/>
   </g>
   <path class="fil1" d="M22902.61 9679.17c124.55,915.67 148.88,1527.61 32.68,2353.19 -254.14,2191.64 -1201.96,4016.45 -2843.45,5474.45 -2032.11,1654.85 -4352.62,2275.84 -6961.53,1862.94 -2917.55,-640.94 -4982.05,-2324.14 -6193.49,-5049.56 -1079.98,-2842.53 -774.92,-5522.56 915.14,-8040.09 920.07,-1323.27 2134.8,-2265.64 3644.18,-2827.09 166.33,-27.01 329.74,-16.09 490.25,32.67 650.76,353.34 808.71,859.93 473.9,1519.78 -70.81,70.82 -141.61,141.61 -212.44,212.44 -933.27,453.25 -1744.92,1068.77 -2434.9,1846.6 -1544.29,1991.88 -1871.12,4170.75 -980.5,6536.66 1016.78,2203.05 2732.65,3472.23 5147.61,3807.6 2761.28,185.65 4847.59,-898.37 6258.86,-3251.98 1053.28,-2076.87 1020.6,-4135.91 -98.05,-6177.15 -744.98,-1240.92 -1774.51,-2161.51 -3088.57,-2761.73 -524.05,-542.68 -513.16,-1076.49 32.69,-1601.48 215.24,-157.28 454.91,-211.76 719.02,-163.41 1061.56,364.38 1982.11,947.22 2761.74,1748.55 1208,1260.94 1986.95,2753.5 2336.86,4477.61z"/>
  </g>
 </g>
</svg>
