<?xml version="1.0" encoding="UTF-8"?>
<!DOCTYPE svg PUBLIC "-//W3C//DTD SVG 1.1//EN" "http://www.w3.org/Graphics/SVG/1.1/DTD/svg11.dtd">
<!-- Creator: CorelDRAW 2017 -->
<svg xmlns="http://www.w3.org/2000/svg" xml:space="preserve" width="297mm" height="210mm" version="1.1" style="shape-rendering:geometricPrecision; text-rendering:geometricPrecision; image-rendering:optimizeQuality; fill-rule:evenodd; clip-rule:evenodd"
viewBox="0 0 29700 21000"
 xmlns:xlink="http://www.w3.org/1999/xlink">
 <defs>
  <style type="text/css">
   <![CDATA[
    .fil0 {fill:black}
    .fil2 {fill:#EB44EB}
    .fil1 {fill:#FBFBFB}
   ]]>
  </style>
 </defs>
 <g id="Layer_x0020_1">
  <metadata id="CorelCorpID_0Corel-Layer"/>
  <path class="fil0" d="M13420.93 660.69c597.75,-20.02 1042,227.23 1332.78,741.71 254.75,657.05 111.8,1209.5 -428.81,1657.29 -99.86,69.25 -208.03,119.48 -324.51,150.65 0,625.83 1290.01,1251.65 1290.01,1877.47 2709.93,177.81 4761.24,1421.74 6153.93,3731.77 264.03,481.56 476.51,983.75 637.41,1506.61 884.8,-73.36 1553.13,266.61 2004.96,1019.86 111.72,219.25 181.26,451.04 208.61,695.36 15.46,533.11 15.46,1066.22 0,1599.33 -129.85,801.96 -574.11,1346.66 -1332.77,1634.1 -181.52,54.72 -366.94,81.77 -556.29,81.12 3.87,486.83 0,973.58 -11.59,1460.26 -149.88,1177.41 -710.01,2100.68 -1680.46,2769.85 -488.6,309.69 -1021.71,495.12 -1599.33,556.29 -2827.79,15.45 -5655.59,15.45 -8483.39,0 -1446.35,-194.95 -2470.05,-955.98 -3071.17,-2283.1 -124.42,-313.07 -201.7,-637.58 -231.79,-973.51 -11.59,-509.85 -15.46,-1019.79 -11.59,-1529.79 -824.11,-48.12 -1415.17,-442.15 -1773.16,-1182.11 -75.59,-194.14 -121.95,-395.03 -139.08,-602.64 -15.46,-509.93 -15.46,-1019.87 0,-1529.8 157.69,-938.04 702.39,-1505.92 1634.1,-1703.63 193.61,-3.89 386.78,-15.48 579.47,-34.77 1004.56,-2878.11 3005.67,-4597.21 6003.27,-5157.24 261.55,-36.21 524.24,-55.52 788.07,-57.96 3.88,-618.15 -1290,-1236.23 -1301.59,-1854.29 -726.76,-356.51 -989.45,-928.26 -788.07,-1715.22 210.86,-489.44 577.85,-775.31 1100.99,-857.61z"/>
  <g id="_1574967171872">
   <path class="fil1" d="M14502.32 5945.43c2141.48,-73.5 3937.82,668.21 5389.04,2225.15 925.81,1087.38 1451.2,2346.75 1576.15,3778.12 22.27,1661.52 14.53,3322.66 -23.18,4983.41 -233.04,1160.14 -916.81,1905.71 -2051.31,2236.75 -144.91,35.15 -291.73,58.33 -440.39,69.53 -2805.09,22.78 -5609.71,15.07 -8413.86,-23.18 -1001.29,-190.18 -1708.24,-750.34 -2120.85,-1680.46 -83.19,-209.11 -137.26,-425.44 -162.25,-649 -15.46,-1684.32 -15.46,-3368.62 0,-5052.95 234.85,-2097.25 1227.66,-3723.62 2978.46,-4879.1 1008.23,-605.43 2097.62,-941.52 3268.19,-1008.27z"/>
  </g>
  <g id="_1574967172480">
   <path class="fil0" d="M11002.34 10163.94c2541.93,-3.87 5083.87,0 7625.78,11.59 1152.31,167.95 1812.9,828.54 1981.78,1981.78 24.55,1013.69 -419.72,1736.08 -1332.78,2167.21 -135.17,52.77 -274.24,91.41 -417.21,115.89 -2618.73,38.19 -5237.91,45.94 -7857.57,23.18 -1127.1,-199.99 -1764.52,-868.3 -1912.23,-2004.96 1.64,-1034.91 476.8,-1757.32 1425.48,-2167.2 162.57,-53.2 324.83,-95.68 486.75,-127.49z"/>
  </g>
  <g id="_1574967171936">
   <path class="fil2" d="M13445.23 1449.54c297.25,-15.54 492.21,117.72 584.85,399.76 25.34,423.78 -174.54,628.59 -599.65,614.46 -293.22,-100.16 -424,-304.97 -392.36,-614.46 66.33,-207.02 202.05,-340.27 407.16,-399.76z"/>
  </g>
 </g>
</svg>
