<?xml version="1.0" encoding="UTF-8"?>
<!DOCTYPE svg PUBLIC "-//W3C//DTD SVG 1.1//EN" "http://www.w3.org/Graphics/SVG/1.1/DTD/svg11.dtd">
<!-- Creator: CorelDRAW 2017 -->
<svg xmlns="http://www.w3.org/2000/svg" xml:space="preserve" width="3508px" height="2480px" version="1.1" style="shape-rendering:geometricPrecision; text-rendering:geometricPrecision; image-rendering:optimizeQuality; fill-rule:evenodd; clip-rule:evenodd"
viewBox="0 0 3508 2480.4"
 xmlns:xlink="http://www.w3.org/1999/xlink">
 <defs>
  <style type="text/css">
   <![CDATA[
    .fil1 {fill:black}
    .fil0 {fill:#A1A1A1}
   ]]>
  </style>
 </defs>
 <g id="Layer_x0020_1">
  <metadata id="CorelCorpID_0Corel-Layer"/>
  <g id="_2852195047408">
   <g id="_1574966765744">
    <path class="fil0" d="M344.67 438.69c-4.98,13.39 -9.67,26.93 -14.06,40.63 -0.52,572.42 -2.08,1144.31 -4.69,1715.69 -0.52,-572.94 0,-1145.88 1.56,-1718.81 1.89,-14.62 7.62,-27.12 17.19,-37.51z"/>
   </g>
   <path class="fil0" d="M2651 119.93c2.97,2.04 6.61,3.09 10.94,3.13 68.15,-9.5 136.38,-18.35 204.7,-26.57 -4.04,-1.53 -8.21,-2.05 -12.5,-1.56 33.16,-10.8 65.45,-8.2 96.87,7.82 10.2,8.1 18.01,17.99 23.44,29.68 3.54,81.13 6.14,162.38 7.82,243.76 30.1,-2.48 60.31,-1.96 90.62,1.56 54.17,9.37 90.11,40.1 107.82,92.2 2.09,579.18 2.09,1158.37 0,1737.56 -14.83,44.52 -44.52,73.68 -89.06,87.5 -396.38,-0.05 -787.01,-0.05 -1171.92,0 -32.54,6.13 -60.15,21.76 -82.82,46.88 -31.89,51.94 -75.12,63.92 -129.69,35.94 -18.68,-17.65 -36.38,-36.4 -53.13,-56.26 -20.97,-15.44 -44.41,-24.29 -70.31,-26.56 -388.01,3.62 -776.04,4.13 -1164.11,1.56 -51.39,-15.44 -82.64,-49.3 -93.75,-101.56 2.61,-571.38 4.17,-1143.27 4.69,-1715.69 4.39,-13.7 9.08,-27.24 14.06,-40.63 19.57,-33.29 48.74,-53.6 87.51,-60.94 23.98,-1.25 47.94,-2.81 71.87,-4.68 7.06,0.1 13.83,1.14 20.32,3.12 1.04,-75 2.08,-150 3.12,-225.01 16.81,-50.35 51.71,-70.67 104.69,-60.93 239.36,22.34 472.7,72.34 700.03,150 125.4,42.36 238.95,104.86 340.63,187.51 28.8,27.23 55.89,55.87 81.26,85.94 65.43,-77.43 142.51,-140.45 231.26,-189.07 159.6,-81.33 327.32,-139.67 503.14,-175.01 54.02,-10.91 108.19,-20.81 162.5,-29.69z"/>
   <g id="_1574966763728">
    <path class="fil0" d="M1682.22 741.83c-0.4,-22.95 -1.44,-45.87 -3.12,-68.75 2.87,1.34 4.44,5.51 4.68,12.5 2.09,479.18 2.09,958.37 0,1437.55 -1.56,-460.43 -2.08,-920.86 -1.56,-1381.3z"/>
   </g>
   <g id="_1574966762064">
    <path class="fil0" d="M3044.77 2123.13c0,-534.39 0,-1068.79 0,-1603.18 -21.88,0 -43.75,0 -65.63,0 -3.87,-0.97 -3.87,-2.53 0,-4.69 22.65,-2.54 45.05,-2.02 67.19,1.56 1.09,545.9 2.13,1091.75 3.13,1637.56 -0.56,-11.02 -2.13,-21.43 -4.69,-31.25z"/>
   </g>
   <g id="_1574966762672">
    <path class="fil0" d="M666.56 276.19c0,486.48 0,972.95 0,1459.43 -2.58,15.05 -4.14,30.67 -4.69,46.87 0.45,-502.59 2.01,-1004.69 4.69,-1506.3z"/>
   </g>
   <g id="_1574966759792">
    <path class="fil0" d="M2854.14 94.93c4.29,-0.49 8.46,0.03 12.5,1.56 -68.32,8.22 -136.55,17.07 -204.7,26.57 -4.33,-0.04 -7.97,-1.09 -10.94,-3.13 67.5,-10.08 135.21,-18.42 203.14,-25z"/>
   </g>
   <g id="_1574966828560">
    <path class="fil0" d="M460.3 519.95c3.11,544.76 4.15,1089.56 3.13,1634.43 332.3,0 664.6,0 996.91,0 0.34,1.93 1.39,3.49 3.12,4.69 -332.3,2.08 -664.61,2.08 -996.91,0 -2.86,-1.17 -5.47,-2.73 -7.81,-4.69 -2.6,-545.33 -2.08,-1090.14 1.56,-1634.43z"/>
   </g>
   <g id="_1574966826096">
    <path class="fil0" d="M2047.86 2154.38c331.26,0 662.52,0 993.78,0 -25.49,2.59 -51.53,4.15 -78.12,4.69 -151.57,0.52 -303.14,1.04 -454.71,1.56 -154.2,-1.06 -307.86,-1.06 -460.95,0 -3.01,-1.47 -3.01,-3.55 0,-6.25z"/>
   </g>
   <g id="_1574966823440">
    <path class="fil0" d="M3091.65 2295.01c-390.56,4.14 -781.19,4.14 -1171.92,0 384.91,-0.05 775.54,-0.05 1171.92,0z"/>
   </g>
  </g>
  <g id="_1574966763856">
   <path class="fil1" d="M2979.14 519.95c21.88,0 43.75,0 65.63,0 0,534.39 0,1068.79 0,1603.18 0.98,11.07 -0.07,21.48 -3.13,31.25 -331.26,0 -662.52,0 -993.78,0 31.36,-22.54 66.78,-41.8 106.25,-57.81 149.22,-57.89 302.35,-102.68 459.39,-134.38 100.67,-17.96 201.71,-33.58 303.14,-46.88 31.46,-7.5 51.77,-26.77 60.94,-57.82 1.56,-445.84 2.08,-891.69 1.56,-1337.54z"/>
  </g>
  <path class="fil1" d="M460.3 519.95c21.88,0 43.75,0 65.63,0 -0.52,443.76 0,887.53 1.56,1331.29 8.88,33.89 30.24,55.24 64.07,64.07 251.06,25.37 494.82,81.62 731.27,168.76 34.75,14.76 69.13,30.39 103.13,46.87 14.31,6.87 25.77,14.69 34.38,23.44 -332.31,0 -664.61,0 -996.91,0 1.02,-544.87 -0.02,-1089.67 -3.13,-1634.43z"/>
  <g id="_1574966761040">
   <path class="fil1" d="M1679.1 673.08c1.68,22.88 2.72,45.8 3.12,68.75 -2.6,459.91 -4.17,920.34 -4.69,1381.3 -45.9,-41.45 -96.42,-76.35 -151.57,-104.69 -171.18,-84.5 -350.35,-145.96 -537.51,-184.38 -106.51,-22.29 -213.81,-39.48 -321.89,-51.57 0,-15.62 0,-31.25 0,-46.87 0,-486.48 0,-972.95 0,-1459.43 0,-11.46 0,-22.92 0,-34.38 242.34,25.95 476.72,83.77 703.15,173.45 73.33,30.75 141.04,70.34 203.13,118.75 34.35,30.15 64.04,64.01 89.07,101.57 6.75,12.44 12.48,24.94 17.19,37.5z"/>
  </g>
  <g id="_1574966821488">
   <path class="fil1" d="M2309.14 865.77l49.33 0c36.31,0 65.76,71.46 65.76,159.57l0 311.14c0,88.11 -29.45,159.57 -65.76,159.57l-49.33 0c-36.31,0 -65.76,-71.46 -65.76,-159.57l0 -311.14c0,-88.11 29.45,-159.57 65.76,-159.57z"/>
   <path class="fil1" d="M2018.67 1205.57l0 -49.32c0,-36.32 71.46,-65.77 159.57,-65.77l311.14 0c88.11,0 159.57,29.45 159.57,65.77l0 49.32c0,36.32 -71.46,65.77 -159.57,65.77l-311.14 0c-88.11,0 -159.57,-29.45 -159.57,-65.77z"/>
  </g>
 </g>
</svg>
