<?xml version="1.0" encoding="UTF-8"?>
<!DOCTYPE svg PUBLIC "-//W3C//DTD SVG 1.1//EN" "http://www.w3.org/Graphics/SVG/1.1/DTD/svg11.dtd">
<!-- Creator: CorelDRAW 2017 -->
<svg xmlns="http://www.w3.org/2000/svg" xml:space="preserve" width="297mm" height="210mm" version="1.1" style="shape-rendering:geometricPrecision; text-rendering:geometricPrecision; image-rendering:optimizeQuality; fill-rule:evenodd; clip-rule:evenodd"
viewBox="0 0 29700 21000"
 xmlns:xlink="http://www.w3.org/1999/xlink">
 <defs>
  <style type="text/css">
   <![CDATA[
    .fil1 {fill:#FCFBFA}
    .fil2 {fill:#FDFBFB}
    .fil3 {fill:white}
    .fil0 {fill:#A1A1A1}
   ]]>
  </style>
 </defs>
 <g id="Layer_x0020_1">
  <metadata id="CorelCorpID_0Corel-Layer"/>
  <g id="_1973993845072">
   <g id="_1574966765744">
    <path class="fil0" d="M2918.12 3714.15c-42.19,113.32 -81.88,227.99 -119.06,343.96 -4.41,4846.29 -17.64,9688.16 -39.69,14525.61 -4.41,-4850.71 0,-9701.39 13.23,-14552.07 15.96,-123.72 64.46,-229.55 145.52,-317.5z"/>
   </g>
   <path class="fil0" d="M22444.36 1015.4c25.11,17.25 55.96,26.09 92.61,26.46 576.92,-80.38 1154.61,-155.37 1733.02,-224.9 -34.21,-12.96 -69.51,-17.38 -105.84,-13.23 280.75,-91.46 554.15,-69.42 820.21,66.15 86.31,68.58 152.46,152.37 198.44,251.35 29.92,686.81 51.96,1374.72 66.15,2063.75 254.87,-21.01 510.64,-16.59 767.29,13.23 458.57,79.32 762.84,339.49 912.81,780.52 17.65,4903.6 17.65,9807.22 0,14710.83 -125.54,376.92 -376.9,623.86 -754.06,740.83 -3355.82,-0.45 -6663.11,-0.45 -9921.88,0 -275.46,51.91 -509.19,184.2 -701.14,396.87 -270.01,439.77 -636.04,541.18 -1098.01,304.28 -158.15,-149.36 -308.06,-308.11 -449.8,-476.25 -177.61,-130.74 -376.05,-205.69 -595.31,-224.9 -3285.01,30.61 -6570.26,35 -9855.73,13.23 -435.09,-130.76 -699.67,-417.41 -793.75,-859.9 22.05,-4837.45 35.28,-9679.32 39.69,-14525.61 37.18,-115.97 76.87,-230.64 119.06,-343.96 165.68,-281.86 412.62,-453.84 740.84,-515.94 203.02,-10.63 405.87,-23.86 608.54,-39.69 59.77,0.85 117.08,9.69 171.98,26.46 8.81,-635 17.64,-1270 26.46,-1905 142.29,-426.35 437.75,-598.33 886.35,-515.93 2026.47,189.15 4002.03,612.48 5926.67,1270 1061.69,358.61 2023.03,887.78 2883.95,1587.5 243.82,230.53 473.13,473.07 687.91,727.6 553.96,-655.51 1206.61,-1189.06 1957.92,-1600.73 1351.3,-688.58 2771.24,-1182.48 4259.79,-1481.67 457.38,-92.36 916.01,-176.16 1375.83,-251.35z"/>
   <g id="_1574966763728">
    <path class="fil0" d="M14242.29 6280.61c-3.41,-194.34 -12.22,-388.36 -26.46,-582.09 24.37,11.38 37.6,46.68 39.69,105.84 17.65,4056.93 17.65,8113.89 0,12170.82 -13.23,-3898.18 -17.65,-7796.36 -13.23,-11694.57z"/>
   </g>
   <g id="_1574966762064">
    <path class="fil0" d="M25778.11 17975.18c0,-4524.37 0,-9048.74 0,-13573.11 -185.21,0 -370.41,0 -555.62,0 -32.76,-8.21 -32.76,-21.44 0,-39.69 191.74,-21.49 381.37,-17.09 568.85,13.23 9.21,4621.79 18.02,9243.15 26.46,13864.15 -4.74,-93.26 -17.97,-181.47 -39.69,-264.58z"/>
   </g>
   <g id="_1574966762672">
    <path class="fil0" d="M5643.33 2338.32c0,4118.69 0,8237.35 0,12356.03 -21.85,127.42 -35.08,259.71 -39.69,396.87 3.76,-4255.12 16.99,-8506.1 39.69,-12752.9z"/>
   </g>
   <g id="_1574966759792">
    <path class="fil0" d="M24164.15 803.73c36.33,-4.15 71.63,0.27 105.84,13.23 -578.41,69.53 -1156.1,144.52 -1733.02,224.9 -36.65,-0.37 -67.5,-9.21 -92.61,-26.46 571.45,-85.41 1144.7,-155.97 1719.79,-211.67z"/>
   </g>
   <g id="_1574966828560">
    <path class="fil0" d="M3897.08 4402.07c26.29,4612.11 35.11,9224.66 26.46,13837.69 2813.39,0 5626.81,0 8440.21,0 2.93,16.33 11.75,29.56 26.46,39.69 -2813.4,17.65 -5626.82,17.65 -8440.21,0 -24.24,-9.89 -46.29,-23.12 -66.15,-39.69 -22.04,-4616.97 -17.62,-9229.55 13.23,-13837.69z"/>
   </g>
   <g id="_1574966826096">
    <path class="fil0" d="M17337.9 18239.76c2804.59,0 5609.17,0 8413.75,0 -215.82,21.94 -436.29,35.17 -661.45,39.69 -1283.23,4.42 -2566.46,8.81 -3849.69,13.23 -1305.56,-8.97 -2606.44,-8.97 -3902.61,0 -25.48,-12.43 -25.48,-30.08 0,-52.92z"/>
   </g>
   <g id="_1574966823440">
    <path class="fil0" d="M26174.99 19430.39c-3306.55,35.03 -6613.84,35.03 -9921.88,0 3258.77,-0.45 6566.06,-0.45 9921.88,0z"/>
   </g>
  </g>
  <g id="_1574966763856">
   <path class="fil1" d="M25222.49 4402.07c185.21,0 370.41,0 555.62,0 0,4524.37 0,9048.74 0,13573.11 8.28,93.72 -0.55,181.9 -26.46,264.58 -2804.58,0 -5609.16,0 -8413.75,0 265.57,-190.79 565.42,-353.93 899.59,-489.47 1263.36,-490.07 2559.81,-869.29 3889.37,-1137.71 852.28,-152.01 1707.76,-284.3 2566.46,-396.88 266.36,-63.5 438.34,-226.64 515.94,-489.48 13.23,-3774.69 17.65,-7549.42 13.23,-11324.15z"/>
  </g>
  <path class="fil1" d="M3897.08 4402.07c185.21,0 370.42,0 555.63,0 -4.42,3757.08 0,7514.16 13.23,11271.24 75.19,286.86 255.98,467.65 542.39,542.39 2125.61,214.79 4189.36,691.04 6191.25,1428.75 294.19,125.04 585.23,257.34 873.13,396.88 121.15,58.18 218.17,124.32 291.04,198.43 -2813.4,0 -5626.82,0 -8440.21,0 8.65,-4613.03 -0.17,-9225.58 -26.46,-13837.69z"/>
  <g id="_1574966761040">
   <path class="fil2" d="M14215.83 5698.52c14.24,193.73 23.05,387.75 26.46,582.09 -22.04,3893.76 -35.27,7791.94 -39.69,11694.57 -388.59,-350.94 -816.32,-646.4 -1283.23,-886.35 -1449.33,-715.36 -2966.27,-1235.71 -4550.83,-1561.04 -901.75,-188.68 -1810.15,-334.2 -2725.21,-436.57 0,-132.29 0,-264.58 0,-396.87 0,-4118.68 0,-8237.34 0,-12356.03 0,-97.03 0,-194.02 0,-291.05 2051.74,219.69 4036.11,709.17 5953.13,1468.44 620.81,260.4 1194.09,595.55 1719.79,1005.42 290.77,255.27 542.13,541.92 754.06,859.89 57.2,105.33 105.7,211.17 145.52,317.5z"/>
  </g>
  <g id="_1574966821488">
   <path class="fil3" d="M19550.03 7329.95l417.61 0c307.46,0 556.8,604.95 556.8,1350.92l0 2634.28c0,745.96 -249.34,1350.91 -556.8,1350.91l-417.61 0.01c-307.46,-0.01 -556.8,-604.96 -556.8,-1350.93l0 -2634.27c0,-745.97 249.34,-1350.92 556.8,-1350.92z"/>
   <path class="fil3" d="M17090.82 10206.83l0 -417.62c0,-307.46 604.94,-556.81 1350.91,-556.81l2634.3 0c745.96,0 1350.92,249.35 1350.92,556.81l0 417.62c0,307.46 -604.96,556.8 -1350.92,556.8l-2634.29 0.01c-745.98,-0.01 -1350.92,-249.35 -1350.92,-556.81z"/>
  </g>
 </g>
</svg>
