<?xml version="1.0" encoding="UTF-8"?>
<!DOCTYPE svg PUBLIC "-//W3C//DTD SVG 1.1//EN" "http://www.w3.org/Graphics/SVG/1.1/DTD/svg11.dtd">
<!-- Creator: CorelDRAW 2017 -->
<svg xmlns="http://www.w3.org/2000/svg" xml:space="preserve" width="297mm" height="210mm" version="1.1" style="shape-rendering:geometricPrecision; text-rendering:geometricPrecision; image-rendering:optimizeQuality; fill-rule:evenodd; clip-rule:evenodd"
viewBox="0 0 29700 21000"
 xmlns:xlink="http://www.w3.org/1999/xlink">
 <defs>
  <style type="text/css">
   <![CDATA[
    .fil1 {fill:#EFEFEF}
    .fil0 {fill:#A1A1A1}
   ]]>
  </style>
 </defs>
 <g id="Layer_x0020_1">
  <metadata id="CorelCorpID_0Corel-Layer"/>
  <path class="fil0" d="M20326.88 7695.42c499.79,20.64 931.94,201.42 1296.45,542.39 371.61,345.5 622.97,764.44 754.07,1256.77 17.64,2875.15 17.64,5750.27 0,8625.42 -260.01,1380.07 -1084.64,2178.24 -2473.86,2394.48 -3386.66,17.65 -6773.33,17.65 -10160,0 -1252.35,-229.29 -2050.52,-956.89 -2394.48,-2182.81 -24.6,-140.21 -42.25,-281.33 -52.91,-423.34 -17.65,-2751.66 -17.65,-5503.33 0,-8255 169.07,-989.35 737.92,-1619.93 1706.56,-1891.77 114.33,-13.2 228.97,-17.62 343.96,-13.23 127.85,-2.01 8508.44,-50.33 9551.46,-52.91 2.94,-802.84 -13.31,-1723.18 -14.66,-1758.97 -10.02,-265.73 -2.42,-410.78 -9.81,-548.28 -8.73,-162.32 -38.38,-314.17 -142.6,-641.64 -287.79,-904.32 -665.68,-1426.52 -1501.38,-2059.41 -307.32,-232.74 -552.48,-351.63 -833.33,-471.68 -522.65,-223.41 -1050.13,-318.07 -1520.14,-302.31 -304.03,10.19 -510.46,15.98 -709.23,55.2 -1000.04,197.33 -1159.41,344.15 -1803.77,769.08 -345.58,227.89 -1179.64,1069.71 -1345.64,1825.12 -121.79,-1.77 -1142.7,24.22 -1489.72,3.62 -17.33,-1.02 -31.08,-22.11 -17.74,-53.84 114.36,-272.08 372.9,-806.77 729.11,-1346.6 255.8,-387.67 555.12,-791.44 855.45,-1104.74 571.07,-595.72 831.37,-816.49 1536.13,-1172.5 1888.6,-743.11 3675.65,-563.97 5367.74,549.55 1399.01,1002.72 2179.53,2365.32 2341.57,4087.81 19.03,645.45 17.6,1290.31 -4.32,1934.49 -2.66,78.38 -5.64,156.74 -8.91,235.1z"/>
  <g id="_1973999131072">
   <path class="fil1" d="M14558.96 9230c1909.36,-26.43 3823.18,-35.27 5741.46,-26.46 311.17,73.16 522.84,258.37 635,555.63 8.6,2787.52 -0.24,5574.45 -26.46,8360.83 -203.25,550.97 -600.13,864.05 -1190.63,939.27 -3245.56,17.65 -6491.1,17.65 -9736.66,0 -579.33,-68.26 -971.79,-372.53 -1177.4,-912.81 -8.81,-52.92 -17.65,-105.83 -26.46,-158.75 -17.64,-2760.48 -17.64,-5520.98 0,-8281.46 77.55,-161.18 187.8,-293.47 330.73,-396.87 17.65,0 35.27,0 52.92,0 1.59,14.36 10.4,23.17 26.46,26.45 34.26,-15.82 69.53,-29.05 105.83,-39.68 3448.39,-20.98 6896.79,-38.63 10345.21,-52.92 -1693.31,-13.23 -3386.64,-17.65 -5080,-13.23z"/>
  </g>
  <g id="_1973999131552">
   <path class="fil0" d="M15881.88 17220.42c-656.36,16.9 -1308.98,34.53 -1957.92,52.91 -146.84,-18.97 -226.22,-102.76 -238.13,-251.35 138.8,-892.28 279.91,-1783.05 423.34,-2672.29 -938.45,-532.18 -1269.18,-1321.52 -992.19,-2368.02 391.58,-837.36 1048.62,-1238.62 1971.15,-1203.86 846.37,193.76 1379.93,709.7 1600.73,1547.82 82.44,906.91 -274.75,1572.79 -1071.57,1997.6 -14.79,19.18 -23.6,41.22 -26.46,66.15 136.48,827.59 264.35,1656.61 383.65,2487.08 17.65,88.18 17.65,176.4 0,264.58 -11.17,50.96 -42.04,77.42 -92.6,79.38z"/>
  </g>
  <g id="_1973999131904">
   <path class="fil1" d="M14691.25 12061.04c559.2,-18.62 792.93,245.96 701.15,793.75 -202.73,351.66 -489.35,444.26 -859.9,277.82 -217.72,-185.82 -292.71,-419.53 -224.89,-701.15 75.96,-180.58 203.83,-304.06 383.64,-370.42z"/>
  </g>
 </g>
</svg>
