<?xml version="1.0" encoding="UTF-8"?>
<!DOCTYPE svg PUBLIC "-//W3C//DTD SVG 1.1//EN" "http://www.w3.org/Graphics/SVG/1.1/DTD/svg11.dtd">
<!-- Creator: CorelDRAW 2017 -->
<svg xmlns="http://www.w3.org/2000/svg" xml:space="preserve" width="3508px" height="2480px" version="1.1" style="shape-rendering:geometricPrecision; text-rendering:geometricPrecision; image-rendering:optimizeQuality; fill-rule:evenodd; clip-rule:evenodd"
viewBox="0 0 3508 2480.4"
 xmlns:xlink="http://www.w3.org/1999/xlink">
 <defs>
  <style type="text/css">
   <![CDATA[
    .fil1 {fill:black}
    .fil0 {fill:#A1A1A1}
   ]]>
  </style>
 </defs>
 <g id="Layer_x0020_1">
  <metadata id="CorelCorpID_0Corel-Layer"/>
  <path class="fil0" d="M2400.9 908.94c59.03,2.44 110.07,23.79 153.13,64.06 43.89,40.81 73.58,90.3 89.06,148.45 2.09,339.59 2.09,679.19 0,1018.78 -30.71,163.01 -128.11,257.29 -292.19,282.83 -400.02,2.08 -800.03,2.08 -1200.05,0 -147.92,-27.09 -242.19,-113.03 -282.82,-257.82 -2.91,-16.57 -4.99,-33.23 -6.25,-50.01 -2.08,-325.01 -2.08,-650.02 0,-975.03 19.97,-116.86 87.16,-191.34 201.57,-223.45 13.5,-1.56 27.05,-2.08 40.63,-1.56 15.1,-0.24 1004.97,-5.94 1128.16,-6.25 0.35,-94.83 -1.57,-203.53 -1.73,-207.76 -1.18,-31.39 -0.28,-48.52 -1.16,-64.76 -1.03,-19.17 -4.53,-37.11 -16.84,-75.79 -33.99,-106.81 -78.63,-168.49 -177.34,-243.24 -36.29,-27.49 -65.25,-41.53 -98.42,-55.71 -61.74,-26.39 -124.04,-37.57 -179.55,-35.71 -35.91,1.2 -60.3,1.89 -83.77,6.52 -118.12,23.31 -136.95,40.65 -213.06,90.84 -40.81,26.91 -139.33,126.35 -158.94,215.57 -14.38,-0.21 -134.96,2.86 -175.95,0.43 -2.05,-0.12 -3.67,-2.61 -2.1,-6.36 13.51,-32.14 44.05,-95.29 86.12,-159.05 30.21,-45.79 65.57,-93.48 101.04,-130.49 67.45,-70.36 98.2,-96.44 181.44,-138.49 223.07,-87.77 434.15,-66.61 634.01,64.91 165.24,118.44 257.43,279.38 276.57,482.83 2.25,76.24 2.08,152.4 -0.51,228.49 -0.31,9.26 -0.66,18.52 -1.05,27.77z"/>
  <g id="_2852146502672">
   <path class="fil1" d="M1719.62 1090.2c225.53,-3.13 451.58,-4.17 678.15,-3.13 36.76,8.64 61.76,30.52 75.01,65.63 1.01,329.25 -0.03,658.42 -3.13,987.53 -24.01,65.08 -70.88,102.06 -140.63,110.95 -383.35,2.08 -766.69,2.08 -1150.04,0 -68.43,-8.07 -114.78,-44.01 -139.07,-107.82 -1.04,-6.25 -2.08,-12.5 -3.12,-18.75 -2.09,-326.05 -2.09,-652.11 0,-978.16 9.16,-19.04 22.18,-34.66 39.06,-46.88 2.09,0 4.17,0 6.25,0 0.19,1.7 1.23,2.74 3.13,3.13 4.04,-1.87 8.21,-3.43 12.5,-4.69 407.3,-2.48 814.61,-4.56 1221.92,-6.25 -200.01,-1.56 -400.02,-2.09 -600.03,-1.56z"/>
  </g>
  <g id="_2852146500240">
   <path class="fil0" d="M1875.88 2033.98c-77.53,2 -154.61,4.08 -231.26,6.25 -17.34,-2.24 -26.72,-12.14 -28.13,-29.69 16.4,-105.39 33.07,-210.6 50.01,-315.63 -110.85,-62.86 -149.91,-156.09 -117.19,-279.7 46.25,-98.91 123.85,-146.3 232.82,-142.19 99.97,22.88 162.99,83.82 189.07,182.82 9.73,107.11 -32.46,185.76 -126.57,235.94 -1.75,2.27 -2.79,4.87 -3.13,7.81 16.12,97.75 31.23,195.67 45.32,293.76 2.08,10.42 2.08,20.84 0,31.25 -1.32,6.02 -4.97,9.15 -10.94,9.38z"/>
  </g>
  <g id="_2852146500720">
   <path class="fil1" d="M1735.25 1424.58c66.05,-2.2 93.66,29.05 82.82,93.76 -23.95,41.53 -57.8,52.47 -101.57,32.81 -25.72,-21.95 -34.57,-49.55 -26.56,-82.81 8.97,-21.33 24.07,-35.92 45.31,-43.76z"/>
  </g>
 </g>
</svg>
