<?xml version="1.0" encoding="UTF-8"?>
<!DOCTYPE svg PUBLIC "-//W3C//DTD SVG 1.1//EN" "http://www.w3.org/Graphics/SVG/1.1/DTD/svg11.dtd">
<!-- Creator: CorelDRAW 2017 -->
<svg xmlns="http://www.w3.org/2000/svg" xml:space="preserve" width="3508px" height="2480px" version="1.1" style="shape-rendering:geometricPrecision; text-rendering:geometricPrecision; image-rendering:optimizeQuality; fill-rule:evenodd; clip-rule:evenodd"
viewBox="0 0 3508 2480.4"
 xmlns:xlink="http://www.w3.org/1999/xlink">
 <defs>
  <style type="text/css">
   <![CDATA[
    .fil0 {fill:#EB44EB}
    .fil1 {fill:black}
   ]]>
  </style>
 </defs>
 <g id="Layer_x0020_1">
  <metadata id="CorelCorpID_0Corel-Layer"/>
  <path class="fil0" d="M1103.98 902.69c2.47,3.47 4.03,7.63 4.69,12.5 -0.4,-86.89 -1.96,-173.35 -4.69,-259.38 26.43,-256.66 155.6,-440.52 387.51,-551.59 223.07,-87.77 434.54,-65.89 634.4,65.63 165.24,118.44 257.43,279.38 276.57,482.83 2.52,85.51 2,170.94 -1.56,256.26 59.03,2.44 110.07,23.79 153.13,64.06 43.89,40.81 73.58,90.3 89.06,148.45 2.09,339.59 2.09,679.19 0,1018.78 -30.71,163.01 -128.11,257.29 -292.19,282.83 -400.02,2.08 -800.03,2.08 -1200.05,0 -147.92,-27.09 -242.19,-113.03 -282.82,-257.82 -2.91,-16.57 -4.99,-33.23 -6.25,-50.01 -2.08,-325.01 -2.08,-650.02 0,-975.03 19.97,-116.86 87.16,-191.34 201.57,-223.45 13.5,-1.56 27.05,-2.08 40.63,-1.56 0,-4.16 0,-8.33 0,-12.5z"/>
  <g id="_2852140695328">
   <path class="fil1" d="M1719.62 1090.2c225.53,-3.13 451.58,-4.17 678.15,-3.13 36.76,8.64 61.76,30.52 75.01,65.63 1.01,329.25 -0.03,658.42 -3.13,987.53 -24.01,65.08 -70.88,102.06 -140.63,110.95 -383.35,2.08 -766.69,2.08 -1150.04,0 -68.43,-8.07 -114.78,-44.01 -139.07,-107.82 -1.04,-6.25 -2.08,-12.5 -3.12,-18.75 -2.09,-326.05 -2.09,-652.11 0,-978.16 9.16,-19.04 22.18,-34.66 39.06,-46.88 2.09,0 4.17,0 6.25,0 0.19,1.7 1.23,2.74 3.13,3.13 4.04,-1.87 8.21,-3.43 12.5,-4.69 407.3,-2.48 814.61,-4.56 1221.92,-6.25 -200.01,-1.56 -400.02,-2.09 -600.03,-1.56z"/>
  </g>
  <g id="_2852140695008">
   <path class="fil1" d="M1275.86 668.31c0,-12.5 0,-25 0,-37.5 35.41,-188.82 143.75,-316.44 325.01,-382.83 201.27,-54.75 373.67,-7.36 517.21,142.19 58,67.63 94.46,145.76 109.37,234.39 4.43,94.71 6,189.51 4.69,284.38 -318.76,1.46 -637.52,2.5 -956.28,3.13 0,-81.26 0,-162.51 0,-243.76z"/>
  </g>
  <g id="_2852140695776">
   <path class="fil0" d="M1875.88 2033.98c-77.53,2 -154.61,4.08 -231.26,6.25 -17.34,-2.24 -26.72,-12.14 -28.13,-29.69 16.4,-105.39 33.07,-210.6 50.01,-315.63 -110.85,-62.86 -149.91,-156.09 -117.19,-279.7 46.25,-98.91 123.85,-146.3 232.82,-142.19 99.97,22.88 162.99,83.82 189.07,182.82 9.73,107.11 -32.46,185.76 -126.57,235.94 -1.75,2.27 -2.79,4.87 -3.13,7.81 16.12,97.75 31.23,195.67 45.32,293.76 2.08,10.42 2.08,20.84 0,31.25 -1.32,6.02 -4.97,9.15 -10.94,9.38z"/>
  </g>
  <g id="_2852140696384">
   <path class="fil1" d="M1735.25 1424.58c66.05,-2.2 93.66,29.05 82.82,93.76 -23.95,41.53 -57.8,52.47 -101.57,32.81 -25.72,-21.95 -34.57,-49.55 -26.56,-82.81 8.97,-21.33 24.07,-35.92 45.31,-43.76z"/>
  </g>
 </g>
</svg>
