<?xml version="1.0" encoding="UTF-8"?>
<!DOCTYPE svg PUBLIC "-//W3C//DTD SVG 1.1//EN" "http://www.w3.org/Graphics/SVG/1.1/DTD/svg11.dtd">
<!-- Creator: CorelDRAW 2017 -->
<svg xmlns="http://www.w3.org/2000/svg" xml:space="preserve" width="297mm" height="210mm" version="1.1" style="shape-rendering:geometricPrecision; text-rendering:geometricPrecision; image-rendering:optimizeQuality; fill-rule:evenodd; clip-rule:evenodd"
viewBox="0 0 29700 21000"
 xmlns:xlink="http://www.w3.org/1999/xlink">
 <defs>
  <style type="text/css">
   <![CDATA[
    .fil8 {fill:#EB44EB}
    .fil4 {fill:#EB44EB;fill-opacity:0.003922}
    .fil2 {fill:#EB44EB;fill-opacity:0.007843}
    .fil6 {fill:#EB44EB;fill-opacity:0.011765}
    .fil0 {fill:#EB44EB;fill-opacity:0.015686}
    .fil10 {fill:#EB44EB;fill-opacity:0.019608}
    .fil20 {fill:#EB44EB;fill-opacity:0.054902}
    .fil22 {fill:#EB44EB;fill-opacity:0.576471}
    .fil5 {fill:#EB44EB;fill-opacity:0.670588}
    .fil15 {fill:#EB44EB;fill-opacity:0.760784}
    .fil18 {fill:#EB44EB;fill-opacity:0.835294}
    .fil11 {fill:#EB44EB;fill-opacity:0.850980}
    .fil13 {fill:#EB44EB;fill-opacity:0.917647}
    .fil17 {fill:#EB44EB;fill-opacity:0.929412}
    .fil16 {fill:#EB44EB;fill-opacity:0.937255}
    .fil9 {fill:#EB44EB;fill-opacity:0.941176}
    .fil19 {fill:#EB44EB;fill-opacity:0.949020}
    .fil12 {fill:#EB44EB;fill-opacity:0.952941}
    .fil1 {fill:#EB44EB;fill-opacity:0.968627}
    .fil21 {fill:#EB44EB;fill-opacity:0.972549}
    .fil7 {fill:#EB44EB;fill-opacity:0.976471}
    .fil14 {fill:#EB44EB;fill-opacity:0.984314}
    .fil23 {fill:#EB44EB;fill-opacity:0.988235}
    .fil3 {fill:#EB44EB;fill-opacity:0.996078}
   ]]>
  </style>
 </defs>
 <g id="Layer_x0020_1">
  <metadata id="CorelCorpID_0Corel-Layer"/>
  <g id="_1574984655248">
   <path class="fil0" d="M9574.33 1257.25c-24.4,3.45 -47.58,-0.39 -69.58,-11.6 28.97,-17.16 52.17,-13.29 69.58,11.6z"/>
  </g>
  <g id="_1574984656912">
   <path class="fil1" d="M21587.76 1234.06c-3927.15,30.91 -7854.34,30.91 -11781.51,0 3921.43,-30.83 7848.62,-30.83 11781.51,0z"/>
  </g>
  <g id="_1574984656432">
   <path class="fil2" d="M21889.26 1280.43c-9.69,-16.74 -25.14,-28.33 -46.38,-34.78 26.33,-17.37 49.51,-13.52 69.57,11.6 -2.87,14.08 -10.59,21.8 -23.19,23.18z"/>
  </g>
  <g id="_1574984687600">
   <path class="fil3" d="M9690.29 1257.25c32.91,-22.06 71.55,-29.79 115.96,-23.19 3927.17,30.91 7854.36,30.91 11781.51,0 44.42,-6.6 83.06,1.13 115.97,23.19 -29.94,-5.5 -53.14,2.23 -69.58,23.18 -3958.1,0 -7916.18,0 -11874.29,0 -16.43,-20.95 -39.63,-28.68 -69.57,-23.18z"/>
  </g>
  <g id="_1574984686352">
   <path class="fil2" d="M21958.84 1280.43c30.92,15.48 30.92,15.48 0,0z"/>
  </g>
  <g id="_1574984686224">
   <path class="fil4" d="M22028.41 1303.63c-15.47,-30.92 -15.47,-30.92 0,0z"/>
  </g>
  <g id="_1574984687088">
   <path class="fil4" d="M9296.03 1303.63c30.92,15.47 30.92,15.47 0,0z"/>
  </g>
  <path class="fil3" d="M9759.86 1280.43c3958.11,0 7916.19,0 11874.29,0 721.18,125.87 1123.16,551.05 1205.98,1275.56 3.87,5310.96 0,10621.92 -11.59,15932.89 -109.54,635.25 -476.76,1033.36 -1101.62,1194.38 13.77,10.76 29.25,14.64 46.38,11.59 3.04,17.14 -0.83,32.61 -11.59,46.39 -15.56,-17.44 -34.88,-25.19 -57.98,-23.19 -4000.62,-19.32 -8005.08,-30.92 -12013.44,-34.79 -643.8,-130.2 -1026.48,-520.59 -1148,-1171.19 -10.76,13.77 -14.63,29.24 -11.6,46.38 -21.66,-24.77 -29.41,-55.68 -23.19,-92.77 30.91,-1522.94 30.91,-3045.87 0,-4568.81 -351.61,-19.28 -707.24,-30.87 -1066.83,-34.79 -227.12,-49.45 -393.33,-177 -498.62,-382.67 -41.22,-171.11 -68.29,-341.18 -81.18,-510.23 -3.99,-23 3.76,-38.44 23.19,-46.38 95.67,-249.66 281.21,-419.73 556.61,-510.22 363.35,0 726.67,0 1090.02,0 0,-834.91 0,-1669.83 0,-2504.74 -367.4,-7.65 -730.75,0.1 -1090.02,23.2 -23.1,-1.99 -42.42,5.75 -57.97,23.19 -10.77,-13.78 -14.64,-29.24 -11.6,-46.39 -434.9,-209.41 -577.93,-572.74 -429.05,-1090.02 128.48,-263.48 341.05,-394.91 637.77,-394.26 316.97,0 633.91,0 950.87,0 0,-834.91 0,-1669.82 0,-2504.73 -301.5,0 -602.98,0 -904.48,0 -346.77,-2.97 -582.56,-165.31 -707.36,-487.03 -19.43,-142.56 -38.75,-281.71 -57.98,-417.45 -5.5,-29.95 2.23,-53.14 23.19,-69.58 -3.04,17.13 0.84,32.6 11.6,46.38 84.07,-277.35 265.73,-451.29 545.01,-521.81 -13.78,-10.77 -29.24,-14.64 -46.39,-11.6 24.77,-21.67 55.69,-29.41 92.78,-23.19 343.8,23.09 691.67,30.82 1043.63,23.19 0,-649.38 0,-1298.75 0,-1948.12 122.88,-694.96 532.61,-1104.69 1229.17,-1229.19zm1577.06 1113.22c3365.2,10.88 6704.84,18.6 10018.93,23.19 115.87,15.54 208.63,69.65 278.3,162.35 53.25,44.09 95.76,98.2 127.56,162.34 4.43,51.21 16.02,97.6 34.79,139.15 -18.67,64.94 -18.67,134.52 0,208.73 -7.8,2169.47 -30.99,4337.92 -69.58,6505.35 21.52,8.99 36.99,24.46 46.38,46.38 -17.41,52.12 -17.41,106.24 0,162.34 -4.06,38.46 -19.53,69.37 -46.38,92.78 30.29,117.94 45.76,241.65 46.38,371.06 -2.8,554.34 -10.52,1107.07 -23.19,1658.23 14.36,2064.69 22.11,4136.52 23.19,6215.44 0,23.2 0,46.39 0,69.58 -37.06,81.34 -91.17,150.91 -162.34,208.73 -32.33,51.2 -78.72,85.99 -139.15,104.37 -72.55,19.5 -142.12,38.84 -208.73,57.97 -3268.9,-9.13 -6523.5,-9.13 -9763.82,0 -86.64,-0.65 -171.68,-12.24 -255.11,-34.79 61.85,-15.46 61.85,-30.92 0,-46.38 3.69,-5440.53 3.69,-10805.6 0,-16095.22 29.99,-11.36 60.92,-15.24 92.77,-11.6z"/>
  <g id="_1574984684400">
   <path class="fil2" d="M22028.41 1326.82c0,-7.72 0,-15.47 0,-23.19 61.86,7.72 61.86,15.47 0,23.19z"/>
  </g>
  <g id="_1574984684304">
   <path class="fil4" d="M9133.68 1442.78c-15.47,-30.92 -15.47,-30.92 0,0z"/>
  </g>
  <g id="_1574984685392">
   <path class="fil4" d="M9064.1 1442.78c30.92,15.47 30.92,15.47 0,0z"/>
  </g>
  <g id="_1574984682064">
   <path class="fil4" d="M22283.52 1442.78c30.92,15.47 30.92,15.47 0,0z"/>
  </g>
  <g id="_1574984682416">
   <path class="fil5" d="M21889.26 1280.43c16.44,20.97 39.64,28.69 69.58,23.2 16.44,20.96 39.63,28.69 69.57,23.19 99.98,61.04 200.48,122.89 301.5,185.54 10.97,32.61 34.16,48.08 69.58,46.38 23.18,38.66 54.1,69.58 92.76,92.77 27.86,55.87 66.5,102.25 115.96,139.15 144.49,216.9 229.51,456.54 255.11,718.96 -19.43,7.92 -27.18,23.37 -23.19,46.37 -82.82,-724.51 -484.8,-1149.69 -1205.98,-1275.56 16.44,-20.95 39.64,-28.68 69.58,-23.18 38.12,4.96 72.91,-2.79 104.36,-23.19 16.46,34.16 43.51,49.63 81.17,46.37z"/>
  </g>
  <g id="_1574984683056">
   <path class="fil2" d="M22329.91 1489.17c30.92,15.47 30.92,15.47 0,0z"/>
  </g>
  <g id="_1574984682736">
   <path class="fil3" d="M9574.33 1257.25c38.66,0 77.3,0 115.96,0 29.94,-5.5 53.14,2.23 69.57,23.18 -696.56,124.5 -1106.29,534.23 -1229.17,1229.19 -7.72,0 -15.47,0 -23.19,0 15.85,-109.73 39.03,-217.97 69.58,-324.69 51.81,-127.28 113.66,-258.69 185.54,-394.27 63.61,-40.33 109.99,-94.46 139.15,-162.34 77.57,-45.02 154.87,-106.84 231.91,-185.54 146.02,-69.29 292.89,-131.15 440.65,-185.53z"/>
  </g>
  <g id="_1574984683120">
   <path class="fil4" d="M22399.49 1535.55c30.91,15.47 30.91,15.47 0,0z"/>
  </g>
  <g id="_1574984680432">
   <path class="fil4" d="M8901.77 1628.32c-15.47,-30.92 -15.47,-30.92 0,0z"/>
  </g>
  <g id="_1574984681328">
   <path class="fil2" d="M8878.57 1628.32c-15.47,15.47 -15.47,15.47 0,0z"/>
  </g>
  <g id="_1574984680784">
   <path class="fil4" d="M22492.25 1651.51c-3.04,-17.14 0.84,-32.61 11.6,-46.39 16.05,21.73 12.18,37.18 -11.6,46.39z"/>
  </g>
  <g id="_1574984679824">
   <path class="fil2" d="M8762.62 1790.66c-15.47,-30.91 -15.47,-30.91 0,0z"/>
  </g>
  <g id="_1574984680080">
   <path class="fil6" d="M22608.21 1767.47c30.92,15.47 30.92,15.47 0,0z"/>
  </g>
  <g id="_1574984678128">
   <path class="fil4" d="M8553.88 2092.16c30.92,15.46 30.92,15.46 0,0z"/>
  </g>
  <g id="_1574984679056">
   <path class="fil7" d="M11336.92 2370.46c3343.54,-7.72 6683.19,0 10018.93,23.19 0,7.72 0,15.47 0,23.19 -3314.09,-4.59 -6653.73,-12.31 -10018.93,-23.19 0,-7.72 0,-15.46 0,-23.19z"/>
  </g>
  <g id="_1574984678896">
   <path class="fil8" d="M21355.85 2416.84c0,-7.72 0,-15.47 0,-23.19 251.4,42.62 406.02,189.53 463.84,440.65 -19.43,7.93 -27.18,23.37 -23.19,46.38 -18.77,-41.55 -30.36,-87.94 -34.79,-139.15 -31.8,-64.14 -74.31,-118.25 -127.56,-162.34 -69.67,-92.7 -162.43,-146.81 -278.3,-162.35z"/>
  </g>
  <g id="_1574984678736">
   <path class="fil2" d="M8461.12 2509.62c30.92,15.46 30.92,15.46 0,0z"/>
  </g>
  <g id="_1574984675600">
   <path class="fil9" d="M8507.5 2509.62c7.72,0 15.47,0 23.19,0 0,649.37 0,1298.74 0,1948.12 -351.96,7.63 -699.83,-0.1 -1043.63,-23.19 332.78,7.72 665.19,-0.03 997.25,-23.2 6.8,-633.44 14.54,-1267.37 23.19,-1901.73z"/>
  </g>
  <g id="_1574984677200">
   <path class="fil4" d="M8461.12 3738.79c30.92,15.47 30.92,15.47 0,0z"/>
  </g>
  <g id="_1574984675856">
   <path class="fil4" d="M8461.12 3785.17c30.92,15.47 30.92,15.47 0,0z"/>
  </g>
  <g id="_1574984677040">
   <path class="fil4" d="M7278.33 4388.16c30.91,15.47 30.91,15.47 0,0z"/>
  </g>
  <g id="_1574984676912">
   <path class="fil0" d="M7394.28 4411.35c17.42,-24.88 40.61,-28.76 69.58,-11.59 -21.98,11.2 -45.17,15.05 -69.58,11.59z"/>
  </g>
  <g id="_1574984675248">
   <path class="fil6" d="M7487.06 4411.35c9.2,-23.77 24.65,-27.64 46.38,-11.59 -13.78,10.76 -29.25,14.64 -46.38,11.59z"/>
  </g>
  <g id="_1574984674064">
   <path class="fil10" d="M7556.63 4411.35c181.43,-26.81 366.96,-30.68 556.61,-11.59 -185.38,11.59 -370.92,15.44 -556.61,11.59z"/>
  </g>
  <g id="_1574984674576">
   <path class="fil10" d="M8136.43 4411.35c41.47,-26.02 87.86,-29.9 139.15,-11.59 -45.75,11.48 -92.14,15.35 -139.15,11.59z"/>
  </g>
  <g id="_1574984674192">
   <path class="fil0" d="M8298.77 4411.35c49.35,-26.18 103.46,-30.05 162.35,-11.59 -53.58,11.52 -107.68,15.37 -162.35,11.59z"/>
  </g>
  <g id="_1574984671696">
   <path class="fil2" d="M7255.13 4457.74c9.21,-23.77 24.66,-27.65 46.39,-11.6 -13.78,10.76 -29.24,14.63 -46.39,11.6z"/>
  </g>
  <g id="_1574984673392">
   <path class="fil0" d="M7092.8 4596.89c-15.48,-30.91 -15.48,-30.91 0,0z"/>
  </g>
  <g id="_1574984672368">
   <path class="fil11" d="M7394.28 4457.74c17.15,-3.04 32.61,0.83 46.39,11.6 -279.28,70.52 -460.94,244.46 -545.01,521.81 -10.76,-13.78 -14.64,-29.25 -11.6,-46.38 40.43,-135.18 110,-251.15 208.74,-347.88 85.32,-77.41 185.81,-123.8 301.48,-139.15z"/>
  </g>
  <g id="_1574984672912">
   <path class="fil2" d="M6884.06 4782.42c30.92,15.47 30.92,15.47 0,0z"/>
  </g>
  <g id="_1574984671888">
   <path class="fil4" d="M6814.49 4967.96c30.91,15.47 30.91,15.47 0,0z"/>
  </g>
  <g id="_1574984670128">
   <path class="fil4" d="M6791.3 5176.68c30.91,15.47 30.91,15.47 0,0z"/>
  </g>
  <g id="_1574984669968">
   <path class="fil4" d="M18990.27 5501.37c58,0.26 61.87,15.73 11.59,46.39 -10.76,-13.78 -14.63,-29.25 -11.59,-46.39z"/>
  </g>
  <g id="_1574984669584">
   <path class="fil4" d="M16856.6 5501.37c18.31,6.57 33.78,18.17 46.39,34.79 -30.52,12.25 -45.99,0.65 -46.39,-34.79z"/>
  </g>
  <g id="_1574984670384">
   <path class="fil2" d="M18340.89 5501.37c61.16,38.36 53.41,49.96 -23.19,34.79 12.9,-8.88 20.62,-20.47 23.19,-34.79z"/>
  </g>
  <g id="_1574984667504">
   <path class="fil4" d="M18711.96 5501.37c18.31,6.57 33.77,18.17 46.39,34.79 -30.92,15.48 -61.86,15.48 -92.77,0 21.24,-6.45 36.69,-18.04 46.38,-34.79z"/>
  </g>
  <g id="_1574984669296">
   <path class="fil12" d="M19500.49 5547.76c60.21,17.74 122.06,25.49 185.54,23.19 0,7.73 0,15.47 0,23.19 -2098.92,7.72 -4193.92,-0.02 -6285.03,-23.19 2037.07,7.73 4070.24,-0.02 6099.49,-23.19z"/>
  </g>
  <g id="_1574984669264">
   <path class="fil4" d="M22886.52 5570.95c30.91,15.47 30.91,15.47 0,0z"/>
  </g>
  <g id="_1574984668432">
   <path class="fil6" d="M6953.64 5617.33c-15.47,15.47 -15.47,15.47 0,0z"/>
  </g>
  <g id="_1574984666000">
   <path class="fil3" d="M19686.03 5570.95c91.17,14.66 168.49,53.32 231.91,115.96 -80.91,-26.85 -158.21,-57.77 -231.91,-92.77 0,-7.72 0,-15.46 0,-23.19z"/>
  </g>
  <g id="_1574984666384">
   <path class="fil3" d="M13354.62 5594.14c7.93,-19.43 23.38,-27.17 46.38,-23.19 2091.11,23.17 4186.11,30.91 6285.03,23.19 73.7,35 151,65.92 231.91,92.77 202.31,213.25 237.1,452.9 104.37,718.96 -85.25,114.07 -197.36,183.65 -336.28,208.72 -2098.85,-19.32 -4201.6,-30.92 -6308.22,-34.79 -31.82,-9.32 -62.74,-20.92 -92.77,-34.78 -14.07,2.87 -21.8,10.59 -23.19,23.18 -180.27,-98.68 -265.31,-253.29 -255.11,-463.83 13.57,-233.85 129.53,-392.32 347.88,-475.44 28.71,-16 28.71,-27.59 0,-34.79z"/>
  </g>
  <g id="_1574984666960">
   <path class="fil8" d="M6860.87 5014.35c19.23,135.74 38.55,274.89 57.98,417.45 124.8,321.72 360.59,484.06 707.36,487.03 0,7.72 0,15.47 0,23.19 -144.89,17.95 -291.78,-12.96 -440.65,-92.76 -92.82,-77.3 -170.11,-154.62 -231.92,-231.93 -96.27,-191.12 -127.21,-392.12 -92.77,-602.98z"/>
  </g>
  <g id="_1574984665808">
   <path class="fil4" d="M7185.56 5849.26c-15.47,15.46 -15.47,15.46 0,0z"/>
  </g>
  <g id="_1574984666640">
   <path class="fil6" d="M7301.52 5942.02c30.91,15.47 30.91,15.47 0,0z"/>
  </g>
  <g id="_1574984663952">
   <path class="fil4" d="M7649.4 5988.41c30.91,15.46 30.91,15.46 0,0z"/>
  </g>
  <g id="_1574984664400">
   <path class="fil4" d="M7834.93 5988.41c30.92,15.46 30.92,15.46 0,0z"/>
  </g>
  <g id="_1574984664240">
   <path class="fil6" d="M8391.54 5988.41c30.92,15.46 30.92,15.46 0,0z"/>
  </g>
  <g id="_1574984664272">
   <path class="fil0" d="M8461.12 5988.41c30.92,15.46 30.92,15.46 0,0z"/>
  </g>
  <g id="_1574984664304">
   <path class="fil4" d="M8461.12 6011.59c22.33,20.02 22.33,35.5 0,46.39 -29.52,-17.56 -29.52,-33 0,-46.39z"/>
  </g>
  <g id="_1574984661296">
   <path class="fil4" d="M8368.35 6034.79c30.91,15.47 30.91,15.47 0,0z"/>
  </g>
  <g id="_1574984661520">
   <path class="fil13" d="M7626.21 5942.02c0,-7.72 0,-15.47 0,-23.19 301.5,0 602.98,0 904.48,0 0,834.91 0,1669.82 0,2504.73 -316.96,0 -633.9,0 -950.87,0 0,-7.72 0,-15.47 0,-23.19 259.99,-24.63 530.57,-24.63 811.72,0 23.19,0 46.39,0 69.58,0 17.14,3.04 32.61,-0.83 46.38,-11.6 -19.99,-803.29 -23.84,-1611.16 -11.59,-2423.55 -277.45,-15.04 -567.35,-22.76 -869.7,-23.2z"/>
  </g>
  <g id="_1574984662544">
   <path class="fil8" d="M13354.62 5594.14c28.71,7.2 28.71,18.79 0,34.79 -218.35,83.12 -334.31,241.59 -347.88,475.44 -10.2,210.54 74.84,365.15 255.11,463.83 22.57,11.3 45.76,22.9 69.58,34.79 2102.72,11.6 4205.47,15.47 6308.21,11.6 -2064.08,15.47 -4128.17,30.91 -6192.25,46.39 -158.29,-19.18 -289.69,-88.76 -394.26,-208.74 -129.64,-249.84 -114.2,-489.49 46.38,-718.95 15.47,0 23.19,-7.72 23.19,-23.18 40.13,-12.21 71.06,-35.4 92.77,-69.58 46.38,-15.48 92.77,-30.92 139.15,-46.39z"/>
  </g>
  <g id="_1574984662672">
   <path class="fil14" d="M13261.85 6568.2c1.39,-12.59 9.12,-20.31 23.19,-23.18 30.03,13.86 60.95,25.46 92.77,34.78 2106.62,3.87 4209.37,15.47 6308.22,34.79 -15.48,0 -30.92,0 -46.39,0 -2102.74,3.87 -4205.49,0 -6308.21,-11.6 -23.82,-11.89 -47.01,-23.49 -69.58,-34.79z"/>
  </g>
  <g id="_1574982779824">
   <path class="fil15" d="M19917.94 5686.91c168.8,114.82 242.23,277.17 220.33,487.03 -54.62,254.98 -197.64,413.45 -429.05,475.44 -260.75,4.13 -519.73,15.72 -776.93,34.79 -1820.48,-11.23 -3648.79,-18.95 -5484.9,-23.19 2064.08,-15.48 4128.17,-30.92 6192.25,-46.39 15.47,0 30.91,0 46.39,0 138.92,-25.07 251.03,-94.65 336.28,-208.72 132.73,-266.06 97.94,-505.71 -104.37,-718.96z"/>
  </g>
  <g id="_1574982780304">
   <path class="fil4" d="M8461.12 6753.74c30.92,15.47 30.92,15.47 0,0z"/>
  </g>
  <g id="_1574982779632">
   <path class="fil16" d="M21819.69 2834.3c7.65,5133.8 -0.07,10266.94 -23.19,15399.47 -15.48,0 -23.2,-7.73 -23.2,-23.2 0,-23.19 0,-46.38 0,-69.58 23.2,-5013.31 30.92,-10030.5 23.2,-15051.58 -18.67,-74.21 -18.67,-143.79 0,-208.73 -3.99,-23.01 3.76,-38.45 23.19,-46.38z"/>
  </g>
  <g id="_1574982780720">
   <path class="fil4" d="M8461.12 8191.64c30.92,15.48 30.92,15.48 0,0z"/>
  </g>
  <g id="_1574982780464">
   <path class="fil4" d="M8368.35 8284.41c30.91,15.47 30.91,15.47 0,0z"/>
  </g>
  <g id="_1574982778992">
   <path class="fil4" d="M8437.93 8330.8c-15.47,-30.92 -15.47,-30.92 0,0z"/>
  </g>
  <g id="_1574982778736">
   <path class="fil2" d="M8437.93 8330.8c30.91,15.47 30.91,15.47 0,0z"/>
  </g>
  <g id="_1574982778768">
   <path class="fil2" d="M8391.54 8377.17c-15.47,-30.9 -15.47,-30.9 0,0z"/>
  </g>
  <g id="_1574982778640">
   <path class="fil4" d="M7301.52 8377.17c30.91,15.48 30.91,15.48 0,0z"/>
  </g>
  <g id="_1574982775152">
   <path class="fil10" d="M8437.93 8353.99c7.72,15.46 15.47,30.91 23.19,46.38 -23.19,0 -46.39,0 -69.58,0 0,-7.72 0,-15.47 0,-23.2 15.47,-7.72 30.92,-15.46 46.39,-23.18z"/>
  </g>
  <g id="_1574982777008">
   <path class="fil2" d="M7162.37 8493.14c-15.47,-30.91 -15.47,-30.91 0,0z"/>
  </g>
  <g id="_1574982775984">
   <path class="fil4" d="M6884.06 8678.67c30.92,15.47 30.92,15.47 0,0z"/>
  </g>
  <g id="_1574982776272">
   <path class="fil4" d="M6837.68 8841.02c30.91,15.47 30.91,15.47 0,0z"/>
  </g>
  <g id="_1574982775344">
   <path class="fil4" d="M6814.49 9003.36c30.91,15.47 30.91,15.47 0,0z"/>
  </g>
  <g id="_1574982807536">
   <path class="fil6" d="M6930.45 9583.16c-15.47,15.47 -15.47,15.47 0,0z"/>
  </g>
  <g id="_1574982806992">
   <path class="fil16" d="M7579.82 8400.37c0,7.72 0,15.47 0,23.19 -296.72,-0.65 -509.29,130.78 -637.77,394.26 -148.88,517.28 -5.85,880.61 429.05,1090.02 -74.01,-13.72 -143.59,-40.79 -208.73,-81.16 -82.03,-78.14 -159.35,-159.31 -231.92,-243.52 -130.71,-299.43 -119.11,-593.2 34.79,-881.3 54.78,-81.79 120.5,-151.37 197.13,-208.72 124.24,-62.01 255.67,-100.68 394.26,-115.97 14.08,2.89 21.8,10.61 23.19,23.2z"/>
  </g>
  <g id="_1574982806096">
   <path class="fil4" d="M6907.26 9606.36c-15.47,15.46 -15.47,15.46 0,0z"/>
  </g>
  <g id="_1574982806416">
   <path class="fil4" d="M8461.12 10232.53c30.92,15.48 30.92,15.48 0,0z"/>
  </g>
  <g id="_1574982804112">
   <path class="fil17" d="M7440.67 9931.04c359.27,-23.1 722.62,-30.85 1090.02,-23.2 0,834.91 0,1669.83 0,2504.74 -363.35,0 -726.67,0 -1090.02,0 0,-7.73 0,-15.47 0,-23.19 356.18,-20.55 707.93,-28.28 1055.24,-23.19 16.72,-561.34 12.84,-1117.95 -11.6,-1669.82 23.06,-243.22 30.8,-490.61 23.19,-742.15 -356.27,6.24 -711.87,-1.48 -1066.83,-23.19z"/>
  </g>
  <g id="_1574982805712">
   <path class="fil4" d="M8484.31 10696.38c-15.47,-30.92 -15.47,-30.92 0,0z"/>
  </g>
  <g id="_1574982805168">
   <path class="fil4" d="M7255.13 12389.39c30.92,15.46 30.92,15.46 0,0z"/>
  </g>
  <g id="_1574982805104">
   <path class="fil2" d="M7139.17 12505.35c-17.13,3.03 -32.6,-0.83 -46.37,-11.6 21.72,-16.05 37.17,-12.17 46.37,11.6z"/>
  </g>
  <g id="_1574982802096">
   <path class="fil4" d="M7000.02 12574.92c30.92,15.47 30.92,15.47 0,0z"/>
  </g>
  <g id="_1574982803568">
   <path class="fil8" d="M7440.67 12389.39c0,7.72 0,15.46 0,23.19 -275.4,90.49 -460.94,260.56 -556.61,510.22 7.57,-65.19 26.89,-127.04 57.99,-185.53 61.89,-81.17 127.6,-158.47 197.12,-231.92 94.93,-52.28 195.45,-90.94 301.5,-115.96z"/>
  </g>
  <g id="_1574982803376">
   <path class="fil4" d="M6814.49 12946c30.91,15.46 30.91,15.46 0,0z"/>
  </g>
  <g id="_1574982803248">
   <path class="fil4" d="M6791.3 13131.53c23.77,9.21 27.64,24.66 11.59,46.38 -10.76,-13.77 -14.63,-29.24 -11.59,-46.38z"/>
  </g>
  <g id="_1574982802832">
   <path class="fil2" d="M6791.3 13201.11c30.91,15.47 30.91,15.47 0,0z"/>
  </g>
  <g id="_1574982799824">
   <path class="fil4" d="M6884.06 13525.79c30.92,15.47 30.92,15.47 0,0z"/>
  </g>
  <g id="_1574982800176">
   <path class="fil4" d="M6953.64 13595.37c-13.38,29.52 -28.83,29.52 -46.38,0 10.89,-22.33 26.36,-22.33 46.38,0z"/>
  </g>
  <g id="_1574982799632">
   <path class="fil18" d="M6860.87 12969.18c12.89,169.05 39.96,339.12 81.18,510.23 105.29,205.67 271.5,333.22 498.62,382.67 359.59,3.92 715.22,15.51 1066.83,34.79 0,7.72 0,15.47 0,23.19 -387.35,8.63 -773.87,-2.97 -1159.59,-34.79 -119.7,-48.19 -227.93,-113.9 -324.7,-197.13 3.99,-23.01 -3.76,-38.46 -23.19,-46.38 -7.72,-23.2 -23.19,-38.67 -46.38,-46.39 -97.11,-199.34 -128.02,-408.07 -92.77,-626.19z"/>
  </g>
  <g id="_1574982800624">
   <path class="fil2" d="M7000.02 13641.76c-15.47,15.46 -15.47,15.46 0,0z"/>
  </g>
  <g id="_1574982801264">
   <path class="fil4" d="M7023.21 13688.14c-15.47,15.47 -15.47,15.47 0,0z"/>
  </g>
  <g id="_1574982799568">
   <path class="fil19" d="M11336.92 2370.46c0,7.73 0,15.47 0,23.19 -31.85,-3.64 -62.78,0.24 -92.77,11.6 3.69,5289.62 3.69,10654.69 0,16095.22 61.85,15.46 61.85,30.92 0,46.38 83.43,22.55 168.47,34.14 255.11,34.79 3240.32,-9.13 6494.92,-9.13 9763.82,0 37.08,-6.21 68,1.53 92.77,23.19 -46.39,0 -92.77,0 -139.15,0 -3331.92,0 -6663.82,0 -9995.74,0 0,-5411.44 0,-10822.92 0,-16234.37 38.67,0 77.3,0 115.96,0z"/>
  </g>
  <g id="_1574982798640">
   <path class="fil2" d="M8414.73 13943.25c30.92,15.47 30.92,15.47 0,0z"/>
  </g>
  <g id="_1574982799280">
   <path class="fil2" d="M8461.12 14012.83c-15.47,-30.92 -15.47,-30.92 0,0z"/>
  </g>
  <g id="_1574982798288">
   <path class="fil4" d="M8461.12 14012.83c30.92,15.47 30.92,15.47 0,0z"/>
  </g>
  <g id="_1574982796112">
   <path class="fil2" d="M8461.12 14128.78c30.92,15.47 30.92,15.47 0,0z"/>
  </g>
  <g id="_1574982797168">
   <path class="fil4" d="M8461.12 14870.93c30.92,15.47 30.92,15.47 0,0z"/>
  </g>
  <g id="_1574982796400">
   <path class="fil4" d="M8461.12 14940.5c30.92,15.47 30.92,15.47 0,0z"/>
  </g>
  <g id="_1574982796944">
   <path class="fil20" d="M21796.5 3089.41c7.72,5021.08 0,10038.27 -23.2,15051.58 -1.08,-2078.92 -8.83,-4150.75 -23.19,-6215.44 12.67,-551.16 20.39,-1103.89 23.19,-1658.23 -0.62,-129.41 -16.09,-253.12 -46.38,-371.06 26.85,-23.41 42.32,-54.32 46.38,-92.78 -17.41,-56.1 -17.41,-110.22 0,-162.34 -9.39,-21.92 -24.86,-37.39 -46.38,-46.38 38.59,-2167.43 61.78,-4335.88 69.58,-6505.35z"/>
  </g>
  <g id="_1574982796304">
   <path class="fil4" d="M8461.12 15473.91c30.92,15.48 30.92,15.48 0,0z"/>
  </g>
  <g id="_1574982793776">
   <path class="fil4" d="M8461.12 15659.45c30.92,15.47 30.92,15.47 0,0z"/>
  </g>
  <g id="_1574982795088">
   <path class="fil4" d="M8461.12 15798.61c30.92,15.47 30.92,15.47 0,0z"/>
  </g>
  <g id="_1574982795280">
   <path class="fil4" d="M8461.12 16030.52c30.92,15.47 30.92,15.47 0,0z"/>
  </g>
  <g id="_1574982793552">
   <path class="fil4" d="M8461.12 16216.06c30.92,15.47 30.92,15.47 0,0z"/>
  </g>
  <g id="_1574982791536">
   <path class="fil4" d="M8461.12 16424.79c30.92,15.46 30.92,15.46 0,0z"/>
  </g>
  <g id="_1574982792656">
   <path class="fil4" d="M8461.12 16587.13c30.92,15.47 30.92,15.47 0,0z"/>
  </g>
  <g id="_1574982792016">
   <path class="fil16" d="M8507.5 13896.87c30.91,1522.94 30.91,3045.87 0,4568.81 -3.47,-1515.25 -3.47,-3030.45 0,-4545.62 0,-7.72 0,-15.47 0,-23.19z"/>
  </g>
  <g id="_1574982792816">
   <path class="fil8" d="M21773.3 18210.57c0,15.47 7.72,23.2 23.2,23.2 -89.09,181.93 -228.24,305.61 -417.46,371.06 -7.72,0 -15.47,0 -23.19,0 -24.77,-21.66 -55.69,-29.4 -92.77,-23.19 66.61,-19.13 136.18,-38.47 208.73,-57.97 60.43,-18.38 106.82,-53.17 139.15,-104.37 71.17,-57.82 125.28,-127.39 162.34,-208.73z"/>
  </g>
  <g id="_1574982792976">
   <path class="fil4" d="M8484.31 18628.03c30.91,15.47 30.91,15.47 0,0z"/>
  </g>
  <g id="_1574982790832">
   <path class="fil21" d="M21216.7 18604.83c46.38,0 92.76,0 139.15,0 7.72,0 15.47,0 23.19,0 -17.7,17.82 -40.89,29.41 -69.58,34.79 -3347.36,15.47 -6694.75,15.47 -10042.11,0 3320.32,-3.87 6636.77,-15.47 9949.35,-34.79z"/>
  </g>
  <g id="_1574982790192">
   <path class="fil4" d="M8577.08 18906.33c30.91,15.47 30.91,15.47 0,0z"/>
  </g>
  <g id="_1574982791056">
   <path class="fil4" d="M22747.36 18929.52c30.92,15.47 30.92,15.47 0,0z"/>
  </g>
  <g id="_1574982789936">
   <path class="fil4" d="M8600.27 18975.9c30.92,15.47 30.92,15.47 0,0z"/>
  </g>
  <g id="_1574982789328">
   <path class="fil6" d="M8669.84 19022.29c-15.47,15.47 -15.47,15.47 0,0z"/>
  </g>
  <g id="_1574982788944">
   <path class="fil4" d="M8716.23 19115.05c-15.47,15.48 -15.47,15.48 0,0z"/>
  </g>
  <g id="_1574982787664">
   <path class="fil4" d="M22631.41 19138.25c30.91,15.47 30.91,15.47 0,0z"/>
  </g>
  <g id="_1574982787536">
   <path class="fil4" d="M22585.02 19207.83c30.92,15.46 30.92,15.46 0,0z"/>
  </g>
  <g id="_1574982788496">
   <path class="fil4" d="M8832.19 19300.59c30.91,15.47 30.91,15.47 0,0z"/>
  </g>
  <g id="_1574982785520">
   <path class="fil4" d="M8971.34 19393.36c-9.2,23.77 -24.65,27.64 -46.39,11.59 13.78,-10.75 29.25,-14.63 46.39,-11.59z"/>
  </g>
  <g id="_1574982785488">
   <path class="fil4" d="M22306.72 19486.13c30.91,15.46 30.91,15.46 0,0z"/>
  </g>
  <g id="_1574982786160">
   <path class="fil4" d="M22260.34 19509.32c30.9,15.47 30.9,15.47 0,0z"/>
  </g>
  <g id="_1574982785776">
   <path class="fil2" d="M9133.68 19532.51c-15.47,15.47 -15.47,15.47 0,0z"/>
  </g>
  <g id="_1574982785744">
   <path class="fil22" d="M22863.32 2509.62c3.88,5357.33 0,10714.68 -11.59,16072.02 -32.58,117.07 -67.38,233.03 -104.37,347.88 -44.45,65.66 -83.09,135.23 -115.95,208.73 -32.61,10.97 -48.08,34.16 -46.39,69.58 -181.31,200.53 -397.76,351.28 -649.37,452.23 -51.96,22.66 -106.06,34.26 -162.35,34.79 -17.13,3.05 -32.61,-0.83 -46.38,-11.59 624.86,-161.02 992.08,-559.13 1101.62,-1194.38 11.59,-5310.97 15.46,-10621.93 11.59,-15932.89 -3.99,-23 3.76,-38.45 23.19,-46.37z"/>
  </g>
  <g id="_1574982784080">
   <path class="fil6" d="M9319.22 19648.47c30.91,15.47 30.91,15.47 0,0z"/>
  </g>
  <g id="_1574982784400">
   <path class="fil6" d="M9365.6 19671.66c30.92,15.47 30.92,15.47 0,0z"/>
  </g>
  <g id="_1574982783792">
   <path class="fil4" d="M9411.99 19694.85c30.91,15.48 30.91,15.48 0,0z"/>
  </g>
  <g id="_1574982783760">
   <path class="fil23" d="M21703.73 19718.05c-4003.84,26.97 -8008.33,30.82 -12013.44,11.59 -198.33,-33.65 -383.87,-99.35 -556.61,-197.13 -53.53,-45.71 -107.65,-92.09 -162.34,-139.15 -84.37,-92.16 -169.42,-184.94 -255.11,-278.31 -3.71,-38.33 -19.16,-69.24 -46.39,-92.76 -79.04,-144.39 -125.41,-299.02 -139.15,-463.84 -3.03,-17.14 0.84,-32.61 11.6,-46.38 121.52,650.6 504.2,1040.99 1148,1171.19 4008.36,3.87 8012.82,15.47 12013.44,34.79z"/>
  </g>
  <g id="_1574982782288">
   <path class="fil4" d="M21889.26 19694.85c30.92,15.48 30.92,15.48 0,0z"/>
  </g>
  <g id="_1574982781840">
   <path class="fil2" d="M9551.14 19741.24c-17.14,3.03 -32.61,-0.83 -46.39,-11.6 21.73,-16.04 37.19,-12.17 46.39,11.6z"/>
  </g>
  <g id="_1574982782512">
   <path class="fil4" d="M9551.14 19741.24c17.14,-3.04 32.61,0.83 46.39,11.6 -21.74,16.05 -37.19,12.17 -46.39,-11.6z"/>
  </g>
  <g id="_1574982781648">
   <path class="fil2" d="M9620.71 19741.24c30.92,15.47 30.92,15.47 0,0z"/>
  </g>
  <g id="_1574982781328">
   <path class="fil4" d="M21657.34 19741.24c30.92,15.47 30.92,15.47 0,0z"/>
  </g>
  <g id="_1574982395360">
   <path class="fil4" d="M9690.29 19764.43c30.92,15.47 30.92,15.47 0,0z"/>
  </g>
  <g id="_1574982394624">
   <path class="fil4" d="M9783.06 19787.62c33.53,-25.81 72.2,-29.68 115.96,-11.59 -37.9,11.46 -76.55,15.31 -115.96,11.59z"/>
  </g>
  <g id="_1574982395680">
   <path class="fil4" d="M9922.21 19787.62c33.54,-25.81 72.2,-29.68 115.96,-11.59 -37.9,11.46 -76.55,15.31 -115.96,11.59z"/>
  </g>
  <g id="_1574982394944">
   <path class="fil4" d="M10061.36 19764.43c30.92,15.47 30.92,15.47 0,0z"/>
  </g>
  <g id="_1574982392640">
   <path class="fil2" d="M10154.13 19764.43c30.91,15.47 30.91,15.47 0,0z"/>
  </g>
  <g id="_1574982392000">
   <path class="fil4" d="M10223.71 19787.62c9.2,-23.77 24.65,-27.64 46.38,-11.59 -13.78,10.76 -29.25,14.63 -46.38,11.59z"/>
  </g>
  <g id="_1574982393952">
   <path class="fil6" d="M10316.47 19787.62c9.21,-23.77 24.66,-27.64 46.39,-11.59 -13.78,10.76 -29.24,14.63 -46.39,11.59z"/>
  </g>
  <g id="_1574982393920">
   <path class="fil2" d="M10386.05 19787.62c25.53,-25.46 56.45,-29.34 92.77,-11.59 -29.99,11.36 -60.92,15.24 -92.77,11.59z"/>
  </g>
  <g id="_1574982392416">
   <path class="fil4" d="M10502.01 19787.62c33.54,-25.81 72.2,-29.68 115.96,-11.59 -37.9,11.46 -76.56,15.31 -115.96,11.59z"/>
  </g>
  <g id="_1574982390784">
   <path class="fil4" d="M10641.16 19764.43c30.92,15.47 30.92,15.47 0,0z"/>
  </g>
  <g id="_1574982391072">
   <path class="fil4" d="M10687.55 19787.62c41.47,-26.02 87.85,-29.89 139.15,-11.59 -45.76,11.48 -92.14,15.35 -139.15,11.59z"/>
  </g>
  <g id="_1574982390944">
   <path class="fil2" d="M10873.08 19787.62c17.41,-24.89 40.61,-28.75 69.58,-11.59 -21.99,11.2 -45.18,15.05 -69.58,11.59z"/>
  </g>
  <g id="_1574982391552">
   <path class="fil2" d="M10965.85 19787.62c9.21,-23.77 24.65,-27.64 46.38,-11.59 -13.77,10.76 -29.24,14.63 -46.38,11.59z"/>
  </g>
  <g id="_1574982404640">
   <path class="fil4" d="M11035.42 19764.43c30.92,15.47 30.92,15.47 0,0z"/>
  </g>
  <g id="_1574982405504">
   <path class="fil2" d="M11081.81 19764.43c30.92,15.47 30.92,15.47 0,0z"/>
  </g>
  <g id="_1574982405120">
   <path class="fil2" d="M11151.38 19764.43c30.92,15.47 30.92,15.47 0,0z"/>
  </g>
  <g id="_1574982404544">
   <path class="fil6" d="M11220.96 19787.62c41.47,-26.02 87.85,-29.89 139.15,-11.59 -45.75,11.48 -92.14,15.35 -139.15,11.59z"/>
  </g>
  <g id="_1574982406080">
   <path class="fil4" d="M11383.31 19764.43c30.91,15.47 30.91,15.47 0,0z"/>
  </g>
  <g id="_1574982402496">
   <path class="fil0" d="M11429.68 19787.62c17.42,-24.89 40.62,-28.75 69.58,-11.59 -21.98,11.2 -45.17,15.05 -69.58,11.59z"/>
  </g>
  <g id="_1574982404160">
   <path class="fil4" d="M11522.46 19787.62c49.35,-26.18 103.46,-30.06 162.34,-11.59 -53.57,11.52 -107.68,15.38 -162.34,11.59z"/>
  </g>
  <g id="_1574982402688">
   <path class="fil6" d="M11707.99 19787.62c41.47,-26.02 87.85,-29.89 139.15,-11.59 -45.76,11.48 -92.13,15.35 -139.15,11.59z"/>
  </g>
  <g id="_1574982402464">
   <path class="fil2" d="M11986.29 19787.62c17.42,-24.89 40.61,-28.75 69.58,-11.59 -21.98,11.2 -45.18,15.05 -69.58,11.59z"/>
  </g>
  <g id="_1574982400704">
   <path class="fil4" d="M12079.07 19787.62c9.2,-23.77 24.64,-27.64 46.37,-11.59 -13.77,10.76 -29.24,14.63 -46.37,11.59z"/>
  </g>
  <g id="_1574982400576">
   <path class="fil4" d="M12195.02 19787.62c9.21,-23.77 24.65,-27.64 46.39,-11.59 -13.78,10.76 -29.25,14.63 -46.39,11.59z"/>
  </g>
  <g id="_1574982400672">
   <path class="fil4" d="M12264.6 19787.62c17.41,-24.89 40.61,-28.75 69.58,-11.59 -21.99,11.2 -45.18,15.05 -69.58,11.59z"/>
  </g>
  <g id="_1574982400736">
   <path class="fil6" d="M12357.37 19787.62c33.54,-25.81 72.19,-29.68 115.96,-11.59 -37.9,11.46 -76.56,15.31 -115.96,11.59z"/>
  </g>
  <g id="_1574982401472">
   <path class="fil6" d="M12496.52 19787.62c33.54,-25.81 72.19,-29.68 115.96,-11.59 -37.89,11.46 -76.56,15.31 -115.96,11.59z"/>
  </g>
  <g id="_1574982398176">
   <path class="fil4" d="M12635.67 19764.43c30.92,15.47 30.92,15.47 0,0z"/>
  </g>
  <g id="_1574982399488">
   <path class="fil4" d="M12682.05 19764.43c30.92,15.47 30.92,15.47 0,0z"/>
  </g>
  <g id="_1574982398464">
   <path class="fil4" d="M12751.63 19787.62c72.82,-26.45 150.12,-30.33 231.92,-11.59 -76.93,11.55 -154.23,15.42 -231.92,11.59z"/>
  </g>
  <g id="_1574982399680">
   <path class="fil2" d="M13006.74 19764.43c30.92,15.47 30.92,15.47 0,0z"/>
  </g>
  <g id="_1574982397824">
   <path class="fil4" d="M13099.51 19787.62c25.53,-25.46 56.45,-29.34 92.77,-11.59 -29.99,11.36 -60.93,15.24 -92.77,11.59z"/>
  </g>
  <g id="_1574982396448">
   <path class="fil6" d="M13261.85 19787.62c25.53,-25.46 56.45,-29.34 92.77,-11.59 -29.98,11.36 -60.92,15.24 -92.77,11.59z"/>
  </g>
  <g id="_1574982396288">
   <path class="fil6" d="M13377.81 19764.43c30.92,15.47 30.92,15.47 0,0z"/>
  </g>
  <g id="_1574982396512">
   <path class="fil6" d="M13424.2 19787.62c49.35,-26.18 103.46,-30.06 162.34,-11.59 -53.57,11.52 -107.68,15.38 -162.34,11.59z"/>
  </g>
  <g id="_1574982398048">
   <path class="fil6" d="M13656.11 19787.62c17.42,-24.89 40.61,-28.75 69.58,-11.59 -21.98,11.2 -45.17,15.05 -69.58,11.59z"/>
  </g>
  <g id="_1574982152144">
   <path class="fil4" d="M13748.89 19764.43c30.91,15.47 30.91,15.47 0,0z"/>
  </g>
  <g id="_1574982151568">
   <path class="fil2" d="M13818.46 19787.62c25.53,-25.46 56.45,-29.34 92.77,-11.59 -29.98,11.36 -60.93,15.24 -92.77,11.59z"/>
  </g>
  <g id="_1574982150480">
   <path class="fil2" d="M13934.42 19787.62c33.53,-25.81 72.2,-29.68 115.96,-11.59 -37.9,11.46 -76.55,15.31 -115.96,11.59z"/>
  </g>
  <g id="_1574982151408">
   <path class="fil4" d="M14073.57 19764.43c30.91,15.47 30.91,15.47 0,0z"/>
  </g>
  <g id="_1574982149264">
   <path class="fil2" d="M14119.96 19787.62c25.53,-25.46 56.44,-29.34 92.76,-11.59 -29.99,11.36 -60.92,15.24 -92.76,11.59z"/>
  </g>
  <g id="_1574982149136">
   <path class="fil2" d="M14235.91 19787.62c9.22,-23.77 24.66,-27.64 46.39,-11.59 -13.78,10.76 -29.24,14.63 -46.39,11.59z"/>
  </g>
  <g id="_1574982149904">
   <path class="fil6" d="M14421.45 19787.62c72.83,-26.45 150.12,-30.33 231.92,-11.59 -76.93,11.55 -154.23,15.42 -231.92,11.59z"/>
  </g>
  <g id="_1574982150000">
   <path class="fil2" d="M14676.56 19764.43c30.92,15.47 30.92,15.47 0,0z"/>
  </g>
  <g id="_1574982148432">
   <path class="fil4" d="M14792.52 19787.62c33.54,-25.81 72.2,-29.68 115.96,-11.59 -37.89,11.46 -76.55,15.31 -115.96,11.59z"/>
  </g>
  <g id="_1574982147312">
   <path class="fil4" d="M14931.67 19787.62c41.47,-26.02 87.86,-29.89 139.15,-11.59 -45.75,11.48 -92.14,15.35 -139.15,11.59z"/>
  </g>
  <g id="_1574982147152">
   <path class="fil4" d="M15140.4 19787.62c9.21,-23.77 24.65,-27.64 46.38,-11.59 -13.77,10.76 -29.24,14.63 -46.38,11.59z"/>
  </g>
  <g id="_1574982147824">
   <path class="fil4" d="M15256.36 19764.43c30.92,15.47 30.92,15.47 0,0z"/>
  </g>
  <g id="_1574982147728">
   <path class="fil4" d="M15349.13 19787.62c9.21,-23.77 24.65,-27.64 46.38,-11.59 -13.77,10.76 -29.24,14.63 -46.38,11.59z"/>
  </g>
  <g id="_1574982145040">
   <path class="fil4" d="M15511.47 19787.62c17.42,-24.89 40.61,-28.75 69.58,-11.59 -21.99,11.2 -45.17,15.05 -69.58,11.59z"/>
  </g>
  <g id="_1574982144272">
   <path class="fil4" d="M15604.24 19764.43c30.91,15.47 30.91,15.47 0,0z"/>
  </g>
  <g id="_1574982144688">
   <path class="fil4" d="M15650.62 19764.43c30.92,15.47 30.92,15.47 0,0z"/>
  </g>
  <g id="_1574982144560">
   <path class="fil2" d="M15697.01 19787.62c17.42,-24.89 40.61,-28.75 69.57,-11.59 -21.98,11.2 -45.17,15.05 -69.57,11.59z"/>
  </g>
  <g id="_1574982145808">
   <path class="fil2" d="M15789.78 19764.43c30.91,15.47 30.91,15.47 0,0z"/>
  </g>
  <g id="_1574982144112">
   <path class="fil2" d="M15882.54 19787.62c17.42,-24.89 40.61,-28.75 69.58,-11.59 -21.98,11.2 -45.18,15.05 -69.58,11.59z"/>
  </g>
  <g id="_1574982143696">
   <path class="fil2" d="M15975.31 19764.43c30.92,15.47 30.92,15.47 0,0z"/>
  </g>
  <g id="_1574982142704">
   <path class="fil2" d="M16068.08 19787.62c17.42,-24.89 40.61,-28.75 69.58,-11.59 -21.99,11.2 -45.18,15.05 -69.58,11.59z"/>
  </g>
  <g id="_1574982142160">
   <path class="fil4" d="M16160.84 19787.62c9.22,-23.77 24.66,-27.64 46.39,-11.59 -13.78,10.76 -29.24,14.63 -46.39,11.59z"/>
  </g>
  <g id="_1574982142096">
   <path class="fil4" d="M16276.81 19787.62c9.21,-23.77 24.65,-27.64 46.38,-11.59 -13.77,10.76 -29.24,14.63 -46.38,11.59z"/>
  </g>
  <g id="_1574982141488">
   <path class="fil6" d="M16346.38 19787.62c65.03,-26.39 134.61,-30.26 208.74,-11.59 -69.16,11.55 -138.74,15.42 -208.74,11.59z"/>
  </g>
  <g id="_1574982140432">
   <path class="fil2" d="M16624.69 19787.62c17.41,-24.89 40.61,-28.75 69.58,-11.59 -22,11.2 -45.18,15.05 -69.58,11.59z"/>
  </g>
  <g id="_1574982141072">
   <path class="fil2" d="M16740.65 19787.62c33.53,-25.81 72.2,-29.68 115.95,-11.59 -37.89,11.46 -76.55,15.31 -115.95,11.59z"/>
  </g>
  <g id="_1574982140912">
   <path class="fil2" d="M17018.95 19764.43c30.91,15.47 30.91,15.47 0,0z"/>
  </g>
  <g id="_1574982138672">
   <path class="fil6" d="M17088.53 19787.62c49.35,-26.18 103.46,-30.06 162.34,-11.59 -53.57,11.52 -107.68,15.38 -162.34,11.59z"/>
  </g>
  <g id="_1574982138096">
   <path class="fil2" d="M17274.06 19787.62c72.82,-26.45 150.13,-30.33 231.92,-11.59 -76.92,11.55 -154.22,15.42 -231.92,11.59z"/>
  </g>
  <g id="_1574982138928">
   <path class="fil6" d="M17529.18 19787.62c17.41,-24.89 40.6,-28.75 69.57,-11.59 -21.98,11.2 -45.18,15.05 -69.57,11.59z"/>
  </g>
  <g id="_1574982138224">
   <path class="fil4" d="M17668.33 19764.43c30.91,15.47 30.91,15.47 0,0z"/>
  </g>
  <g id="_1574982139760">
   <path class="fil2" d="M17737.9 19787.62c17.42,-24.89 40.61,-28.75 69.58,-11.59 -21.99,11.2 -45.18,15.05 -69.58,11.59z"/>
  </g>
  <g id="_1574982137200">
   <path class="fil2" d="M17830.67 19764.43c30.91,15.47 30.91,15.47 0,0z"/>
  </g>
  <g id="_1574982136848">
   <path class="fil2" d="M17923.44 19787.62c17.42,-24.89 40.61,-28.75 69.57,-11.59 -21.98,11.2 -45.18,15.05 -69.57,11.59z"/>
  </g>
  <g id="_1574982136112">
   <path class="fil4" d="M18016.2 19764.43c30.92,15.47 30.92,15.47 0,0z"/>
  </g>
  <g id="_1574982136816">
   <path class="fil4" d="M18108.97 19787.62c9.21,-23.77 24.66,-27.64 46.39,-11.59 -13.78,10.76 -29.25,14.63 -46.39,11.59z"/>
  </g>
  <g id="_1574983300656">
   <path class="fil4" d="M18178.55 19787.62c9.2,-23.77 24.65,-27.64 46.39,-11.59 -13.78,10.76 -29.25,14.63 -46.39,11.59z"/>
  </g>
  <g id="_1574983302192">
   <path class="fil2" d="M18271.31 19787.62c25.54,-25.46 56.45,-29.34 92.78,-11.59 -29.99,11.36 -60.93,15.24 -92.78,11.59z"/>
  </g>
  <g id="_1574983301200">
   <path class="fil4" d="M18480.05 19787.62c17.41,-24.89 40.61,-28.75 69.57,-11.59 -21.99,11.2 -45.18,15.05 -69.57,11.59z"/>
  </g>
  <g id="_1574983301936">
   <path class="fil4" d="M18572.81 19764.43c30.92,15.47 30.92,15.47 0,0z"/>
  </g>
  <g id="_1574983300432">
   <path class="fil6" d="M18665.58 19787.62c9.21,-23.77 24.65,-27.64 46.38,-11.59 -13.78,10.76 -29.24,14.63 -46.38,11.59z"/>
  </g>
  <g id="_1574983299952">
   <path class="fil6" d="M18758.35 19787.62c49.35,-26.18 103.46,-30.06 162.35,-11.59 -53.58,11.52 -107.69,15.38 -162.35,11.59z"/>
  </g>
  <g id="_1574983299216">
   <path class="fil2" d="M18943.88 19787.62c49.36,-26.18 103.46,-30.06 162.35,-11.59 -53.58,11.52 -107.68,15.38 -162.35,11.59z"/>
  </g>
  <g id="_1574983299408">
   <path class="fil0" d="M19129.42 19787.62c9.2,-23.77 24.66,-27.64 46.39,-11.59 -13.78,10.76 -29.25,14.63 -46.39,11.59z"/>
  </g>
  <g id="_1574983299120">
   <path class="fil6" d="M19199 19787.62c49.35,-26.18 103.46,-30.06 162.34,-11.59 -53.57,11.52 -107.68,15.38 -162.34,11.59z"/>
  </g>
  <g id="_1574983314288">
   <path class="fil2" d="M19384.53 19787.62c49.36,-26.18 103.46,-30.06 162.34,-11.59 -53.57,11.52 -107.68,15.38 -162.34,11.59z"/>
  </g>
  <g id="_1574983312816">
   <path class="fil6" d="M19570.07 19787.62c49.35,-26.18 103.46,-30.06 162.34,-11.59 -53.57,11.52 -107.68,15.38 -162.34,11.59z"/>
  </g>
  <g id="_1574983312752">
   <path class="fil2" d="M19755.61 19787.62c25.53,-25.46 56.45,-29.34 92.76,-11.59 -29.99,11.36 -60.93,15.24 -92.76,11.59z"/>
  </g>
  <g id="_1574983313040">
   <path class="fil2" d="M19871.56 19787.62c9.21,-23.77 24.65,-27.64 46.38,-11.59 -13.77,10.76 -29.24,14.63 -46.38,11.59z"/>
  </g>
  <g id="_1574983312656">
   <path class="fil4" d="M19941.14 19764.43c30.91,15.47 30.91,15.47 0,0z"/>
  </g>
  <g id="_1574983311536">
   <path class="fil6" d="M19987.52 19764.43c30.92,15.47 30.92,15.47 0,0z"/>
  </g>
  <g id="_1574983311728">
   <path class="fil2" d="M20033.91 19787.62c9.2,-23.77 24.65,-27.64 46.38,-11.59 -13.77,10.76 -29.24,14.63 -46.38,11.59z"/>
  </g>
  <g id="_1574983312400">
   <path class="fil6" d="M20149.87 19787.62c17.41,-24.89 40.61,-28.75 69.57,-11.59 -21.98,11.2 -45.18,15.05 -69.57,11.59z"/>
  </g>
  <g id="_1574983310864">
   <path class="fil4" d="M20242.63 19787.62c9.21,-23.77 24.66,-27.64 46.39,-11.59 -13.78,10.76 -29.25,14.63 -46.39,11.59z"/>
  </g>
  <g id="_1574983309872">
   <path class="fil2" d="M20335.4 19787.62c17.41,-24.89 40.61,-28.75 69.58,-11.59 -21.99,11.2 -45.18,15.05 -69.58,11.59z"/>
  </g>
  <g id="_1574983310544">
   <path class="fil2" d="M20428.17 19787.62c49.35,-26.18 103.46,-30.06 162.35,-11.59 -53.58,11.52 -107.69,15.38 -162.35,11.59z"/>
  </g>
  <g id="_1574983309040">
   <path class="fil4" d="M20613.7 19764.43c30.92,15.47 30.92,15.47 0,0z"/>
  </g>
  <g id="_1574983308592">
   <path class="fil4" d="M20683.28 19787.62c41.47,-26.02 87.85,-29.89 139.15,-11.59 -45.75,11.48 -92.14,15.35 -139.15,11.59z"/>
  </g>
  <g id="_1574983309712">
   <path class="fil2" d="M20868.82 19787.62c25.53,-25.46 56.45,-29.34 92.77,-11.59 -29.99,11.36 -60.93,15.24 -92.77,11.59z"/>
  </g>
  <g id="_1574983307216">
   <path class="fil4" d="M20984.78 19764.43c30.91,15.47 30.91,15.47 0,0z"/>
  </g>
  <g id="_1574983306800">
   <path class="fil2" d="M21100.74 19787.62c9.2,-23.77 24.65,-27.64 46.38,-11.59 -13.78,10.76 -29.25,14.63 -46.38,11.59z"/>
  </g>
  <g id="_1574983307120">
   <path class="fil4" d="M21170.31 19764.43c30.91,15.47 30.91,15.47 0,0z"/>
  </g>
  <g id="_1574983308432">
   <path class="fil2" d="M21263.08 19787.62c17.42,-24.89 40.61,-28.75 69.57,-11.59 -21.98,11.2 -45.17,15.05 -69.57,11.59z"/>
  </g>
  <g id="_1574983304528">
   <path class="fil4" d="M21355.85 19787.62c9.2,-23.77 24.65,-27.64 46.38,-11.59 -13.78,10.76 -29.25,14.63 -46.38,11.59z"/>
  </g>
  <g id="_1574983306128">
   <path class="fil2" d="M21448.61 19787.62c9.21,-23.77 24.66,-27.64 46.39,-11.59 -13.78,10.76 -29.24,14.63 -46.39,11.59z"/>
  </g>
 </g>
</svg>
