<svg xmlns="http://www.w3.org/2000/svg" xmlns:xlink="http://www.w3.org/1999/xlink" xmlns:lucid="lucid" width="1602" height="862"><g transform="translate(-139 41)" lucid:page-tab-id="0_0"><path d="M140 666a6 6 0 0 1 6-6h1588a6 6 0 0 1 6 6v148a6 6 0 0 1-6 6H146a6 6 0 0 1-6-6zM140-34a6 6 0 0 1 6-6h1588a6 6 0 0 1 6 6v668a6 6 0 0 1-6 6H146a6 6 0 0 1-6-6z" stroke="#82755b" stroke-width="2" fill="#f2f2ff"/><path d="M380.32 259c55.5 0 100.5 45 100.5 100.5s-45 100.5-100.5 100.5H260.5C205 460 160 415 160 359.5S205 259 260.5 259z" stroke="#008573" stroke-width="2" fill="#e5fffc"/><path d="M781.34 260c55.5 0 100.5 45 100.5 100.5s-45 100.5-100.5 100.5H661.52c-55.5 0-100.5-45-100.5-100.5s45-100.5 100.5-100.5z" stroke="#fcce14" stroke-width="2" fill="#fff3d9"/><path d="M1182.36 259c55.5 0 100.5 45 100.5 100.5s-45 100.5-100.5 100.5h-119.8c-55.52 0-100.5-45-100.5-100.5s44.98-100.5 100.5-100.5z" stroke="#fcce14" stroke-width="2" fill="#fce2aa"/><path d="M1579.5 253.82c55.5 0 100.5 45 100.5 100.5s-45 100.5-100.5 100.5h-119.82c-55.5 0-100.5-45-100.5-100.5s45-100.5 100.5-100.5z" stroke="#fcce14" stroke-width="2" fill="#fcc244"/><path d="M1022.56 680c33.13 0 60 26.86 60 60s-26.87 60-60 60h-200c-33.14 0-60-26.86-60-60s26.86-60 60-60z" stroke="#fcce14" stroke-width="2" fill="#fee8dc"/><path d="M283.1 305a6 6 0 0 1 6-6h68a6 6 0 0 1 6 6v28a6 6 0 0 1-6 6h-68a6 6 0 0 1-6-6z" fill="none"/><use xlink:href="#a" transform="matrix(1,0,0,1,283.111111111111,298.99635743454337) translate(8.055555555555554 28.08376736111111)"/><path d="M198 385a6 6 0 0 1 6-6h73.1a6 6 0 0 1 6 6v48a6 6 0 0 1-6 6H204a6 6 0 0 1-6-6z" fill="none"/><use xlink:href="#b" transform="matrix(1,0,0,1,197.99999999999994,378.99635743454337) translate(22.638671875 21.95095486111111)"/><use xlink:href="#c" transform="matrix(1,0,0,1,197.99999999999994,378.99635743454337) translate(13.203993055555554 54.21657986111111)"/><path d="M240.56 378.5v-56.06a6 6 0 0 1 6-6h20.17" stroke="#3a414a" fill="none"/><path d="M241.03 379h-.95v-.52h.95z" stroke="#3a414a" stroke-width=".05" fill="#3a414a"/><path d="M281.5 316.44l-14.27 4.64v-9.27z" stroke="#3a414a" fill="#3a414a"/><path d="M304.76 339.5v59.12a5.27 5.27 0 0 1-5.26 5.26" stroke="#3a414a" fill="none"/><path d="M305.24 339.5h-.95v-.5h.94z" stroke="#3a414a" stroke-width=".05" fill="#3a414a"/><path d="M284.73 403.9l14.26-4.65v9.27z" stroke="#3a414a" fill="#3a414a"/><path d="M363.1 383.9a6 6 0 0 1 6-6h68a6 6 0 0 1 6 6v28a6 6 0 0 1-6 6h-68a6 6 0 0 1-6-6z" fill="none"/><use xlink:href="#d" transform="matrix(1,0,0,1,363.111111111111,377.88524632343217) translate(7.979600694444443 28.08376736111111)"/><path d="M363.6 317.22h31.73a6 6 0 0 1 6 6v38.28" stroke="#3a414a" fill="none"/><path d="M363.62 317.7h-.5v-.96h.5z" stroke="#3a414a" stroke-width=".05" fill="#3a414a"/><path d="M401.33 376.27L396.7 362h9.27z" stroke="#3a414a" fill="#3a414a"/><path d="M340 339.5v59.72a6 6 0 0 0 6 6h.73" stroke="#3a414a" fill="none"/><path d="M340.48 339.5h-.96v-.5h.96z" stroke="#3a414a" stroke-width=".05" fill="#3a414a"/><path d="M361.5 405.22l-14.27 4.63v-9.27z" stroke="#3a414a" fill="#3a414a"/><path d="M597.44 339a6 6 0 0 1 6-6h73.12a6 6 0 0 1 6 6v48a6 6 0 0 1-6 6h-73.12a6 6 0 0 1-6-6z" fill="none"/><use xlink:href="#e" transform="matrix(1,0,0,1,597.4444444444446,333.00364256545663) translate(18.439453125 21.95095486111111)"/><use xlink:href="#f" transform="matrix(1,0,0,1,597.4444444444446,333.00364256545663) translate(25.25368923611111 54.21657986111111)"/><path d="M643.6 393.5v15.78a6 6 0 0 0 6 6h14.02" stroke="#3a414a" fill="none"/><path d="M644.07 393.52h-.95V393h.95z" stroke="#3a414a" stroke-width=".05" fill="#3a414a"/><path d="M678.38 415.28l-14.26 4.63v-9.26z" stroke="#3a414a" fill="#3a414a"/><path d="M762.56 339a6 6 0 0 1 6-6h73.1a6 6 0 0 1 6 6v48a6 6 0 0 1-6 6h-73.1a6 6 0 0 1-6-6z" fill="none"/><use xlink:href="#e" transform="matrix(1,0,0,1,762.5555555555554,333.00364256545663) translate(18.439453125 21.95095486111111)"/><use xlink:href="#g" transform="matrix(1,0,0,1,762.5555555555554,333.00364256545663) translate(5.087673611111107 54.21657986111111)"/><path d="M803.22 393.5v15.78a6 6 0 0 1-6 6H781.5" stroke="#3a414a" fill="none"/><path d="M803.7 393.52h-.96V393h.96z" stroke="#3a414a" stroke-width=".05" fill="#3a414a"/><path d="M766.73 415.28l14.26-4.64v9.27z" stroke="#3a414a" fill="#3a414a"/><path d="M680 399a6 6 0 0 1 6-6h73.1a6 6 0 0 1 6 6v33.12a6 6 0 0 1-6 6H686a6 6 0 0 1-6-6z" fill="none"/><use xlink:href="#h" transform="matrix(1,0,0,1,680,393.00364256545663) translate(12.845920138888886 31.08376736111111)"/><path d="M555.95-20C580.28-20 600-.28 600 24.05S580.28 68.1 555.95 68.1h-71.9C459.72 68.1 440 48.4 440 24.06S459.72-20 484.05-20z" stroke="#82755b" stroke-width="2" fill="#cfe4ff"/><use xlink:href="#i" transform="matrix(1,0,0,1,445,-15) translate(29.426657986111103 31.40277777777778)"/><use xlink:href="#j" transform="matrix(1,0,0,1,445,-15) translate(50.56381076388889 63.66840277777778)"/><path d="M480.15 69.4v89.37a6 6 0 0 1-6 6h-64.77a6 6 0 0 0-6 6v73.5" stroke="#3a414a" fill="none"/><path d="M480.63 68.92v.48h-.95v-.54z" stroke="#3a414a" stroke-width=".05" fill="#3a414a"/><path d="M403.38 259.04l-4.63-14.26h9.27z" stroke="#3a414a" fill="#3a414a"/><path d="M561.78 69.17v91.7a6 6 0 0 0 6 6h66.75a6 6 0 0 1 6 6v75.8" stroke="#3a414a" fill="none"/><path d="M562.25 69.2h-.95v-.45l.95-.15z" stroke="#3a414a" stroke-width=".05" fill="#3a414a"/><path d="M640.53 263.44l-4.64-14.27h9.26z" stroke="#3a414a" fill="#3a414a"/><path d="M421.27 266.13V186a6 6 0 0 1 6-6h67.3a6 6 0 0 0 6-6V85.5" stroke="#3a414a" fill="none"/><path d="M421.75 266.84l-.95-.42v-.3h.95z" stroke="#3a414a" stroke-width=".05" fill="#3a414a"/><path d="M500.56 70.72L505.2 85h-9.28z" stroke="#3a414a" fill="#3a414a"/><path d="M623.04 266.07V186a6 6 0 0 0-6-6h-69.5a6 6 0 0 1-6-6V85.5" stroke="#3a414a" fill="none"/><path d="M623.52 266.37l-.95.4v-.7h.95z" stroke="#3a414a" stroke-width=".05" fill="#3a414a"/><path d="M541.54 70.72L546.18 85h-9.27z" stroke="#3a414a" fill="#3a414a"/><path d="M653.72 267a6 6 0 0 1 6-6H785.4a6 6 0 0 1 6 6v33.12a6 6 0 0 1-6 6H659.7a6 6 0 0 1-6-6z" stroke="#000" stroke-opacity="0" stroke-width="2" fill-opacity="0"/><use xlink:href="#k" transform="matrix(1,0,0,1,658.722026695785,266.00364256545663) translate(33.21223958333333 28.083333333333336)"/><path d="M251.17 265a6 6 0 0 1 6-6h125.66a6 6 0 0 1 6 6v33.1a6 6 0 0 1-6 6H257.17a6 6 0 0 1-6-6z" stroke="#000" stroke-opacity="0" stroke-width="2" fill-opacity="0"/><use xlink:href="#l" transform="matrix(1,0,0,1,256.1664711402296,263.99635743454337) translate(29.97005208333333 28.083333333333336)"/><path d="M997.44 338a6 6 0 0 1 6-6h73.12a6 6 0 0 1 6 6v48a6 6 0 0 1-6 6h-73.12a6 6 0 0 1-6-6z" fill="none"/><use xlink:href="#m" transform="matrix(1,0,0,1,997.4444444444446,332) translate(6.129340277777779 21.95095486111111)"/><use xlink:href="#f" transform="matrix(1,0,0,1,997.4444444444446,332) translate(25.25368923611111 54.21657986111111)"/><path d="M1043.6 392.5v15.77a6 6 0 0 0 6 6h14.02" stroke="#3a414a" fill="none"/><path d="M1044.07 392.5h-.95v-.5h.95z" stroke="#3a414a" stroke-width=".05" fill="#3a414a"/><path d="M1078.38 414.27l-14.26 4.64v-9.26z" stroke="#3a414a" fill="#3a414a"/><path d="M1162.56 338a6 6 0 0 1 6-6h73.1a6 6 0 0 1 6 6v48a6 6 0 0 1-6 6h-73.1a6 6 0 0 1-6-6z" fill="none"/><use xlink:href="#m" transform="matrix(1,0,0,1,1162.5555555555554,332) translate(6.129340277777779 21.95095486111111)"/><use xlink:href="#g" transform="matrix(1,0,0,1,1162.5555555555554,332) translate(5.087673611111107 54.21657986111111)"/><path d="M1203.22 392.5v15.77a6 6 0 0 1-6 6h-15.73" stroke="#3a414a" fill="none"/><path d="M1203.7 392.5h-.96v-.5h.95z" stroke="#3a414a" stroke-width=".05" fill="#3a414a"/><path d="M1166.73 414.27l14.26-4.63v9.27z" stroke="#3a414a" fill="#3a414a"/><path d="M1080 398a6 6 0 0 1 6-6h73.1a6 6 0 0 1 6 6v33.1a6 6 0 0 1-6 6H1086a6 6 0 0 1-6-6z" fill="none"/><use xlink:href="#h" transform="matrix(1,0,0,1,1080,392.00000000000006) translate(12.845920138888886 31.08376736111111)"/><path d="M1053.72 266a6 6 0 0 1 6-6h125.67a6 6 0 0 1 6 6v33.1a6 6 0 0 1-6 6H1059.7a6 6 0 0 1-6-6z" stroke="#000" stroke-opacity="0" stroke-width="2" fill-opacity="0"/><use xlink:href="#n" transform="matrix(1,0,0,1,1058.722026695785,265.00000000000006) translate(18.205729166666664 28.083333333333336)"/><path d="M1060 540c22.1 0 40 17.9 40 40s-17.9 40-40 40h-80c-22.1 0-40-17.9-40-40s17.9-40 40-40z" stroke="#82755b" stroke-width="2" fill="#fff3d9"/><use xlink:href="#o" transform="matrix(1,0,0,1,945,545) translate(37.37521701388889 43.40277777777778)"/><path d="M814.46 456.96V574a6 6 0 0 0 6 6H922.6" stroke="#3a414a" fill="none"/><path d="M814.94 456.98H814v-.34l.94-.35z" stroke="#3a414a" stroke-width=".05" fill="#3a414a"/><path d="M937.38 580l-14.26 4.63v-9.26z" stroke="#3a414a" fill="#3a414a"/><path d="M1247.04 438.2V574a6 6 0 0 1-6 6h-123.65" stroke="#3a414a" fill="none"/><path d="M1247.5 438.2h-.94v-.1l.95-.8z" stroke="#3a414a" stroke-width=".05" fill="#3a414a"/><path d="M1102.62 580l14.27-4.63-.02 9.26z" stroke="#3a414a" fill="#3a414a"/><path d="M943.54 560.3H837.5a6 6 0 0 1-6-6v-89.17" stroke="#3a414a" fill="none"/><path d="M944 560.37l-.2.4h-.27v-.95h.8z" stroke="#3a414a" stroke-width=".05" fill="#3a414a"/><path d="M831.5 450.37l4.63 14.26h-9.27z" stroke="#3a414a" fill="#3a414a"/><path d="M1095.68 559.05h130.28a6 6 0 0 0 6-6v-88.62" stroke="#3a414a" fill="none"/><path d="M1095.7 559.52h-.26l-.53-.95h.8z" stroke="#3a414a" stroke-width=".05" fill="#3a414a"/><path d="M1231.96 449.67l4.64 14.26h-9.27z" stroke="#3a414a" fill="#3a414a"/><path d="M1057.44 89.36c0 6.82-30.76 12.35-68.72 12.35-37.95 0-68.72-5.52-68.72-12.34V-9.36c0-6.82 30.77-12.35 68.72-12.35 37.96 0 68.72 5.52 68.72 12.33z" stroke="#82755b" stroke-width="2" fill="#f1f3f7"/><path d="M1057.44-9.37c0 6.82-30.76 12.35-68.72 12.35C950.77 2.98 920-2.55 920-9.37" stroke="#82755b" stroke-width="2" fill="none"/><use xlink:href="#p" transform="matrix(1,0,0,1,925,7.97607421875) translate(38.8095703125 22.15625)"/><use xlink:href="#q" transform="matrix(1,0,0,1,925,7.97607421875) translate(3.4802517361111143 53.34809027777778)"/><use xlink:href="#r" transform="matrix(1,0,0,1,925,7.97607421875) translate(46.568359375 53.34809027777778)"/><use xlink:href="#s" transform="matrix(1,0,0,1,925,7.97607421875) translate(18.648554687499995 83.4609375)"/><path d="M1201.87 259.38V87.44a6 6 0 0 0-6-6h-96.84a.6.6 0 0 0-.6.58.6.6 0 0 1-.58.6h-23.02" stroke="#3a414a" fill="none"/><path d="M1202.34 259.97l-.95-.17v-.43h.94z" stroke="#3a414a" stroke-width=".05" fill="#3a414a"/><path d="M1060.06 82.6l14.27-4.62v9.27z" stroke="#3a414a" fill="#3a414a"/><path d="M918.5 80.97h-85.84a6 6 0 0 0-6 6V253.3" stroke="#3a414a" fill="none"/><path d="M919 81.45h-.5v-.95h.5z" stroke="#3a414a" stroke-width=".05" fill="#3a414a"/><path d="M826.66 268.07l-4.63-14.27h9.27z" stroke="#3a414a" fill="#3a414a"/><path d="M808.75 262.28V75.5a6 6 0 0 1 6-6h87.87" stroke="#3a414a" fill="none"/><path d="M809.23 262.9l-.95-.26v-.38h.95z" stroke="#3a414a" stroke-width=".05" fill="#3a414a"/><path d="M917.38 69.5l-14.26 4.64v-9.27z" stroke="#3a414a" fill="#3a414a"/><path d="M918.5 60.33H665.75a6 6 0 0 0-6 6v176.3" stroke="#3a414a" fill="none"/><path d="M919 60.8h-.5v-.94h.5z" stroke="#3a414a" stroke-width=".05" fill="#3a414a"/><path d="M659.75 257.4l-4.64-14.26h9.28z" stroke="#3a414a" fill="#3a414a"/><path d="M1380 331a6 6 0 0 1 6-6h73.1a6 6 0 0 1 6 6v48a6 6 0 0 1-6 6H1386a6 6 0 0 1-6-6z" fill="none"/><use xlink:href="#t" transform="matrix(1,0,0,1,1380,325) translate(7.078776041666671 38.083767361111114)"/><path d="M1365.98 394.5h-35.4a6 6 0 0 1-6-6v-7.34a6 6 0 0 0-6-6h-19.54" stroke="#3a414a" fill="none"/><path d="M1366.68 395h-.7v-.96h.3z" stroke="#3a414a" stroke-width=".05" fill="#3a414a"/><path d="M1284.27 375.16l14.27-4.64v9.27z" stroke="#3a414a" fill="#3a414a"/><path d="M1558.68 331a6 6 0 0 1 6-6h91.88a6 6 0 0 1 6 6v48a6 6 0 0 1-6 6h-91.88a6 6 0 0 1-6-6z" fill="none"/><use xlink:href="#u" transform="matrix(1,0,0,1,1558.6764769766276,325) translate(5.038194444444443 38.083767361111114)"/><path d="M1608.3 385.5v8.15a6 6 0 0 1-6 6h-17.04" stroke="#3a414a" fill="none"/><path d="M1608.78 385.5h-.95v-.5h.95z" stroke="#3a414a" stroke-width=".05" fill="#3a414a"/><path d="M1570.5 399.65l14.26-4.64v9.28z" stroke="#3a414a" fill="#3a414a"/><path d="M1465 384.82a6 6 0 0 1 6-6h91.88a6 6 0 0 1 6 6V415a6 6 0 0 1-6 6H1471a6 6 0 0 1-6-6z" fill="none"/><use xlink:href="#v" transform="matrix(1,0,0,1,1465,378.82316114745043) translate(11.532335069444443 29.58376736111111)"/><path d="M1449.84 259.82a6 6 0 0 1 6-6h125.67a6 6 0 0 1 6 6v33.1a6 6 0 0 1-6 6h-125.66a6 6 0 0 1-6-6z" stroke="#000" stroke-opacity="0" stroke-width="2" fill-opacity="0"/><use xlink:href="#w" transform="matrix(1,0,0,1,1454.842948116857,258.82316114745043) translate(6.519531250000007 28.083333333333336)"/><path d="M1284.37 359.5H1341.96" stroke="#3a414a" fill="none"/><path d="M1284.38 359.97h-.53l.02-.47v-.48h.5z" stroke="#3a414a" stroke-width=".05" fill="#3a414a"/><path d="M1356.72 359.5l-14.26 4.63v-9.27z" stroke="#3a414a" fill="#3a414a"/><path d="M1465.6 357.3H1542.3" stroke="#3a414a" fill="none"/><path d="M1465.62 357.78h-.5v-.95h.5z" stroke="#3a414a" stroke-width=".05" fill="#3a414a"/><path d="M1557.06 357.3l-14.27 4.64v-9.27z" stroke="#3a414a" fill="#3a414a"/><path d="M883.34 360.5h38.1a.5.5 0 0 0 .5-.5.5.5 0 0 1 .5-.5h22.22" stroke="#3a414a" fill="none"/><path d="M883.36 360.98h-.53v-.94h.52z" stroke="#3a414a" stroke-width=".05" fill="#3a414a"/><path d="M959.43 359.5l-14.27 4.63v-9.27z" stroke="#3a414a" fill="#3a414a"/><path d="M1464.5 400h-68.12" stroke="#3a414a" fill="none"/><path d="M1465 400.48h-.5v-.96h.5z" stroke="#3a414a" stroke-width=".05" fill="#3a414a"/><path d="M1381.62 400l14.26-4.63v9.26z" stroke="#3a414a" fill="#3a414a"/><path d="M851.4 706a6 6 0 0 1 6-6h130.55a6 6 0 0 1 6 6v78a6 6 0 0 1-6 6H857.4a6 6 0 0 1-6-6z" fill="none"/><use xlink:href="#x" transform="matrix(1,0,0,1,851.3890844153262,700) translate(8.414062500000007 21.52777777777778)"/><use xlink:href="#y" transform="matrix(1,0,0,1,851.3890844153262,700) translate(29.80620659722222 53.79340277777778)"/><use xlink:href="#z" transform="matrix(1,0,0,1,851.3890844153262,700) translate(32.82269965277778 86.05902777777777)"/><path d="M320.4 461.5V734a6 6 0 0 0 6 6h418.77" stroke="#3a414a" fill="none"/><path d="M320.88 461.5h-.95v-.5h.95z" stroke="#3a414a" stroke-width=".05" fill="#3a414a"/><path d="M759.94 740l-14.27 4.63v-9.26z" stroke="#3a414a" fill="#3a414a"/><path d="M1084.06 740h627.06a6 6 0 0 0 6-6V360.32a6 6 0 0 0-6-6h-13.74" stroke="#3a414a" fill="none"/><path d="M1084.07 740.48h-.53l.02-.48-.02-.48h.53z" stroke="#3a414a" stroke-width=".05" fill="#3a414a"/><path d="M1682.62 354.32l14.26-4.63v9.26z" stroke="#3a414a" fill="#3a414a"/><path d="M151.4 666a6 6 0 0 1 6-6h140.64a6 6 0 0 1 6 6v30.28a6 6 0 0 1-6 6H157.4a6 6 0 0 1-6-6z" fill="none"/><g><use xlink:href="#A" transform="matrix(1,0,0,1,156.40884548611098,665.0000000000001) translate(0 26.200520833333336)"/></g><path d="M151.4-24a6 6 0 0 1 6-6h112.37a6 6 0 0 1 6 6V6.28a6 6 0 0 1-6 6H157.4a6 6 0 0 1-6-6z" fill="none"/><g><use xlink:href="#B" transform="matrix(1,0,0,1,156.40884548611098,-25) translate(0 26.200520833333336)"/></g><path d="M1058.94 20.9h353.9a6 6 0 0 1 6 6v218.12" stroke="#3a414a" fill="none"/><path d="M1058.96 21.38h-.52v-.95h.52z" stroke="#3a414a" stroke-width=".05" fill="#3a414a"/><path d="M1418.84 259.78l-4.63-14.26h9.28z" stroke="#3a414a" fill="#3a414a"/><defs><path d="M180 0v-1490h224l606 953c40 63 108 177 176 312-27-437-7-821-13-1265h190V0h-226C860-448 622-778 356-1262c27 476 11 792 15 1262H180" id="C"/><path d="M611 442c-248 0-391-105-460-228l146-94c47 65 117 165 314 165 178 0 307-82 307-266v-224h-17C863-141 792-18 576-18c-268 0-472-195-472-546 0-346 197-568 476-568 216 0 288 133 326 193h17v-179h175V29c0 289-215 413-487 413zm-5-620c203 0 314-146 314-390 0-237-108-403-314-403-213 0-319 180-319 403 0 230 109 390 319 390" id="D"/><path d="M158 0v-1118h174v172h12c41-113 157-188 290-188 26 0 70 2 91 3v181c-11-2-60-10-108-10-161 0-279 109-279 260V0H158" id="E"/><path d="M613 24c-304 0-509-231-509-576 0-350 205-580 509-580 305 0 511 230 511 580 0 345-206 576-511 576zm0-161c226 0 329-195 329-415 0-222-103-419-329-419-223 0-326 196-326 419 0 220 103 415 326 415" id="F"/><path d="M158 0v-1490h180v865h22l478-493h223L593-638 1096 0H865L456-523 338-412V0H158" id="G"/><g id="a"><use transform="matrix(0.010850694444444444,0,0,0.010850694444444444,0,0)" xlink:href="#C"/><use transform="matrix(0.010850694444444444,0,0,0.010850694444444444,16.74262152777778,0)" xlink:href="#D"/><use transform="matrix(0.010850694444444444,0,0,0.010850694444444444,30.37109375,0)" xlink:href="#E"/><use transform="matrix(0.010850694444444444,0,0,0.010850694444444444,38.36805555555556,0)" xlink:href="#F"/><use transform="matrix(0.010850694444444444,0,0,0.010850694444444444,51.69270833333333,0)" xlink:href="#G"/></g><path d="M600 0L52-1490h200c166 485 304 806 458 1336 156-533 285-846 449-1336h202L819 0H600" id="H"/><path d="M158 0v-1118h180V0H158zm91-1301c-68 0-125-53-125-119s57-119 125-119c69 0 126 53 126 119s-57 119-126 119" id="I"/><path d="M598-1118v154H368v674c0 100 37 144 132 144 23 0 62-6 92-12L629-6c-37 13-88 20-134 20-193 0-307-107-307-290v-688H20v-154h168v-266h180v266h230" id="J"/><path d="M628 24c-324 0-524-230-524-574 0-343 198-582 503-582 237 0 487 146 487 559v75H286c9 234 145 362 343 362 132 0 231-58 273-172l174 48C1024-91 857 24 628 24zM287-650h624c-17-190-120-322-304-322-192 0-309 151-320 322" id="K"/><g id="b"><use transform="matrix(0.010850694444444444,0,0,0.010850694444444444,0,0)" xlink:href="#H"/><use transform="matrix(0.010850694444444444,0,0,0.010850694444444444,15.33203125,0)" xlink:href="#I"/><use transform="matrix(0.010850694444444444,0,0,0.010850694444444444,20.713975694444443,0)" xlink:href="#J"/><use transform="matrix(0.010850694444444444,0,0,0.010850694444444444,27.766927083333332,0)" xlink:href="#K"/></g><path d="M180 0v-1490h510c348 0 508 194 508 460 0 198-88 351-276 417L1256 0h-220L726-579c-117 2-238 0-356 1V0H180zm190-747h312c235 0 327-108 327-283 0-177-92-293-329-293H370v576" id="L"/><path d="M471 26C259 26 90-98 90-318c0-256 228-303 435-329 202-27 287-16 287-108 0-139-79-219-234-219-161 0-248 86-283 164l-173-57c86-203 278-265 451-265 150 0 419 46 419 395V0H815v-152h-12C765-73 660 26 471 26zm31-159c199 0 310-134 310-271v-155c-30 35-226 55-295 64-131 17-246 59-246 186 0 116 97 176 231 176" id="M"/><path d="M613 24c-304 0-509-231-509-576 0-350 205-580 509-580 216 0 392 114 453 309l-173 49c-33-115-133-197-280-197-223 0-326 196-326 419 0 220 103 415 326 415 150 0 252-85 285-206l172 49C1010-95 832 24 613 24" id="N"/><g id="c"><use transform="matrix(0.010850694444444444,0,0,0.010850694444444444,0,0)" xlink:href="#L"/><use transform="matrix(0.010850694444444444,0,0,0.010850694444444444,13.975694444444445,0)" xlink:href="#K"/><use transform="matrix(0.010850694444444444,0,0,0.010850694444444444,27.1484375,0)" xlink:href="#M"/><use transform="matrix(0.010850694444444444,0,0,0.010850694444444444,39.626736111111114,0)" xlink:href="#N"/><use transform="matrix(0.010850694444444444,0,0,0.010850694444444444,52.32204861111112,0)" xlink:href="#J"/></g><path d="M338-670V0H158v-1118h173l1 207c72-158 192-221 342-221 226 0 378 139 378 422V0H872v-695c0-172-96-275-252-275-161 0-282 109-282 300" id="O"/><path d="M57 0l534-763-501-727h220c122 187 296 416 391 605 94-191 272-419 396-605h215L811-770 1340 0h-219C986-204 811-426 699-640 588-430 407-202 273 0H57" id="P"/><g id="d"><use transform="matrix(0.010850694444444444,0,0,0.010850694444444444,0,0)" xlink:href="#C"/><use transform="matrix(0.010850694444444444,0,0,0.010850694444444444,16.74262152777778,0)" xlink:href="#D"/><use transform="matrix(0.010850694444444444,0,0,0.010850694444444444,30.37109375,0)" xlink:href="#I"/><use transform="matrix(0.010850694444444444,0,0,0.010850694444444444,35.75303819444444,0)" xlink:href="#O"/><use transform="matrix(0.010850694444444444,0,0,0.010850694444444444,48.88237847222222,0)" xlink:href="#P"/></g><path d="M783 20c-382 0-661-292-661-764 0-473 279-766 661-766 302 0 548 182 601 489h-190c-42-204-217-313-411-313-268 0-476 208-476 590 0 381 209 588 476 588 195 0 369-110 411-313h190c-52 303-296 489-601 489" id="Q"/><path d="M338-670V0H158v-1490h180v566c73-149 190-208 336-208 226 0 379 139 379 422V0H872v-695c0-172-96-275-252-275-161 0-282 109-282 300" id="R"/><g id="e"><use transform="matrix(0.010850694444444444,0,0,0.010850694444444444,0,0)" xlink:href="#Q"/><use transform="matrix(0.010850694444444444,0,0,0.010850694444444444,16.23263888888889,0)" xlink:href="#R"/><use transform="matrix(0.010850694444444444,0,0,0.010850694444444444,29.37282986111111,0)" xlink:href="#M"/><use transform="matrix(0.010850694444444444,0,0,0.010850694444444444,41.85112847222222,0)" xlink:href="#J"/></g><path d="M52 0l541-1490h220L1361 0h-200l-149-416H398L254 0H52zm404-582h497c-103-290-145-390-251-756-108 377-145 460-246 756" id="S"/><path d="M180 0v-1490h510c348 0 508 209 508 474 0 266-160 477-507 477H370V0H180zm190-706h312c236 0 327-133 327-310 0-176-91-307-329-307H370v617" id="T"/><path d="M370-1490V0H180v-1490h190" id="U"/><g id="f"><use transform="matrix(0.010850694444444444,0,0,0.010850694444444444,0,0)" xlink:href="#S"/><use transform="matrix(0.010850694444444444,0,0,0.010850694444444444,15.33203125,0)" xlink:href="#T"/><use transform="matrix(0.010850694444444444,0,0,0.010850694444444444,29.524739583333332,0)" xlink:href="#U"/></g><path d="M458 0L52-1490h194c108 439 233 855 324 1313 92-459 221-873 331-1313h216c110 438 234 854 330 1307 92-455 216-869 323-1307h196L1558 0h-221l-256-944c-26-95-50-200-73-331-22 122-44 223-73 331L680 0H458" id="V"/><g id="g"><use transform="matrix(0.010850694444444444,0,0,0.010850694444444444,0,0)" xlink:href="#V"/><use transform="matrix(0.010850694444444444,0,0,0.010850694444444444,20.768229166666668,0)" xlink:href="#F"/><use transform="matrix(0.010850694444444444,0,0,0.010850694444444444,34.09288194444444,0)" xlink:href="#E"/><use transform="matrix(0.010850694444444444,0,0,0.010850694444444444,42.80598958333333,0)" xlink:href="#G"/><use transform="matrix(0.010850694444444444,0,0,0.010850694444444444,54.50303819444444,0)" xlink:href="#K"/><use transform="matrix(0.010850694444444444,0,0,0.010850694444444444,67.45876736111111,0)" xlink:href="#E"/></g><path d="M180 0v-1490h190c0 262 1 526-3 784 217-279 467-523 702-784h249L716-845 1319 0h-225L585-716 370-489V0H180" id="W"/><path d="M678-1118v154H420V0H240v-964H20v-154h220v-149c0-194 155-293 318-293 85 0 141 18 168 30l-50 154c-19-6-47-17-97-17-111 0-159 58-159 166v109h258" id="X"/><g id="h"><use transform="matrix(0.010850694444444444,0,0,0.010850694444444444,0,0)" xlink:href="#W"/><use transform="matrix(0.010850694444444444,0,0,0.010850694444444444,14.930555555555555,0)" xlink:href="#M"/><use transform="matrix(0.010850694444444444,0,0,0.010850694444444444,27.408854166666664,0)" xlink:href="#X"/><use transform="matrix(0.010850694444444444,0,0,0.010850694444444444,35.63368055555556,0)" xlink:href="#G"/><use transform="matrix(0.010850694444444444,0,0,0.010850694444444444,47.82986111111111,0)" xlink:href="#M"/></g><path d="M180 0v-1490h901v168H370v510h643v168H370V0H180" id="Y"/><path d="M180 0v-1490h528c311 0 458 177 458 395 0 191-114 278-244 313v14c139 9 302 137 302 371 0 225-148 397-499 397H180zm190-168h350c232 0 321-102 321-231 0-149-120-277-311-277H370v508zm0-668h328c160 0 286-101 286-255 0-129-87-231-280-231H370v486" id="Z"/><path d="M538 24C308 24 148-78 108-271l171-41c32 123 123 178 257 178 156 0 256-77 256-169 0-77-54-128-164-154l-186-44c-203-48-300-148-300-305 0-192 176-326 414-326 230 0 351 112 402 269l-163 42c-31-80-94-158-238-158-133 0-233 69-233 162 0 83 57 129 188 160l169 40c203 48 298 149 298 302 0 196-179 339-441 339" id="aa"/><g id="i"><use transform="matrix(0.010850694444444444,0,0,0.010850694444444444,0,0)" xlink:href="#Y"/><use transform="matrix(0.010850694444444444,0,0,0.010850694444444444,13.118489583333332,0)" xlink:href="#I"/><use transform="matrix(0.010850694444444444,0,0,0.010850694444444444,18.50043402777778,0)" xlink:href="#E"/><use transform="matrix(0.010850694444444444,0,0,0.010850694444444444,26.497395833333336,0)" xlink:href="#K"/><use transform="matrix(0.010850694444444444,0,0,0.010850694444444444,39.453125,0)" xlink:href="#Z"/><use transform="matrix(0.010850694444444444,0,0,0.010850694444444444,53.99305555555556,0)" xlink:href="#M"/><use transform="matrix(0.010850694444444444,0,0,0.010850694444444444,66.47135416666667,0)" xlink:href="#aa"/><use transform="matrix(0.010850694444444444,0,0,0.010850694444444444,78.20095486111111,0)" xlink:href="#K"/></g><path d="M537 14c-226 0-379-139-379-422v-710h180v695c0 172 97 275 253 275 160 0 281-109 281-300v-670h181V0H879v-209C806-46 684 14 537 14" id="ab"/><g id="j"><use transform="matrix(0.010850694444444444,0,0,0.010850694444444444,0,0)" xlink:href="#S"/><use transform="matrix(0.010850694444444444,0,0,0.010850694444444444,15.33203125,0)" xlink:href="#ab"/><use transform="matrix(0.010850694444444444,0,0,0.010850694444444444,28.47222222222222,0)" xlink:href="#J"/><use transform="matrix(0.010850694444444444,0,0,0.010850694444444444,35.7421875,0)" xlink:href="#R"/></g><path d="M786 20C389 20 94-260 94-744c0-487 299-766 692-766 339 0 597 194 641 529h-309c-28-162-156-258-326-258-233 0-388 179-388 495 0 323 157 493 387 493 170 0 298-97 328-259h309c-34 277-266 530-642 530" id="ac"/><path d="M428-647V0H128v-1490h294v586c65-146 175-228 341-228 232 0 385 159 385 421V0H847v-659c0-139-76-222-202-222-128 0-217 86-217 234" id="ad"/><path d="M440 22C227 22 68-92 68-313c0-250 202-322 422-343 195-21 271-24 271-105 0-95-63-149-175-149-116 0-187 57-211 129l-275-46c57-194 237-305 487-305 240 0 474 108 474 379V0H777v-155h-10C713-51 605 22 440 22zm85-211c140 0 238-93 238-211v-121c-37 26-156 42-222 51-111 16-185 59-185 149 0 87 70 132 169 132" id="ae"/><path d="M683-1118v229H474v562c0 71 29 104 102 104 23 0 73-7 95-13l43 225C647 9 580 16 520 16 296 16 174-96 174-301v-588H20v-229h154v-266h300v266h209" id="af"/><g id="k"><use transform="matrix(0.013020833333333334,0,0,0.013020833333333334,0,0)" xlink:href="#ac"/><use transform="matrix(0.013020833333333334,0,0,0.013020833333333334,19.7265625,0)" xlink:href="#ad"/><use transform="matrix(0.013020833333333334,0,0,0.013020833333333334,36.328125,0)" xlink:href="#ae"/><use transform="matrix(0.013020833333333334,0,0,0.013020833333333334,51.809895833333336,0)" xlink:href="#af"/></g><path d="M135 0v-1490h980v253H440v416h609v249H440V0H135" id="ag"/><path d="M128 0v-1118h290v195h12c54-169 184-238 367-200v268c-27-8-86-15-130-15-138 0-239 95-239 234V0H128" id="ah"/><path d="M628 22C291 22 81-210 81-554c0-346 210-578 547-578 336 0 547 232 547 578 0 344-211 576-547 576zm0-236c160 0 242-146 242-341 0-197-82-341-242-341S387-753 387-555c0 195 81 341 241 341" id="ai"/><path d="M428-647V0H128v-1118h283l4 231c63-156 176-245 348-245 232 0 384 159 384 421V0H847v-659c0-139-76-222-202-222-128 0-217 86-217 234" id="aj"/><g id="l"><use transform="matrix(0.013020833333333334,0,0,0.013020833333333334,0,0)" xlink:href="#ag"/><use transform="matrix(0.013020833333333334,0,0,0.013020833333333334,15.130208333333334,0)" xlink:href="#ah"/><use transform="matrix(0.013020833333333334,0,0,0.013020833333333334,25.338541666666668,0)" xlink:href="#ai"/><use transform="matrix(0.013020833333333334,0,0,0.013020833333333334,41.692708333333336,0)" xlink:href="#aj"/><use transform="matrix(0.013020833333333334,0,0,0.013020833333333334,58.294270833333336,0)" xlink:href="#af"/></g><path d="M657 26c-323 0-524-166-541-416h195c15 169 171 246 346 246 202 0 356-106 356-265 5-203-294-238-475-293-239-73-380-191-380-389 0-252 224-419 512-419 294 0 499 171 508 396H992c-17-145-151-228-328-228-193 0-321 102-321 242 0 156 175 211 284 241l149 41c160 44 422 134 422 412 0 244-197 432-541 432" id="ak"/><g id="m"><use transform="matrix(0.010850694444444444,0,0,0.010850694444444444,0,0)" xlink:href="#ak"/><use transform="matrix(0.010850694444444444,0,0,0.010850694444444444,14.2578125,0)" xlink:href="#K"/><use transform="matrix(0.010850694444444444,0,0,0.010850694444444444,27.43055555555556,0)" xlink:href="#M"/><use transform="matrix(0.010850694444444444,0,0,0.010850694444444444,39.90885416666667,0)" xlink:href="#E"/><use transform="matrix(0.010850694444444444,0,0,0.010850694444444444,47.90581597222222,0)" xlink:href="#N"/><use transform="matrix(0.010850694444444444,0,0,0.010850694444444444,60.60112847222222,0)" xlink:href="#R"/></g><path d="M681 22C323 22 94-145 85-462h297c10 151 131 226 296 226 163 0 271-77 271-190 0-102-95-149-257-189l-164-41c-252-61-403-188-403-405 0-269 236-449 560-449 330 0 546 183 551 445H941c-11-119-106-188-259-188-156 0-244 72-244 172-3 156 226 185 373 221 250 61 445 186 445 436 0 271-213 446-575 446" id="al"/><path d="M633 22C291 22 81-200 81-553c0-345 210-579 537-579 292 0 525 185 525 567v84H378c7 183 109 277 260 277 105 0 184-46 216-132l272 51C1071-99 893 22 633 22zM380-669h474c-15-146-94-237-233-237-143 0-229 99-241 237" id="am"/><path d="M628 22C291 22 81-210 81-554c0-346 210-578 547-578 265 0 455 142 497 372l-279 52c-25-116-99-188-215-188-160 0-244 139-244 341 0 200 84 341 244 341 116 0 193-74 217-195l279 51C1085-123 896 22 628 22" id="an"/><g id="n"><use transform="matrix(0.013020833333333334,0,0,0.013020833333333334,0,0)" xlink:href="#al"/><use transform="matrix(0.013020833333333334,0,0,0.013020833333333334,17.4609375,0)" xlink:href="#am"/><use transform="matrix(0.013020833333333334,0,0,0.013020833333333334,33.606770833333336,0)" xlink:href="#ae"/><use transform="matrix(0.013020833333333334,0,0,0.013020833333333334,49.08854166666667,0)" xlink:href="#ah"/><use transform="matrix(0.013020833333333334,0,0,0.013020833333333334,59.296875,0)" xlink:href="#an"/><use transform="matrix(0.013020833333333334,0,0,0.013020833333333334,74.98697916666667,0)" xlink:href="#ad"/></g><path d="M789 20C394 20 94-260 94-744c0-487 300-766 695-766s695 279 695 766c0 485-300 764-695 764zm0-271c231 0 385-174 385-493 0-321-154-495-385-495s-385 175-385 495c0 319 154 493 385 493" id="ao"/><path d="M428-1490V0H128v-1490h300" id="ap"/><path d="M128 0v-1118h278l12 217c60-163 185-234 319-234 143 0 236 81 288 251 63-172 205-251 359-251 205 0 357 138 357 381V0h-301v-697c0-126-76-187-177-187-114 0-184 79-184 196V0H789v-705c0-109-72-179-174-179-106 0-187 74-187 208V0H128" id="aq"/><g id="o"><use transform="matrix(0.010850694444444444,0,0,0.010850694444444444,0,0)" xlink:href="#ao"/><use transform="matrix(0.010850694444444444,0,0,0.010850694444444444,17.122395833333332,0)" xlink:href="#ap"/><use transform="matrix(0.010850694444444444,0,0,0.010850694444444444,23.14453125,0)" xlink:href="#ap"/><use transform="matrix(0.010850694444444444,0,0,0.010850694444444444,29.166666666666664,0)" xlink:href="#ae"/><use transform="matrix(0.010850694444444444,0,0,0.010850694444444444,42.06814236111111,0)" xlink:href="#aq"/><use transform="matrix(0.010850694444444444,0,0,0.010850694444444444,62.34809027777778,0)" xlink:href="#ae"/></g><path d="M858-1560L84 224H-82l774-1784h166" id="ar"/><path d="M492 24C248 24 94-147 94-425c0-352 212-707 569-707 222 0 274 136 303 198h12l92-556h181L1004 0H829l30-173h-19C792-103 700 24 492 24zm32-161c268 0 407-295 407-549 0-175-80-285-247-285-266 0-408 283-408 536 0 174 79 298 248 298" id="as"/><path d="M481 24C202 24 45-202 104-557s293-575 571-575c216 0 263 132 291 193h15l29-179h181L1006 0H831l28-173h-21C788-107 693 24 481 24zm56-161c204 0 342-174 383-422s-41-412-245-412c-215 0-350 183-388 412-39 235 39 422 250 422" id="at"/><path d="M691-1118l-25 154H437L325-290c-17 103 16 144 108 144 23 0 63-6 94-12L538-6c-36 12-87 20-136 20-196 0-290-109-260-290l114-688H88l25-154h169l44-266h180l-44 266h229" id="au"/><g id="p"><use transform="matrix(0.009765625,0,0,0.009765625,0,0)" xlink:href="#ar"/><use transform="matrix(0.009765625,0,0,0.009765625,7.20703125,0)" xlink:href="#as"/><use transform="matrix(0.009765625,0,0,0.009765625,19.462890625,0)" xlink:href="#at"/><use transform="matrix(0.009765625,0,0,0.009765625,31.73828125,0)" xlink:href="#au"/><use transform="matrix(0.009765625,0,0,0.009765625,38.10546875,0)" xlink:href="#at"/></g><path d="M338-1490V0H158v-1490h180" id="av"/><g id="q"><use transform="matrix(0.010850694444444444,0,0,0.010850694444444444,0,0)" xlink:href="#Y"/><use transform="matrix(0.010850694444444444,0,0,0.010850694444444444,13.118489583333332,0)" xlink:href="#I"/><use transform="matrix(0.010850694444444444,0,0,0.010850694444444444,18.50043402777778,0)" xlink:href="#av"/><use transform="matrix(0.010850694444444444,0,0,0.010850694444444444,23.88237847222222,0)" xlink:href="#K"/></g><path d="M140 405l46-156c120 36 205 19 263-150l32-93L54-1118h197c107 313 237 620 324 950 87-331 219-637 326-950h196L606 167c-68 178-176 259-334 259-64 0-113-12-132-21" id="aw"/><path d="M158 0v-1118h175l1 205c55-151 181-225 313-225 147 0 245 90 285 228 53-141 190-228 352-228 194 0 352 125 352 384V0h-181v-749c0-161-105-225-225-225-151 0-243 103-243 244V0H807v-767c0-124-93-207-219-207-131 0-250 92-250 270V0H158" id="ax"/><g id="r"><use transform="matrix(0.010850694444444444,0,0,0.010850694444444444,0,0)" xlink:href="#ak"/><use transform="matrix(0.010850694444444444,0,0,0.010850694444444444,14.2578125,0)" xlink:href="#aw"/><use transform="matrix(0.010850694444444444,0,0,0.010850694444444444,26.74696180555556,0)" xlink:href="#aa"/><use transform="matrix(0.010850694444444444,0,0,0.010850694444444444,38.4765625,0)" xlink:href="#J"/><use transform="matrix(0.010850694444444444,0,0,0.010850694444444444,45.5295138888889,0)" xlink:href="#K"/><use transform="matrix(0.010850694444444444,0,0,0.010850694444444444,58.48524305555555,0)" xlink:href="#ax"/></g><path d="M443 14C219 14 87-123 134-408l117-710h180L317-423c-28 171 49 275 206 275s300-105 332-300l110-670h181L961 0H787l35-209C722-47 590 14 443 14" id="ay"/><path d="M451 24C217 22 71-78 61-277l174-29c11 123 90 172 219 172 161 0 280-83 297-181 11-71-30-117-135-143l-179-44c-195-48-280-153-253-316 31-186 223-314 455-314 233 4 337 107 366 275l-165 30c-18-80-65-152-204-152-138 0-256 75-272 174-13 77 32 118 158 149l162 40c195 48 278 154 252 313C904-113 708 24 451 24" id="az"/><path d="M535 24C259 24 94-144 94-427c0-392 272-715 610-715 216 0 356 119 356 305 0 244-237 344-790 350-18 199 49 349 276 352 142 0 260-66 317-173l167 47C947-85 756 24 535 24zM294-623c447-4 586-57 586-218 0-85-78-141-194-141-220 0-342 177-392 359" id="aA"/><path d="M66 0l185-1118h174l-28 172h12c78-136 219-209 411-185l-30 181c-211-47-398 67-428 250L246 0H66" id="aB"/><path d="M66 0l185-1118h180L246 0H66zm307-1301c-71 0-117-55-106-119s74-119 145-119c65 0 117 50 106 118s-78 120-145 120" id="aC"/><g id="s"><use transform="matrix(0.009765625,0,0,0.009765625,0,0)" xlink:href="#ar"/><use transform="matrix(0.009765625,0,0,0.009765625,7.20703125,0)" xlink:href="#ay"/><use transform="matrix(0.009765625,0,0,0.009765625,19.04296875,0)" xlink:href="#az"/><use transform="matrix(0.009765625,0,0,0.009765625,29.58984375,0)" xlink:href="#aA"/><use transform="matrix(0.009765625,0,0,0.009765625,41.103515625,0)" xlink:href="#aB"/><use transform="matrix(0.009765625,0,0,0.009765625,48.642578125,0)" xlink:href="#az"/><use transform="matrix(0.009765625,0,0,0.009765625,59.189453125,0)" xlink:href="#ar"/><use transform="matrix(0.009765625,0,0,0.009765625,66.396484375,0)" xlink:href="#aC"/><use transform="matrix(0.009765625,0,0,0.009765625,71.25,0)" xlink:href="#as"/><use transform="matrix(0.009765625,0,0,0.009765625,83.505859375,0)" xlink:href="#ar"/></g><path d="M784 20c-382 0-662-292-662-764 0-473 280-766 662-766s660 293 660 766c0 282-99 499-260 629l192 255h-198L1049-33C969 2 880 20 784 20zm-62-486h198l156 205c112-98 183-261 183-483 0-383-209-590-475-590-268 0-477 208-477 590 0 380 209 588 477 588 54 0 106-9 154-25" id="aD"/><path d="M577 24c-279 0-473-224-473-580 0-354 195-576 474-576 218 0 287 134 324 193h14v-551h180V0H922v-173h-20C865-111 790 24 577 24zm27-161c203 0 314-172 314-421 0-247-108-413-314-413-212 0-317 181-317 413 0 235 108 421 317 421" id="aE"/><g id="t"><use transform="matrix(0.010850694444444444,0,0,0.010850694444444444,0,0)" xlink:href="#aD"/><use transform="matrix(0.010850694444444444,0,0,0.010850694444444444,16.9921875,0)" xlink:href="#aE"/><use transform="matrix(0.010850694444444444,0,0,0.010850694444444444,30.598958333333332,0)" xlink:href="#E"/><use transform="matrix(0.010850694444444444,0,0,0.010850694444444444,38.96484375,0)" xlink:href="#M"/><use transform="matrix(0.010850694444444444,0,0,0.010850694444444444,51.44314236111112,0)" xlink:href="#O"/><use transform="matrix(0.010850694444444444,0,0,0.010850694444444444,64.57248263888889,0)" xlink:href="#J"/></g><g id="u"><use transform="matrix(0.010850694444444444,0,0,0.010850694444444444,0,0)" xlink:href="#L"/><use transform="matrix(0.010850694444444444,0,0,0.010850694444444444,13.975694444444445,0)" xlink:href="#K"/><use transform="matrix(0.010850694444444444,0,0,0.010850694444444444,26.931423611111104,0)" xlink:href="#E"/><use transform="matrix(0.010850694444444444,0,0,0.010850694444444444,35.29730902777777,0)" xlink:href="#M"/><use transform="matrix(0.010850694444444444,0,0,0.010850694444444444,47.775607638888886,0)" xlink:href="#O"/><use transform="matrix(0.010850694444444444,0,0,0.010850694444444444,60.904947916666664,0)" xlink:href="#G"/><use transform="matrix(0.010850694444444444,0,0,0.010850694444444444,72.60199652777777,0)" xlink:href="#K"/><use transform="matrix(0.010850694444444444,0,0,0.010850694444444444,85.55772569444444,0)" xlink:href="#E"/></g><g id="v"><use transform="matrix(0.010850694444444444,0,0,0.010850694444444444,0,0)" xlink:href="#Z"/><use transform="matrix(0.010850694444444444,0,0,0.010850694444444444,14.539930555555555,0)" xlink:href="#av"/><use transform="matrix(0.010850694444444444,0,0,0.010850694444444444,19.921875,0)" xlink:href="#K"/><use transform="matrix(0.010850694444444444,0,0,0.010850694444444444,32.877604166666664,0)" xlink:href="#O"/><use transform="matrix(0.010850694444444444,0,0,0.010850694444444444,46.00694444444444,0)" xlink:href="#aE"/><use transform="matrix(0.010850694444444444,0,0,0.010850694444444444,59.61371527777778,0)" xlink:href="#K"/><use transform="matrix(0.010850694444444444,0,0,0.010850694444444444,72.56944444444444,0)" xlink:href="#E"/></g><path d="M135 0v-1490h581c339 0 533 192 533 485 0 204-94 351-264 424L1302 0H964L680-532H440V0H135zm305-779h220c186 0 274-77 274-226 0-150-88-233-275-233H440v459" id="aF"/><path d="M128 0v-1118h300V0H128zm150-1264c-91 0-165-68-165-154 0-85 74-154 165-154 90 0 165 69 165 154 0 86-75 154-165 154" id="aG"/><path d="M443 0L31-1118h319c90 293 199 572 268 885 66-313 175-593 264-885h315L784 0H443" id="aH"/><g id="w"><use transform="matrix(0.013020833333333334,0,0,0.013020833333333334,0,0)" xlink:href="#aF"/><use transform="matrix(0.013020833333333334,0,0,0.013020833333333334,17.187500000000004,0)" xlink:href="#am"/><use transform="matrix(0.013020833333333334,0,0,0.013020833333333334,33.07291666666667,0)" xlink:href="#af"/><use transform="matrix(0.013020833333333334,0,0,0.013020833333333334,42.83854166666667,0)" xlink:href="#ah"/><use transform="matrix(0.013020833333333334,0,0,0.013020833333333334,53.89322916666667,0)" xlink:href="#aG"/><use transform="matrix(0.013020833333333334,0,0,0.013020833333333334,61.11979166666667,0)" xlink:href="#am"/><use transform="matrix(0.013020833333333334,0,0,0.013020833333333334,76.5234375,0)" xlink:href="#aH"/><use transform="matrix(0.013020833333333334,0,0,0.013020833333333334,92.25260416666666,0)" xlink:href="#ae"/><use transform="matrix(0.013020833333333334,0,0,0.013020833333333334,107.73437499999999,0)" xlink:href="#ap"/></g><g id="x"><use transform="matrix(0.010850694444444444,0,0,0.010850694444444444,0,0)" xlink:href="#T"/><use transform="matrix(0.010850694444444444,0,0,0.010850694444444444,14.192708333333332,0)" xlink:href="#E"/><use transform="matrix(0.010850694444444444,0,0,0.010850694444444444,22.189670138888886,0)" xlink:href="#F"/><use transform="matrix(0.010850694444444444,0,0,0.010850694444444444,35.514322916666664,0)" xlink:href="#ax"/><use transform="matrix(0.010850694444444444,0,0,0.010850694444444444,54.98046875,0)" xlink:href="#K"/><use transform="matrix(0.010850694444444444,0,0,0.010850694444444444,67.93619791666667,0)" xlink:href="#J"/><use transform="matrix(0.010850694444444444,0,0,0.010850694444444444,75.20616319444444,0)" xlink:href="#R"/><use transform="matrix(0.010850694444444444,0,0,0.010850694444444444,88.34635416666666,0)" xlink:href="#K"/><use transform="matrix(0.010850694444444444,0,0,0.010850694444444444,101.30208333333333,0)" xlink:href="#ab"/><use transform="matrix(0.010850694444444444,0,0,0.010850694444444444,114.44227430555556,0)" xlink:href="#aa"/></g><path d="M789 20c-398 0-667-293-667-764 0-473 273-766 655-766 315 0 558 198 612 487h-196c-61-191-204-311-415-311-262 0-471 207-471 590 0 380 208 588 482 588 249 0 420-165 425-427H828v-166h572v163c0 370-256 606-611 606" id="aI"/><g id="y"><use transform="matrix(0.010850694444444444,0,0,0.010850694444444444,0,0)" xlink:href="#aI"/><use transform="matrix(0.010850694444444444,0,0,0.010850694444444444,16.57986111111111,0)" xlink:href="#E"/><use transform="matrix(0.010850694444444444,0,0,0.010850694444444444,24.94574652777778,0)" xlink:href="#M"/><use transform="matrix(0.010850694444444444,0,0,0.010850694444444444,37.424045138888886,0)" xlink:href="#X"/><use transform="matrix(0.010850694444444444,0,0,0.010850694444444444,45.30164930555556,0)" xlink:href="#M"/><use transform="matrix(0.010850694444444444,0,0,0.010850694444444444,57.77994791666667,0)" xlink:href="#O"/><use transform="matrix(0.010850694444444444,0,0,0.010850694444444444,70.90928819444444,0)" xlink:href="#M"/></g><path d="M180 0v-1490h270l367 940c28 72 75 218 110 339 35-117 81-264 110-339l362-940h271V0h-187c2-448-5-837 7-1287-157 497-311 829-483 1287H842C666-458 514-784 354-1284c12 438 5 843 7 1284H180" id="aJ"/><path d="M180 0v-1490h190v1322h690V0H180" id="aK"/><path d="M409 0L70-1118h191c89 329 165 560 243 925 75-353 154-601 240-925h192c85 325 161 564 235 922 77-354 157-598 244-922h191L1267 0h-179c-86-307-176-590-250-913C763-588 675-308 588 0H409" id="aL"/><g id="z"><use transform="matrix(0.010850694444444444,0,0,0.010850694444444444,0,0)" xlink:href="#aJ"/><use transform="matrix(0.010850694444444444,0,0,0.010850694444444444,20.07378472222222,0)" xlink:href="#aK"/><use transform="matrix(0.010850694444444444,0,0,0.010850694444444444,32.638888888888886,0)" xlink:href="#X"/><use transform="matrix(0.010850694444444444,0,0,0.010850694444444444,40.86371527777777,0)" xlink:href="#av"/><use transform="matrix(0.010850694444444444,0,0,0.010850694444444444,46.24565972222221,0)" xlink:href="#F"/><use transform="matrix(0.010850694444444444,0,0,0.010850694444444444,59.16883680555555,0)" xlink:href="#aL"/></g><path d="M135 0v-1490h468l242 684c30 94 76 293 111 455 34-161 80-360 110-455l238-684h470V0h-307c0-447-3-765 11-1227-122 503-246 788-395 1227H826C676-435 552-717 427-1215c15 453 11 775 11 1215H135" id="aM"/><path d="M625 442c-280 0-454-114-503-274l258-72c28 63 97 128 243 128 153 0 246-69 246-216v-206h-23C805-108 717-16 536-16 284-16 81-191 81-561c0-378 208-571 456-571 188 0 280 113 321 202h13v-188h295V-9c0 303-226 451-541 451zm5-686c153 0 240-119 240-319 0-198-86-329-240-329-158 0-241 137-241 329 0 195 85 319 241 319" id="aN"/><g id="A"><use transform="matrix(0.013020833333333334,0,0,0.013020833333333334,0,0)" xlink:href="#aM"/><use transform="matrix(0.013020833333333334,0,0,0.013020833333333334,24.84375,0)" xlink:href="#ai"/><use transform="matrix(0.013020833333333334,0,0,0.013020833333333334,41.19791666666667,0)" xlink:href="#aj"/><use transform="matrix(0.013020833333333334,0,0,0.013020833333333334,57.79947916666667,0)" xlink:href="#aG"/><use transform="matrix(0.013020833333333334,0,0,0.013020833333333334,65.02604166666667,0)" xlink:href="#af"/><use transform="matrix(0.013020833333333334,0,0,0.013020833333333334,74.53125,0)" xlink:href="#ai"/><use transform="matrix(0.013020833333333334,0,0,0.013020833333333334,90.88541666666667,0)" xlink:href="#ah"/><use transform="matrix(0.013020833333333334,0,0,0.013020833333333334,101.94010416666667,0)" xlink:href="#aG"/><use transform="matrix(0.013020833333333334,0,0,0.013020833333333334,109.16666666666667,0)" xlink:href="#aj"/><use transform="matrix(0.013020833333333334,0,0,0.013020833333333334,125.76822916666667,0)" xlink:href="#aN"/></g><path d="M572 22C302 22 117-98 78-306l279-48c29 105 101 156 224 156 114 0 185-48 185-115 0-118-228-130-337-155-215-49-322-150-322-317 0-215 187-347 470-347 265 0 424 116 466 298l-266 47c-24-76-87-130-196-130-98 0-174 46-174 113 0 56 38 95 144 117l201 40c216 44 320 143 320 302 0 220-207 367-500 367" id="aO"/><g id="B"><use transform="matrix(0.013020833333333334,0,0,0.013020833333333334,0,0)" xlink:href="#al"/><use transform="matrix(0.013020833333333334,0,0,0.013020833333333334,17.4609375,0)" xlink:href="#am"/><use transform="matrix(0.013020833333333334,0,0,0.013020833333333334,33.34635416666667,0)" xlink:href="#ah"/><use transform="matrix(0.013020833333333334,0,0,0.013020833333333334,44.622395833333336,0)" xlink:href="#aH"/><use transform="matrix(0.013020833333333334,0,0,0.013020833333333334,60.61197916666667,0)" xlink:href="#aG"/><use transform="matrix(0.013020833333333334,0,0,0.013020833333333334,67.83854166666667,0)" xlink:href="#an"/><use transform="matrix(0.013020833333333334,0,0,0.013020833333333334,83.52864583333334,0)" xlink:href="#am"/><use transform="matrix(0.013020833333333334,0,0,0.013020833333333334,99.41406250000001,0)" xlink:href="#aO"/></g></defs></g></svg>