<svg xmlns="http://www.w3.org/2000/svg" xmlns:xlink="http://www.w3.org/1999/xlink" xmlns:lucid="lucid" width="721" height="163.42"><g transform="translate(-680 -517.5839165642017)" lucid:page-tab-id="0_0"><path d="M1060 600c0 44.18-35.82 80-80 80s-80-35.82-80-80 35.82-80 80-80 80 35.82 80 80z" stroke="#000" stroke-width="2" fill="#fff"/><path d="M981.93 596.5l9.1-49.4M981.94 596.4l-1.1 6" stroke="#00c2a8" stroke-width="6" fill="none"/><path d="M994.16 530.13l1.97 14.87-9.1-1.68z" stroke="#00c2a8" stroke-width="6" fill="#00c2a8"/><path d="M979.3 601.6l-35.36 36.64M979.25 601.65l4.22-4.37" stroke="#635dff" stroke-width="6" fill="none"/><path d="M931.95 650.67l6.57-13.5 6.67 6.45z" stroke="#635dff" stroke-width="6" fill="#635dff"/><path d="M984.14 598.25l45.44-19.67M984.2 598.22l-2.82 1.22" stroke="#e81313" stroke-width="6" fill="none"/><path d="M1045.42 571.72l-11.25 9.92-3.68-8.5z" stroke="#e81313" stroke-width="6" fill="#e81313"/><path d="M1400 600c0 44.18-35.82 80-80 80s-80-35.82-80-80 35.82-80 80-80 80 35.82 80 80z" stroke="#000" stroke-width="2" fill="#fff"/><path d="M1319.7 596.95l-28.55-42.64M1319.67 596.88l3.38 5.05" stroke="#00c2a8" stroke-width="6" fill="none"/><path d="M1281.55 539.96l11.8 9.27-7.72 5.16z" stroke="#00c2a8" stroke-width="6" fill="#00c2a8"/><path d="M1318.67 598.16l-47-22.28M1318.6 598.12l5.5 2.6" stroke="#635dff" stroke-width="6" fill="none"/><path d="M1256.07 568.5l14.87 1.9-3.97 8.38z" stroke="#635dff" stroke-width="6" fill="#635dff"/><path d="M1324.26 600.3l47.78 14.17M1324.33 600.32l-2.94-.88" stroke="#e81313" stroke-width="6" fill="none"/><path d="M1388.6 619.38l-15 .38 2.63-8.88z" stroke="#e81313" stroke-width="6" fill="#e81313"/><path d="M1073 593.2a6 6 0 0 1 6-6h124.95a6 6 0 0 0 6-6v-.8a2.3 2.3 0 0 1 4.02-1.54l15.02 16.68a6.67 6.67 0 0 1 0 8.92l-15.03 16.68a2.3 2.3 0 0 1-4.02-1.53v-.8a6 6 0 0 0-6-6H1079a6 6 0 0 1-6-6z" stroke="#000" stroke-width="2" fill="#f4d9ff"/><use xlink:href="#a" transform="matrix(1,0,0,1,1078,579.3948567708334) translate(36.409722222222214 27.72222222222222)"/><path d="M680 578.75a6 6 0 0 1 6-6h62.02a6 6 0 0 1 6 6v19.52a6 6 0 0 1-6 6H686a6 6 0 0 1-6-6z" fill="none"/><use xlink:href="#b" transform="matrix(1,0,0,1,685,577.7522526041666) translate(0 17.46701388888889)"/><path d="M680 604.65a6 6 0 0 1 6-6h128.57a6 6 0 0 1 6 6v19.52a6 6 0 0 1-6 6H686a6 6 0 0 1-6-6z" fill="none"/><use xlink:href="#c" transform="matrix(1,0,0,1,685,603.6502734375) translate(0 17.46701388888889)"/><use xlink:href="#d" transform="matrix(1,0,0,1,685,603.6502734375) translate(73.515625 17.46701388888889)"/><path d="M680 629.35a6 6 0 0 1 6-6h178.98a6 6 0 0 1 6 6v19.52a6 6 0 0 1-6 6H686a6 6 0 0 1-6-6z" fill="none"/><use xlink:href="#e" transform="matrix(1,0,0,1,685.0000000000001,628.3527473958334) translate(0 17.46701388888889)"/><use xlink:href="#f" transform="matrix(1,0,0,1,685.0000000000001,628.3527473958334) translate(82.16145833333333 17.46701388888889)"/><path d="M680 551.13a6 6 0 0 1 6-6h140.82a6 6 0 0 1 6 6v24.9a6 6 0 0 1-6 6H686a6 6 0 0 1-6-6z" fill="none"/><g><use xlink:href="#g" transform="matrix(1,0,0,1,685,550.1268359375001) translate(0 21.58376736111111)"/></g><defs><path d="M75-1237v-253h1217v253H837V0H531v-1237H75" id="h"/><path d="M128 0v-1118h290v195h12c54-169 184-238 367-200v268c-27-8-86-15-130-15-138 0-239 95-239 234V0H128" id="i"/><path d="M440 22C227 22 68-92 68-313c0-250 202-322 422-343 195-21 271-24 271-105 0-95-63-149-175-149-116 0-187 57-211 129l-275-46c57-194 237-305 487-305 240 0 474 108 474 379V0H777v-155h-10C713-51 605 22 440 22zm85-211c140 0 238-93 238-211v-121c-37 26-156 42-222 51-111 16-185 59-185 149 0 87 70 132 169 132" id="j"/><path d="M128 0v-1118h300V0H128zm150-1264c-91 0-165-68-165-154 0-85 74-154 165-154 90 0 165 69 165 154 0 86-75 154-165 154" id="k"/><path d="M428-647V0H128v-1118h283l4 231c63-156 176-245 348-245 232 0 384 159 384 421V0H847v-659c0-139-76-222-202-222-128 0-217 86-217 234" id="l"/><path d="M625 442c-280 0-454-114-503-274l258-72c28 63 97 128 243 128 153 0 246-69 246-216v-206h-23C805-108 717-16 536-16 284-16 81-191 81-561c0-378 208-571 456-571 188 0 280 113 321 202h13v-188h295V-9c0 303-226 451-541 451zm5-686c153 0 240-119 240-319 0-198-86-329-240-329-158 0-241 137-241 329 0 195 85 319 241 319" id="m"/><g id="a"><use transform="matrix(0.008680555555555556,0,0,0.008680555555555556,0,0)" xlink:href="#h"/><use transform="matrix(0.008680555555555556,0,0,0.008680555555555556,10.859375,0)" xlink:href="#i"/><use transform="matrix(0.008680555555555556,0,0,0.008680555555555556,17.85590277777778,0)" xlink:href="#j"/><use transform="matrix(0.008680555555555556,0,0,0.008680555555555556,28.177083333333336,0)" xlink:href="#k"/><use transform="matrix(0.008680555555555556,0,0,0.008680555555555556,32.99479166666667,0)" xlink:href="#l"/><use transform="matrix(0.008680555555555556,0,0,0.008680555555555556,44.06250000000001,0)" xlink:href="#k"/><use transform="matrix(0.008680555555555556,0,0,0.008680555555555556,48.88020833333334,0)" xlink:href="#l"/><use transform="matrix(0.008680555555555556,0,0,0.008680555555555556,59.94791666666668,0)" xlink:href="#m"/></g><path fill="#00c2a8" d="M49 0l509-1490h400L1480 0h-339l-115-346H497L386 0H49zm524-585h374c-75-213-124-402-192-666-66 268-110 453-182 666" id="n"/><path fill="#00c2a8" d="M428-647V0H128v-1118h283l4 231c63-156 176-245 348-245 232 0 384 159 384 421V0H847v-659c0-139-76-222-202-222-128 0-217 86-217 234" id="o"/><path fill="#00c2a8" d="M628 22C291 22 81-210 81-554c0-346 210-578 547-578 265 0 455 142 497 372l-279 52c-25-116-99-188-215-188-160 0-244 139-244 341 0 200 84 341 244 341 116 0 193-74 217-195l279 51C1085-123 896 22 628 22" id="p"/><path fill="#00c2a8" d="M428-647V0H128v-1490h294v586c65-146 175-228 341-228 232 0 385 159 385 421V0H847v-659c0-139-76-222-202-222-128 0-217 86-217 234" id="q"/><path fill="#00c2a8" d="M628 22C291 22 81-210 81-554c0-346 210-578 547-578 336 0 547 232 547 578 0 344-211 576-547 576zm0-236c160 0 242-146 242-341 0-197-82-341-242-341S387-753 387-555c0 195 81 341 241 341" id="r"/><path fill="#00c2a8" d="M128 0v-1118h290v195h12c54-169 184-238 367-200v268c-27-8-86-15-130-15-138 0-239 95-239 234V0H128" id="s"/><g id="b"><use transform="matrix(0.008680555555555556,0,0,0.008680555555555556,0,0)" xlink:href="#n"/><use transform="matrix(0.008680555555555556,0,0,0.008680555555555556,13.272569444444445,0)" xlink:href="#o"/><use transform="matrix(0.008680555555555556,0,0,0.008680555555555556,24.34027777777778,0)" xlink:href="#p"/><use transform="matrix(0.008680555555555556,0,0,0.008680555555555556,34.80034722222222,0)" xlink:href="#q"/><use transform="matrix(0.008680555555555556,0,0,0.008680555555555556,45.86805555555556,0)" xlink:href="#r"/><use transform="matrix(0.008680555555555556,0,0,0.008680555555555556,56.770833333333336,0)" xlink:href="#s"/></g><path fill="#635dff" d="M135 0v-1490h581c339 0 533 210 533 503 0 295-197 500-540 500H440V0H135zm305-733h220c186 0 274-104 274-254s-88-251-275-251H440v505" id="t"/><path fill="#635dff" d="M628 22C291 22 81-210 81-554c0-346 210-578 547-578 336 0 547 232 547 578 0 344-211 576-547 576zm0-236c160 0 242-146 242-341 0-197-82-341-242-341S387-753 387-555c0 195 81 341 241 341" id="u"/><path fill="#635dff" d="M572 22C302 22 117-98 78-306l279-48c29 105 101 156 224 156 114 0 185-48 185-115 0-118-228-130-337-155-215-49-322-150-322-317 0-215 187-347 470-347 265 0 424 116 466 298l-266 47c-24-76-87-130-196-130-98 0-174 46-174 113 0 56 38 95 144 117l201 40c216 44 320 143 320 302 0 220-207 367-500 367" id="v"/><path fill="#635dff" d="M128 0v-1118h300V0H128zm150-1264c-91 0-165-68-165-154 0-85 74-154 165-154 90 0 165 69 165 154 0 86-75 154-165 154" id="w"/><path fill="#635dff" d="M683-1118v229H474v562c0 71 29 104 102 104 23 0 73-7 95-13l43 225C647 9 580 16 520 16 296 16 174-96 174-301v-588H20v-229h154v-266h300v266h209" id="x"/><path fill="#635dff" d="M443 0L31-1118h319c90 293 199 572 268 885 66-313 175-593 264-885h315L784 0H443" id="y"/><path fill="#635dff" d="M633 22C291 22 81-200 81-553c0-345 210-579 537-579 292 0 525 185 525 567v84H378c7 183 109 277 260 277 105 0 184-46 216-132l272 51C1071-99 893 22 633 22zM380-669h474c-15-146-94-237-233-237-143 0-229 99-241 237" id="z"/><g id="c"><use transform="matrix(0.008680555555555556,0,0,0.008680555555555556,0,0)" xlink:href="#t"/><use transform="matrix(0.008680555555555556,0,0,0.008680555555555556,11.371527777777779,0)" xlink:href="#u"/><use transform="matrix(0.008680555555555556,0,0,0.008680555555555556,22.274305555555557,0)" xlink:href="#v"/><use transform="matrix(0.008680555555555556,0,0,0.008680555555555556,32.23090277777778,0)" xlink:href="#w"/><use transform="matrix(0.008680555555555556,0,0,0.008680555555555556,37.048611111111114,0)" xlink:href="#x"/><use transform="matrix(0.008680555555555556,0,0,0.008680555555555556,43.55902777777778,0)" xlink:href="#w"/><use transform="matrix(0.008680555555555556,0,0,0.008680555555555556,48.376736111111114,0)" xlink:href="#y"/><use transform="matrix(0.008680555555555556,0,0,0.008680555555555556,58.71527777777778,0)" xlink:href="#z"/></g><path fill="#635dff" d="M169-607c0-330 107-732 258-974h279c-145 311-231 674-231 974 0 262 67 512 231 886H427C258-1 169-307 169-607" id="A"/><path fill="#635dff" d="M628 22C291 22 81-210 81-554c0-346 210-578 547-578 265 0 455 142 497 372l-279 52c-25-116-99-188-215-188-160 0-244 139-244 341 0 200 84 341 244 341 116 0 193-74 217-195l279 51C1085-123 896 22 628 22" id="B"/><path fill="#635dff" d="M537 19C279 19 81-185 81-557c0-382 206-575 454-575 190 0 278 113 318 202h10v-560h300V0H868v-179h-15C812-89 719 19 537 19zm92-241c153 0 240-134 240-336 0-203-86-334-240-334-158 0-240 138-240 334 0 197 84 336 240 336" id="C"/><path fill="#635dff" d="M67 279c166-379 230-627 230-886 0-300-86-663-230-974h278c151 241 258 644 258 974 0 302-90 608-258 886H67" id="D"/><g id="d"><use transform="matrix(0.008680555555555556,0,0,0.008680555555555556,0,0)" xlink:href="#A"/><use transform="matrix(0.008680555555555556,0,0,0.008680555555555556,6.6059027777777795,0)" xlink:href="#B"/><use transform="matrix(0.008680555555555556,0,0,0.008680555555555556,17.06597222222222,0)" xlink:href="#w"/><use transform="matrix(0.008680555555555556,0,0,0.008680555555555556,21.883680555555557,0)" xlink:href="#x"/><use transform="matrix(0.008680555555555556,0,0,0.008680555555555556,28.22048611111111,0)" xlink:href="#z"/><use transform="matrix(0.008680555555555556,0,0,0.008680555555555556,38.81076388888889,0)" xlink:href="#C"/><use transform="matrix(0.008680555555555556,0,0,0.008680555555555556,50.33854166666667,0)" xlink:href="#D"/></g><path fill="#e81313" d="M135 0v-1490h340l471 754c59 97 122 210 187 365-32-387-14-721-19-1119h312V0h-341C855-382 627-689 427-1113c32 420 16 695 20 1113H135" id="E"/><path fill="#e81313" d="M633 22C291 22 81-200 81-553c0-345 210-579 537-579 292 0 525 185 525 567v84H378c7 183 109 277 260 277 105 0 184-46 216-132l272 51C1071-99 893 22 633 22zM380-669h474c-15-146-94-237-233-237-143 0-229 99-241 237" id="F"/><path fill="#e81313" d="M625 442c-280 0-454-114-503-274l258-72c28 63 97 128 243 128 153 0 246-69 246-216v-206h-23C805-108 717-16 536-16 284-16 81-191 81-561c0-378 208-571 456-571 188 0 280 113 321 202h13v-188h295V-9c0 303-226 451-541 451zm5-686c153 0 240-119 240-319 0-198-86-329-240-329-158 0-241 137-241 329 0 195 85 319 241 319" id="G"/><path fill="#e81313" d="M440 22C227 22 68-92 68-313c0-250 202-322 422-343 195-21 271-24 271-105 0-95-63-149-175-149-116 0-187 57-211 129l-275-46c57-194 237-305 487-305 240 0 474 108 474 379V0H777v-155h-10C713-51 605 22 440 22zm85-211c140 0 238-93 238-211v-121c-37 26-156 42-222 51-111 16-185 59-185 149 0 87 70 132 169 132" id="H"/><path fill="#e81313" d="M683-1118v229H474v562c0 71 29 104 102 104 23 0 73-7 95-13l43 225C647 9 580 16 520 16 296 16 174-96 174-301v-588H20v-229h154v-266h300v266h209" id="I"/><path fill="#e81313" d="M128 0v-1118h300V0H128zm150-1264c-91 0-165-68-165-154 0-85 74-154 165-154 90 0 165 69 165 154 0 86-75 154-165 154" id="J"/><path fill="#e81313" d="M443 0L31-1118h319c90 293 199 572 268 885 66-313 175-593 264-885h315L784 0H443" id="K"/><g id="e"><use transform="matrix(0.008680555555555556,0,0,0.008680555555555556,0,0)" xlink:href="#E"/><use transform="matrix(0.008680555555555556,0,0,0.008680555555555556,13.550347222222223,0)" xlink:href="#F"/><use transform="matrix(0.008680555555555556,0,0,0.008680555555555556,24.140625,0)" xlink:href="#G"/><use transform="matrix(0.008680555555555556,0,0,0.008680555555555556,35.373263888888886,0)" xlink:href="#H"/><use transform="matrix(0.008680555555555556,0,0,0.008680555555555556,45.69444444444445,0)" xlink:href="#I"/><use transform="matrix(0.008680555555555556,0,0,0.008680555555555556,52.20486111111111,0)" xlink:href="#J"/><use transform="matrix(0.008680555555555556,0,0,0.008680555555555556,57.022569444444436,0)" xlink:href="#K"/><use transform="matrix(0.008680555555555556,0,0,0.008680555555555556,67.36111111111111,0)" xlink:href="#F"/></g><path fill="#e81313" d="M169-607c0-330 107-732 258-974h279c-145 311-231 674-231 974 0 262 67 512 231 886H427C258-1 169-307 169-607" id="L"/><path fill="#e81313" d="M428-647V0H128v-1118h283l4 231c63-156 176-245 348-245 232 0 384 159 384 421V0H847v-659c0-139-76-222-202-222-128 0-217 86-217 234" id="M"/><path fill="#e81313" d="M628 22C291 22 81-210 81-554c0-346 210-578 547-578 336 0 547 232 547 578 0 344-211 576-547 576zm0-236c160 0 242-146 242-341 0-197-82-341-242-341S387-753 387-555c0 195 81 341 241 341" id="N"/><path fill="#e81313" d="M818-733v240H140v-240h678" id="O"/><path fill="#e81313" d="M628 22C291 22 81-210 81-554c0-346 210-578 547-578 265 0 455 142 497 372l-279 52c-25-116-99-188-215-188-160 0-244 139-244 341 0 200 84 341 244 341 116 0 193-74 217-195l279 51C1085-123 896 22 628 22" id="P"/><path fill="#e81313" d="M537 19C279 19 81-185 81-557c0-382 206-575 454-575 190 0 278 113 318 202h10v-560h300V0H868v-179h-15C812-89 719 19 537 19zm92-241c153 0 240-134 240-336 0-203-86-334-240-334-158 0-240 138-240 334 0 197 84 336 240 336" id="Q"/><path fill="#e81313" d="M67 279c166-379 230-627 230-886 0-300-86-663-230-974h278c151 241 258 644 258 974 0 302-90 608-258 886H67" id="R"/><g id="f"><use transform="matrix(0.008680555555555556,0,0,0.008680555555555556,0,0)" xlink:href="#L"/><use transform="matrix(0.008680555555555556,0,0,0.008680555555555556,7.022569444444445,0)" xlink:href="#M"/><use transform="matrix(0.008680555555555556,0,0,0.008680555555555556,18.09027777777778,0)" xlink:href="#N"/><use transform="matrix(0.008680555555555556,0,0,0.008680555555555556,28.993055555555557,0)" xlink:href="#M"/><use transform="matrix(0.008680555555555556,0,0,0.008680555555555556,40.06076388888889,0)" xlink:href="#O"/><use transform="matrix(0.008680555555555556,0,0,0.008680555555555556,48.376736111111114,0)" xlink:href="#P"/><use transform="matrix(0.008680555555555556,0,0,0.008680555555555556,58.83680555555556,0)" xlink:href="#J"/><use transform="matrix(0.008680555555555556,0,0,0.008680555555555556,63.65451388888889,0)" xlink:href="#I"/><use transform="matrix(0.008680555555555556,0,0,0.008680555555555556,69.99131944444444,0)" xlink:href="#F"/><use transform="matrix(0.008680555555555556,0,0,0.008680555555555556,80.58159722222223,0)" xlink:href="#Q"/><use transform="matrix(0.008680555555555556,0,0,0.008680555555555556,92.10937500000001,0)" xlink:href="#R"/></g><path d="M135 0v-1490h997v253H440v360h640v249H440v375h694V0H135" id="S"/><path d="M128 0v-1118h278l12 217c60-163 185-234 319-234 143 0 236 81 288 251 63-172 205-251 359-251 205 0 357 138 357 381V0h-301v-697c0-126-76-187-177-187-114 0-184 79-184 196V0H789v-705c0-109-72-179-174-179-106 0-187 74-187 208V0H128" id="T"/><path d="M754 19C571 19 479-89 437-179h-14V0H128v-1490h300v560h9c41-89 129-202 319-202 248 0 453 193 453 575 0 372-197 576-455 576zm-92-241c156 0 240-139 240-336 0-196-83-334-240-334-154 0-241 131-241 334 0 202 88 336 241 336" id="U"/><path d="M633 22C291 22 81-200 81-553c0-345 210-579 537-579 292 0 525 185 525 567v84H378c7 183 109 277 260 277 105 0 184-46 216-132l272 51C1071-99 893 22 633 22zM380-669h474c-15-146-94-237-233-237-143 0-229 99-241 237" id="V"/><path d="M537 19C279 19 81-185 81-557c0-382 206-575 454-575 190 0 278 113 318 202h10v-560h300V0H868v-179h-15C812-89 719 19 537 19zm92-241c153 0 240-134 240-336 0-203-86-334-240-334-158 0-240 138-240 334 0 197 84 336 240 336" id="W"/><path d="M572 22C302 22 117-98 78-306l279-48c29 105 101 156 224 156 114 0 185-48 185-115 0-118-228-130-337-155-215-49-322-150-322-317 0-215 187-347 470-347 265 0 424 116 466 298l-266 47c-24-76-87-130-196-130-98 0-174 46-174 113 0 56 38 95 144 117l201 40c216 44 320 143 320 302 0 220-207 367-500 367" id="X"/><path d="M342-723c-98 0-173-75-173-172s75-172 173-172 173 75 173 172-75 172-173 172zm0 742c-98 0-173-75-173-172s75-172 173-172 173 75 173 172S440 19 342 19" id="Y"/><g id="g"><use transform="matrix(0.010850694444444444,0,0,0.010850694444444444,0,0)" xlink:href="#S"/><use transform="matrix(0.010850694444444444,0,0,0.010850694444444444,13.49826388888889,0)" xlink:href="#T"/><use transform="matrix(0.010850694444444444,0,0,0.010850694444444444,33.77821180555556,0)" xlink:href="#U"/><use transform="matrix(0.010850694444444444,0,0,0.010850694444444444,47.78645833333333,0)" xlink:href="#V"/><use transform="matrix(0.010850694444444444,0,0,0.010850694444444444,61.02430555555555,0)" xlink:href="#W"/><use transform="matrix(0.010850694444444444,0,0,0.010850694444444444,75.03255208333333,0)" xlink:href="#W"/><use transform="matrix(0.010850694444444444,0,0,0.010850694444444444,89.04079861111111,0)" xlink:href="#k"/><use transform="matrix(0.010850694444444444,0,0,0.010850694444444444,95.06293402777777,0)" xlink:href="#l"/><use transform="matrix(0.010850694444444444,0,0,0.010850694444444444,108.89756944444444,0)" xlink:href="#m"/><use transform="matrix(0.010850694444444444,0,0,0.010850694444444444,122.93836805555556,0)" xlink:href="#X"/><use transform="matrix(0.010850694444444444,0,0,0.010850694444444444,135.38411458333334,0)" xlink:href="#Y"/></g></defs></g></svg>